G04*
G04 #@! TF.GenerationSoftware,Altium Limited,Altium Designer,23.8.1 (32)*
G04*
G04 Layer_Color=16711935*
%FSLAX25Y25*%
%MOIN*%
G70*
G04*
G04 #@! TF.SameCoordinates,45B655E0-0CFB-48ED-97EE-2201F2EA58C2*
G04*
G04*
G04 #@! TF.FilePolarity,Negative*
G04*
G01*
G75*
%ADD12R,0.06706X0.06706*%
%ADD13C,0.06706*%
%ADD14C,0.10249*%
%ADD15C,0.06896*%
%ADD16R,0.06896X0.06896*%
%ADD17O,0.07099X0.10642*%
%ADD18C,0.09855*%
%ADD19R,0.07493X0.07493*%
G04:AMPARAMS|DCode=20|XSize=126.11mil|YSize=153.67mil|CornerRadius=33.53mil|HoleSize=0mil|Usage=FLASHONLY|Rotation=180.000|XOffset=0mil|YOffset=0mil|HoleType=Round|Shape=RoundedRectangle|*
%AMROUNDEDRECTD20*
21,1,0.12611,0.08661,0,0,180.0*
21,1,0.05906,0.15367,0,0,180.0*
1,1,0.06706,-0.02953,0.04331*
1,1,0.06706,0.02953,0.04331*
1,1,0.06706,0.02953,-0.04331*
1,1,0.06706,-0.02953,-0.04331*
%
%ADD20ROUNDEDRECTD20*%
%ADD52R,0.05524X0.14580*%
%ADD53R,0.06587X0.05367*%
%ADD54O,0.07887X0.03556*%
%ADD55O,0.07296X0.02690*%
%ADD56O,0.02690X0.07296*%
%ADD57R,0.04658X0.04461*%
%ADD58R,0.05721X0.03556*%
%ADD59R,0.40564X0.40170*%
%ADD60R,0.06706X0.12611*%
%ADD61R,0.05131X0.03162*%
%ADD62R,0.04461X0.04658*%
%ADD63O,0.03556X0.07887*%
G04:AMPARAMS|DCode=64|XSize=74.93mil|YSize=141.86mil|CornerRadius=20.73mil|HoleSize=0mil|Usage=FLASHONLY|Rotation=90.000|XOffset=0mil|YOffset=0mil|HoleType=Round|Shape=RoundedRectangle|*
%AMROUNDEDRECTD64*
21,1,0.07493,0.10039,0,0,90.0*
21,1,0.03347,0.14186,0,0,90.0*
1,1,0.04146,0.05020,0.01673*
1,1,0.04146,0.05020,-0.01673*
1,1,0.04146,-0.05020,-0.01673*
1,1,0.04146,-0.05020,0.01673*
%
%ADD64ROUNDEDRECTD64*%
%ADD65R,0.04737X0.05721*%
%ADD66R,0.07887X0.05249*%
%ADD67R,0.03556X0.07493*%
%ADD68R,0.05721X0.04737*%
D12*
X173800Y101600D02*
D03*
D13*
X183800D02*
D03*
X193800D02*
D03*
X203800D02*
D03*
X213800D02*
D03*
D14*
X20046Y61230D02*
D03*
X31136D02*
D03*
X34561Y71791D02*
D03*
X25591Y78367D02*
D03*
X16620Y71791D02*
D03*
D15*
X128244Y18340D02*
D03*
X118244D02*
D03*
X138295Y18244D02*
D03*
X108244Y18340D02*
D03*
X148295Y18244D02*
D03*
X158295D02*
D03*
D16*
X168295Y18254D02*
D03*
D17*
X253937Y97441D02*
D03*
X234252D02*
D03*
X244094D02*
D03*
D18*
X253937Y40354D02*
D03*
X234252D02*
D03*
D19*
X9206Y8443D02*
D03*
D20*
X223095Y67898D02*
D03*
X265094D02*
D03*
D52*
X59200Y127631D02*
D03*
Y106608D02*
D03*
X134500D02*
D03*
Y127631D02*
D03*
D53*
X38200Y122004D02*
D03*
Y114996D02*
D03*
X27400Y114796D02*
D03*
Y121804D02*
D03*
D54*
X72936Y30728D02*
D03*
Y15728D02*
D03*
X52464Y25728D02*
D03*
Y20728D02*
D03*
Y15728D02*
D03*
X72936Y25728D02*
D03*
Y20728D02*
D03*
X52464Y30728D02*
D03*
X250636Y116468D02*
D03*
Y121468D02*
D03*
Y126468D02*
D03*
X230164Y121468D02*
D03*
Y116468D02*
D03*
Y111468D02*
D03*
X250636D02*
D03*
X230164Y126468D02*
D03*
D55*
X154232Y64342D02*
D03*
Y61192D02*
D03*
Y58043D02*
D03*
Y54893D02*
D03*
Y51743D02*
D03*
Y48594D02*
D03*
Y45444D02*
D03*
Y42294D02*
D03*
X121358D02*
D03*
Y45444D02*
D03*
Y48594D02*
D03*
Y51743D02*
D03*
Y54893D02*
D03*
Y58043D02*
D03*
Y61192D02*
D03*
Y64342D02*
D03*
D56*
X148819Y36881D02*
D03*
X145669D02*
D03*
X142520D02*
D03*
X139370D02*
D03*
X136221D02*
D03*
X133071D02*
D03*
X129921D02*
D03*
X126772D02*
D03*
Y69755D02*
D03*
X129921D02*
D03*
X133071D02*
D03*
X136221D02*
D03*
X139370D02*
D03*
X142520D02*
D03*
X145669D02*
D03*
X148819D02*
D03*
D57*
X234252Y85831D02*
D03*
Y79769D02*
D03*
X173433Y120422D02*
D03*
Y126485D02*
D03*
X165351Y120422D02*
D03*
Y126485D02*
D03*
X207518Y120405D02*
D03*
Y126468D02*
D03*
X199820Y126485D02*
D03*
Y120422D02*
D03*
X253937Y85831D02*
D03*
Y79769D02*
D03*
X157516Y126532D02*
D03*
Y120468D02*
D03*
X253937Y50968D02*
D03*
Y57032D02*
D03*
X145729Y86906D02*
D03*
Y80844D02*
D03*
X153602Y86906D02*
D03*
Y80844D02*
D03*
X161474D02*
D03*
Y86906D02*
D03*
X169346Y86906D02*
D03*
Y80844D02*
D03*
X109112Y45087D02*
D03*
Y51150D02*
D03*
X22500Y9769D02*
D03*
Y15832D02*
D03*
X92286Y32532D02*
D03*
Y26469D02*
D03*
X84386Y32532D02*
D03*
Y26469D02*
D03*
X83481Y45087D02*
D03*
Y51150D02*
D03*
X22491Y24665D02*
D03*
Y30728D02*
D03*
X126772Y80844D02*
D03*
Y86906D02*
D03*
X33048Y30728D02*
D03*
X220314Y126468D02*
D03*
X41200Y30728D02*
D03*
X204300Y26686D02*
D03*
Y20624D02*
D03*
X212800Y20624D02*
D03*
X41200Y24665D02*
D03*
Y15728D02*
D03*
X33048Y24665D02*
D03*
X220314Y120405D02*
D03*
X41200Y9665D02*
D03*
X212800Y26686D02*
D03*
D58*
X175095Y43262D02*
D03*
X165253Y47002D02*
D03*
Y39521D02*
D03*
X91124Y48118D02*
D03*
X100967Y44378D02*
D03*
Y51859D02*
D03*
X230837Y23655D02*
D03*
X220994Y19915D02*
D03*
Y27395D02*
D03*
D59*
X96800Y88230D02*
D03*
D60*
X106800Y127600D02*
D03*
X86800D02*
D03*
D61*
X181011Y119713D02*
D03*
Y123453D02*
D03*
Y127194D02*
D03*
X192034D02*
D03*
Y119713D02*
D03*
D62*
X266906Y126407D02*
D03*
X260843D02*
D03*
X260820Y118674D02*
D03*
X266883D02*
D03*
X65469Y91100D02*
D03*
X59405D02*
D03*
X140313Y8337D02*
D03*
X146376D02*
D03*
X109211Y59602D02*
D03*
X103148D02*
D03*
X90351Y18260D02*
D03*
X84288D02*
D03*
X169032Y32400D02*
D03*
X175095D02*
D03*
X165253Y54893D02*
D03*
X158334Y8337D02*
D03*
X72732Y7928D02*
D03*
X128093Y8337D02*
D03*
X58531Y7928D02*
D03*
X66668D02*
D03*
X52469D02*
D03*
X164398Y8337D02*
D03*
X171316Y54893D02*
D03*
X122030Y8337D02*
D03*
D63*
X65168Y61230D02*
D03*
X60168D02*
D03*
X55168D02*
D03*
X50169D02*
D03*
X65168Y81702D02*
D03*
X60168D02*
D03*
X55168D02*
D03*
X50169D02*
D03*
D64*
X12500Y127235D02*
D03*
Y113300D02*
D03*
D65*
X241436Y23655D02*
D03*
Y12041D02*
D03*
D66*
X9206Y33766D02*
D03*
Y22034D02*
D03*
D67*
X252422Y8793D02*
D03*
Y26903D02*
D03*
X266201Y8793D02*
D03*
D68*
X84404Y7928D02*
D03*
X96018D02*
D03*
M02*
