G04*
G04 #@! TF.GenerationSoftware,Altium Limited,Altium Designer,23.8.1 (32)*
G04*
G04 Layer_Color=16711935*
%FSLAX25Y25*%
%MOIN*%
G70*
G04*
G04 #@! TF.SameCoordinates,7219C3B3-8FC9-4B81-83B7-D13F04F5FDA5*
G04*
G04*
G04 #@! TF.FilePolarity,Negative*
G04*
G01*
G75*
%ADD12C,0.06706*%
%ADD13R,0.06706X0.06706*%
%ADD14C,0.09855*%
%ADD15C,0.06896*%
%ADD16R,0.06896X0.06896*%
%ADD17O,0.07099X0.10642*%
%ADD18R,0.07493X0.07493*%
G04:AMPARAMS|DCode=19|XSize=126.11mil|YSize=153.67mil|CornerRadius=33.53mil|HoleSize=0mil|Usage=FLASHONLY|Rotation=180.000|XOffset=0mil|YOffset=0mil|HoleType=Round|Shape=RoundedRectangle|*
%AMROUNDEDRECTD19*
21,1,0.12611,0.08661,0,0,180.0*
21,1,0.05906,0.15367,0,0,180.0*
1,1,0.06706,-0.02953,0.04331*
1,1,0.06706,0.02953,0.04331*
1,1,0.06706,0.02953,-0.04331*
1,1,0.06706,-0.02953,-0.04331*
%
%ADD19ROUNDEDRECTD19*%
%ADD57R,0.14580X0.05524*%
%ADD58R,0.07887X0.05249*%
%ADD59O,0.02690X0.07296*%
%ADD60O,0.07296X0.02690*%
%ADD61R,0.05367X0.06587*%
%ADD62R,0.05721X0.04737*%
%ADD63R,0.09461X0.04737*%
%ADD64R,0.09461X0.14580*%
%ADD65R,0.26390X0.24422*%
%ADD66R,0.09461X0.05524*%
%ADD67R,0.04461X0.04658*%
%ADD68R,0.04658X0.04461*%
%ADD69R,0.05131X0.03162*%
%ADD70R,0.09461X0.10446*%
%ADD71R,0.03556X0.07493*%
%ADD72R,0.03556X0.02375*%
%ADD73R,0.05721X0.03556*%
%ADD74R,0.04737X0.05721*%
%ADD75R,0.03556X0.07493*%
%ADD76O,0.07887X0.03556*%
G04:AMPARAMS|DCode=77|XSize=74.93mil|YSize=141.86mil|CornerRadius=20.73mil|HoleSize=0mil|Usage=FLASHONLY|Rotation=270.000|XOffset=0mil|YOffset=0mil|HoleType=Round|Shape=RoundedRectangle|*
%AMROUNDEDRECTD77*
21,1,0.07493,0.10039,0,0,270.0*
21,1,0.03347,0.14186,0,0,270.0*
1,1,0.04146,-0.05020,-0.01673*
1,1,0.04146,-0.05020,0.01673*
1,1,0.04146,0.05020,0.01673*
1,1,0.04146,0.05020,-0.01673*
%
%ADD77ROUNDEDRECTD77*%
D12*
X62900Y125000D02*
D03*
Y115000D02*
D03*
Y105000D02*
D03*
Y95000D02*
D03*
D13*
Y85000D02*
D03*
D14*
X31136Y61230D02*
D03*
X34561Y71791D02*
D03*
X25591Y78367D02*
D03*
X16620Y71791D02*
D03*
X20046Y61230D02*
D03*
X253937Y40354D02*
D03*
X234252D02*
D03*
D15*
X128244Y18340D02*
D03*
X118244D02*
D03*
X138295Y18244D02*
D03*
X108244Y18340D02*
D03*
X148295Y18244D02*
D03*
X158295D02*
D03*
D16*
X168295Y18254D02*
D03*
D17*
X253937Y97441D02*
D03*
X234252D02*
D03*
X244094D02*
D03*
D18*
X7706Y8443D02*
D03*
D19*
X223095Y67898D02*
D03*
X265094D02*
D03*
D57*
X224491Y119529D02*
D03*
X245515D02*
D03*
X184211Y85702D02*
D03*
X205234D02*
D03*
X100346Y119529D02*
D03*
X79322D02*
D03*
D58*
X7706Y33766D02*
D03*
Y22034D02*
D03*
D59*
X148819Y71555D02*
D03*
X145669D02*
D03*
X142520D02*
D03*
X139370D02*
D03*
X136221D02*
D03*
X133071D02*
D03*
X129921D02*
D03*
X126772D02*
D03*
Y38681D02*
D03*
X129921D02*
D03*
X133071D02*
D03*
X136221D02*
D03*
X139370D02*
D03*
X142520D02*
D03*
X145669D02*
D03*
X148819D02*
D03*
D60*
X121358Y66142D02*
D03*
Y62992D02*
D03*
Y59842D02*
D03*
Y56693D02*
D03*
Y53543D02*
D03*
Y50394D02*
D03*
Y47244D02*
D03*
Y44094D02*
D03*
X154232D02*
D03*
Y47244D02*
D03*
Y50394D02*
D03*
Y53543D02*
D03*
Y56693D02*
D03*
Y59842D02*
D03*
Y62992D02*
D03*
Y66142D02*
D03*
D61*
X141287Y99400D02*
D03*
X148295D02*
D03*
X104549Y79490D02*
D03*
X97541D02*
D03*
D62*
X161474Y99400D02*
D03*
X173088D02*
D03*
X90832Y11269D02*
D03*
X79217D02*
D03*
D63*
X148210Y128584D02*
D03*
Y119529D02*
D03*
Y110474D02*
D03*
D64*
X124588Y119529D02*
D03*
D65*
X173423Y119529D02*
D03*
D66*
X200982Y128826D02*
D03*
X200966Y110233D02*
D03*
D67*
X62353Y54329D02*
D03*
X68416D02*
D03*
X10595Y98500D02*
D03*
X16658D02*
D03*
X106764Y30510D02*
D03*
X100701D02*
D03*
X103880Y70454D02*
D03*
X97817D02*
D03*
X86588Y62430D02*
D03*
X80525D02*
D03*
X86588Y70478D02*
D03*
X80525D02*
D03*
X48507Y100730D02*
D03*
X42443D02*
D03*
X42443Y130100D02*
D03*
X48507D02*
D03*
X80525Y54382D02*
D03*
X86588D02*
D03*
X16658Y130103D02*
D03*
X42443Y122296D02*
D03*
Y114492D02*
D03*
X158335Y8337D02*
D03*
X148295D02*
D03*
X90832Y19368D02*
D03*
X128093Y8337D02*
D03*
X142232D02*
D03*
X76631Y19368D02*
D03*
X84768D02*
D03*
X70569D02*
D03*
X10595Y130103D02*
D03*
X164398Y8337D02*
D03*
X122030D02*
D03*
X48507Y122296D02*
D03*
Y114492D02*
D03*
D68*
X108600Y44000D02*
D03*
Y37937D02*
D03*
X100700Y44000D02*
D03*
Y37937D02*
D03*
X126772Y82670D02*
D03*
Y88733D02*
D03*
X212400Y104168D02*
D03*
Y110231D02*
D03*
X51148Y42169D02*
D03*
X164397Y55932D02*
D03*
X59300Y42169D02*
D03*
X253937Y80136D02*
D03*
Y57432D02*
D03*
X234252Y80136D02*
D03*
X113700Y119532D02*
D03*
X212400Y127826D02*
D03*
X169377Y82670D02*
D03*
X145669Y82670D02*
D03*
X153572Y82670D02*
D03*
X206943Y26686D02*
D03*
X253937Y86199D02*
D03*
X234252D02*
D03*
X253937Y51368D02*
D03*
X169377Y88733D02*
D03*
X153572Y88733D02*
D03*
X161474D02*
D03*
X206943Y20623D02*
D03*
X215163Y20624D02*
D03*
X59300Y36105D02*
D03*
Y27169D02*
D03*
X212400Y121763D02*
D03*
X113700Y113469D02*
D03*
X145669Y88733D02*
D03*
X51148Y36105D02*
D03*
X164397Y49869D02*
D03*
X161474Y82670D02*
D03*
X59300Y21105D02*
D03*
X215163Y26686D02*
D03*
D69*
X95268Y62430D02*
D03*
Y54950D02*
D03*
X106292D02*
D03*
Y58690D02*
D03*
Y62430D02*
D03*
D70*
X63263Y66857D02*
D03*
D71*
X70743Y68136D02*
D03*
D72*
Y63018D02*
D03*
D73*
X51400Y92480D02*
D03*
Y85000D02*
D03*
X41557Y88740D02*
D03*
X232937Y23655D02*
D03*
X223095Y19915D02*
D03*
Y27395D02*
D03*
D74*
X241436Y12041D02*
D03*
Y23655D02*
D03*
D75*
X252422Y8793D02*
D03*
Y26903D02*
D03*
X266201Y8793D02*
D03*
D76*
X70564Y42169D02*
D03*
X11237Y122034D02*
D03*
X91036Y32168D02*
D03*
Y37168D02*
D03*
X70564Y27169D02*
D03*
Y32168D02*
D03*
Y37168D02*
D03*
X91036Y27169D02*
D03*
X31710Y107034D02*
D03*
X11237D02*
D03*
Y112034D02*
D03*
Y117034D02*
D03*
X31710Y122034D02*
D03*
Y117034D02*
D03*
X91036Y42169D02*
D03*
X31710Y112034D02*
D03*
D77*
X264494Y125111D02*
D03*
Y111176D02*
D03*
M02*
