G04*
G04 #@! TF.GenerationSoftware,Altium Limited,Altium Designer,23.8.1 (32)*
G04*
G04 Layer_Color=32896*
%FSLAX25Y25*%
%MOIN*%
G70*
G04*
G04 #@! TF.SameCoordinates,7219C3B3-8FC9-4B81-83B7-D13F04F5FDA5*
G04*
G04*
G04 #@! TF.FilePolarity,Positive*
G04*
G01*
G75*
%ADD10C,0.00787*%
%ADD11C,0.01000*%
%ADD21C,0.01181*%
%ADD78C,0.01575*%
%ADD79C,0.00787*%
%ADD80C,0.00984*%
%ADD81C,0.00394*%
%ADD82C,0.00600*%
%ADD83C,0.00800*%
%ADD84R,0.01181X0.04724*%
G36*
X247216Y125116D02*
X244097D01*
Y125895D01*
X247216D01*
Y125116D01*
D02*
G37*
G36*
X224739Y125895D02*
X225908D01*
Y125116D01*
X224739D01*
Y122907D01*
X223960D01*
Y125116D01*
X222790D01*
Y125895D01*
X223960D01*
Y128104D01*
X224739D01*
Y125895D01*
D02*
G37*
G36*
X80739Y113163D02*
X77621D01*
Y113943D01*
X80739D01*
Y113163D01*
D02*
G37*
G36*
X100877Y113943D02*
X102047D01*
Y113163D01*
X100877D01*
Y110954D01*
X100098D01*
Y113163D01*
X98928D01*
Y113943D01*
X100098D01*
Y116151D01*
X100877D01*
Y113943D01*
D02*
G37*
G36*
X206935Y91288D02*
X203817D01*
Y92068D01*
X206935D01*
Y91288D01*
D02*
G37*
G36*
X184459Y92068D02*
X185628D01*
Y91288D01*
X184459D01*
Y89080D01*
X183679D01*
Y91288D01*
X182510D01*
Y92068D01*
X183679D01*
Y94276D01*
X184459D01*
Y92068D01*
D02*
G37*
G36*
X17166Y6587D02*
X15166D01*
Y6976D01*
X16742D01*
Y8053D01*
X15335D01*
Y8434D01*
X16742D01*
Y9672D01*
X15166D01*
Y10061D01*
X17166D01*
Y6587D01*
D02*
G37*
G36*
X82900Y83245D02*
X82491D01*
Y84651D01*
X81959D01*
X81321Y83245D01*
X80841D01*
X81535Y84696D01*
X81430Y84737D01*
X81336Y84786D01*
X81254Y84842D01*
X81186Y84899D01*
X81134Y84948D01*
X81111Y84970D01*
X81093Y84992D01*
X81081Y85008D01*
X81070Y85019D01*
X81066Y85026D01*
X81063Y85030D01*
X81033Y85075D01*
X81002Y85124D01*
X80961Y85221D01*
X80927Y85319D01*
X80909Y85409D01*
X80901Y85450D01*
X80894Y85488D01*
X80890Y85521D01*
Y85551D01*
X80886Y85574D01*
Y85593D01*
Y85604D01*
Y85607D01*
X80890Y85712D01*
X80905Y85806D01*
X80924Y85892D01*
X80946Y85964D01*
X80961Y85994D01*
X80972Y86024D01*
X80980Y86046D01*
X80991Y86069D01*
X80999Y86084D01*
X81006Y86095D01*
X81010Y86102D01*
Y86106D01*
X81059Y86181D01*
X81115Y86249D01*
X81175Y86305D01*
X81227Y86354D01*
X81280Y86391D01*
X81318Y86418D01*
X81332Y86429D01*
X81344Y86436D01*
X81351Y86440D01*
X81355D01*
X81441Y86481D01*
X81528Y86511D01*
X81617Y86530D01*
X81696Y86545D01*
X81767Y86553D01*
X81797Y86556D01*
X81824Y86560D01*
X82900D01*
Y83245D01*
D02*
G37*
G36*
X80136D02*
X78228D01*
Y83616D01*
X79731D01*
Y84798D01*
X78389D01*
Y85161D01*
X79731D01*
Y86189D01*
X78228D01*
Y86560D01*
X80136D01*
Y83245D01*
D02*
G37*
G36*
X74684D02*
X72775D01*
Y83616D01*
X74279D01*
Y84798D01*
X72936D01*
Y85161D01*
X74279D01*
Y86189D01*
X72775D01*
Y86560D01*
X74684D01*
Y83245D01*
D02*
G37*
G36*
X72164Y86189D02*
X71253D01*
Y83245D01*
X70844D01*
Y86189D01*
X69936D01*
Y86560D01*
X72164D01*
Y86189D01*
D02*
G37*
G36*
X76555Y86601D02*
X76634Y86594D01*
X76705Y86582D01*
X76772Y86567D01*
X76832Y86549D01*
X76893Y86530D01*
X76945Y86507D01*
X76994Y86485D01*
X77035Y86462D01*
X77073Y86440D01*
X77106Y86421D01*
X77132Y86402D01*
X77155Y86387D01*
X77170Y86376D01*
X77178Y86369D01*
X77181Y86365D01*
X77226Y86320D01*
X77267Y86268D01*
X77305Y86215D01*
X77335Y86163D01*
X77361Y86110D01*
X77384Y86054D01*
X77399Y86001D01*
X77414Y85953D01*
X77425Y85904D01*
X77433Y85862D01*
X77440Y85821D01*
X77444Y85787D01*
X77447Y85757D01*
Y85739D01*
Y85724D01*
Y85720D01*
X77444Y85660D01*
X77440Y85604D01*
X77417Y85499D01*
X77387Y85405D01*
X77354Y85322D01*
X77335Y85285D01*
X77320Y85255D01*
X77305Y85225D01*
X77290Y85202D01*
X77279Y85184D01*
X77267Y85172D01*
X77264Y85165D01*
X77260Y85161D01*
X77181Y85079D01*
X77099Y85008D01*
X77012Y84948D01*
X76926Y84899D01*
X76855Y84861D01*
X76821Y84846D01*
X76795Y84835D01*
X76769Y84828D01*
X76754Y84820D01*
X76743Y84816D01*
X76739D01*
X76248Y84662D01*
X76184Y84636D01*
X76131Y84606D01*
X76082Y84572D01*
X76041Y84539D01*
X76011Y84505D01*
X75989Y84483D01*
X75974Y84464D01*
X75970Y84456D01*
X75936Y84400D01*
X75910Y84340D01*
X75891Y84284D01*
X75876Y84231D01*
X75869Y84186D01*
X75865Y84149D01*
Y84134D01*
Y84123D01*
Y84119D01*
Y84115D01*
Y84070D01*
X75872Y84025D01*
X75891Y83946D01*
X75918Y83879D01*
X75947Y83823D01*
X75981Y83774D01*
X76007Y83740D01*
X76026Y83721D01*
X76030Y83718D01*
X76034Y83714D01*
X76101Y83661D01*
X76176Y83624D01*
X76251Y83597D01*
X76323Y83579D01*
X76386Y83568D01*
X76412Y83564D01*
X76439D01*
X76458Y83560D01*
X76484D01*
X76589Y83568D01*
X76679Y83583D01*
X76761Y83609D01*
X76829Y83639D01*
X76881Y83665D01*
X76904Y83680D01*
X76919Y83691D01*
X76934Y83699D01*
X76945Y83706D01*
X76949Y83714D01*
X76952D01*
X76982Y83744D01*
X77009Y83774D01*
X77054Y83841D01*
X77084Y83909D01*
X77106Y83973D01*
X77118Y84029D01*
X77125Y84051D01*
Y84074D01*
X77129Y84092D01*
Y84104D01*
Y84111D01*
Y84115D01*
X77538D01*
X77534Y84040D01*
X77526Y83969D01*
X77511Y83898D01*
X77492Y83834D01*
X77470Y83777D01*
X77447Y83721D01*
X77421Y83672D01*
X77395Y83624D01*
X77369Y83586D01*
X77342Y83549D01*
X77320Y83519D01*
X77298Y83492D01*
X77279Y83474D01*
X77264Y83459D01*
X77256Y83451D01*
X77253Y83447D01*
X77196Y83403D01*
X77136Y83365D01*
X77076Y83331D01*
X77012Y83305D01*
X76949Y83279D01*
X76885Y83260D01*
X76761Y83230D01*
X76705Y83223D01*
X76652Y83215D01*
X76604Y83207D01*
X76562Y83204D01*
X76529Y83200D01*
X76484D01*
X76398Y83204D01*
X76319Y83211D01*
X76244Y83223D01*
X76173Y83237D01*
X76105Y83256D01*
X76045Y83279D01*
X75989Y83301D01*
X75940Y83324D01*
X75895Y83346D01*
X75858Y83369D01*
X75824Y83391D01*
X75794Y83410D01*
X75775Y83425D01*
X75756Y83436D01*
X75749Y83444D01*
X75745Y83447D01*
X75696Y83496D01*
X75655Y83549D01*
X75617Y83601D01*
X75584Y83657D01*
X75558Y83714D01*
X75535Y83770D01*
X75516Y83823D01*
X75501Y83875D01*
X75490Y83924D01*
X75482Y83969D01*
X75475Y84010D01*
X75471Y84048D01*
X75467Y84074D01*
Y84096D01*
Y84111D01*
Y84115D01*
X75471Y84179D01*
X75475Y84239D01*
X75498Y84351D01*
X75524Y84452D01*
X75542Y84497D01*
X75558Y84539D01*
X75576Y84576D01*
X75591Y84610D01*
X75610Y84640D01*
X75621Y84662D01*
X75633Y84681D01*
X75644Y84696D01*
X75647Y84704D01*
X75651Y84707D01*
X75726Y84798D01*
X75805Y84869D01*
X75888Y84933D01*
X75966Y84981D01*
X76038Y85015D01*
X76068Y85030D01*
X76094Y85041D01*
X76116Y85049D01*
X76131Y85056D01*
X76143Y85060D01*
X76146D01*
X76656Y85225D01*
X76720Y85251D01*
X76780Y85281D01*
X76829Y85311D01*
X76870Y85345D01*
X76904Y85371D01*
X76926Y85394D01*
X76941Y85409D01*
X76945Y85416D01*
X76979Y85469D01*
X77005Y85521D01*
X77020Y85574D01*
X77035Y85623D01*
X77043Y85664D01*
X77046Y85698D01*
Y85720D01*
Y85724D01*
Y85728D01*
X77039Y85810D01*
X77024Y85885D01*
X76998Y85949D01*
X76968Y86001D01*
X76941Y86042D01*
X76915Y86072D01*
X76900Y86091D01*
X76893Y86099D01*
X76829Y86147D01*
X76761Y86181D01*
X76690Y86207D01*
X76626Y86222D01*
X76566Y86234D01*
X76540Y86238D01*
X76517D01*
X76503Y86241D01*
X76476D01*
X76386Y86234D01*
X76304Y86219D01*
X76236Y86196D01*
X76176Y86170D01*
X76131Y86144D01*
X76098Y86121D01*
X76079Y86106D01*
X76071Y86099D01*
X76019Y86042D01*
X75981Y85983D01*
X75955Y85919D01*
X75936Y85859D01*
X75925Y85803D01*
X75921Y85761D01*
X75918Y85742D01*
Y85731D01*
Y85724D01*
Y85720D01*
X75505D01*
X75509Y85795D01*
X75516Y85862D01*
X75531Y85930D01*
X75546Y85990D01*
X75565Y86050D01*
X75587Y86102D01*
X75614Y86151D01*
X75636Y86196D01*
X75662Y86234D01*
X75689Y86268D01*
X75711Y86298D01*
X75730Y86320D01*
X75745Y86339D01*
X75760Y86354D01*
X75767Y86361D01*
X75771Y86365D01*
X75824Y86406D01*
X75876Y86444D01*
X75933Y86478D01*
X75993Y86504D01*
X76052Y86526D01*
X76109Y86545D01*
X76221Y86575D01*
X76274Y86586D01*
X76323Y86594D01*
X76364Y86598D01*
X76401Y86601D01*
X76435Y86605D01*
X76476D01*
X76555Y86601D01*
D02*
G37*
G36*
X71905Y93245D02*
X71496D01*
Y94779D01*
X71020D01*
X70248Y93245D01*
X69779D01*
X70645Y94966D01*
X69824Y96560D01*
X70270D01*
X71005Y95139D01*
X71496D01*
Y96560D01*
X71905D01*
Y93245D01*
D02*
G37*
G36*
X76476Y96601D02*
X76555Y96594D01*
X76630Y96583D01*
X76697Y96564D01*
X76761Y96545D01*
X76821Y96526D01*
X76874Y96500D01*
X76923Y96478D01*
X76968Y96455D01*
X77005Y96433D01*
X77039Y96410D01*
X77065Y96391D01*
X77087Y96372D01*
X77103Y96361D01*
X77110Y96354D01*
X77114Y96350D01*
X77159Y96301D01*
X77200Y96249D01*
X77234Y96193D01*
X77264Y96136D01*
X77290Y96076D01*
X77312Y96020D01*
X77331Y95964D01*
X77342Y95907D01*
X77354Y95855D01*
X77361Y95806D01*
X77369Y95765D01*
X77372Y95727D01*
X77376Y95694D01*
Y95671D01*
Y95656D01*
Y95653D01*
Y94152D01*
X77372Y94070D01*
X77365Y93995D01*
X77354Y93924D01*
X77335Y93856D01*
X77316Y93792D01*
X77294Y93736D01*
X77267Y93684D01*
X77245Y93635D01*
X77219Y93594D01*
X77196Y93556D01*
X77174Y93523D01*
X77155Y93500D01*
X77136Y93477D01*
X77125Y93463D01*
X77118Y93455D01*
X77114Y93451D01*
X77061Y93406D01*
X77005Y93369D01*
X76949Y93335D01*
X76889Y93305D01*
X76829Y93283D01*
X76769Y93260D01*
X76652Y93230D01*
X76600Y93222D01*
X76551Y93215D01*
X76506Y93208D01*
X76469Y93204D01*
X76439Y93200D01*
X76394D01*
X76311Y93204D01*
X76236Y93211D01*
X76161Y93222D01*
X76094Y93241D01*
X76030Y93260D01*
X75974Y93283D01*
X75921Y93305D01*
X75872Y93327D01*
X75827Y93350D01*
X75790Y93376D01*
X75760Y93395D01*
X75734Y93414D01*
X75711Y93432D01*
X75696Y93444D01*
X75689Y93451D01*
X75685Y93455D01*
X75640Y93504D01*
X75599Y93560D01*
X75565Y93612D01*
X75531Y93673D01*
X75509Y93729D01*
X75486Y93789D01*
X75467Y93845D01*
X75456Y93901D01*
X75445Y93950D01*
X75437Y93999D01*
X75430Y94044D01*
X75426Y94081D01*
X75423Y94111D01*
Y94134D01*
Y94149D01*
Y94152D01*
X75831D01*
X75839Y94055D01*
X75854Y93965D01*
X75880Y93890D01*
X75906Y93830D01*
X75933Y93781D01*
X75959Y93748D01*
X75974Y93725D01*
X75981Y93717D01*
X76041Y93669D01*
X76109Y93631D01*
X76176Y93605D01*
X76244Y93586D01*
X76300Y93575D01*
X76326Y93571D01*
X76349D01*
X76367Y93568D01*
X76394D01*
X76487Y93575D01*
X76574Y93590D01*
X76645Y93616D01*
X76705Y93642D01*
X76754Y93669D01*
X76788Y93695D01*
X76810Y93710D01*
X76818Y93717D01*
X76866Y93781D01*
X76904Y93849D01*
X76930Y93924D01*
X76949Y93991D01*
X76960Y94055D01*
X76964Y94081D01*
Y94108D01*
X76968Y94126D01*
Y94141D01*
Y94149D01*
Y94152D01*
Y95656D01*
X76960Y95758D01*
X76945Y95844D01*
X76919Y95915D01*
X76893Y95979D01*
X76866Y96024D01*
X76840Y96061D01*
X76825Y96080D01*
X76818Y96087D01*
X76754Y96136D01*
X76686Y96174D01*
X76615Y96200D01*
X76547Y96219D01*
X76487Y96230D01*
X76461Y96234D01*
X76439D01*
X76420Y96237D01*
X76394D01*
X76300Y96230D01*
X76218Y96215D01*
X76146Y96189D01*
X76086Y96162D01*
X76041Y96132D01*
X76007Y96106D01*
X75989Y96091D01*
X75981Y96084D01*
X75933Y96024D01*
X75895Y95952D01*
X75869Y95881D01*
X75850Y95814D01*
X75839Y95750D01*
X75835Y95724D01*
Y95697D01*
X75831Y95679D01*
Y95664D01*
Y95656D01*
Y95653D01*
X75423D01*
X75426Y95731D01*
X75434Y95810D01*
X75445Y95881D01*
X75464Y95945D01*
X75482Y96009D01*
X75505Y96065D01*
X75528Y96118D01*
X75554Y96162D01*
X75576Y96207D01*
X75603Y96241D01*
X75625Y96275D01*
X75644Y96301D01*
X75662Y96320D01*
X75674Y96335D01*
X75681Y96342D01*
X75685Y96346D01*
X75738Y96391D01*
X75790Y96433D01*
X75846Y96466D01*
X75906Y96496D01*
X75966Y96522D01*
X76026Y96541D01*
X76082Y96560D01*
X76139Y96571D01*
X76191Y96583D01*
X76240Y96590D01*
X76281Y96597D01*
X76319Y96601D01*
X76353Y96605D01*
X76394D01*
X76476Y96601D01*
D02*
G37*
G36*
X80005Y93245D02*
X79491D01*
X79188Y95742D01*
X79180Y95799D01*
X79172Y95855D01*
X79169Y95904D01*
X79165Y95949D01*
X79158Y95990D01*
Y96016D01*
X79154Y96035D01*
Y96043D01*
X79150Y96095D01*
X79142Y96144D01*
X79139Y96181D01*
X79135Y96215D01*
X79131Y96241D01*
X79128Y96260D01*
Y96271D01*
Y96275D01*
X79124Y96241D01*
X79120Y96204D01*
Y96166D01*
X79116Y96129D01*
X79112Y96095D01*
X79109Y96069D01*
Y96050D01*
Y96043D01*
X79097Y95934D01*
X79090Y95885D01*
X79086Y95836D01*
X79083Y95799D01*
X79079Y95769D01*
X79075Y95750D01*
Y95742D01*
X78794Y93245D01*
X78280D01*
X77890Y96560D01*
X78261D01*
X78520Y94108D01*
X78531Y93995D01*
X78539Y93942D01*
X78543Y93897D01*
X78546Y93856D01*
Y93822D01*
X78550Y93804D01*
Y93800D01*
Y93796D01*
X78554Y93740D01*
X78557Y93687D01*
X78561Y93642D01*
X78565Y93605D01*
Y93579D01*
X78569Y93556D01*
Y93541D01*
Y93537D01*
X78572Y93575D01*
X78576Y93620D01*
X78584Y93661D01*
X78588Y93703D01*
X78591Y93740D01*
X78595Y93770D01*
X78599Y93789D01*
Y93796D01*
X78606Y93856D01*
X78610Y93913D01*
X78618Y93965D01*
X78621Y94014D01*
X78625Y94051D01*
X78629Y94081D01*
X78632Y94100D01*
Y94108D01*
X78917Y96560D01*
X79338D01*
X79649Y94108D01*
X79660Y93995D01*
X79668Y93942D01*
X79671Y93897D01*
X79675Y93856D01*
X79679Y93822D01*
X79682Y93804D01*
Y93800D01*
Y93796D01*
X79686Y93740D01*
X79694Y93687D01*
X79698Y93642D01*
Y93605D01*
X79701Y93579D01*
X79705Y93556D01*
Y93541D01*
Y93537D01*
X79709Y93575D01*
X79712Y93620D01*
Y93661D01*
X79716Y93703D01*
X79720Y93740D01*
Y93770D01*
X79724Y93789D01*
Y93796D01*
X79728Y93856D01*
X79731Y93913D01*
X79735Y93965D01*
X79739Y94014D01*
X79742Y94051D01*
Y94081D01*
X79746Y94100D01*
Y94108D01*
X79997Y96560D01*
X80388D01*
X80005Y93245D01*
D02*
G37*
G36*
X74459D02*
X72550D01*
Y93616D01*
X74050D01*
Y96560D01*
X74459D01*
Y93245D01*
D02*
G37*
G36*
X81918Y96601D02*
X81996Y96594D01*
X82068Y96583D01*
X82135Y96567D01*
X82195Y96549D01*
X82255Y96530D01*
X82307Y96508D01*
X82356Y96485D01*
X82398Y96463D01*
X82435Y96440D01*
X82469Y96421D01*
X82495Y96403D01*
X82517Y96387D01*
X82533Y96376D01*
X82540Y96369D01*
X82544Y96365D01*
X82589Y96320D01*
X82630Y96267D01*
X82667Y96215D01*
X82697Y96162D01*
X82724Y96110D01*
X82746Y96054D01*
X82761Y96001D01*
X82776Y95952D01*
X82788Y95904D01*
X82795Y95863D01*
X82802Y95821D01*
X82806Y95788D01*
X82810Y95758D01*
Y95739D01*
Y95724D01*
Y95720D01*
X82806Y95660D01*
X82802Y95604D01*
X82780Y95499D01*
X82750Y95405D01*
X82716Y95323D01*
X82697Y95285D01*
X82683Y95255D01*
X82667Y95225D01*
X82652Y95202D01*
X82641Y95184D01*
X82630Y95173D01*
X82626Y95165D01*
X82622Y95161D01*
X82544Y95079D01*
X82461Y95007D01*
X82375Y94947D01*
X82289Y94899D01*
X82218Y94861D01*
X82184Y94846D01*
X82157Y94835D01*
X82131Y94828D01*
X82116Y94820D01*
X82105Y94816D01*
X82101D01*
X81610Y94662D01*
X81546Y94636D01*
X81494Y94606D01*
X81445Y94573D01*
X81404Y94539D01*
X81374Y94505D01*
X81351Y94482D01*
X81336Y94464D01*
X81332Y94456D01*
X81299Y94400D01*
X81273Y94340D01*
X81254Y94284D01*
X81239Y94231D01*
X81231Y94186D01*
X81227Y94149D01*
Y94134D01*
Y94122D01*
Y94119D01*
Y94115D01*
Y94070D01*
X81235Y94025D01*
X81254Y93946D01*
X81280Y93879D01*
X81310Y93822D01*
X81344Y93774D01*
X81370Y93740D01*
X81389Y93721D01*
X81393Y93717D01*
X81396Y93714D01*
X81464Y93661D01*
X81539Y93624D01*
X81614Y93598D01*
X81685Y93579D01*
X81749Y93568D01*
X81775Y93564D01*
X81801D01*
X81820Y93560D01*
X81846D01*
X81951Y93568D01*
X82041Y93582D01*
X82124Y93609D01*
X82191Y93639D01*
X82244Y93665D01*
X82266Y93680D01*
X82281Y93691D01*
X82296Y93699D01*
X82307Y93706D01*
X82311Y93714D01*
X82315D01*
X82345Y93744D01*
X82371Y93774D01*
X82416Y93841D01*
X82446Y93909D01*
X82469Y93972D01*
X82480Y94029D01*
X82487Y94051D01*
Y94074D01*
X82491Y94093D01*
Y94104D01*
Y94111D01*
Y94115D01*
X82900D01*
X82896Y94040D01*
X82889Y93969D01*
X82874Y93897D01*
X82855Y93834D01*
X82832Y93778D01*
X82810Y93721D01*
X82784Y93673D01*
X82758Y93624D01*
X82731Y93586D01*
X82705Y93549D01*
X82683Y93519D01*
X82660Y93493D01*
X82641Y93474D01*
X82626Y93459D01*
X82619Y93451D01*
X82615Y93448D01*
X82559Y93402D01*
X82499Y93365D01*
X82439Y93331D01*
X82375Y93305D01*
X82311Y93279D01*
X82248Y93260D01*
X82124Y93230D01*
X82068Y93222D01*
X82015Y93215D01*
X81966Y93208D01*
X81925Y93204D01*
X81891Y93200D01*
X81846D01*
X81760Y93204D01*
X81681Y93211D01*
X81606Y93222D01*
X81535Y93238D01*
X81467Y93256D01*
X81407Y93279D01*
X81351Y93301D01*
X81302Y93324D01*
X81257Y93346D01*
X81220Y93369D01*
X81186Y93391D01*
X81156Y93410D01*
X81138Y93425D01*
X81119Y93436D01*
X81111Y93444D01*
X81107Y93448D01*
X81059Y93496D01*
X81018Y93549D01*
X80980Y93601D01*
X80946Y93657D01*
X80920Y93714D01*
X80897Y93770D01*
X80879Y93822D01*
X80864Y93875D01*
X80853Y93924D01*
X80845Y93969D01*
X80838Y94010D01*
X80834Y94047D01*
X80830Y94074D01*
Y94096D01*
Y94111D01*
Y94115D01*
X80834Y94179D01*
X80838Y94239D01*
X80860Y94351D01*
X80886Y94453D01*
X80905Y94498D01*
X80920Y94539D01*
X80939Y94576D01*
X80954Y94610D01*
X80972Y94640D01*
X80984Y94662D01*
X80995Y94681D01*
X81006Y94696D01*
X81010Y94704D01*
X81014Y94708D01*
X81089Y94797D01*
X81168Y94869D01*
X81250Y94933D01*
X81329Y94981D01*
X81400Y95015D01*
X81430Y95030D01*
X81456Y95041D01*
X81479Y95049D01*
X81494Y95056D01*
X81505Y95060D01*
X81509D01*
X82019Y95225D01*
X82082Y95251D01*
X82143Y95281D01*
X82191Y95311D01*
X82232Y95345D01*
X82266Y95371D01*
X82289Y95394D01*
X82304Y95409D01*
X82307Y95416D01*
X82341Y95469D01*
X82367Y95521D01*
X82383Y95574D01*
X82398Y95622D01*
X82405Y95664D01*
X82409Y95697D01*
Y95720D01*
Y95724D01*
Y95727D01*
X82401Y95810D01*
X82386Y95885D01*
X82360Y95949D01*
X82330Y96001D01*
X82304Y96043D01*
X82278Y96073D01*
X82262Y96091D01*
X82255Y96099D01*
X82191Y96148D01*
X82124Y96181D01*
X82052Y96207D01*
X81989Y96223D01*
X81929Y96234D01*
X81902Y96237D01*
X81880D01*
X81865Y96241D01*
X81839D01*
X81749Y96234D01*
X81666Y96219D01*
X81599Y96196D01*
X81539Y96170D01*
X81494Y96144D01*
X81460Y96121D01*
X81441Y96106D01*
X81434Y96099D01*
X81381Y96043D01*
X81344Y95982D01*
X81318Y95919D01*
X81299Y95859D01*
X81287Y95802D01*
X81284Y95761D01*
X81280Y95742D01*
Y95731D01*
Y95724D01*
Y95720D01*
X80867D01*
X80871Y95795D01*
X80879Y95863D01*
X80894Y95930D01*
X80909Y95990D01*
X80927Y96050D01*
X80950Y96102D01*
X80976Y96151D01*
X80999Y96196D01*
X81025Y96234D01*
X81051Y96267D01*
X81074Y96298D01*
X81093Y96320D01*
X81107Y96339D01*
X81122Y96354D01*
X81130Y96361D01*
X81134Y96365D01*
X81186Y96406D01*
X81239Y96444D01*
X81295Y96478D01*
X81355Y96504D01*
X81415Y96526D01*
X81471Y96545D01*
X81584Y96575D01*
X81636Y96586D01*
X81685Y96594D01*
X81726Y96597D01*
X81764Y96601D01*
X81797Y96605D01*
X81839D01*
X81918Y96601D01*
D02*
G37*
G36*
X80005Y101445D02*
X79491D01*
X79188Y103943D01*
X79180Y103999D01*
X79172Y104055D01*
X79169Y104104D01*
X79165Y104149D01*
X79158Y104190D01*
Y104216D01*
X79154Y104235D01*
Y104243D01*
X79150Y104295D01*
X79142Y104344D01*
X79139Y104381D01*
X79135Y104415D01*
X79131Y104441D01*
X79128Y104460D01*
Y104471D01*
Y104475D01*
X79124Y104441D01*
X79120Y104404D01*
Y104366D01*
X79116Y104329D01*
X79112Y104295D01*
X79109Y104269D01*
Y104250D01*
Y104243D01*
X79097Y104134D01*
X79090Y104085D01*
X79086Y104036D01*
X79083Y103999D01*
X79079Y103969D01*
X79075Y103950D01*
Y103943D01*
X78794Y101445D01*
X78280D01*
X77890Y104760D01*
X78261D01*
X78520Y102307D01*
X78531Y102195D01*
X78539Y102143D01*
X78543Y102097D01*
X78546Y102056D01*
Y102023D01*
X78550Y102004D01*
Y102000D01*
Y101996D01*
X78554Y101940D01*
X78557Y101888D01*
X78561Y101842D01*
X78565Y101805D01*
Y101779D01*
X78569Y101756D01*
Y101741D01*
Y101737D01*
X78572Y101775D01*
X78576Y101820D01*
X78584Y101861D01*
X78588Y101902D01*
X78591Y101940D01*
X78595Y101970D01*
X78599Y101989D01*
Y101996D01*
X78606Y102056D01*
X78610Y102112D01*
X78618Y102165D01*
X78621Y102214D01*
X78625Y102251D01*
X78629Y102281D01*
X78632Y102300D01*
Y102307D01*
X78917Y104760D01*
X79338D01*
X79649Y102307D01*
X79660Y102195D01*
X79668Y102143D01*
X79671Y102097D01*
X79675Y102056D01*
X79679Y102023D01*
X79682Y102004D01*
Y102000D01*
Y101996D01*
X79686Y101940D01*
X79694Y101888D01*
X79698Y101842D01*
Y101805D01*
X79701Y101779D01*
X79705Y101756D01*
Y101741D01*
Y101737D01*
X79709Y101775D01*
X79712Y101820D01*
Y101861D01*
X79716Y101902D01*
X79720Y101940D01*
Y101970D01*
X79724Y101989D01*
Y101996D01*
X79728Y102056D01*
X79731Y102112D01*
X79735Y102165D01*
X79739Y102214D01*
X79742Y102251D01*
Y102281D01*
X79746Y102300D01*
Y102307D01*
X79997Y104760D01*
X80388D01*
X80005Y101445D01*
D02*
G37*
G36*
X77358D02*
X76499D01*
X76382Y101449D01*
X76278Y101464D01*
X76180Y101482D01*
X76139Y101494D01*
X76101Y101505D01*
X76064Y101516D01*
X76034Y101528D01*
X76007Y101539D01*
X75985Y101546D01*
X75966Y101554D01*
X75955Y101561D01*
X75947Y101565D01*
X75944D01*
X75861Y101618D01*
X75786Y101670D01*
X75726Y101730D01*
X75674Y101786D01*
X75633Y101835D01*
X75603Y101876D01*
X75595Y101891D01*
X75587Y101902D01*
X75580Y101910D01*
Y101914D01*
X75535Y102000D01*
X75505Y102090D01*
X75482Y102180D01*
X75464Y102262D01*
X75460Y102300D01*
X75456Y102334D01*
X75453Y102364D01*
Y102390D01*
X75449Y102412D01*
Y102427D01*
Y102439D01*
Y102443D01*
Y103766D01*
X75453Y103875D01*
X75467Y103976D01*
X75490Y104066D01*
X75512Y104141D01*
X75528Y104175D01*
X75539Y104205D01*
X75550Y104231D01*
X75558Y104254D01*
X75569Y104269D01*
X75573Y104280D01*
X75580Y104288D01*
Y104291D01*
X75633Y104370D01*
X75689Y104441D01*
X75753Y104501D01*
X75809Y104550D01*
X75861Y104587D01*
X75906Y104614D01*
X75921Y104625D01*
X75933Y104632D01*
X75940Y104636D01*
X75944D01*
X76034Y104677D01*
X76127Y104708D01*
X76221Y104730D01*
X76307Y104745D01*
X76349Y104749D01*
X76382Y104753D01*
X76416Y104756D01*
X76446Y104760D01*
X77358D01*
Y101445D01*
D02*
G37*
G36*
X74571Y104389D02*
X73896D01*
Y101816D01*
X74571D01*
Y101445D01*
X72801D01*
Y101816D01*
X73476D01*
Y104389D01*
X72801D01*
Y104760D01*
X74571D01*
Y104389D01*
D02*
G37*
G36*
X81918Y104801D02*
X81996Y104794D01*
X82068Y104782D01*
X82135Y104768D01*
X82195Y104749D01*
X82255Y104730D01*
X82307Y104708D01*
X82356Y104685D01*
X82398Y104663D01*
X82435Y104640D01*
X82469Y104621D01*
X82495Y104603D01*
X82517Y104587D01*
X82533Y104576D01*
X82540Y104569D01*
X82544Y104565D01*
X82589Y104520D01*
X82630Y104467D01*
X82667Y104415D01*
X82697Y104362D01*
X82724Y104310D01*
X82746Y104254D01*
X82761Y104201D01*
X82776Y104153D01*
X82788Y104104D01*
X82795Y104062D01*
X82802Y104021D01*
X82806Y103988D01*
X82810Y103957D01*
Y103939D01*
Y103924D01*
Y103920D01*
X82806Y103860D01*
X82802Y103804D01*
X82780Y103699D01*
X82750Y103605D01*
X82716Y103523D01*
X82697Y103485D01*
X82683Y103455D01*
X82667Y103425D01*
X82652Y103402D01*
X82641Y103384D01*
X82630Y103373D01*
X82626Y103365D01*
X82622Y103361D01*
X82544Y103279D01*
X82461Y103208D01*
X82375Y103147D01*
X82289Y103099D01*
X82218Y103061D01*
X82184Y103046D01*
X82157Y103035D01*
X82131Y103027D01*
X82116Y103020D01*
X82105Y103016D01*
X82101D01*
X81610Y102863D01*
X81546Y102836D01*
X81494Y102806D01*
X81445Y102772D01*
X81404Y102739D01*
X81374Y102705D01*
X81351Y102682D01*
X81336Y102664D01*
X81332Y102656D01*
X81299Y102600D01*
X81273Y102540D01*
X81254Y102484D01*
X81239Y102431D01*
X81231Y102386D01*
X81227Y102349D01*
Y102334D01*
Y102322D01*
Y102319D01*
Y102315D01*
Y102270D01*
X81235Y102225D01*
X81254Y102146D01*
X81280Y102079D01*
X81310Y102023D01*
X81344Y101974D01*
X81370Y101940D01*
X81389Y101921D01*
X81393Y101918D01*
X81396Y101914D01*
X81464Y101861D01*
X81539Y101824D01*
X81614Y101797D01*
X81685Y101779D01*
X81749Y101768D01*
X81775Y101764D01*
X81801D01*
X81820Y101760D01*
X81846D01*
X81951Y101768D01*
X82041Y101783D01*
X82124Y101809D01*
X82191Y101839D01*
X82244Y101865D01*
X82266Y101880D01*
X82281Y101891D01*
X82296Y101899D01*
X82307Y101906D01*
X82311Y101914D01*
X82315D01*
X82345Y101944D01*
X82371Y101974D01*
X82416Y102041D01*
X82446Y102109D01*
X82469Y102173D01*
X82480Y102229D01*
X82487Y102251D01*
Y102274D01*
X82491Y102293D01*
Y102304D01*
Y102311D01*
Y102315D01*
X82900D01*
X82896Y102240D01*
X82889Y102169D01*
X82874Y102097D01*
X82855Y102034D01*
X82832Y101978D01*
X82810Y101921D01*
X82784Y101873D01*
X82758Y101824D01*
X82731Y101786D01*
X82705Y101749D01*
X82683Y101719D01*
X82660Y101692D01*
X82641Y101674D01*
X82626Y101659D01*
X82619Y101651D01*
X82615Y101647D01*
X82559Y101602D01*
X82499Y101565D01*
X82439Y101531D01*
X82375Y101505D01*
X82311Y101479D01*
X82248Y101460D01*
X82124Y101430D01*
X82068Y101423D01*
X82015Y101415D01*
X81966Y101408D01*
X81925Y101404D01*
X81891Y101400D01*
X81846D01*
X81760Y101404D01*
X81681Y101411D01*
X81606Y101423D01*
X81535Y101437D01*
X81467Y101456D01*
X81407Y101479D01*
X81351Y101501D01*
X81302Y101524D01*
X81257Y101546D01*
X81220Y101569D01*
X81186Y101591D01*
X81156Y101610D01*
X81138Y101625D01*
X81119Y101636D01*
X81111Y101644D01*
X81107Y101647D01*
X81059Y101696D01*
X81018Y101749D01*
X80980Y101801D01*
X80946Y101857D01*
X80920Y101914D01*
X80897Y101970D01*
X80879Y102023D01*
X80864Y102075D01*
X80853Y102124D01*
X80845Y102169D01*
X80838Y102210D01*
X80834Y102248D01*
X80830Y102274D01*
Y102296D01*
Y102311D01*
Y102315D01*
X80834Y102379D01*
X80838Y102439D01*
X80860Y102551D01*
X80886Y102653D01*
X80905Y102698D01*
X80920Y102739D01*
X80939Y102776D01*
X80954Y102810D01*
X80972Y102840D01*
X80984Y102863D01*
X80995Y102881D01*
X81006Y102896D01*
X81010Y102904D01*
X81014Y102908D01*
X81089Y102998D01*
X81168Y103069D01*
X81250Y103132D01*
X81329Y103181D01*
X81400Y103215D01*
X81430Y103230D01*
X81456Y103241D01*
X81479Y103249D01*
X81494Y103256D01*
X81505Y103260D01*
X81509D01*
X82019Y103425D01*
X82082Y103451D01*
X82143Y103481D01*
X82191Y103511D01*
X82232Y103545D01*
X82266Y103571D01*
X82289Y103594D01*
X82304Y103609D01*
X82307Y103616D01*
X82341Y103669D01*
X82367Y103721D01*
X82383Y103774D01*
X82398Y103823D01*
X82405Y103864D01*
X82409Y103898D01*
Y103920D01*
Y103924D01*
Y103928D01*
X82401Y104010D01*
X82386Y104085D01*
X82360Y104149D01*
X82330Y104201D01*
X82304Y104243D01*
X82278Y104272D01*
X82262Y104291D01*
X82255Y104299D01*
X82191Y104348D01*
X82124Y104381D01*
X82052Y104408D01*
X81989Y104422D01*
X81929Y104434D01*
X81902Y104437D01*
X81880D01*
X81865Y104441D01*
X81839D01*
X81749Y104434D01*
X81666Y104419D01*
X81599Y104396D01*
X81539Y104370D01*
X81494Y104344D01*
X81460Y104321D01*
X81441Y104306D01*
X81434Y104299D01*
X81381Y104243D01*
X81344Y104183D01*
X81318Y104119D01*
X81299Y104059D01*
X81287Y104002D01*
X81284Y103961D01*
X81280Y103943D01*
Y103931D01*
Y103924D01*
Y103920D01*
X80867D01*
X80871Y103995D01*
X80879Y104062D01*
X80894Y104130D01*
X80909Y104190D01*
X80927Y104250D01*
X80950Y104303D01*
X80976Y104351D01*
X80999Y104396D01*
X81025Y104434D01*
X81051Y104467D01*
X81074Y104498D01*
X81093Y104520D01*
X81107Y104539D01*
X81122Y104554D01*
X81130Y104561D01*
X81134Y104565D01*
X81186Y104606D01*
X81239Y104644D01*
X81295Y104677D01*
X81355Y104704D01*
X81415Y104726D01*
X81471Y104745D01*
X81584Y104775D01*
X81636Y104786D01*
X81685Y104794D01*
X81726Y104797D01*
X81764Y104801D01*
X81797Y104805D01*
X81839D01*
X81918Y104801D01*
D02*
G37*
G36*
X71043D02*
X71118Y104794D01*
X71193Y104782D01*
X71260Y104764D01*
X71320Y104745D01*
X71380Y104726D01*
X71433Y104700D01*
X71481Y104677D01*
X71522Y104655D01*
X71560Y104632D01*
X71590Y104610D01*
X71616Y104591D01*
X71639Y104572D01*
X71654Y104561D01*
X71661Y104554D01*
X71665Y104550D01*
X71710Y104501D01*
X71751Y104449D01*
X71785Y104393D01*
X71815Y104336D01*
X71841Y104276D01*
X71860Y104220D01*
X71879Y104164D01*
X71890Y104107D01*
X71901Y104055D01*
X71909Y104006D01*
X71916Y103965D01*
X71920Y103928D01*
X71924Y103894D01*
Y103871D01*
Y103856D01*
Y103852D01*
Y102352D01*
X71920Y102270D01*
X71912Y102195D01*
X71901Y102124D01*
X71882Y102056D01*
X71864Y101992D01*
X71841Y101936D01*
X71819Y101884D01*
X71793Y101835D01*
X71770Y101794D01*
X71747Y101756D01*
X71725Y101723D01*
X71706Y101700D01*
X71688Y101678D01*
X71676Y101663D01*
X71669Y101655D01*
X71665Y101651D01*
X71613Y101606D01*
X71560Y101569D01*
X71504Y101535D01*
X71444Y101505D01*
X71387Y101482D01*
X71328Y101460D01*
X71215Y101430D01*
X71162Y101423D01*
X71114Y101415D01*
X71073Y101408D01*
X71035Y101404D01*
X71001Y101400D01*
X70960D01*
X70877Y101404D01*
X70802Y101411D01*
X70727Y101423D01*
X70660Y101441D01*
X70600Y101460D01*
X70540Y101479D01*
X70487Y101501D01*
X70439Y101528D01*
X70398Y101550D01*
X70360Y101573D01*
X70330Y101591D01*
X70304Y101614D01*
X70281Y101629D01*
X70266Y101640D01*
X70259Y101647D01*
X70255Y101651D01*
X70210Y101700D01*
X70169Y101756D01*
X70135Y101813D01*
X70105Y101869D01*
X70079Y101929D01*
X70060Y101985D01*
X70041Y102041D01*
X70030Y102097D01*
X70019Y102150D01*
X70011Y102199D01*
X70004Y102240D01*
X70000Y102278D01*
X69996Y102311D01*
Y102334D01*
Y102349D01*
Y102352D01*
Y103856D01*
X70000Y103939D01*
X70007Y104014D01*
X70019Y104085D01*
X70038Y104153D01*
X70056Y104216D01*
X70079Y104272D01*
X70101Y104325D01*
X70124Y104374D01*
X70150Y104415D01*
X70173Y104453D01*
X70195Y104482D01*
X70214Y104509D01*
X70232Y104527D01*
X70244Y104543D01*
X70251Y104550D01*
X70255Y104554D01*
X70304Y104599D01*
X70360Y104636D01*
X70416Y104670D01*
X70473Y104700D01*
X70533Y104722D01*
X70592Y104745D01*
X70705Y104775D01*
X70758Y104782D01*
X70806Y104790D01*
X70847Y104797D01*
X70885Y104801D01*
X70919Y104805D01*
X70960D01*
X71043Y104801D01*
D02*
G37*
G36*
X72081Y114271D02*
X72186Y114264D01*
X72284Y114252D01*
X72378Y114237D01*
X72467Y114219D01*
X72550Y114200D01*
X72629Y114178D01*
X72700Y114159D01*
X72764Y114136D01*
X72824Y114114D01*
X72873Y114095D01*
X72914Y114076D01*
X72948Y114061D01*
X72974Y114050D01*
X72989Y114042D01*
X72992Y114039D01*
X73071Y113990D01*
X73146Y113941D01*
X73217Y113885D01*
X73281Y113825D01*
X73345Y113765D01*
X73397Y113705D01*
X73450Y113645D01*
X73495Y113589D01*
X73536Y113532D01*
X73570Y113480D01*
X73600Y113435D01*
X73623Y113394D01*
X73641Y113360D01*
X73656Y113338D01*
X73664Y113322D01*
X73668Y113315D01*
X73709Y113221D01*
X73743Y113131D01*
X73776Y113038D01*
X73803Y112947D01*
X73825Y112857D01*
X73844Y112771D01*
X73859Y112689D01*
X73870Y112610D01*
X73881Y112539D01*
X73889Y112471D01*
X73892Y112415D01*
X73896Y112363D01*
X73900Y112325D01*
Y112295D01*
Y112276D01*
Y112269D01*
X73896Y112164D01*
X73889Y112063D01*
X73878Y111965D01*
X73862Y111871D01*
X73848Y111781D01*
X73825Y111695D01*
X73806Y111616D01*
X73784Y111541D01*
X73761Y111477D01*
X73743Y111417D01*
X73720Y111365D01*
X73705Y111324D01*
X73690Y111286D01*
X73679Y111264D01*
X73671Y111245D01*
X73668Y111241D01*
X73619Y111159D01*
X73570Y111080D01*
X73514Y111005D01*
X73457Y110938D01*
X73401Y110878D01*
X73341Y110818D01*
X73285Y110765D01*
X73229Y110720D01*
X73176Y110679D01*
X73128Y110641D01*
X73083Y110611D01*
X73045Y110585D01*
X73015Y110566D01*
X72989Y110551D01*
X72974Y110544D01*
X72970Y110540D01*
X72880Y110499D01*
X72794Y110461D01*
X72704Y110427D01*
X72614Y110401D01*
X72524Y110379D01*
X72438Y110360D01*
X72359Y110341D01*
X72280Y110330D01*
X72209Y110319D01*
X72141Y110311D01*
X72085Y110308D01*
X72032Y110304D01*
X71995Y110300D01*
X71939D01*
X71781Y110308D01*
X71635Y110322D01*
X71564Y110334D01*
X71496Y110349D01*
X71433Y110360D01*
X71372Y110375D01*
X71316Y110390D01*
X71267Y110401D01*
X71226Y110416D01*
X71189Y110427D01*
X71159Y110435D01*
X71140Y110442D01*
X71125Y110450D01*
X71121D01*
X70971Y110514D01*
X70829Y110585D01*
X70697Y110656D01*
X70638Y110694D01*
X70581Y110731D01*
X70533Y110765D01*
X70484Y110795D01*
X70442Y110821D01*
X70409Y110847D01*
X70382Y110866D01*
X70360Y110885D01*
X70349Y110892D01*
X70345Y110896D01*
Y112325D01*
X71973D01*
Y111871D01*
X70844D01*
Y111155D01*
X70911Y111102D01*
X70990Y111050D01*
X71069Y111005D01*
X71144Y110964D01*
X71215Y110930D01*
X71245Y110915D01*
X71271Y110904D01*
X71294Y110892D01*
X71309Y110889D01*
X71320Y110881D01*
X71324D01*
X71440Y110840D01*
X71556Y110810D01*
X71665Y110787D01*
X71763Y110773D01*
X71807Y110769D01*
X71849Y110765D01*
X71882Y110761D01*
X71912D01*
X71935Y110758D01*
X71969D01*
X72040Y110761D01*
X72107Y110765D01*
X72239Y110784D01*
X72363Y110810D01*
X72419Y110825D01*
X72467Y110840D01*
X72516Y110855D01*
X72557Y110870D01*
X72595Y110885D01*
X72625Y110896D01*
X72651Y110907D01*
X72670Y110915D01*
X72681Y110923D01*
X72685D01*
X72745Y110956D01*
X72805Y110994D01*
X72857Y111031D01*
X72906Y111073D01*
X72955Y111117D01*
X72996Y111159D01*
X73034Y111200D01*
X73067Y111241D01*
X73097Y111283D01*
X73124Y111320D01*
X73146Y111350D01*
X73165Y111380D01*
X73180Y111402D01*
X73191Y111421D01*
X73195Y111433D01*
X73199Y111436D01*
X73229Y111504D01*
X73255Y111575D01*
X73300Y111717D01*
X73330Y111864D01*
X73345Y111931D01*
X73352Y111999D01*
X73360Y112063D01*
X73364Y112119D01*
X73371Y112168D01*
Y112213D01*
X73375Y112250D01*
Y112276D01*
Y112291D01*
Y112299D01*
X73368Y112452D01*
X73352Y112595D01*
X73341Y112662D01*
X73330Y112726D01*
X73315Y112786D01*
X73300Y112843D01*
X73289Y112891D01*
X73274Y112936D01*
X73263Y112978D01*
X73251Y113007D01*
X73244Y113038D01*
X73236Y113056D01*
X73229Y113067D01*
Y113071D01*
X73195Y113146D01*
X73154Y113217D01*
X73116Y113281D01*
X73075Y113338D01*
X73041Y113386D01*
X73015Y113420D01*
X72996Y113443D01*
X72989Y113450D01*
X72925Y113514D01*
X72857Y113570D01*
X72790Y113615D01*
X72726Y113656D01*
X72666Y113690D01*
X72644Y113701D01*
X72621Y113713D01*
X72602Y113720D01*
X72591Y113727D01*
X72584Y113731D01*
X72580D01*
X72483Y113769D01*
X72378Y113795D01*
X72276Y113814D01*
X72183Y113825D01*
X72137Y113832D01*
X72100Y113836D01*
X72066D01*
X72036Y113840D01*
X71976D01*
X71871Y113836D01*
X71770Y113825D01*
X71680Y113806D01*
X71601Y113791D01*
X71567Y113780D01*
X71538Y113772D01*
X71511Y113761D01*
X71489Y113754D01*
X71470Y113750D01*
X71459Y113742D01*
X71451Y113739D01*
X71447D01*
X71361Y113698D01*
X71290Y113653D01*
X71226Y113608D01*
X71174Y113566D01*
X71132Y113529D01*
X71102Y113495D01*
X71087Y113476D01*
X71080Y113472D01*
Y113469D01*
X71031Y113401D01*
X70990Y113326D01*
X70952Y113248D01*
X70922Y113176D01*
X70896Y113109D01*
X70885Y113079D01*
X70877Y113056D01*
X70870Y113038D01*
X70866Y113019D01*
X70863Y113011D01*
Y113007D01*
X70405Y113131D01*
X70424Y113203D01*
X70446Y113270D01*
X70469Y113334D01*
X70491Y113394D01*
X70517Y113450D01*
X70540Y113503D01*
X70562Y113551D01*
X70589Y113593D01*
X70611Y113630D01*
X70630Y113664D01*
X70649Y113694D01*
X70664Y113716D01*
X70679Y113735D01*
X70690Y113750D01*
X70694Y113758D01*
X70697Y113761D01*
X70776Y113847D01*
X70863Y113923D01*
X70949Y113986D01*
X71035Y114039D01*
X71110Y114080D01*
X71144Y114099D01*
X71170Y114110D01*
X71193Y114121D01*
X71211Y114129D01*
X71223Y114136D01*
X71226D01*
X71354Y114181D01*
X71485Y114215D01*
X71609Y114241D01*
X71669Y114249D01*
X71725Y114256D01*
X71777Y114264D01*
X71826Y114268D01*
X71871Y114271D01*
X71905D01*
X71935Y114275D01*
X71976D01*
X72081Y114271D01*
D02*
G37*
G36*
X72315Y126200D02*
X71786D01*
X70283Y130044D01*
X70800D01*
X71842Y127250D01*
X71884Y127134D01*
X71925Y127017D01*
X71959Y126912D01*
X71989Y126819D01*
X72004Y126774D01*
X72015Y126736D01*
X72022Y126702D01*
X72034Y126672D01*
X72041Y126650D01*
X72045Y126635D01*
X72049Y126624D01*
Y126620D01*
X72083Y126733D01*
X72116Y126841D01*
X72150Y126946D01*
X72180Y127044D01*
X72195Y127089D01*
X72210Y127126D01*
X72221Y127164D01*
X72233Y127194D01*
X72240Y127216D01*
X72247Y127235D01*
X72251Y127246D01*
Y127250D01*
X73249Y130044D01*
X73800D01*
X72315Y126200D01*
D02*
G37*
G36*
X37361Y52061D02*
X38273D01*
Y51679D01*
X37361D01*
Y50752D01*
X36944D01*
Y51679D01*
X36033D01*
Y52061D01*
X36944D01*
Y52988D01*
X37361D01*
Y52061D01*
D02*
G37*
G36*
X41000Y50300D02*
X40572D01*
Y51727D01*
X39880D01*
X39790Y51731D01*
X39707Y51738D01*
X39628Y51754D01*
X39554Y51770D01*
X39487Y51789D01*
X39424Y51813D01*
X39365Y51841D01*
X39314Y51868D01*
X39267Y51892D01*
X39228Y51919D01*
X39192Y51943D01*
X39161Y51962D01*
X39141Y51978D01*
X39121Y51994D01*
X39114Y52002D01*
X39110Y52006D01*
X39059Y52061D01*
X39015Y52120D01*
X38976Y52179D01*
X38941Y52241D01*
X38913Y52304D01*
X38890Y52363D01*
X38870Y52426D01*
X38854Y52485D01*
X38842Y52540D01*
X38835Y52591D01*
X38827Y52634D01*
X38823Y52674D01*
X38819Y52709D01*
Y52733D01*
Y52748D01*
Y52752D01*
X38823Y52839D01*
X38831Y52917D01*
X38846Y52992D01*
X38866Y53063D01*
X38886Y53130D01*
X38909Y53193D01*
X38937Y53247D01*
X38964Y53299D01*
X38992Y53342D01*
X39019Y53381D01*
X39043Y53417D01*
X39062Y53444D01*
X39082Y53468D01*
X39098Y53483D01*
X39106Y53491D01*
X39110Y53495D01*
X39165Y53546D01*
X39224Y53585D01*
X39287Y53625D01*
X39349Y53656D01*
X39416Y53684D01*
X39479Y53707D01*
X39542Y53723D01*
X39601Y53739D01*
X39660Y53750D01*
X39711Y53758D01*
X39758Y53766D01*
X39801Y53770D01*
X39833Y53774D01*
X41000D01*
Y50300D01*
D02*
G37*
G36*
X4108Y75607D02*
X5035D01*
Y75191D01*
X4108D01*
Y74279D01*
X3727D01*
Y75191D01*
X2799D01*
Y75607D01*
X3727D01*
Y76519D01*
X4108D01*
Y75607D01*
D02*
G37*
G36*
X5821Y73461D02*
X3251Y73190D01*
X3133Y73178D01*
X3078Y73171D01*
X3031Y73167D01*
X2988Y73163D01*
X2952D01*
X2933Y73159D01*
X2929D01*
X2925D01*
X2866Y73155D01*
X2811Y73151D01*
X2764Y73147D01*
X2724Y73143D01*
X2697D01*
X2673Y73139D01*
X2658D01*
X2654D01*
X2693Y73135D01*
X2740Y73131D01*
X2783Y73123D01*
X2827Y73119D01*
X2866Y73116D01*
X2897Y73112D01*
X2917Y73108D01*
X2925D01*
X2988Y73100D01*
X3047Y73096D01*
X3102Y73088D01*
X3153Y73084D01*
X3192Y73080D01*
X3224Y73076D01*
X3243Y73072D01*
X3251D01*
X5821Y72774D01*
Y72334D01*
X3251Y72007D01*
X3133Y71996D01*
X3078Y71988D01*
X3031Y71984D01*
X2988Y71980D01*
X2952Y71976D01*
X2933Y71972D01*
X2929D01*
X2925D01*
X2866Y71968D01*
X2811Y71960D01*
X2764Y71956D01*
X2724D01*
X2697Y71952D01*
X2673Y71948D01*
X2658D01*
X2654D01*
X2693Y71944D01*
X2740Y71940D01*
X2783D01*
X2827Y71937D01*
X2866Y71933D01*
X2897D01*
X2917Y71929D01*
X2925D01*
X2988Y71925D01*
X3047Y71921D01*
X3102Y71917D01*
X3153Y71913D01*
X3192Y71909D01*
X3224D01*
X3243Y71905D01*
X3251D01*
X5821Y71642D01*
Y71233D01*
X2347Y71634D01*
Y72172D01*
X4964Y72491D01*
X5023Y72499D01*
X5082Y72506D01*
X5133Y72510D01*
X5181Y72514D01*
X5224Y72522D01*
X5251D01*
X5271Y72526D01*
X5279D01*
X5334Y72530D01*
X5385Y72538D01*
X5424Y72542D01*
X5460Y72546D01*
X5487Y72550D01*
X5507Y72554D01*
X5519D01*
X5523D01*
X5487Y72557D01*
X5448Y72561D01*
X5409D01*
X5369Y72565D01*
X5334Y72569D01*
X5306Y72573D01*
X5287D01*
X5279D01*
X5165Y72585D01*
X5114Y72593D01*
X5063Y72597D01*
X5023Y72601D01*
X4992Y72605D01*
X4972Y72609D01*
X4964D01*
X2347Y72903D01*
Y73442D01*
X5821Y73851D01*
Y73461D01*
D02*
G37*
G36*
X3326Y70765D02*
X3389Y70762D01*
X3506Y70738D01*
X3613Y70710D01*
X3660Y70691D01*
X3703Y70675D01*
X3742Y70655D01*
X3778Y70640D01*
X3809Y70620D01*
X3833Y70608D01*
X3852Y70596D01*
X3868Y70585D01*
X3876Y70581D01*
X3880Y70577D01*
X3974Y70498D01*
X4049Y70416D01*
X4116Y70329D01*
X4167Y70247D01*
X4202Y70172D01*
X4218Y70141D01*
X4230Y70113D01*
X4237Y70090D01*
X4245Y70074D01*
X4249Y70062D01*
Y70058D01*
X4422Y69524D01*
X4450Y69457D01*
X4481Y69394D01*
X4513Y69343D01*
X4548Y69300D01*
X4575Y69264D01*
X4599Y69241D01*
X4615Y69225D01*
X4623Y69221D01*
X4678Y69186D01*
X4733Y69158D01*
X4788Y69142D01*
X4839Y69127D01*
X4882Y69119D01*
X4917Y69115D01*
X4941D01*
X4945D01*
X4949D01*
X5035Y69123D01*
X5114Y69138D01*
X5181Y69166D01*
X5236Y69197D01*
X5279Y69225D01*
X5310Y69252D01*
X5330Y69268D01*
X5338Y69276D01*
X5389Y69343D01*
X5424Y69414D01*
X5452Y69488D01*
X5468Y69555D01*
X5479Y69618D01*
X5483Y69645D01*
Y69669D01*
X5487Y69685D01*
Y69712D01*
X5479Y69806D01*
X5464Y69893D01*
X5440Y69964D01*
X5413Y70027D01*
X5385Y70074D01*
X5362Y70109D01*
X5346Y70129D01*
X5338Y70137D01*
X5279Y70192D01*
X5216Y70231D01*
X5149Y70258D01*
X5086Y70278D01*
X5027Y70290D01*
X4984Y70294D01*
X4964Y70298D01*
X4953D01*
X4945D01*
X4941D01*
Y70730D01*
X5020Y70726D01*
X5090Y70718D01*
X5161Y70702D01*
X5224Y70687D01*
X5287Y70667D01*
X5342Y70644D01*
X5393Y70616D01*
X5440Y70592D01*
X5479Y70565D01*
X5515Y70538D01*
X5546Y70514D01*
X5570Y70494D01*
X5589Y70478D01*
X5605Y70463D01*
X5613Y70455D01*
X5617Y70451D01*
X5660Y70396D01*
X5700Y70341D01*
X5735Y70282D01*
X5762Y70219D01*
X5786Y70156D01*
X5806Y70097D01*
X5837Y69979D01*
X5849Y69924D01*
X5857Y69873D01*
X5861Y69830D01*
X5864Y69791D01*
X5868Y69755D01*
Y69712D01*
X5864Y69630D01*
X5857Y69547D01*
X5845Y69472D01*
X5829Y69402D01*
X5810Y69339D01*
X5790Y69276D01*
X5766Y69221D01*
X5743Y69170D01*
X5719Y69127D01*
X5695Y69087D01*
X5676Y69052D01*
X5656Y69024D01*
X5641Y69001D01*
X5629Y68985D01*
X5621Y68977D01*
X5617Y68973D01*
X5570Y68926D01*
X5515Y68883D01*
X5460Y68844D01*
X5405Y68812D01*
X5350Y68785D01*
X5291Y68761D01*
X5236Y68745D01*
X5185Y68730D01*
X5133Y68718D01*
X5090Y68710D01*
X5047Y68702D01*
X5012Y68698D01*
X4980Y68694D01*
X4961D01*
X4945D01*
X4941D01*
X4878Y68698D01*
X4819Y68702D01*
X4709Y68726D01*
X4611Y68757D01*
X4524Y68793D01*
X4485Y68812D01*
X4454Y68828D01*
X4422Y68844D01*
X4399Y68859D01*
X4379Y68871D01*
X4367Y68883D01*
X4359Y68887D01*
X4355Y68891D01*
X4269Y68973D01*
X4194Y69060D01*
X4131Y69150D01*
X4080Y69241D01*
X4041Y69315D01*
X4025Y69351D01*
X4013Y69378D01*
X4006Y69406D01*
X3998Y69421D01*
X3994Y69433D01*
Y69437D01*
X3833Y69952D01*
X3805Y70019D01*
X3774Y70074D01*
X3738Y70125D01*
X3703Y70168D01*
X3668Y70200D01*
X3644Y70223D01*
X3624Y70239D01*
X3617Y70243D01*
X3558Y70278D01*
X3495Y70306D01*
X3436Y70325D01*
X3381Y70341D01*
X3334Y70349D01*
X3294Y70353D01*
X3279D01*
X3267D01*
X3263D01*
X3259D01*
X3212D01*
X3165Y70345D01*
X3082Y70325D01*
X3011Y70298D01*
X2952Y70266D01*
X2901Y70231D01*
X2866Y70203D01*
X2846Y70184D01*
X2842Y70180D01*
X2838Y70176D01*
X2783Y70105D01*
X2744Y70027D01*
X2717Y69948D01*
X2697Y69873D01*
X2685Y69806D01*
X2681Y69779D01*
Y69752D01*
X2677Y69732D01*
Y69704D01*
X2685Y69594D01*
X2701Y69500D01*
X2728Y69414D01*
X2760Y69343D01*
X2787Y69288D01*
X2803Y69264D01*
X2815Y69248D01*
X2823Y69233D01*
X2830Y69221D01*
X2838Y69217D01*
Y69213D01*
X2870Y69182D01*
X2901Y69154D01*
X2972Y69107D01*
X3043Y69076D01*
X3110Y69052D01*
X3168Y69040D01*
X3192Y69032D01*
X3216D01*
X3235Y69028D01*
X3247D01*
X3255D01*
X3259D01*
Y68600D01*
X3180Y68604D01*
X3106Y68612D01*
X3031Y68628D01*
X2964Y68647D01*
X2905Y68671D01*
X2846Y68694D01*
X2795Y68722D01*
X2744Y68749D01*
X2705Y68777D01*
X2665Y68804D01*
X2634Y68828D01*
X2606Y68852D01*
X2587Y68871D01*
X2571Y68887D01*
X2563Y68895D01*
X2559Y68899D01*
X2512Y68958D01*
X2473Y69020D01*
X2437Y69083D01*
X2410Y69150D01*
X2382Y69217D01*
X2363Y69284D01*
X2331Y69414D01*
X2324Y69472D01*
X2316Y69528D01*
X2308Y69579D01*
X2304Y69622D01*
X2300Y69657D01*
Y69704D01*
X2304Y69795D01*
X2312Y69877D01*
X2324Y69956D01*
X2339Y70030D01*
X2359Y70101D01*
X2382Y70164D01*
X2406Y70223D01*
X2430Y70274D01*
X2453Y70321D01*
X2477Y70361D01*
X2500Y70396D01*
X2520Y70427D01*
X2536Y70447D01*
X2548Y70467D01*
X2555Y70475D01*
X2559Y70478D01*
X2610Y70530D01*
X2665Y70573D01*
X2720Y70612D01*
X2780Y70648D01*
X2838Y70675D01*
X2897Y70699D01*
X2952Y70718D01*
X3007Y70734D01*
X3059Y70746D01*
X3106Y70754D01*
X3149Y70762D01*
X3188Y70765D01*
X3216Y70769D01*
X3239D01*
X3255D01*
X3259D01*
X3326Y70765D01*
D02*
G37*
G36*
X47388Y78296D02*
X47467Y78288D01*
X47541Y78276D01*
X47612Y78257D01*
X47679Y78237D01*
X47738Y78214D01*
X47793Y78186D01*
X47844Y78162D01*
X47887Y78135D01*
X47927Y78111D01*
X47962Y78088D01*
X47986Y78068D01*
X48009Y78048D01*
X48025Y78037D01*
X48033Y78029D01*
X48037Y78025D01*
X48084Y77970D01*
X48123Y77911D01*
X48158Y77852D01*
X48190Y77789D01*
X48213Y77726D01*
X48237Y77663D01*
X48268Y77542D01*
X48276Y77486D01*
X48284Y77435D01*
X48292Y77388D01*
X48296Y77349D01*
X48300Y77318D01*
Y77270D01*
X48296Y77184D01*
X48288Y77105D01*
X48276Y77027D01*
X48257Y76956D01*
X48237Y76889D01*
X48213Y76830D01*
X48190Y76775D01*
X48166Y76724D01*
X48143Y76677D01*
X48115Y76638D01*
X48096Y76606D01*
X48076Y76579D01*
X48056Y76555D01*
X48044Y76539D01*
X48037Y76531D01*
X48033Y76528D01*
X47982Y76480D01*
X47923Y76437D01*
X47868Y76402D01*
X47805Y76366D01*
X47746Y76343D01*
X47683Y76319D01*
X47624Y76300D01*
X47565Y76288D01*
X47514Y76276D01*
X47463Y76268D01*
X47416Y76260D01*
X47376Y76256D01*
X47345Y76253D01*
X47321D01*
X47306D01*
X47302D01*
X46484D01*
Y77384D01*
X46873D01*
Y76681D01*
X47302D01*
X47408Y76689D01*
X47498Y76704D01*
X47577Y76732D01*
X47644Y76759D01*
X47695Y76787D01*
X47730Y76815D01*
X47754Y76830D01*
X47762Y76838D01*
X47817Y76901D01*
X47856Y76972D01*
X47883Y77042D01*
X47903Y77113D01*
X47915Y77172D01*
X47919Y77200D01*
Y77223D01*
X47923Y77243D01*
Y77270D01*
X47915Y77369D01*
X47899Y77459D01*
X47872Y77534D01*
X47840Y77596D01*
X47813Y77648D01*
X47785Y77683D01*
X47769Y77707D01*
X47762Y77714D01*
X47695Y77766D01*
X47620Y77805D01*
X47541Y77832D01*
X47471Y77852D01*
X47404Y77864D01*
X47376Y77868D01*
X47349D01*
X47329Y77872D01*
X47313D01*
X47306D01*
X47302D01*
X45726D01*
X45620Y77864D01*
X45529Y77848D01*
X45455Y77820D01*
X45388Y77793D01*
X45341Y77766D01*
X45301Y77738D01*
X45282Y77722D01*
X45274Y77714D01*
X45223Y77648D01*
X45184Y77577D01*
X45156Y77502D01*
X45136Y77431D01*
X45125Y77369D01*
X45121Y77341D01*
Y77318D01*
X45117Y77298D01*
Y77270D01*
X45125Y77172D01*
X45140Y77086D01*
X45168Y77011D01*
X45195Y76948D01*
X45227Y76901D01*
X45254Y76866D01*
X45270Y76846D01*
X45278Y76838D01*
X45341Y76787D01*
X45415Y76748D01*
X45490Y76720D01*
X45561Y76701D01*
X45628Y76689D01*
X45655Y76685D01*
X45683D01*
X45702Y76681D01*
X45718D01*
X45726D01*
X45730D01*
Y76253D01*
X45647Y76256D01*
X45565Y76264D01*
X45490Y76276D01*
X45423Y76296D01*
X45356Y76315D01*
X45298Y76339D01*
X45242Y76363D01*
X45195Y76390D01*
X45148Y76414D01*
X45113Y76441D01*
X45077Y76465D01*
X45050Y76484D01*
X45030Y76504D01*
X45015Y76516D01*
X45007Y76524D01*
X45003Y76528D01*
X44956Y76583D01*
X44912Y76638D01*
X44877Y76697D01*
X44846Y76759D01*
X44818Y76822D01*
X44798Y76885D01*
X44779Y76944D01*
X44767Y77003D01*
X44755Y77058D01*
X44747Y77109D01*
X44739Y77152D01*
X44736Y77192D01*
X44732Y77227D01*
Y77270D01*
X44736Y77357D01*
X44743Y77439D01*
X44755Y77518D01*
X44775Y77589D01*
X44794Y77656D01*
X44814Y77718D01*
X44842Y77773D01*
X44865Y77824D01*
X44889Y77872D01*
X44912Y77911D01*
X44936Y77946D01*
X44956Y77974D01*
X44975Y77997D01*
X44987Y78013D01*
X44995Y78021D01*
X44999Y78025D01*
X45050Y78072D01*
X45105Y78115D01*
X45164Y78151D01*
X45223Y78182D01*
X45286Y78210D01*
X45345Y78233D01*
X45404Y78253D01*
X45463Y78265D01*
X45518Y78276D01*
X45569Y78284D01*
X45612Y78292D01*
X45651Y78296D01*
X45687Y78300D01*
X45710D01*
X45726D01*
X45730D01*
X47302D01*
X47388Y78296D01*
D02*
G37*
G36*
X48253Y75018D02*
X46303D01*
X46170D01*
X46107Y75022D01*
X46052D01*
X46005D01*
X45966Y75026D01*
X45942D01*
X45938D01*
X45934D01*
X45863Y75030D01*
X45797D01*
X45734Y75034D01*
X45679Y75038D01*
X45632D01*
X45600Y75042D01*
X45577D01*
X45569D01*
X45506Y75046D01*
X45447Y75050D01*
X45400D01*
X45356Y75054D01*
X45325Y75058D01*
X45298D01*
X45282Y75062D01*
X45278D01*
X48253Y74005D01*
Y73431D01*
X44779D01*
Y73847D01*
X46732D01*
X46858D01*
X46920Y73843D01*
X46976D01*
X47023D01*
X47062Y73839D01*
X47086D01*
X47089D01*
X47093D01*
X47164Y73835D01*
X47231Y73832D01*
X47294D01*
X47349Y73828D01*
X47396Y73824D01*
X47431Y73820D01*
X47455D01*
X47459D01*
X47463D01*
X47526Y73816D01*
X47581Y73812D01*
X47632Y73808D01*
X47671Y73804D01*
X47706D01*
X47734Y73800D01*
X47750D01*
X47754D01*
X44779Y74861D01*
Y75431D01*
X48253D01*
Y75018D01*
D02*
G37*
G36*
Y71666D02*
X48249Y71544D01*
X48233Y71434D01*
X48213Y71332D01*
X48202Y71289D01*
X48190Y71250D01*
X48178Y71210D01*
X48166Y71179D01*
X48155Y71151D01*
X48147Y71128D01*
X48139Y71108D01*
X48131Y71096D01*
X48127Y71088D01*
Y71084D01*
X48072Y70998D01*
X48017Y70920D01*
X47954Y70857D01*
X47895Y70802D01*
X47844Y70758D01*
X47801Y70727D01*
X47785Y70719D01*
X47773Y70711D01*
X47765Y70703D01*
X47762D01*
X47671Y70656D01*
X47577Y70625D01*
X47482Y70601D01*
X47396Y70582D01*
X47357Y70578D01*
X47321Y70574D01*
X47290Y70570D01*
X47262D01*
X47239Y70566D01*
X47223D01*
X47211D01*
X47207D01*
X45820D01*
X45706Y70570D01*
X45600Y70585D01*
X45506Y70609D01*
X45427Y70633D01*
X45392Y70648D01*
X45360Y70660D01*
X45333Y70672D01*
X45309Y70680D01*
X45294Y70692D01*
X45282Y70696D01*
X45274Y70703D01*
X45270D01*
X45187Y70758D01*
X45113Y70817D01*
X45050Y70884D01*
X44999Y70943D01*
X44960Y70998D01*
X44932Y71045D01*
X44920Y71061D01*
X44912Y71073D01*
X44908Y71081D01*
Y71084D01*
X44865Y71179D01*
X44834Y71277D01*
X44810Y71375D01*
X44794Y71466D01*
X44791Y71509D01*
X44787Y71544D01*
X44783Y71580D01*
X44779Y71611D01*
Y72566D01*
X48253D01*
Y71666D01*
D02*
G37*
G36*
X26331Y88847D02*
X25918D01*
Y90796D01*
Y90930D01*
X25922Y90993D01*
Y91048D01*
Y91095D01*
X25926Y91134D01*
Y91158D01*
Y91162D01*
Y91166D01*
X25930Y91237D01*
Y91303D01*
X25934Y91366D01*
X25938Y91421D01*
Y91469D01*
X25942Y91500D01*
Y91523D01*
Y91531D01*
X25946Y91594D01*
X25950Y91653D01*
Y91700D01*
X25954Y91744D01*
X25958Y91775D01*
Y91803D01*
X25962Y91818D01*
Y91822D01*
X24904Y88847D01*
X24331D01*
Y92321D01*
X24747D01*
Y90368D01*
Y90242D01*
X24743Y90179D01*
Y90124D01*
Y90077D01*
X24739Y90038D01*
Y90014D01*
Y90010D01*
Y90007D01*
X24735Y89936D01*
X24732Y89869D01*
Y89806D01*
X24728Y89751D01*
X24724Y89704D01*
X24720Y89669D01*
Y89645D01*
Y89641D01*
Y89637D01*
X24716Y89574D01*
X24712Y89519D01*
X24708Y89468D01*
X24704Y89429D01*
Y89393D01*
X24700Y89366D01*
Y89350D01*
Y89346D01*
X25761Y92321D01*
X26331D01*
Y88847D01*
D02*
G37*
G36*
X28257Y92365D02*
X28339Y92357D01*
X28418Y92345D01*
X28489Y92325D01*
X28556Y92306D01*
X28618Y92286D01*
X28673Y92258D01*
X28725Y92235D01*
X28772Y92211D01*
X28811Y92188D01*
X28846Y92164D01*
X28874Y92144D01*
X28897Y92125D01*
X28913Y92113D01*
X28921Y92105D01*
X28925Y92101D01*
X28972Y92050D01*
X29015Y91995D01*
X29051Y91936D01*
X29082Y91877D01*
X29110Y91814D01*
X29133Y91755D01*
X29153Y91696D01*
X29165Y91637D01*
X29176Y91582D01*
X29184Y91531D01*
X29192Y91488D01*
X29196Y91449D01*
X29200Y91413D01*
Y91390D01*
Y91374D01*
Y91370D01*
Y89798D01*
X29196Y89712D01*
X29188Y89633D01*
X29176Y89559D01*
X29157Y89488D01*
X29137Y89421D01*
X29114Y89362D01*
X29086Y89307D01*
X29063Y89256D01*
X29035Y89213D01*
X29011Y89173D01*
X28988Y89138D01*
X28968Y89114D01*
X28949Y89091D01*
X28937Y89075D01*
X28929Y89067D01*
X28925Y89063D01*
X28870Y89016D01*
X28811Y88977D01*
X28752Y88942D01*
X28689Y88910D01*
X28626Y88886D01*
X28563Y88863D01*
X28442Y88831D01*
X28387Y88824D01*
X28335Y88816D01*
X28288Y88808D01*
X28249Y88804D01*
X28218Y88800D01*
X28170D01*
X28084Y88804D01*
X28005Y88812D01*
X27927Y88824D01*
X27856Y88843D01*
X27789Y88863D01*
X27730Y88886D01*
X27675Y88910D01*
X27624Y88934D01*
X27577Y88957D01*
X27538Y88985D01*
X27506Y89004D01*
X27479Y89024D01*
X27455Y89044D01*
X27439Y89055D01*
X27431Y89063D01*
X27428Y89067D01*
X27380Y89118D01*
X27337Y89177D01*
X27302Y89232D01*
X27266Y89295D01*
X27243Y89354D01*
X27219Y89417D01*
X27200Y89476D01*
X27188Y89535D01*
X27176Y89586D01*
X27168Y89637D01*
X27160Y89684D01*
X27156Y89724D01*
X27152Y89755D01*
Y89779D01*
Y89794D01*
Y89798D01*
Y90616D01*
X28284D01*
Y90227D01*
X27581D01*
Y89798D01*
X27589Y89692D01*
X27604Y89602D01*
X27632Y89523D01*
X27659Y89456D01*
X27687Y89405D01*
X27714Y89370D01*
X27730Y89346D01*
X27738Y89338D01*
X27801Y89283D01*
X27872Y89244D01*
X27942Y89217D01*
X28013Y89197D01*
X28072Y89185D01*
X28100Y89181D01*
X28123D01*
X28143Y89177D01*
X28170D01*
X28269Y89185D01*
X28359Y89201D01*
X28434Y89228D01*
X28497Y89260D01*
X28548Y89287D01*
X28583Y89315D01*
X28607Y89331D01*
X28614Y89338D01*
X28666Y89405D01*
X28705Y89480D01*
X28732Y89559D01*
X28752Y89629D01*
X28764Y89696D01*
X28768Y89724D01*
Y89751D01*
X28772Y89771D01*
Y89786D01*
Y89794D01*
Y89798D01*
Y91374D01*
X28764Y91480D01*
X28748Y91571D01*
X28721Y91645D01*
X28693Y91712D01*
X28666Y91759D01*
X28638Y91799D01*
X28622Y91818D01*
X28614Y91826D01*
X28548Y91877D01*
X28477Y91917D01*
X28402Y91944D01*
X28332Y91964D01*
X28269Y91975D01*
X28241Y91979D01*
X28218D01*
X28198Y91983D01*
X28170D01*
X28072Y91975D01*
X27986Y91960D01*
X27911Y91932D01*
X27848Y91905D01*
X27801Y91873D01*
X27766Y91846D01*
X27746Y91830D01*
X27738Y91822D01*
X27687Y91759D01*
X27648Y91685D01*
X27620Y91610D01*
X27600Y91539D01*
X27589Y91472D01*
X27585Y91445D01*
Y91417D01*
X27581Y91398D01*
Y91382D01*
Y91374D01*
Y91370D01*
X27152D01*
X27156Y91453D01*
X27164Y91535D01*
X27176Y91610D01*
X27196Y91677D01*
X27215Y91744D01*
X27239Y91803D01*
X27262Y91857D01*
X27290Y91905D01*
X27314Y91952D01*
X27341Y91987D01*
X27365Y92023D01*
X27384Y92050D01*
X27404Y92070D01*
X27416Y92085D01*
X27424Y92093D01*
X27428Y92097D01*
X27483Y92144D01*
X27538Y92188D01*
X27597Y92223D01*
X27659Y92255D01*
X27722Y92282D01*
X27785Y92302D01*
X27844Y92321D01*
X27903Y92333D01*
X27958Y92345D01*
X28009Y92353D01*
X28052Y92361D01*
X28092Y92365D01*
X28127Y92368D01*
X28170D01*
X28257Y92365D01*
D02*
G37*
G36*
X23466Y88847D02*
X22566D01*
X22444Y88851D01*
X22334Y88867D01*
X22232Y88886D01*
X22189Y88898D01*
X22150Y88910D01*
X22110Y88922D01*
X22079Y88934D01*
X22051Y88945D01*
X22028Y88953D01*
X22008Y88961D01*
X21996Y88969D01*
X21989Y88973D01*
X21984D01*
X21898Y89028D01*
X21820Y89083D01*
X21757Y89146D01*
X21702Y89205D01*
X21658Y89256D01*
X21627Y89299D01*
X21619Y89315D01*
X21611Y89327D01*
X21603Y89334D01*
Y89338D01*
X21556Y89429D01*
X21525Y89523D01*
X21501Y89617D01*
X21482Y89704D01*
X21477Y89743D01*
X21474Y89779D01*
X21470Y89810D01*
Y89837D01*
X21466Y89861D01*
Y89877D01*
Y89889D01*
Y89893D01*
Y91280D01*
X21470Y91394D01*
X21485Y91500D01*
X21509Y91594D01*
X21533Y91673D01*
X21548Y91708D01*
X21560Y91740D01*
X21572Y91767D01*
X21580Y91791D01*
X21591Y91806D01*
X21595Y91818D01*
X21603Y91826D01*
Y91830D01*
X21658Y91913D01*
X21717Y91987D01*
X21784Y92050D01*
X21843Y92101D01*
X21898Y92141D01*
X21945Y92168D01*
X21961Y92180D01*
X21973Y92188D01*
X21981Y92192D01*
X21984D01*
X22079Y92235D01*
X22177Y92266D01*
X22275Y92290D01*
X22366Y92306D01*
X22409Y92309D01*
X22444Y92313D01*
X22480Y92317D01*
X22511Y92321D01*
X23466D01*
Y88847D01*
D02*
G37*
G36*
X14000Y48600D02*
X12000D01*
Y48989D01*
X13576D01*
Y50227D01*
X12169D01*
Y50608D01*
X13576D01*
Y51685D01*
X12000D01*
Y52074D01*
X14000D01*
Y48600D01*
D02*
G37*
G36*
X268231Y102947D02*
X267818D01*
Y104896D01*
Y105030D01*
X267822Y105093D01*
Y105148D01*
Y105195D01*
X267826Y105234D01*
Y105258D01*
Y105262D01*
Y105266D01*
X267830Y105337D01*
Y105403D01*
X267834Y105466D01*
X267838Y105521D01*
Y105569D01*
X267842Y105600D01*
Y105623D01*
Y105631D01*
X267846Y105694D01*
X267850Y105753D01*
Y105800D01*
X267854Y105844D01*
X267858Y105875D01*
Y105903D01*
X267862Y105918D01*
Y105922D01*
X266805Y102947D01*
X266231D01*
Y106421D01*
X266647D01*
Y104468D01*
Y104342D01*
X266643Y104279D01*
Y104224D01*
Y104177D01*
X266639Y104138D01*
Y104114D01*
Y104110D01*
Y104106D01*
X266635Y104036D01*
X266632Y103969D01*
Y103906D01*
X266628Y103851D01*
X266624Y103804D01*
X266620Y103769D01*
Y103745D01*
Y103741D01*
Y103737D01*
X266616Y103674D01*
X266612Y103619D01*
X266608Y103568D01*
X266604Y103529D01*
Y103493D01*
X266600Y103466D01*
Y103450D01*
Y103446D01*
X267661Y106421D01*
X268231D01*
Y102947D01*
D02*
G37*
G36*
X270157Y106465D02*
X270239Y106457D01*
X270318Y106445D01*
X270389Y106425D01*
X270456Y106406D01*
X270518Y106386D01*
X270573Y106358D01*
X270624Y106335D01*
X270672Y106311D01*
X270711Y106288D01*
X270746Y106264D01*
X270774Y106244D01*
X270797Y106225D01*
X270813Y106213D01*
X270821Y106205D01*
X270825Y106201D01*
X270872Y106150D01*
X270915Y106095D01*
X270951Y106036D01*
X270982Y105977D01*
X271010Y105914D01*
X271033Y105855D01*
X271053Y105796D01*
X271065Y105737D01*
X271076Y105682D01*
X271084Y105631D01*
X271092Y105588D01*
X271096Y105549D01*
X271100Y105513D01*
Y105490D01*
Y105474D01*
Y105470D01*
Y103898D01*
X271096Y103812D01*
X271088Y103733D01*
X271076Y103658D01*
X271057Y103588D01*
X271037Y103521D01*
X271013Y103462D01*
X270986Y103407D01*
X270962Y103356D01*
X270935Y103313D01*
X270911Y103273D01*
X270888Y103238D01*
X270868Y103214D01*
X270848Y103191D01*
X270837Y103175D01*
X270829Y103167D01*
X270825Y103163D01*
X270770Y103116D01*
X270711Y103077D01*
X270652Y103042D01*
X270589Y103010D01*
X270526Y102987D01*
X270463Y102963D01*
X270341Y102931D01*
X270286Y102924D01*
X270235Y102916D01*
X270188Y102908D01*
X270149Y102904D01*
X270117Y102900D01*
X270070D01*
X269984Y102904D01*
X269905Y102912D01*
X269827Y102924D01*
X269756Y102943D01*
X269689Y102963D01*
X269630Y102987D01*
X269575Y103010D01*
X269524Y103034D01*
X269477Y103057D01*
X269438Y103085D01*
X269406Y103104D01*
X269379Y103124D01*
X269355Y103144D01*
X269339Y103155D01*
X269332Y103163D01*
X269328Y103167D01*
X269280Y103218D01*
X269237Y103277D01*
X269202Y103332D01*
X269166Y103395D01*
X269143Y103454D01*
X269119Y103517D01*
X269100Y103576D01*
X269088Y103635D01*
X269076Y103686D01*
X269068Y103737D01*
X269060Y103784D01*
X269056Y103824D01*
X269053Y103855D01*
Y103879D01*
Y103894D01*
Y103898D01*
Y104716D01*
X270184D01*
Y104327D01*
X269481D01*
Y103898D01*
X269489Y103792D01*
X269504Y103702D01*
X269532Y103623D01*
X269559Y103556D01*
X269587Y103505D01*
X269615Y103470D01*
X269630Y103446D01*
X269638Y103438D01*
X269701Y103383D01*
X269772Y103344D01*
X269842Y103317D01*
X269913Y103297D01*
X269972Y103285D01*
X270000Y103281D01*
X270023D01*
X270043Y103277D01*
X270070D01*
X270169Y103285D01*
X270259Y103301D01*
X270334Y103328D01*
X270396Y103360D01*
X270448Y103387D01*
X270483Y103415D01*
X270507Y103430D01*
X270514Y103438D01*
X270566Y103505D01*
X270605Y103580D01*
X270632Y103658D01*
X270652Y103729D01*
X270664Y103796D01*
X270668Y103824D01*
Y103851D01*
X270672Y103871D01*
Y103886D01*
Y103894D01*
Y103898D01*
Y105474D01*
X270664Y105580D01*
X270648Y105671D01*
X270620Y105745D01*
X270593Y105812D01*
X270566Y105859D01*
X270538Y105899D01*
X270522Y105918D01*
X270514Y105926D01*
X270448Y105977D01*
X270377Y106017D01*
X270302Y106044D01*
X270232Y106064D01*
X270169Y106075D01*
X270141Y106079D01*
X270117D01*
X270098Y106083D01*
X270070D01*
X269972Y106075D01*
X269886Y106060D01*
X269811Y106032D01*
X269748Y106005D01*
X269701Y105973D01*
X269666Y105946D01*
X269646Y105930D01*
X269638Y105922D01*
X269587Y105859D01*
X269548Y105785D01*
X269520Y105710D01*
X269500Y105639D01*
X269489Y105572D01*
X269485Y105545D01*
Y105517D01*
X269481Y105498D01*
Y105482D01*
Y105474D01*
Y105470D01*
X269053D01*
X269056Y105553D01*
X269064Y105635D01*
X269076Y105710D01*
X269096Y105777D01*
X269115Y105844D01*
X269139Y105903D01*
X269163Y105957D01*
X269190Y106005D01*
X269214Y106052D01*
X269241Y106087D01*
X269265Y106123D01*
X269284Y106150D01*
X269304Y106170D01*
X269316Y106185D01*
X269324Y106193D01*
X269328Y106197D01*
X269383Y106244D01*
X269438Y106288D01*
X269497Y106323D01*
X269559Y106354D01*
X269622Y106382D01*
X269685Y106402D01*
X269744Y106421D01*
X269803Y106433D01*
X269858Y106445D01*
X269909Y106453D01*
X269952Y106461D01*
X269992Y106465D01*
X270027Y106468D01*
X270070D01*
X270157Y106465D01*
D02*
G37*
G36*
X265366Y102947D02*
X264466D01*
X264344Y102951D01*
X264234Y102967D01*
X264132Y102987D01*
X264089Y102998D01*
X264050Y103010D01*
X264010Y103022D01*
X263979Y103034D01*
X263951Y103045D01*
X263928Y103053D01*
X263908Y103061D01*
X263896Y103069D01*
X263889Y103073D01*
X263884D01*
X263798Y103128D01*
X263720Y103183D01*
X263657Y103246D01*
X263602Y103305D01*
X263558Y103356D01*
X263527Y103399D01*
X263519Y103415D01*
X263511Y103427D01*
X263503Y103435D01*
Y103438D01*
X263456Y103529D01*
X263425Y103623D01*
X263401Y103717D01*
X263382Y103804D01*
X263378Y103843D01*
X263374Y103879D01*
X263370Y103910D01*
Y103937D01*
X263366Y103961D01*
Y103977D01*
Y103989D01*
Y103992D01*
Y105380D01*
X263370Y105494D01*
X263385Y105600D01*
X263409Y105694D01*
X263433Y105773D01*
X263448Y105808D01*
X263460Y105840D01*
X263472Y105867D01*
X263480Y105891D01*
X263492Y105906D01*
X263495Y105918D01*
X263503Y105926D01*
Y105930D01*
X263558Y106013D01*
X263617Y106087D01*
X263684Y106150D01*
X263743Y106201D01*
X263798Y106240D01*
X263845Y106268D01*
X263861Y106280D01*
X263873Y106288D01*
X263881Y106292D01*
X263884D01*
X263979Y106335D01*
X264077Y106366D01*
X264175Y106390D01*
X264266Y106406D01*
X264309Y106410D01*
X264344Y106413D01*
X264380Y106417D01*
X264411Y106421D01*
X265366D01*
Y102947D01*
D02*
G37*
G36*
X269037Y135017D02*
X269119Y135010D01*
X269194Y134998D01*
X269269Y134978D01*
X269336Y134958D01*
X269398Y134935D01*
X269453Y134911D01*
X269504Y134884D01*
X269552Y134860D01*
X269595Y134833D01*
X269626Y134809D01*
X269658Y134789D01*
X269677Y134770D01*
X269697Y134758D01*
X269705Y134750D01*
X269709Y134746D01*
X269760Y134691D01*
X269803Y134636D01*
X269843Y134577D01*
X269878Y134514D01*
X269905Y134451D01*
X269929Y134389D01*
X269949Y134330D01*
X269964Y134271D01*
X269980Y134216D01*
X269988Y134165D01*
X269996Y134117D01*
X270000Y134078D01*
X270004Y134047D01*
X270007Y134019D01*
Y134003D01*
Y134000D01*
X269579D01*
X269575Y134055D01*
X269571Y134106D01*
X269552Y134196D01*
X269524Y134279D01*
X269493Y134345D01*
X269465Y134396D01*
X269438Y134436D01*
X269418Y134459D01*
X269410Y134467D01*
X269379Y134499D01*
X269343Y134526D01*
X269269Y134565D01*
X269190Y134597D01*
X269115Y134620D01*
X269053Y134632D01*
X269021Y134636D01*
X268998D01*
X268978Y134640D01*
X268899D01*
X268848Y134632D01*
X268758Y134613D01*
X268683Y134585D01*
X268616Y134557D01*
X268565Y134526D01*
X268530Y134499D01*
X268506Y134479D01*
X268498Y134475D01*
Y134471D01*
X268443Y134404D01*
X268404Y134330D01*
X268373Y134255D01*
X268353Y134180D01*
X268341Y134117D01*
X268337Y134090D01*
Y134066D01*
X268333Y134047D01*
Y134031D01*
Y134023D01*
Y134019D01*
X268337Y133944D01*
X268349Y133870D01*
X268369Y133799D01*
X268388Y133736D01*
X268412Y133685D01*
X268428Y133642D01*
X268436Y133626D01*
X268443Y133614D01*
X268447Y133610D01*
Y133607D01*
X268495Y133528D01*
X268549Y133445D01*
X268608Y133363D01*
X268667Y133292D01*
X268722Y133225D01*
X268746Y133198D01*
X268766Y133174D01*
X268781Y133159D01*
X268793Y133143D01*
X268801Y133135D01*
X268805Y133131D01*
X269913Y131921D01*
Y131500D01*
X267846D01*
Y131889D01*
X269422D01*
X268518Y132872D01*
X268459Y132934D01*
X268404Y132997D01*
X268353Y133060D01*
X268306Y133115D01*
X268267Y133170D01*
X268227Y133221D01*
X268192Y133268D01*
X268160Y133312D01*
X268137Y133355D01*
X268113Y133390D01*
X268094Y133418D01*
X268078Y133445D01*
X268066Y133465D01*
X268058Y133481D01*
X268050Y133489D01*
Y133493D01*
X268003Y133595D01*
X267968Y133689D01*
X267940Y133775D01*
X267925Y133854D01*
X267913Y133917D01*
X267909Y133944D01*
Y133968D01*
X267905Y133988D01*
Y134000D01*
Y134007D01*
Y134011D01*
X267909Y134098D01*
X267917Y134176D01*
X267933Y134255D01*
X267948Y134326D01*
X267972Y134389D01*
X267995Y134451D01*
X268019Y134506D01*
X268046Y134557D01*
X268074Y134601D01*
X268097Y134640D01*
X268121Y134671D01*
X268145Y134699D01*
X268160Y134723D01*
X268176Y134738D01*
X268184Y134746D01*
X268188Y134750D01*
X268243Y134797D01*
X268302Y134841D01*
X268365Y134876D01*
X268428Y134907D01*
X268491Y134935D01*
X268553Y134955D01*
X268616Y134974D01*
X268675Y134986D01*
X268730Y134998D01*
X268785Y135006D01*
X268829Y135013D01*
X268872Y135017D01*
X268903Y135021D01*
X268950D01*
X269037Y135017D01*
D02*
G37*
G36*
X267162Y132931D02*
Y132258D01*
X265590D01*
Y131500D01*
X265162D01*
Y133500D01*
X265590D01*
Y132651D01*
X266734D01*
Y132848D01*
X265421Y134974D01*
X265893D01*
X267162Y132931D01*
D02*
G37*
G36*
X271988Y133261D02*
X272900D01*
Y132879D01*
X271988D01*
Y131952D01*
X271572D01*
Y132879D01*
X270660D01*
Y133261D01*
X271572D01*
Y134188D01*
X271988D01*
Y133261D01*
D02*
G37*
G36*
X263503Y131500D02*
X262918D01*
X262018Y134974D01*
X262462D01*
X263032Y132612D01*
X263055Y132522D01*
X263075Y132435D01*
X263095Y132357D01*
X263110Y132290D01*
X263122Y132231D01*
X263130Y132207D01*
X263134Y132188D01*
X263138Y132172D01*
Y132160D01*
X263142Y132156D01*
Y132152D01*
X263158Y132078D01*
X263169Y132011D01*
X263181Y131956D01*
X263189Y131913D01*
X263197Y131877D01*
X263201Y131850D01*
X263205Y131834D01*
Y131830D01*
X263213Y131877D01*
X263220Y131928D01*
X263232Y131980D01*
X263240Y132030D01*
X263252Y132078D01*
X263256Y132113D01*
X263260Y132129D01*
X263264Y132141D01*
Y132144D01*
Y132149D01*
X263295Y132310D01*
X263315Y132388D01*
X263331Y132459D01*
X263342Y132518D01*
X263350Y132545D01*
X263354Y132565D01*
X263358Y132585D01*
X263362Y132597D01*
X263366Y132604D01*
Y132608D01*
X263959Y134974D01*
X264399D01*
X263503Y131500D01*
D02*
G37*
%LPC*%
G36*
X82491Y86193D02*
X81827D01*
X81783Y86185D01*
X81700Y86166D01*
X81633Y86140D01*
X81573Y86114D01*
X81528Y86084D01*
X81490Y86058D01*
X81471Y86039D01*
X81464Y86035D01*
Y86031D01*
X81411Y85967D01*
X81374Y85900D01*
X81348Y85829D01*
X81329Y85761D01*
X81318Y85701D01*
X81314Y85675D01*
Y85653D01*
X81310Y85634D01*
Y85619D01*
Y85611D01*
Y85607D01*
X81318Y85514D01*
X81332Y85427D01*
X81359Y85356D01*
X81385Y85293D01*
X81415Y85244D01*
X81441Y85210D01*
X81456Y85188D01*
X81464Y85184D01*
Y85180D01*
X81494Y85150D01*
X81524Y85128D01*
X81591Y85086D01*
X81659Y85060D01*
X81726Y85037D01*
X81783Y85026D01*
X81809Y85022D01*
X81831D01*
X81846Y85019D01*
X82491D01*
Y86193D01*
D02*
G37*
G36*
X76949Y104396D02*
X76442D01*
X76394Y104389D01*
X76300Y104370D01*
X76218Y104344D01*
X76150Y104314D01*
X76098Y104280D01*
X76060Y104254D01*
X76049Y104243D01*
X76038Y104235D01*
X76030Y104231D01*
Y104227D01*
X76000Y104194D01*
X75974Y104160D01*
X75929Y104085D01*
X75899Y104010D01*
X75880Y103935D01*
X75865Y103867D01*
X75861Y103841D01*
Y103815D01*
X75858Y103796D01*
Y103781D01*
Y103770D01*
Y103766D01*
Y102443D01*
Y102386D01*
X75865Y102338D01*
X75884Y102244D01*
X75914Y102161D01*
X75944Y102097D01*
X75974Y102041D01*
X76004Y102004D01*
X76015Y101992D01*
X76022Y101981D01*
X76026Y101978D01*
X76030Y101974D01*
X76064Y101944D01*
X76098Y101918D01*
X76173Y101876D01*
X76251Y101846D01*
X76326Y101828D01*
X76394Y101813D01*
X76424Y101809D01*
X76450D01*
X76469Y101805D01*
X76949D01*
Y104396D01*
D02*
G37*
G36*
X70986Y104437D02*
X70960D01*
X70866Y104430D01*
X70780Y104415D01*
X70713Y104389D01*
X70653Y104362D01*
X70608Y104332D01*
X70574Y104306D01*
X70555Y104291D01*
X70547Y104284D01*
X70499Y104224D01*
X70465Y104153D01*
X70439Y104081D01*
X70424Y104014D01*
X70412Y103950D01*
X70409Y103924D01*
Y103898D01*
X70405Y103879D01*
Y103864D01*
Y103856D01*
Y103852D01*
Y102352D01*
X70412Y102255D01*
X70428Y102165D01*
X70450Y102090D01*
X70476Y102030D01*
X70503Y101981D01*
X70525Y101947D01*
X70540Y101925D01*
X70547Y101918D01*
X70608Y101869D01*
X70671Y101831D01*
X70739Y101805D01*
X70806Y101786D01*
X70866Y101775D01*
X70893Y101771D01*
X70915D01*
X70934Y101768D01*
X70960D01*
X71054Y101775D01*
X71136Y101790D01*
X71204Y101816D01*
X71264Y101842D01*
X71309Y101869D01*
X71342Y101895D01*
X71361Y101910D01*
X71369Y101918D01*
X71417Y101981D01*
X71455Y102049D01*
X71478Y102124D01*
X71496Y102191D01*
X71508Y102255D01*
X71511Y102281D01*
Y102307D01*
X71515Y102326D01*
Y102341D01*
Y102349D01*
Y102352D01*
Y103852D01*
X71508Y103954D01*
X71492Y104040D01*
X71470Y104111D01*
X71440Y104175D01*
X71414Y104220D01*
X71391Y104258D01*
X71376Y104276D01*
X71369Y104284D01*
X71309Y104336D01*
X71241Y104374D01*
X71174Y104400D01*
X71110Y104419D01*
X71050Y104430D01*
X71024Y104434D01*
X71005D01*
X70986Y104437D01*
D02*
G37*
G36*
X40572Y53389D02*
X39829D01*
X39782Y53381D01*
X39691Y53361D01*
X39617Y53334D01*
X39550Y53303D01*
X39499Y53271D01*
X39463Y53244D01*
X39440Y53224D01*
X39432Y53220D01*
Y53216D01*
X39401Y53185D01*
X39377Y53149D01*
X39334Y53071D01*
X39302Y52996D01*
X39283Y52921D01*
X39271Y52855D01*
X39267Y52827D01*
Y52799D01*
X39263Y52780D01*
Y52764D01*
Y52756D01*
Y52752D01*
Y52701D01*
X39271Y52650D01*
X39290Y52556D01*
X39318Y52477D01*
X39345Y52410D01*
X39377Y52355D01*
X39404Y52316D01*
X39416Y52304D01*
X39424Y52293D01*
X39428Y52289D01*
X39432Y52285D01*
X39463Y52253D01*
X39499Y52230D01*
X39573Y52186D01*
X39648Y52155D01*
X39719Y52135D01*
X39782Y52120D01*
X39809Y52116D01*
X39833D01*
X39852Y52112D01*
X40572D01*
Y53389D01*
D02*
G37*
G36*
X47875Y72138D02*
X45160D01*
Y71607D01*
X45168Y71556D01*
X45187Y71458D01*
X45215Y71371D01*
X45246Y71301D01*
X45282Y71246D01*
X45309Y71206D01*
X45321Y71195D01*
X45329Y71183D01*
X45333Y71175D01*
X45337D01*
X45372Y71144D01*
X45408Y71116D01*
X45486Y71069D01*
X45565Y71037D01*
X45643Y71018D01*
X45714Y71002D01*
X45742Y70998D01*
X45769D01*
X45789Y70994D01*
X45804D01*
X45816D01*
X45820D01*
X47207D01*
X47266D01*
X47317Y71002D01*
X47416Y71022D01*
X47502Y71053D01*
X47569Y71084D01*
X47628Y71116D01*
X47667Y71147D01*
X47679Y71159D01*
X47691Y71167D01*
X47695Y71171D01*
X47699Y71175D01*
X47730Y71210D01*
X47758Y71246D01*
X47801Y71324D01*
X47832Y71407D01*
X47852Y71485D01*
X47868Y71556D01*
X47872Y71588D01*
Y71615D01*
X47875Y71635D01*
Y72138D01*
D02*
G37*
G36*
X23038Y91940D02*
X22507D01*
X22456Y91932D01*
X22358Y91913D01*
X22271Y91885D01*
X22201Y91854D01*
X22146Y91818D01*
X22106Y91791D01*
X22095Y91779D01*
X22083Y91771D01*
X22075Y91767D01*
Y91763D01*
X22043Y91728D01*
X22016Y91693D01*
X21969Y91614D01*
X21937Y91535D01*
X21918Y91457D01*
X21902Y91386D01*
X21898Y91358D01*
Y91331D01*
X21894Y91311D01*
Y91296D01*
Y91284D01*
Y91280D01*
Y89893D01*
Y89834D01*
X21902Y89783D01*
X21922Y89684D01*
X21953Y89598D01*
X21984Y89531D01*
X22016Y89472D01*
X22047Y89433D01*
X22059Y89421D01*
X22067Y89409D01*
X22071Y89405D01*
X22075Y89401D01*
X22110Y89370D01*
X22146Y89342D01*
X22224Y89299D01*
X22307Y89268D01*
X22385Y89248D01*
X22456Y89232D01*
X22488Y89228D01*
X22515D01*
X22535Y89224D01*
X23038D01*
Y91940D01*
D02*
G37*
G36*
X264938Y106040D02*
X264407D01*
X264356Y106032D01*
X264258Y106013D01*
X264171Y105985D01*
X264101Y105954D01*
X264046Y105918D01*
X264006Y105891D01*
X263995Y105879D01*
X263983Y105871D01*
X263975Y105867D01*
Y105863D01*
X263944Y105828D01*
X263916Y105792D01*
X263869Y105714D01*
X263837Y105635D01*
X263818Y105557D01*
X263802Y105486D01*
X263798Y105458D01*
Y105431D01*
X263794Y105411D01*
Y105396D01*
Y105384D01*
Y105380D01*
Y103992D01*
Y103934D01*
X263802Y103883D01*
X263822Y103784D01*
X263853Y103698D01*
X263884Y103631D01*
X263916Y103572D01*
X263947Y103533D01*
X263959Y103521D01*
X263967Y103509D01*
X263971Y103505D01*
X263975Y103501D01*
X264010Y103470D01*
X264046Y103442D01*
X264124Y103399D01*
X264207Y103368D01*
X264285Y103348D01*
X264356Y103332D01*
X264388Y103328D01*
X264415D01*
X264435Y103324D01*
X264938D01*
Y106040D01*
D02*
G37*
%LPD*%
D10*
X7480Y68894D02*
G03*
X7480Y68925I18110J0D01*
G01*
D11*
X141911Y107718D02*
Y131340D01*
X130887D02*
X141911D01*
X130887Y107718D02*
Y131340D01*
Y107718D02*
X141911D01*
X189942Y111173D02*
X195061D01*
Y109204D02*
Y111173D01*
X189942Y109204D02*
X195061D01*
X158660Y105462D02*
Y133596D01*
X189959Y129765D02*
X195077D01*
Y127797D02*
Y129765D01*
X189959Y127797D02*
X195077D01*
X189959Y105462D02*
Y133596D01*
X158660D02*
X189959D01*
X158660Y105462D02*
X189959D01*
X98812Y53178D02*
Y64202D01*
X102749Y53178D02*
Y64202D01*
X98812Y53178D02*
X102749D01*
X98812Y64202D02*
X102749D01*
X43920Y82992D02*
Y85591D01*
Y82992D02*
Y85591D01*
Y82992D02*
Y85591D01*
Y82992D02*
X47128D01*
X43920Y94488D02*
X47128D01*
X43920Y91890D02*
Y94488D01*
X75288Y25220D02*
X86312D01*
X75288Y44117D02*
X86312D01*
X75288Y25220D02*
Y44117D01*
X86312Y25220D02*
Y44117D01*
X15961Y105085D02*
X26985D01*
X15961Y123983D02*
X26985D01*
X15961Y105085D02*
Y123983D01*
X26985Y105085D02*
Y123983D01*
X268490Y6848D02*
X269312D01*
Y24848D01*
X265312Y28848D02*
X269312Y24848D01*
X254711Y6848D02*
X263914D01*
X249312D02*
X250134D01*
X249312Y28846D02*
X250132D01*
X249312Y6848D02*
X249312Y28846D01*
X254711Y28848D02*
X265312D01*
X230575Y17907D02*
Y20505D01*
X227366Y17907D02*
X230575D01*
X227366Y29403D02*
X230575D01*
Y26805D02*
Y29403D01*
Y26805D02*
Y29403D01*
Y26805D02*
Y29403D01*
D21*
X155315Y69291D02*
G03*
X155315Y69291I-591J0D01*
G01*
X92906Y45495D02*
G03*
X92906Y45495I-591J0D01*
G01*
X33580Y125361D02*
G03*
X33580Y125361I-591J0D01*
G01*
D78*
X147638Y64075D02*
G03*
X147638Y64075I-787J0D01*
G01*
X194290Y132521D02*
G03*
X194290Y132521I-787J0D01*
G01*
X84343Y41361D02*
G03*
X84343Y41361I-787J0D01*
G01*
X25017Y121227D02*
G03*
X25017Y121227I-787J0D01*
G01*
D79*
X150185Y95325D02*
G03*
X151760Y96900I-0J1575D01*
G01*
X151760Y101900D02*
G03*
X150185Y103475I-1575J0D01*
G01*
X139398Y103475D02*
G03*
X137823Y101900I-0J-1575D01*
G01*
X137823Y96900D02*
G03*
X139397Y95325I1575J0D01*
G01*
X157068Y99400D02*
G03*
X157068Y99400I-394J0D01*
G01*
X109776Y32045D02*
G03*
X108201Y33620I-1575J0D01*
G01*
Y27400D02*
G03*
X109776Y28974I-0J1575D01*
G01*
X97690Y28974D02*
G03*
X99264Y27400I1575J0D01*
G01*
X99264Y33620D02*
G03*
X97690Y32045I0J-1575D01*
G01*
X95651Y83565D02*
G03*
X94076Y81990I0J-1575D01*
G01*
X94076Y76990D02*
G03*
X95651Y75415I1575J0D01*
G01*
X106438Y75415D02*
G03*
X108013Y76990I0J1575D01*
G01*
X108013Y81990D02*
G03*
X106438Y83565I-1575J0D01*
G01*
X96380Y73565D02*
G03*
X94805Y71990I0J-1575D01*
G01*
X94805Y68919D02*
G03*
X96380Y67344I1575J0D01*
G01*
X105317Y67344D02*
G03*
X106892Y68919I-0J1575D01*
G01*
Y71990D02*
G03*
X105317Y73565I-1575J0D01*
G01*
X51518Y102266D02*
G03*
X49944Y103840I-1575J0D01*
G01*
Y97620D02*
G03*
X51518Y99195I-0J1575D01*
G01*
X39432Y99195D02*
G03*
X41006Y97620I1575J0D01*
G01*
X41006Y103840D02*
G03*
X39432Y102266I0J-1575D01*
G01*
X39432Y128565D02*
G03*
X41006Y126990I1575J-0D01*
G01*
Y133210D02*
G03*
X39432Y131635I0J-1575D01*
G01*
X51518Y131635D02*
G03*
X49944Y133210I-1575J0D01*
G01*
X49944Y126990D02*
G03*
X51518Y128565I-0J1575D01*
G01*
X213935Y101157D02*
G03*
X215510Y102732I0J1575D01*
G01*
X209290D02*
G03*
X210865Y101157I1575J0D01*
G01*
X210865Y113243D02*
G03*
X209290Y111669I0J-1575D01*
G01*
X215510Y111669D02*
G03*
X213935Y113243I-1575J-0D01*
G01*
X165933Y46857D02*
G03*
X167508Y48432I0J1575D01*
G01*
X161287D02*
G03*
X162862Y46857I1575J0D01*
G01*
X162862Y58943D02*
G03*
X161287Y57368I0J-1575D01*
G01*
X167508Y57368D02*
G03*
X165933Y58943I-1575J-0D01*
G01*
X165834Y5226D02*
G03*
X167409Y6801I-0J1575D01*
G01*
X167409Y9872D02*
G03*
X165834Y11447I-1575J0D01*
G01*
X156897Y11447D02*
G03*
X155323Y9872I0J-1575D01*
G01*
Y6801D02*
G03*
X156897Y5226I1575J-0D01*
G01*
X48038Y34668D02*
G03*
X49613Y33094I1575J0D01*
G01*
X52683Y33094D02*
G03*
X54258Y34668I0J1575D01*
G01*
X54258Y43606D02*
G03*
X52683Y45180I-1575J-0D01*
G01*
X49613D02*
G03*
X48038Y43606I-0J-1575D01*
G01*
X78069Y16258D02*
G03*
X79643Y17833I-0J1575D01*
G01*
X79643Y20904D02*
G03*
X78069Y22479I-1575J0D01*
G01*
X69131Y22479D02*
G03*
X67557Y20904I0J-1575D01*
G01*
Y17833D02*
G03*
X69131Y16258I1575J-0D01*
G01*
X74811Y11269D02*
G03*
X74811Y11269I-394J0D01*
G01*
X142559Y81233D02*
G03*
X144134Y79658I1575J0D01*
G01*
X147205Y79658D02*
G03*
X148779Y81233I0J1575D01*
G01*
X148779Y90170D02*
G03*
X147205Y91745I-1575J-0D01*
G01*
X144134D02*
G03*
X142559Y90170I-0J-1575D01*
G01*
X116810Y120968D02*
G03*
X115235Y122543I-1575J-0D01*
G01*
X112165Y122543D02*
G03*
X110590Y120968I0J-1575D01*
G01*
X110590Y112031D02*
G03*
X112165Y110457I1575J0D01*
G01*
X115235D02*
G03*
X116810Y112031I0J1575D01*
G01*
X9158Y133213D02*
G03*
X7583Y131639I0J-1575D01*
G01*
X7583Y128568D02*
G03*
X9158Y126993I1575J0D01*
G01*
X18095Y126993D02*
G03*
X19670Y128568I-0J1575D01*
G01*
Y131639D02*
G03*
X18095Y133213I-1575J0D01*
G01*
X215510Y129263D02*
G03*
X213935Y130837I-1575J-0D01*
G01*
X210865Y130837D02*
G03*
X209290Y129263I0J-1575D01*
G01*
X209290Y120326D02*
G03*
X210865Y118751I1575J0D01*
G01*
X213935D02*
G03*
X215510Y120326I0J1575D01*
G01*
X241830Y7241D02*
G03*
X241830Y7241I-394J0D01*
G01*
X12431Y18628D02*
Y23963D01*
X2982Y37172D02*
X12431D01*
X2982Y18628D02*
X12431D01*
X2982D02*
Y23963D01*
Y31837D02*
Y37172D01*
X12431Y31837D02*
Y37172D01*
X126181Y43504D02*
X149409D01*
X126181Y66732D02*
X149409D01*
X126181Y43504D02*
Y66732D01*
X149409Y43504D02*
Y66732D01*
X139397Y95325D02*
X143019D01*
X146563D02*
X150185D01*
X146563Y103475D02*
X150185D01*
X151760Y96900D02*
Y101900D01*
X139397Y103475D02*
X143019D01*
X137823Y96900D02*
Y101900D01*
X166094Y96644D02*
Y102156D01*
X165313Y96644D02*
Y102156D01*
X169250Y96644D02*
Y102156D01*
X165313D02*
X169250D01*
X165313Y96644D02*
X169250D01*
X57900Y80000D02*
X67900D01*
Y130000D01*
X57900Y80000D02*
Y130000D01*
X67900D01*
X66959Y57440D02*
X71428D01*
X60266D02*
X63810D01*
X66959Y51219D02*
X71428D01*
X59479Y51979D02*
Y56680D01*
X71428Y51219D02*
Y57440D01*
X60266Y51219D02*
X63810D01*
X59479Y51979D02*
X60266Y51219D01*
X59479Y56680D02*
X60266Y57440D01*
X15202Y101610D02*
X19670D01*
X7583D02*
X12052D01*
X15202Y95390D02*
X19670D01*
X7583D02*
Y101610D01*
X19670Y95390D02*
Y101610D01*
X7583Y95390D02*
X12052D01*
X105308Y27400D02*
X108201D01*
X99264Y27400D02*
X102158D01*
X99264Y33620D02*
X102158D01*
X109776Y28974D02*
Y32045D01*
X97690Y28974D02*
Y32045D01*
X105308Y33620D02*
X108201D01*
X105490Y42543D02*
Y47012D01*
Y34925D02*
Y39394D01*
X111710Y42543D02*
Y47012D01*
X105490Y34925D02*
X111710D01*
X105490Y47012D02*
X111710D01*
Y34925D02*
Y39394D01*
X97590Y42543D02*
Y47012D01*
Y34925D02*
Y39394D01*
X103810Y42543D02*
Y47012D01*
X97590Y34925D02*
X103810D01*
X97590Y47012D02*
X103810D01*
Y34925D02*
Y39394D01*
X102816Y83565D02*
X106438D01*
X95651D02*
X99273D01*
X95651Y75415D02*
X99273D01*
X94076Y76990D02*
Y81990D01*
X102816Y75415D02*
X106438D01*
X108013Y76990D02*
Y81990D01*
X102423Y73565D02*
X105317D01*
X94805Y68919D02*
Y71990D01*
X106892Y68919D02*
Y71990D01*
X96380Y73565D02*
X99274D01*
X96380Y67344D02*
X99274D01*
X102423Y67344D02*
X105317D01*
X58735Y60164D02*
X72121D01*
X58735Y73549D02*
X72121D01*
X58735Y60164D02*
Y61640D01*
Y72073D02*
Y73549D01*
X72121Y60164D02*
Y61640D01*
Y72073D02*
Y73549D01*
X85132Y65540D02*
X89600D01*
X77514Y59320D02*
Y65540D01*
X89600Y59320D02*
Y65540D01*
X77514D02*
X81982D01*
X85132Y59320D02*
X89600D01*
X77514D02*
X81982D01*
X85132Y73588D02*
X89600D01*
X77514Y67367D02*
Y73588D01*
X89600Y67367D02*
Y73588D01*
X77514D02*
X81982D01*
X85132Y67367D02*
X89600D01*
X77514D02*
X81982D01*
X47050Y97620D02*
X49944D01*
X41006Y97620D02*
X43900D01*
X41006Y103840D02*
X43900D01*
X51518Y99195D02*
Y102266D01*
X39432Y99195D02*
Y102266D01*
X47050Y103840D02*
X49944D01*
X50022Y87559D02*
Y89921D01*
X41006Y133210D02*
X43900D01*
X47050Y133210D02*
X49944D01*
X47050Y126990D02*
X49944D01*
X39432Y128565D02*
Y131635D01*
X51518Y128565D02*
Y131635D01*
X41006Y126990D02*
X43900D01*
X85132Y57493D02*
X89600D01*
X77514D02*
X81982D01*
X85132Y51272D02*
X89600D01*
X77514D02*
Y57493D01*
X89600Y51272D02*
Y57493D01*
X77514Y51272D02*
X81982D01*
X123661Y87276D02*
Y91745D01*
Y79658D02*
Y84127D01*
X129882Y87276D02*
Y91745D01*
X123661Y79658D02*
X129882D01*
X123661Y91745D02*
X129882D01*
Y79658D02*
Y84127D01*
X209290Y102732D02*
Y105625D01*
X209290Y108775D02*
Y111669D01*
X215510Y108775D02*
Y111669D01*
X210865Y101157D02*
X213935D01*
X210865Y113243D02*
X213935D01*
X215510Y102732D02*
Y105625D01*
X161287Y48432D02*
Y51325D01*
X161287Y54475D02*
Y57368D01*
X167508Y54475D02*
Y57368D01*
X162862Y46857D02*
X165933D01*
X162862Y58943D02*
X165933D01*
X167508Y48432D02*
Y51325D01*
X39432Y111382D02*
X43900D01*
X47050D02*
X51518D01*
X39432Y117603D02*
X43900D01*
X51518Y111382D02*
Y117603D01*
X39432Y111382D02*
Y117603D01*
X47050D02*
X51518D01*
X39432Y119186D02*
X43900D01*
X47050D02*
X51518D01*
X39432Y125407D02*
X43900D01*
X51518Y119186D02*
Y125407D01*
X39432Y119186D02*
Y125407D01*
X47050D02*
X51518D01*
X224472Y22474D02*
Y24836D01*
X218273Y17612D02*
Y22080D01*
X212053Y29698D02*
X218273D01*
X212053Y17612D02*
X218273D01*
Y25230D02*
Y29698D01*
X212053Y17612D02*
Y22080D01*
Y25230D02*
Y29698D01*
X203833Y25230D02*
Y29698D01*
Y17612D02*
X210053D01*
X203833Y29698D02*
X210053D01*
X203833Y17612D02*
Y22080D01*
X210053Y25230D02*
Y29698D01*
Y17612D02*
Y22080D01*
X12706Y3443D02*
Y13442D01*
X2706Y3443D02*
X12706D01*
X2706D02*
Y13442D01*
X12706D01*
X156897Y5226D02*
X159791D01*
X167409Y6801D02*
Y9872D01*
X155323Y6801D02*
Y9872D01*
X162941Y5226D02*
X165834D01*
X162941Y11447D02*
X165834D01*
X156897Y11447D02*
X159791D01*
X231142Y84742D02*
Y89210D01*
Y77124D02*
X237362D01*
X231142Y89210D02*
X237362D01*
X231142Y77124D02*
Y81592D01*
X237362Y84742D02*
Y89210D01*
Y77124D02*
Y81592D01*
X48038Y40712D02*
Y43606D01*
X49613Y33094D02*
X52683D01*
X49613Y45180D02*
X52683D01*
X48038Y34668D02*
Y37562D01*
X54258Y34668D02*
Y37562D01*
X54258Y40712D02*
Y43606D01*
X56190Y40712D02*
Y45180D01*
Y33094D02*
X62410D01*
X56190Y45180D02*
X62410D01*
X56190Y33094D02*
Y37562D01*
X62410Y40712D02*
Y45180D01*
Y33094D02*
Y37562D01*
X56190Y25712D02*
Y30180D01*
Y18094D02*
X62410D01*
X56190Y30180D02*
X62410D01*
X56190Y18094D02*
Y22562D01*
X62410Y25712D02*
Y30180D01*
Y18094D02*
Y22562D01*
X69131Y16258D02*
X72025D01*
X79643Y17833D02*
Y20904D01*
X67557Y17833D02*
Y20904D01*
X75175Y16258D02*
X78069D01*
X75175Y22479D02*
X78069D01*
X69131Y22479D02*
X72025D01*
X81757Y16258D02*
X86225D01*
X93843D02*
Y22479D01*
X81757Y16258D02*
Y22479D01*
X89375Y16258D02*
X93843D01*
X81757Y22479D02*
X86225D01*
X89375D02*
X93843D01*
X83056Y8513D02*
X86993D01*
X83056Y14024D02*
X86993D01*
Y8513D02*
Y14024D01*
X83056Y8513D02*
Y14024D01*
X83837Y8513D02*
Y14024D01*
X150461Y87277D02*
Y91745D01*
Y79658D02*
X156682D01*
X150461Y91745D02*
X156682D01*
X150461Y79658D02*
Y84127D01*
X156682Y87277D02*
Y91745D01*
Y79658D02*
Y84127D01*
X142559Y87277D02*
Y90170D01*
X144134Y79658D02*
X147205D01*
X144134Y91745D02*
X147205D01*
X142559Y81233D02*
Y84127D01*
X148779Y81233D02*
Y84127D01*
X148779Y87277D02*
Y90170D01*
X172487Y79658D02*
Y84127D01*
X166266Y91745D02*
X172487D01*
X166266Y79658D02*
X172487D01*
Y87277D02*
Y91745D01*
X166266Y79658D02*
Y84127D01*
Y87277D02*
Y91745D01*
X116810Y112031D02*
Y114925D01*
X112165Y122543D02*
X115235D01*
X112165Y110457D02*
X115235D01*
X116810Y118075D02*
Y120968D01*
X110590Y118075D02*
Y120968D01*
X110590Y112031D02*
Y114925D01*
X15202Y133213D02*
X18095D01*
X7583Y128568D02*
Y131639D01*
X19670Y128568D02*
Y131639D01*
X9158Y133213D02*
X12052D01*
X9158Y126993D02*
X12052D01*
X15202Y126993D02*
X18095D01*
X139220Y5226D02*
X143689D01*
X151307D02*
Y11447D01*
X139220Y5226D02*
Y11447D01*
X146838Y5226D02*
X151307D01*
X139220Y11447D02*
X143689D01*
X146838D02*
X151307D01*
X250827Y84742D02*
Y89210D01*
Y77124D02*
X257047D01*
X250827Y89210D02*
X257047D01*
X250827Y77124D02*
Y81592D01*
X257047Y84742D02*
Y89210D01*
Y77124D02*
Y81592D01*
X126636Y11447D02*
X131105D01*
X119943D02*
X123487D01*
X126636Y5226D02*
X131105D01*
X119156Y5986D02*
Y10687D01*
X131105Y5226D02*
Y11447D01*
X119943Y5226D02*
X123487D01*
X119156Y5986D02*
X119943Y5226D01*
X119156Y10687D02*
X119943Y11447D01*
X158364Y87277D02*
Y91745D01*
Y79658D02*
X164584D01*
X158364Y91745D02*
X164584D01*
X158364Y79658D02*
Y84127D01*
X164584Y87277D02*
Y91745D01*
Y79658D02*
Y84127D01*
X215510Y120326D02*
Y123219D01*
X210865Y130837D02*
X213935D01*
X210865Y118751D02*
X213935D01*
X215510Y126369D02*
Y129263D01*
X209290Y126369D02*
Y129263D01*
X209290Y120326D02*
Y123219D01*
X250827Y55975D02*
Y60443D01*
Y48357D02*
X257047D01*
X250827Y60443D02*
X257047D01*
X250827Y48357D02*
Y52825D01*
X257047Y55975D02*
Y60443D01*
Y48357D02*
Y52825D01*
X244192Y15879D02*
Y19816D01*
X238680Y15879D02*
Y19816D01*
X244192D01*
X238680Y15879D02*
X244192D01*
X238680Y16660D02*
X244192D01*
D80*
X107178Y65579D02*
G03*
X107178Y65579I-492J0D01*
G01*
D81*
X73893Y73549D02*
G03*
X73893Y73549I-197J0D01*
G01*
D82*
X248214Y122440D02*
X248293Y132819D01*
X227203D02*
X248293D01*
X221713Y127329D02*
X227203Y132819D01*
X221713Y127329D02*
X221765Y122229D01*
X248269Y116743D02*
X248295Y106237D01*
X227207D02*
X248295D01*
X221711Y111734D02*
X227207Y106237D01*
X221711Y111734D02*
Y116829D01*
X207934Y88612D02*
X208013Y98992D01*
X186923D02*
X208013D01*
X181432Y93502D02*
X186923Y98992D01*
X181432Y93502D02*
X181485Y88402D01*
X207988Y82916D02*
X208014Y72410D01*
X186927D02*
X208014D01*
X181430Y77906D02*
X186927Y72410D01*
X181430Y77906D02*
Y83002D01*
X76544Y106239D02*
X76623Y116619D01*
X76544Y106239D02*
X97634D01*
X103124Y111729D01*
X103071Y116829D02*
X103124Y111729D01*
X76542Y132821D02*
X76568Y122315D01*
X76542Y132821D02*
X97629D01*
X103126Y127325D01*
Y122229D02*
Y127325D01*
D83*
X255963Y11848D02*
Y13563D01*
X256821Y12706D02*
X255106D01*
X255963Y20848D02*
Y22563D01*
D84*
X58199Y54329D02*
D03*
X117876Y8337D02*
D03*
M02*
