G04*
G04 #@! TF.GenerationSoftware,Altium Limited,Altium Designer,23.8.1 (32)*
G04*
G04 Layer_Physical_Order=1*
G04 Layer_Color=16711680*
%FSLAX25Y25*%
%MOIN*%
G70*
G04*
G04 #@! TF.SameCoordinates,7219C3B3-8FC9-4B81-83B7-D13F04F5FDA5*
G04*
G04*
G04 #@! TF.FilePolarity,Positive*
G04*
G01*
G75*
%ADD20C,0.01968*%
%ADD21C,0.01181*%
%ADD22C,0.03937*%
%ADD23C,0.05906*%
%ADD24R,0.05906X0.05906*%
%ADD25C,0.09055*%
%ADD26C,0.06496*%
%ADD27R,0.06496X0.06496*%
%ADD28O,0.06299X0.09843*%
%ADD29R,0.06693X0.06693*%
G04:AMPARAMS|DCode=30|XSize=118.11mil|YSize=145.67mil|CornerRadius=29.53mil|HoleSize=0mil|Usage=FLASHONLY|Rotation=180.000|XOffset=0mil|YOffset=0mil|HoleType=Round|Shape=RoundedRectangle|*
%AMROUNDEDRECTD30*
21,1,0.11811,0.08661,0,0,180.0*
21,1,0.05906,0.14567,0,0,180.0*
1,1,0.05906,-0.02953,0.04331*
1,1,0.05906,0.02953,0.04331*
1,1,0.05906,0.02953,-0.04331*
1,1,0.05906,-0.02953,-0.04331*
%
%ADD30ROUNDEDRECTD30*%
%ADD31C,0.05000*%
%ADD32C,0.01968*%
G36*
X271654Y136669D02*
X272381Y136574D01*
X273059Y136293D01*
X273641Y135846D01*
X274088Y135264D01*
X274369Y134586D01*
X274465Y133858D01*
X274469D01*
Y3937D01*
X274465D01*
X274369Y3209D01*
X274088Y2531D01*
X273641Y1949D01*
X273059Y1503D01*
X272381Y1222D01*
X271654Y1126D01*
Y1122D01*
X3937D01*
Y1126D01*
X3209Y1222D01*
X2531Y1503D01*
X1949Y1949D01*
X1503Y2531D01*
X1222Y3209D01*
X1126Y3937D01*
X1122D01*
Y133858D01*
X1126D01*
X1222Y134586D01*
X1503Y135264D01*
X1949Y135846D01*
X2531Y136293D01*
X3209Y136574D01*
X3937Y136669D01*
Y136674D01*
X271654D01*
Y136669D01*
D02*
G37*
%LPC*%
G36*
X39700Y126714D02*
X39700Y126714D01*
X32100D01*
X32100Y126714D01*
X31635Y126621D01*
X31242Y126358D01*
X31242Y126358D01*
X27642Y122758D01*
X27378Y122364D01*
X27286Y121900D01*
X27286Y121900D01*
Y93600D01*
X27286Y93600D01*
X27378Y93135D01*
X27642Y92742D01*
X59042Y61342D01*
X59042Y61342D01*
X59435Y61079D01*
X59900Y60986D01*
X59900Y60986D01*
X113597D01*
X115542Y59042D01*
X115542Y59042D01*
X115936Y58779D01*
X116400Y58686D01*
X116400Y58686D01*
X142997D01*
X146786Y54897D01*
Y51427D01*
X146657Y51297D01*
X146416Y50715D01*
Y50085D01*
X146657Y49503D01*
X147103Y49057D01*
X147685Y48816D01*
X148315D01*
X148897Y49057D01*
X149343Y49503D01*
X149584Y50085D01*
Y50715D01*
X149343Y51297D01*
X149214Y51427D01*
Y55400D01*
X149214Y55400D01*
X149121Y55865D01*
X148858Y56258D01*
X148858Y56258D01*
X144358Y60758D01*
X143965Y61022D01*
X143500Y61114D01*
X143500Y61114D01*
X116903D01*
X114958Y63058D01*
X114565Y63322D01*
X114100Y63414D01*
X114100Y63414D01*
X77306D01*
X77136Y63914D01*
X77274Y64019D01*
X77830Y64744D01*
X78179Y65588D01*
X78298Y66493D01*
Y66502D01*
X198300D01*
X198753Y66561D01*
X199206Y66621D01*
X200049Y66970D01*
X200774Y67526D01*
X226574Y93326D01*
X227130Y94051D01*
X227479Y94894D01*
X227598Y95800D01*
Y103359D01*
X227827Y103756D01*
X228100Y104773D01*
Y105827D01*
X227827Y106844D01*
X227301Y107756D01*
X226556Y108501D01*
X225644Y109027D01*
X224627Y109300D01*
X223573D01*
X222556Y109027D01*
X221644Y108501D01*
X220899Y107756D01*
X220373Y106844D01*
X220100Y105827D01*
Y104773D01*
X220373Y103756D01*
X220602Y103359D01*
Y97249D01*
X196851Y73498D01*
X131222D01*
X131015Y73998D01*
X133503Y76486D01*
X135173D01*
X135303Y76357D01*
X135885Y76116D01*
X136515D01*
X137097Y76357D01*
X137543Y76803D01*
X137784Y77385D01*
Y78015D01*
X137543Y78597D01*
X137097Y79043D01*
X136515Y79284D01*
X135885D01*
X135303Y79043D01*
X135173Y78914D01*
X133000D01*
X132536Y78821D01*
X132142Y78558D01*
X132142Y78558D01*
X131184Y77601D01*
X130684Y77808D01*
Y78015D01*
X130443Y78597D01*
X129997Y79043D01*
X129415Y79284D01*
X128785D01*
X128203Y79043D01*
X128073Y78914D01*
X54603D01*
X39014Y94503D01*
Y115973D01*
X39143Y116103D01*
X39384Y116685D01*
Y117315D01*
X39143Y117897D01*
X38697Y118343D01*
X38115Y118584D01*
X37485D01*
X36903Y118343D01*
X36457Y117897D01*
X36216Y117315D01*
Y116685D01*
X36457Y116103D01*
X36586Y115973D01*
Y94000D01*
X36586Y94000D01*
X36678Y93536D01*
X36942Y93142D01*
X53242Y76842D01*
X53242Y76842D01*
X53636Y76578D01*
X54100Y76486D01*
X54100Y76486D01*
X128073D01*
X128203Y76357D01*
X128478Y76243D01*
X128685Y75654D01*
X128659Y75614D01*
X52903D01*
X33514Y95003D01*
Y119297D01*
X35103Y120886D01*
X36773D01*
X36903Y120757D01*
X37485Y120516D01*
X38115D01*
X38697Y120757D01*
X39143Y121203D01*
X39384Y121785D01*
Y122415D01*
X39143Y122997D01*
X38697Y123443D01*
X38115Y123684D01*
X37485D01*
X36903Y123443D01*
X36773Y123314D01*
X34600D01*
X34600Y123314D01*
X34135Y123222D01*
X33742Y122958D01*
X33742Y122958D01*
X31442Y120658D01*
X31179Y120264D01*
X31086Y119800D01*
X31086Y119800D01*
Y94500D01*
X31086Y94500D01*
X31179Y94036D01*
X31442Y93642D01*
X51542Y73542D01*
X51542Y73542D01*
X51935Y73278D01*
X52400Y73186D01*
X72433D01*
X72603Y72686D01*
X72326Y72474D01*
X71770Y71749D01*
X71421Y70906D01*
X71302Y70000D01*
Y66493D01*
X71421Y65588D01*
X71770Y64744D01*
X72326Y64019D01*
X72464Y63914D01*
X72294Y63414D01*
X60403D01*
X29714Y94103D01*
Y121397D01*
X32603Y124286D01*
X39197D01*
X41486Y121997D01*
Y94800D01*
X41486Y94800D01*
X41579Y94336D01*
X41842Y93942D01*
X51642Y84142D01*
X51642Y84142D01*
X52035Y83878D01*
X52500Y83786D01*
X59347D01*
Y81447D01*
X66453D01*
Y88553D01*
X59347D01*
Y86214D01*
X53003D01*
X43914Y95303D01*
Y122500D01*
X43914Y122500D01*
X43821Y122965D01*
X43558Y123358D01*
X40558Y126358D01*
X40165Y126621D01*
X39700Y126714D01*
D02*
G37*
G36*
X54500Y135015D02*
X9800D01*
X9182Y134892D01*
X8658Y134542D01*
X2958Y128842D01*
X2608Y128318D01*
X2485Y127700D01*
Y61600D01*
X2608Y60982D01*
X2958Y60458D01*
X22389Y41026D01*
X22913Y40676D01*
X23531Y40553D01*
X44053D01*
Y14931D01*
X44176Y14313D01*
X44526Y13789D01*
X54658Y3658D01*
X55182Y3308D01*
X55800Y3185D01*
X95600Y3185D01*
X153400Y3185D01*
X154018Y3308D01*
X154542Y3658D01*
X159437Y8553D01*
X159787Y9077D01*
X159910Y9695D01*
X159910Y14734D01*
X160658Y15165D01*
X161374Y15882D01*
X161881Y16759D01*
X162143Y17738D01*
Y18751D01*
X161881Y19730D01*
X161374Y20607D01*
X160658Y21324D01*
X159910Y21755D01*
Y25726D01*
X171342Y37158D01*
X171692Y37682D01*
X171815Y38300D01*
Y56000D01*
X171784Y56156D01*
Y56315D01*
X171723Y56462D01*
X171692Y56618D01*
X171604Y56750D01*
X171543Y56897D01*
X171431Y57010D01*
X171342Y57142D01*
X171210Y57231D01*
X171097Y57343D01*
X170950Y57404D01*
X170818Y57492D01*
X170662Y57523D01*
X170515Y57584D01*
X170356D01*
X170200Y57615D01*
X170044Y57584D01*
X169885D01*
X169738Y57523D01*
X169582Y57492D01*
X169450Y57404D01*
X169303Y57343D01*
X169190Y57231D01*
X169058Y57142D01*
X168969Y57010D01*
X168857Y56897D01*
X168796Y56750D01*
X168708Y56618D01*
X168677Y56462D01*
X168616Y56315D01*
Y56156D01*
X168585Y56000D01*
Y38969D01*
X157153Y27537D01*
X156803Y27013D01*
X156680Y26395D01*
Y21755D01*
X155932Y21324D01*
X155216Y20607D01*
X154709Y19730D01*
X154447Y18751D01*
Y17738D01*
X154709Y16759D01*
X155216Y15882D01*
X155932Y15165D01*
X156680Y14734D01*
X156680Y10364D01*
X152731Y6415D01*
X95600Y6415D01*
X56469Y6415D01*
X47284Y15601D01*
Y42169D01*
X47253Y42325D01*
Y42484D01*
X47192Y42631D01*
X47161Y42787D01*
X47072Y42919D01*
X47012Y43066D01*
X46899Y43178D01*
X46811Y43311D01*
X46678Y43399D01*
X46566Y43512D01*
X46419Y43572D01*
X46287Y43661D01*
X46131Y43692D01*
X45984Y43753D01*
X45825D01*
X45669Y43784D01*
X24201D01*
X5715Y62269D01*
Y127031D01*
X10469Y131785D01*
X53831D01*
X59516Y126099D01*
X59347Y125468D01*
Y124532D01*
X59589Y123629D01*
X60057Y122819D01*
X60719Y122157D01*
X61529Y121689D01*
X62432Y121447D01*
X63368D01*
X64271Y121689D01*
X65081Y122157D01*
X65743Y122819D01*
X66211Y123629D01*
X66453Y124532D01*
Y125468D01*
X66211Y126371D01*
X65743Y127181D01*
X65081Y127843D01*
X64271Y128311D01*
X63368Y128553D01*
X62432D01*
X61801Y128384D01*
X55642Y134542D01*
X55118Y134892D01*
X54500Y135015D01*
D02*
G37*
G36*
X63368Y108553D02*
X62432D01*
X61529Y108311D01*
X60719Y107843D01*
X60057Y107181D01*
X59589Y106371D01*
X59347Y105468D01*
Y104532D01*
X59589Y103629D01*
X60057Y102819D01*
X60719Y102157D01*
X61529Y101689D01*
X62432Y101447D01*
X63368D01*
X64271Y101689D01*
X65081Y102157D01*
X65743Y102819D01*
X66211Y103629D01*
X66453Y104532D01*
Y105468D01*
X66211Y106371D01*
X65743Y107181D01*
X65081Y107843D01*
X64271Y108311D01*
X63368Y108553D01*
D02*
G37*
G36*
X234252Y102995D02*
X233273Y102866D01*
X232361Y102488D01*
X231578Y101887D01*
X230977Y101104D01*
X230599Y100191D01*
X230470Y99213D01*
Y95669D01*
X230599Y94690D01*
X230977Y93778D01*
X231578Y92995D01*
X232361Y92394D01*
X233273Y92016D01*
X234252Y91887D01*
X235231Y92016D01*
X236143Y92394D01*
X236926Y92995D01*
X237527Y93778D01*
X237905Y94690D01*
X238034Y95669D01*
Y99213D01*
X237905Y100191D01*
X237527Y101104D01*
X236926Y101887D01*
X236143Y102488D01*
X235231Y102866D01*
X234252Y102995D01*
D02*
G37*
G36*
X63368Y98553D02*
X62432D01*
X61529Y98311D01*
X60719Y97843D01*
X60057Y97181D01*
X59589Y96371D01*
X59347Y95468D01*
Y94532D01*
X59589Y93629D01*
X60057Y92819D01*
X60719Y92157D01*
X61529Y91689D01*
X62432Y91447D01*
X63368D01*
X64271Y91689D01*
X65081Y92157D01*
X65743Y92819D01*
X66211Y93629D01*
X66453Y94532D01*
Y95468D01*
X66211Y96371D01*
X65743Y97181D01*
X65081Y97843D01*
X64271Y98311D01*
X63368Y98553D01*
D02*
G37*
G36*
X253937Y102995D02*
X252958Y102866D01*
X252046Y102488D01*
X251263Y101887D01*
X250662Y101104D01*
X250284Y100191D01*
X250155Y99213D01*
Y95669D01*
X250284Y94690D01*
X250662Y93778D01*
X251263Y92995D01*
X252046Y92394D01*
X252723Y92114D01*
Y88740D01*
X248197Y84214D01*
X227527D01*
X227397Y84343D01*
X226815Y84584D01*
X226185D01*
X225603Y84343D01*
X225157Y83897D01*
X224916Y83315D01*
Y82685D01*
X225157Y82103D01*
X225603Y81657D01*
X226185Y81416D01*
X226815D01*
X227397Y81657D01*
X227527Y81786D01*
X248700D01*
X248700Y81786D01*
X249165Y81879D01*
X249558Y82142D01*
X254795Y87379D01*
X255059Y87773D01*
X255151Y88237D01*
X255151Y88237D01*
Y92114D01*
X255828Y92394D01*
X256611Y92995D01*
X257212Y93778D01*
X257590Y94690D01*
X257719Y95669D01*
Y99213D01*
X257590Y100191D01*
X257212Y101104D01*
X256611Y101887D01*
X255828Y102488D01*
X254916Y102866D01*
X253937Y102995D01*
D02*
G37*
G36*
X174300Y96215D02*
X114300D01*
X113682Y96092D01*
X113158Y95742D01*
X104531Y87115D01*
X97500D01*
X97344Y87084D01*
X97185D01*
X97038Y87023D01*
X96882Y86992D01*
X96750Y86904D01*
X96603Y86843D01*
X96490Y86731D01*
X96358Y86642D01*
X96269Y86510D01*
X96157Y86397D01*
X96096Y86250D01*
X96008Y86118D01*
X95977Y85962D01*
X95916Y85815D01*
Y85656D01*
X95885Y85500D01*
X95916Y85344D01*
Y85185D01*
X95977Y85038D01*
X96008Y84882D01*
X96096Y84750D01*
X96157Y84603D01*
X96269Y84490D01*
X96358Y84358D01*
X96490Y84269D01*
X96603Y84157D01*
X96750Y84096D01*
X96882Y84008D01*
X97038Y83977D01*
X97185Y83916D01*
X97344D01*
X97500Y83885D01*
X105200D01*
X105818Y84008D01*
X106342Y84358D01*
X114969Y92985D01*
X174300D01*
X174456Y93016D01*
X174615D01*
X174762Y93077D01*
X174918Y93108D01*
X175050Y93196D01*
X175197Y93257D01*
X175310Y93369D01*
X175442Y93458D01*
X175531Y93590D01*
X175643Y93703D01*
X175704Y93850D01*
X175792Y93982D01*
X175823Y94138D01*
X175884Y94285D01*
Y94444D01*
X175915Y94600D01*
X175884Y94756D01*
Y94915D01*
X175823Y95062D01*
X175792Y95218D01*
X175704Y95350D01*
X175643Y95497D01*
X175531Y95610D01*
X175442Y95742D01*
X175310Y95831D01*
X175197Y95943D01*
X175050Y96004D01*
X174918Y96092D01*
X174762Y96123D01*
X174615Y96184D01*
X174456D01*
X174300Y96215D01*
D02*
G37*
G36*
X31729Y67257D02*
X30542D01*
X29377Y67026D01*
X28280Y66571D01*
X27293Y65912D01*
X26454Y65072D01*
X25794Y64085D01*
X25377Y63077D01*
X24878Y63007D01*
X24824Y63209D01*
X24149Y64378D01*
X23194Y65333D01*
X22025Y66008D01*
X20721Y66357D01*
X19371D01*
X18066Y66008D01*
X16897Y65333D01*
X15943Y64378D01*
X15267Y63209D01*
X14918Y61905D01*
Y60555D01*
X15267Y59251D01*
X15943Y58082D01*
X16897Y57127D01*
X18066Y56452D01*
X19371Y56102D01*
X20721D01*
X22025Y56452D01*
X23194Y57127D01*
X24149Y58082D01*
X24824Y59251D01*
X24878Y59452D01*
X25377Y59382D01*
X25794Y58375D01*
X26454Y57388D01*
X27293Y56548D01*
X28280Y55888D01*
X29377Y55434D01*
X30542Y55202D01*
X31729D01*
X32894Y55434D01*
X33216Y55568D01*
X42074Y46709D01*
X42896Y46160D01*
X43865Y45967D01*
X72351D01*
X74067Y44251D01*
Y23569D01*
X74116Y23324D01*
Y23074D01*
X74211Y22844D01*
X74260Y22599D01*
X74398Y22392D01*
X74494Y22161D01*
X74670Y21985D01*
X74809Y21777D01*
X75016Y21639D01*
X75193Y21462D01*
X75423Y21367D01*
X75631Y21228D01*
X75875Y21180D01*
X76106Y21084D01*
X76355D01*
X76600Y21036D01*
X76845Y21084D01*
X77094D01*
X77325Y21180D01*
X77569Y21228D01*
X77777Y21367D01*
X78007Y21462D01*
X78184Y21639D01*
X78391Y21777D01*
X78530Y21985D01*
X78706Y22161D01*
X78802Y22392D01*
X78940Y22599D01*
X78989Y22844D01*
X79084Y23074D01*
Y23324D01*
X79133Y23569D01*
Y45300D01*
X78940Y46269D01*
X78391Y47091D01*
X75191Y50291D01*
X74369Y50840D01*
X73400Y51033D01*
X44915D01*
X36798Y59150D01*
X36931Y59472D01*
X37163Y60636D01*
Y61824D01*
X36931Y62988D01*
X36477Y64085D01*
X35818Y65072D01*
X34978Y65912D01*
X33991Y66571D01*
X32894Y67026D01*
X31729Y67257D01*
D02*
G37*
G36*
X268047Y75812D02*
X262142D01*
X261214Y75690D01*
X260350Y75332D01*
X259608Y74762D01*
X259038Y74020D01*
X258680Y73156D01*
X258558Y72228D01*
Y63567D01*
X258680Y62639D01*
X259038Y61775D01*
X259608Y61033D01*
X260350Y60464D01*
X261214Y60106D01*
X262142Y59983D01*
X268047D01*
X268975Y60106D01*
X269839Y60464D01*
X270581Y61033D01*
X271151Y61775D01*
X271509Y62639D01*
X271631Y63567D01*
Y72228D01*
X271509Y73156D01*
X271151Y74020D01*
X270581Y74762D01*
X269839Y75332D01*
X268975Y75690D01*
X268047Y75812D01*
D02*
G37*
G36*
X226047D02*
X220142D01*
X219214Y75690D01*
X218350Y75332D01*
X217608Y74762D01*
X217038Y74020D01*
X216680Y73156D01*
X216558Y72228D01*
Y63567D01*
X216680Y62639D01*
X217038Y61775D01*
X217608Y61033D01*
X218350Y60464D01*
X219214Y60106D01*
X220142Y59983D01*
X226047D01*
X226975Y60106D01*
X227839Y60464D01*
X228581Y61033D01*
X229151Y61775D01*
X229509Y62639D01*
X229631Y63567D01*
Y72228D01*
X229509Y73156D01*
X229151Y74020D01*
X228581Y74762D01*
X227839Y75332D01*
X226975Y75690D01*
X226047Y75812D01*
D02*
G37*
G36*
X29900Y88114D02*
X29900Y88114D01*
X21300D01*
X20835Y88021D01*
X20442Y87758D01*
X20442Y87758D01*
X15761Y83078D01*
X15498Y82684D01*
X15406Y82220D01*
X15406Y82220D01*
Y76775D01*
X14641Y76570D01*
X13471Y75895D01*
X12517Y74940D01*
X11842Y73771D01*
X11492Y72467D01*
Y71117D01*
X11842Y69812D01*
X12517Y68643D01*
X13471Y67689D01*
X14641Y67013D01*
X15945Y66664D01*
X17295D01*
X18599Y67013D01*
X19768Y67689D01*
X20723Y68643D01*
X21398Y69812D01*
X21747Y71117D01*
Y72467D01*
X21398Y73771D01*
X20723Y74940D01*
X19768Y75895D01*
X18599Y76570D01*
X17834Y76775D01*
Y81717D01*
X21803Y85686D01*
X29397D01*
X57242Y57842D01*
X57242Y57842D01*
X57635Y57578D01*
X58100Y57486D01*
X110173D01*
X110303Y57357D01*
X110885Y57116D01*
X111515D01*
X112097Y57357D01*
X112543Y57803D01*
X112784Y58385D01*
Y59015D01*
X112543Y59597D01*
X112097Y60043D01*
X111515Y60284D01*
X110885D01*
X110303Y60043D01*
X110173Y59914D01*
X58603D01*
X30758Y87758D01*
X30365Y88021D01*
X29900Y88114D01*
D02*
G37*
G36*
X254612Y45482D02*
X253262D01*
X251958Y45132D01*
X250789Y44457D01*
X249834Y43503D01*
X249159Y42333D01*
X248810Y41029D01*
Y39679D01*
X249159Y38375D01*
X249834Y37206D01*
X250789Y36251D01*
X251958Y35576D01*
X253262Y35227D01*
X254612D01*
X255916Y35576D01*
X257085Y36251D01*
X258040Y37206D01*
X258715Y38375D01*
X259065Y39679D01*
Y41029D01*
X258715Y42333D01*
X258040Y43503D01*
X257085Y44457D01*
X255916Y45132D01*
X254612Y45482D01*
D02*
G37*
G36*
X136615Y31484D02*
X135985D01*
X135403Y31243D01*
X134957Y30797D01*
X134716Y30215D01*
Y29585D01*
X134957Y29003D01*
X135086Y28873D01*
Y24103D01*
X131822Y20839D01*
X131323Y20703D01*
X130606Y21419D01*
X129729Y21926D01*
X128750Y22188D01*
X127737D01*
X126759Y21926D01*
X125881Y21419D01*
X125165Y20703D01*
X124658Y19825D01*
X124396Y18847D01*
Y17833D01*
X124658Y16855D01*
X125165Y15977D01*
X125881Y15261D01*
X126759Y14754D01*
X127737Y14492D01*
X128750D01*
X129729Y14754D01*
X130606Y15261D01*
X131323Y15977D01*
X131830Y16855D01*
X132092Y17833D01*
Y18113D01*
X132475Y18189D01*
X132869Y18452D01*
X134208Y19792D01*
X134657Y19533D01*
X134447Y18751D01*
Y17738D01*
X134709Y16759D01*
X135216Y15882D01*
X135932Y15165D01*
X136810Y14659D01*
X137788Y14396D01*
X138802D01*
X139780Y14659D01*
X140658Y15165D01*
X141374Y15882D01*
X141881Y16759D01*
X142143Y17738D01*
Y18751D01*
X141881Y19730D01*
X141374Y20607D01*
X140658Y21324D01*
X139780Y21830D01*
X138802Y22092D01*
X137788D01*
X137007Y21883D01*
X136748Y22331D01*
X137158Y22742D01*
X137158Y22742D01*
X137422Y23135D01*
X137514Y23600D01*
X137514Y23600D01*
Y28873D01*
X137643Y29003D01*
X137884Y29585D01*
Y30215D01*
X137643Y30797D01*
X137197Y31243D01*
X136615Y31484D01*
D02*
G37*
G36*
X118750Y22188D02*
X117737D01*
X116759Y21926D01*
X115881Y21419D01*
X115165Y20703D01*
X114658Y19825D01*
X114396Y18847D01*
Y17833D01*
X114658Y16855D01*
X115165Y15977D01*
X115881Y15261D01*
X116759Y14754D01*
X117737Y14492D01*
X118750D01*
X119729Y14754D01*
X120607Y15261D01*
X121323Y15977D01*
X121830Y16855D01*
X122092Y17833D01*
Y18847D01*
X121830Y19825D01*
X121323Y20703D01*
X120607Y21419D01*
X119729Y21926D01*
X118750Y22188D01*
D02*
G37*
G36*
X108750D02*
X107737D01*
X106758Y21926D01*
X105881Y21419D01*
X105165Y20703D01*
X104658Y19825D01*
X104396Y18847D01*
Y17833D01*
X104658Y16855D01*
X105165Y15977D01*
X105881Y15261D01*
X106758Y14754D01*
X107737Y14492D01*
X108750D01*
X109729Y14754D01*
X110607Y15261D01*
X111323Y15977D01*
X111830Y16855D01*
X112092Y17833D01*
Y18847D01*
X111830Y19825D01*
X111323Y20703D01*
X110607Y21419D01*
X109729Y21926D01*
X108750Y22188D01*
D02*
G37*
G36*
X148802Y22092D02*
X147789D01*
X146810Y21830D01*
X145932Y21324D01*
X145216Y20607D01*
X144709Y19730D01*
X144447Y18751D01*
Y17738D01*
X144709Y16759D01*
X145216Y15882D01*
X145932Y15165D01*
X146810Y14659D01*
X147789Y14396D01*
X148802D01*
X149780Y14659D01*
X150658Y15165D01*
X151374Y15882D01*
X151881Y16759D01*
X152143Y17738D01*
Y18751D01*
X151881Y19730D01*
X151374Y20607D01*
X150658Y21324D01*
X149780Y21830D01*
X148802Y22092D01*
D02*
G37*
G36*
X11653Y12389D02*
X3760D01*
Y4496D01*
X11653D01*
Y12389D01*
D02*
G37*
%LPD*%
D20*
X45669Y14931D02*
Y42169D01*
Y14931D02*
X55800Y4800D01*
X95600Y4800D01*
X153400Y4800D02*
X158295Y9695D01*
X153400Y4800D02*
X153400D01*
X95600Y4800D02*
X153400Y4800D01*
X23531Y42169D02*
X45669D01*
X4100Y61600D02*
X23531Y42169D01*
X43865Y48500D02*
X73400D01*
X76600Y23569D02*
Y45300D01*
X73400Y48500D02*
X76600Y45300D01*
X105200Y85500D02*
X114300Y94600D01*
X174300D01*
X4100Y61600D02*
Y127700D01*
X31136Y61230D02*
X43865Y48500D01*
X9800Y133400D02*
X54500D01*
X4100Y127700D02*
X9800Y133400D01*
X158295Y26395D02*
X170200Y38300D01*
Y56000D01*
X158295Y18244D02*
Y26395D01*
X158295Y9695D02*
X158295Y18244D01*
X54500Y133400D02*
X62900Y125000D01*
X97500Y85500D02*
X105200D01*
D21*
X52500Y85000D02*
X62900D01*
X42700Y94800D02*
X52500Y85000D01*
X42700Y94800D02*
Y122500D01*
X39700Y125500D02*
X42700Y122500D01*
X32100Y125500D02*
X39700D01*
X28500Y93600D02*
X59900Y62200D01*
X114100D01*
X28500Y93600D02*
Y121900D01*
X32300Y94500D02*
Y119800D01*
Y94500D02*
X52400Y74400D01*
X129700D01*
X37800Y94000D02*
X54100Y77700D01*
X129100D01*
X37800Y94000D02*
Y117000D01*
X58100Y58700D02*
X111200D01*
X29900Y86900D02*
X58100Y58700D01*
X21300Y86900D02*
X29900D01*
X148000Y50400D02*
Y55400D01*
X143500Y59900D02*
X148000Y55400D01*
X116400Y59900D02*
X143500D01*
X114100Y62200D02*
X116400Y59900D01*
X28500Y121900D02*
X32100Y125500D01*
X16620Y82220D02*
X21300Y86900D01*
X16620Y71791D02*
Y82220D01*
X226500Y83000D02*
X248700D01*
X253937Y88237D02*
Y97441D01*
X248700Y83000D02*
X253937Y88237D01*
X129700Y74400D02*
X133000Y77700D01*
X136200D01*
X32300Y119800D02*
X34600Y122100D01*
X37800D01*
X132010Y19310D02*
X136300Y23600D01*
Y29900D01*
X129214Y19310D02*
X132010D01*
X128244Y18340D02*
X129214Y19310D01*
D22*
X198300Y70000D02*
X224100Y95800D01*
X74800Y70000D02*
X198300D01*
X74800Y66493D02*
Y70000D01*
X224100Y95800D02*
Y105300D01*
D23*
X62900Y125000D02*
D03*
Y115000D02*
D03*
Y105000D02*
D03*
Y95000D02*
D03*
D24*
Y85000D02*
D03*
D25*
X31136Y61230D02*
D03*
X34561Y71791D02*
D03*
X25591Y78367D02*
D03*
X16620Y71791D02*
D03*
X20046Y61230D02*
D03*
X253937Y40354D02*
D03*
X234252D02*
D03*
D26*
X128244Y18340D02*
D03*
X118244D02*
D03*
X138295Y18244D02*
D03*
X108244Y18340D02*
D03*
X148295Y18244D02*
D03*
X158295D02*
D03*
D27*
X168295Y18254D02*
D03*
D28*
X253937Y97441D02*
D03*
X234252D02*
D03*
X244094D02*
D03*
D29*
X7706Y8443D02*
D03*
D30*
X223095Y67898D02*
D03*
X265094D02*
D03*
D31*
X224100Y105300D02*
D03*
D32*
X45669Y42169D02*
D03*
X174300Y94600D02*
D03*
X170200Y56000D02*
D03*
X148000Y50400D02*
D03*
X111200Y58700D02*
D03*
X76600Y23569D02*
D03*
X226500Y83000D02*
D03*
X97500Y85500D02*
D03*
X74800Y70000D02*
D03*
Y66493D02*
D03*
X136200Y77700D02*
D03*
X129100D02*
D03*
X37800Y122100D02*
D03*
Y117000D02*
D03*
X136300Y29900D02*
D03*
M02*
