M48
;Layer_Color=9474304
;FILE_FORMAT=2:5
INCH,LZ
;TYPE=PLATED
T01F00S00C0.01181
T02F00S00C0.02800
T03F00S00C0.03543
T04F00S00C0.03937
T05F00S00C0.04331
T06F00S00C0.05118
%
T01
X01363Y00299
X0148Y00504
X01702Y0056
X01112Y00587
X00766Y0023569
X0045669Y0042169
X00748Y0066493
Y007
X00975Y00855
X01291Y00777
X00378Y0117
Y01221
X01362Y00777
X01743Y00946
X02265Y0083
T02
X02241Y01053
T03
X0007706Y0008443
X00629Y0085
Y0095
Y0105
Y0115
Y0125
T04
X0138295Y0018244
X0148295
X0158295
X0168295Y0018254
X0128244Y001834
X0118244
X0108244
T05
X0234252Y0040354
X0253937
Y0097441
X0244094
X0234252
T06
X0020046Y006123
X0031136
X0034561Y0071791
X0025591Y0078367
X001662Y0071791
M30
