M48
;Layer_Color=9474304
;FILE_FORMAT=2:5
INCH,LZ
;TYPE=PLATED
T01F00S00C0.01181
T02F00S00C0.03543
T03F00S00C0.03937
T04F00S00C0.04331
T05F00S00C0.06299
%
T01
X013621Y003051
X0145413Y0026686
X01555Y00365
X01604Y00331
X0161145Y00433
X0159106Y0048594
X01616Y00582
X01477Y0055
X01463Y00507
X01404Y0047
X01782Y00552
X0197986Y0026686
X02156Y00337
X01146Y00472
X01138Y00596
X00965Y00595
X00912Y00433
X00991Y00336
X00972Y00184
X00971Y00137
X00792
X0066Y00162
X00654Y0021
X00331Y00168
X00335Y00095
X0033048Y00366
X01132Y00076
X01083Y00844
X01084Y0091
X01088Y00971
X00991Y00965
X00988Y00898
X00894Y00972
X00842Y00767
X00595Y0097
X00449Y01314
X00386Y01316
X00326Y01312
X00269Y01314
X00215
X01504Y01335
X01574Y01338
X01641Y01335
X01966Y01338
X02028Y01339
X02092Y01337
X02144Y0116
X0217Y01115
X02585Y0112
X02563Y01215
X02564Y01265
X017914Y0077583
X01694Y00756
X01637Y00677
X0161791Y00643
X01655Y00613
X01392Y00815
X01335Y00909
T02
X0009206Y0008443
X01738Y01016
X01838
X01938
X02038
X02138
T03
X0138295Y0018244
X0148295
X0158295
X0168295Y0018254
X0128244Y001834
X0118244
X0108244
T04
X0234252Y0040354
X0253937
Y0097441
X0244094
X0234252
T05
X0020046Y006123
X0031136
X0034561Y0071791
X0025591Y0078367
X001662Y0071791
M30
