G04*
G04 #@! TF.GenerationSoftware,Altium Limited,Altium Designer,23.8.1 (32)*
G04*
G04 Layer_Color=32896*
%FSLAX25Y25*%
%MOIN*%
G70*
G04*
G04 #@! TF.SameCoordinates,45B655E0-0CFB-48ED-97EE-2201F2EA58C2*
G04*
G04*
G04 #@! TF.FilePolarity,Positive*
G04*
G01*
G75*
%ADD10C,0.00787*%
%ADD11C,0.01000*%
%ADD49C,0.01181*%
%ADD69C,0.00787*%
%ADD70C,0.01575*%
%ADD71C,0.00984*%
%ADD72C,0.00600*%
%ADD73C,0.00800*%
%ADD74R,0.04724X0.01181*%
%ADD75R,0.01181X0.04724*%
G36*
X53613Y126214D02*
X52834D01*
Y129332D01*
X53613D01*
Y126214D01*
D02*
G37*
G36*
Y106856D02*
X55822D01*
Y106076D01*
X53613D01*
Y104907D01*
X52834D01*
Y106076D01*
X50625D01*
Y106856D01*
X52834D01*
Y108025D01*
X53613D01*
Y106856D01*
D02*
G37*
G36*
X128913D02*
X131122D01*
Y106076D01*
X128913D01*
Y104907D01*
X128134D01*
Y106076D01*
X125925D01*
Y106856D01*
X128134D01*
Y108025D01*
X128913D01*
Y106856D01*
D02*
G37*
G36*
Y129332D02*
X128134D01*
Y126214D01*
X128913D01*
Y129332D01*
D02*
G37*
G36*
X18666Y6587D02*
X16666D01*
Y6976D01*
X18242D01*
Y8053D01*
X16835D01*
Y8434D01*
X18242D01*
Y9672D01*
X16666D01*
Y10061D01*
X18666D01*
Y6587D01*
D02*
G37*
G36*
X182060Y90765D02*
X181689D01*
Y91676D01*
X178745D01*
Y92085D01*
X181689D01*
Y92992D01*
X182060D01*
Y90765D01*
D02*
G37*
G36*
Y88245D02*
X178745D01*
Y90154D01*
X179116D01*
Y88650D01*
X180298D01*
Y89992D01*
X180661D01*
Y88650D01*
X181689D01*
Y90154D01*
X182060D01*
Y88245D01*
D02*
G37*
G36*
X179679Y87457D02*
X179739Y87454D01*
X179851Y87431D01*
X179953Y87405D01*
X179998Y87386D01*
X180039Y87371D01*
X180076Y87352D01*
X180110Y87337D01*
X180140Y87319D01*
X180163Y87307D01*
X180181Y87296D01*
X180196Y87285D01*
X180204Y87281D01*
X180208Y87277D01*
X180298Y87202D01*
X180369Y87124D01*
X180432Y87041D01*
X180481Y86962D01*
X180515Y86891D01*
X180530Y86861D01*
X180541Y86835D01*
X180549Y86813D01*
X180556Y86797D01*
X180560Y86786D01*
Y86782D01*
X180725Y86273D01*
X180751Y86209D01*
X180781Y86149D01*
X180811Y86100D01*
X180845Y86059D01*
X180871Y86025D01*
X180894Y86002D01*
X180909Y85988D01*
X180916Y85984D01*
X180969Y85950D01*
X181021Y85924D01*
X181074Y85909D01*
X181123Y85894D01*
X181164Y85886D01*
X181198Y85882D01*
X181220D01*
X181224D01*
X181228D01*
X181310Y85890D01*
X181385Y85905D01*
X181449Y85931D01*
X181501Y85961D01*
X181543Y85988D01*
X181572Y86014D01*
X181591Y86029D01*
X181599Y86036D01*
X181648Y86100D01*
X181681Y86167D01*
X181708Y86239D01*
X181722Y86302D01*
X181734Y86362D01*
X181737Y86389D01*
Y86411D01*
X181741Y86426D01*
Y86452D01*
X181734Y86542D01*
X181719Y86625D01*
X181696Y86692D01*
X181670Y86752D01*
X181644Y86797D01*
X181621Y86831D01*
X181606Y86850D01*
X181599Y86857D01*
X181543Y86910D01*
X181483Y86948D01*
X181419Y86974D01*
X181359Y86992D01*
X181302Y87004D01*
X181261Y87007D01*
X181243Y87011D01*
X181231D01*
X181224D01*
X181220D01*
Y87424D01*
X181295Y87420D01*
X181362Y87413D01*
X181430Y87397D01*
X181490Y87382D01*
X181550Y87364D01*
X181603Y87341D01*
X181651Y87315D01*
X181696Y87292D01*
X181734Y87266D01*
X181767Y87240D01*
X181798Y87217D01*
X181820Y87199D01*
X181839Y87184D01*
X181854Y87169D01*
X181861Y87161D01*
X181865Y87157D01*
X181906Y87105D01*
X181944Y87052D01*
X181977Y86996D01*
X182004Y86936D01*
X182026Y86876D01*
X182045Y86820D01*
X182075Y86707D01*
X182086Y86655D01*
X182094Y86606D01*
X182097Y86565D01*
X182101Y86527D01*
X182105Y86494D01*
Y86452D01*
X182101Y86374D01*
X182094Y86295D01*
X182082Y86224D01*
X182068Y86156D01*
X182049Y86096D01*
X182030Y86036D01*
X182008Y85984D01*
X181985Y85935D01*
X181963Y85894D01*
X181940Y85856D01*
X181921Y85822D01*
X181903Y85796D01*
X181887Y85774D01*
X181876Y85759D01*
X181869Y85751D01*
X181865Y85747D01*
X181820Y85702D01*
X181767Y85661D01*
X181715Y85624D01*
X181662Y85594D01*
X181610Y85567D01*
X181554Y85545D01*
X181501Y85530D01*
X181453Y85515D01*
X181404Y85504D01*
X181362Y85496D01*
X181321Y85489D01*
X181288Y85485D01*
X181257Y85481D01*
X181239D01*
X181224D01*
X181220D01*
X181160Y85485D01*
X181104Y85489D01*
X180999Y85511D01*
X180905Y85541D01*
X180823Y85575D01*
X180785Y85594D01*
X180755Y85609D01*
X180725Y85624D01*
X180702Y85639D01*
X180684Y85650D01*
X180673Y85661D01*
X180665Y85665D01*
X180661Y85669D01*
X180579Y85747D01*
X180508Y85830D01*
X180447Y85916D01*
X180399Y86002D01*
X180361Y86074D01*
X180346Y86107D01*
X180335Y86134D01*
X180327Y86160D01*
X180320Y86175D01*
X180316Y86186D01*
Y86190D01*
X180163Y86681D01*
X180136Y86745D01*
X180106Y86797D01*
X180072Y86846D01*
X180039Y86888D01*
X180005Y86917D01*
X179982Y86940D01*
X179964Y86955D01*
X179956Y86959D01*
X179900Y86992D01*
X179840Y87019D01*
X179784Y87037D01*
X179731Y87052D01*
X179686Y87060D01*
X179649Y87064D01*
X179634D01*
X179622D01*
X179619D01*
X179615D01*
X179570D01*
X179525Y87056D01*
X179446Y87037D01*
X179379Y87011D01*
X179323Y86981D01*
X179274Y86948D01*
X179240Y86921D01*
X179221Y86902D01*
X179218Y86899D01*
X179214Y86895D01*
X179161Y86827D01*
X179124Y86752D01*
X179097Y86677D01*
X179079Y86606D01*
X179068Y86542D01*
X179064Y86516D01*
Y86490D01*
X179060Y86471D01*
Y86445D01*
X179068Y86340D01*
X179083Y86250D01*
X179109Y86167D01*
X179139Y86100D01*
X179165Y86048D01*
X179180Y86025D01*
X179191Y86010D01*
X179199Y85995D01*
X179206Y85984D01*
X179214Y85980D01*
Y85976D01*
X179244Y85946D01*
X179274Y85920D01*
X179341Y85875D01*
X179409Y85845D01*
X179472Y85822D01*
X179529Y85811D01*
X179551Y85804D01*
X179574D01*
X179593Y85800D01*
X179604D01*
X179611D01*
X179615D01*
Y85391D01*
X179540Y85395D01*
X179469Y85402D01*
X179397Y85417D01*
X179334Y85436D01*
X179278Y85459D01*
X179221Y85481D01*
X179173Y85507D01*
X179124Y85534D01*
X179086Y85560D01*
X179049Y85586D01*
X179019Y85609D01*
X178992Y85631D01*
X178974Y85650D01*
X178959Y85665D01*
X178951Y85672D01*
X178947Y85676D01*
X178902Y85732D01*
X178865Y85792D01*
X178831Y85852D01*
X178805Y85916D01*
X178779Y85980D01*
X178760Y86044D01*
X178730Y86167D01*
X178723Y86224D01*
X178715Y86276D01*
X178708Y86325D01*
X178704Y86366D01*
X178700Y86400D01*
Y86445D01*
X178704Y86531D01*
X178711Y86610D01*
X178723Y86685D01*
X178737Y86756D01*
X178756Y86824D01*
X178779Y86884D01*
X178801Y86940D01*
X178824Y86989D01*
X178846Y87034D01*
X178869Y87071D01*
X178891Y87105D01*
X178910Y87135D01*
X178925Y87154D01*
X178936Y87173D01*
X178944Y87180D01*
X178947Y87184D01*
X178996Y87232D01*
X179049Y87274D01*
X179101Y87311D01*
X179157Y87345D01*
X179214Y87371D01*
X179270Y87394D01*
X179323Y87413D01*
X179375Y87427D01*
X179424Y87439D01*
X179469Y87446D01*
X179510Y87454D01*
X179548Y87457D01*
X179574Y87461D01*
X179596D01*
X179611D01*
X179615D01*
X179679Y87457D01*
D02*
G37*
G36*
X182060Y82792D02*
X178745D01*
Y84701D01*
X179116D01*
Y83197D01*
X180298D01*
Y84540D01*
X180661D01*
Y83197D01*
X181689D01*
Y84701D01*
X182060D01*
Y82792D01*
D02*
G37*
G36*
X180196Y81394D02*
X180237Y81499D01*
X180286Y81592D01*
X180342Y81675D01*
X180399Y81742D01*
X180447Y81795D01*
X180470Y81817D01*
X180492Y81836D01*
X180508Y81848D01*
X180519Y81859D01*
X180526Y81862D01*
X180530Y81866D01*
X180575Y81896D01*
X180624Y81926D01*
X180721Y81967D01*
X180819Y82001D01*
X180909Y82020D01*
X180950Y82027D01*
X180988Y82035D01*
X181021Y82039D01*
X181051D01*
X181074Y82042D01*
X181093D01*
X181104D01*
X181107D01*
X181212Y82039D01*
X181306Y82024D01*
X181393Y82005D01*
X181464Y81982D01*
X181494Y81967D01*
X181524Y81956D01*
X181546Y81949D01*
X181569Y81937D01*
X181584Y81930D01*
X181595Y81923D01*
X181603Y81919D01*
X181606D01*
X181681Y81870D01*
X181749Y81814D01*
X181805Y81754D01*
X181854Y81701D01*
X181891Y81649D01*
X181918Y81611D01*
X181929Y81596D01*
X181936Y81585D01*
X181940Y81577D01*
Y81574D01*
X181981Y81488D01*
X182011Y81401D01*
X182030Y81311D01*
X182045Y81232D01*
X182053Y81161D01*
X182056Y81131D01*
X182060Y81105D01*
Y80029D01*
X178745D01*
Y80437D01*
X180151D01*
Y80970D01*
X178745Y81607D01*
Y82087D01*
X180196Y81394D01*
D02*
G37*
G36*
X186266Y92284D02*
X187860Y93105D01*
Y92659D01*
X186439Y91924D01*
Y91432D01*
X187860D01*
Y91024D01*
X184545D01*
Y91432D01*
X186079D01*
Y91909D01*
X184545Y92681D01*
Y93150D01*
X186266Y92284D01*
D02*
G37*
G36*
X184916Y88879D02*
X187860D01*
Y88470D01*
X184545D01*
Y90379D01*
X184916D01*
Y88879D01*
D02*
G37*
G36*
X187031Y87502D02*
X187110Y87495D01*
X187181Y87484D01*
X187245Y87465D01*
X187309Y87446D01*
X187365Y87424D01*
X187417Y87401D01*
X187462Y87375D01*
X187507Y87352D01*
X187541Y87326D01*
X187575Y87304D01*
X187601Y87285D01*
X187620Y87266D01*
X187635Y87255D01*
X187643Y87248D01*
X187646Y87244D01*
X187691Y87191D01*
X187733Y87139D01*
X187766Y87082D01*
X187796Y87023D01*
X187822Y86962D01*
X187841Y86902D01*
X187860Y86846D01*
X187871Y86790D01*
X187882Y86738D01*
X187890Y86689D01*
X187898Y86647D01*
X187901Y86610D01*
X187905Y86576D01*
Y86535D01*
X187901Y86452D01*
X187894Y86374D01*
X187882Y86299D01*
X187864Y86231D01*
X187845Y86167D01*
X187826Y86107D01*
X187800Y86055D01*
X187777Y86006D01*
X187755Y85961D01*
X187733Y85924D01*
X187710Y85890D01*
X187691Y85864D01*
X187672Y85841D01*
X187661Y85826D01*
X187654Y85819D01*
X187650Y85815D01*
X187601Y85770D01*
X187549Y85729D01*
X187493Y85695D01*
X187436Y85665D01*
X187376Y85639D01*
X187320Y85616D01*
X187264Y85597D01*
X187207Y85586D01*
X187155Y85575D01*
X187106Y85567D01*
X187065Y85560D01*
X187028Y85556D01*
X186994Y85552D01*
X186971D01*
X186956D01*
X186952D01*
X185452D01*
X185370Y85556D01*
X185295Y85564D01*
X185224Y85575D01*
X185156Y85594D01*
X185092Y85612D01*
X185036Y85635D01*
X184984Y85661D01*
X184935Y85684D01*
X184894Y85710D01*
X184856Y85732D01*
X184822Y85755D01*
X184800Y85774D01*
X184777Y85792D01*
X184763Y85804D01*
X184755Y85811D01*
X184751Y85815D01*
X184706Y85867D01*
X184669Y85924D01*
X184635Y85980D01*
X184605Y86040D01*
X184582Y86100D01*
X184560Y86160D01*
X184530Y86276D01*
X184522Y86329D01*
X184515Y86377D01*
X184508Y86422D01*
X184504Y86460D01*
X184500Y86490D01*
Y86535D01*
X184504Y86617D01*
X184511Y86692D01*
X184522Y86767D01*
X184541Y86835D01*
X184560Y86899D01*
X184582Y86955D01*
X184605Y87007D01*
X184627Y87056D01*
X184650Y87101D01*
X184676Y87139D01*
X184695Y87169D01*
X184714Y87195D01*
X184732Y87217D01*
X184744Y87232D01*
X184751Y87240D01*
X184755Y87244D01*
X184804Y87289D01*
X184860Y87330D01*
X184913Y87364D01*
X184973Y87397D01*
X185029Y87420D01*
X185089Y87442D01*
X185145Y87461D01*
X185201Y87472D01*
X185250Y87484D01*
X185299Y87491D01*
X185344Y87499D01*
X185381Y87502D01*
X185411Y87506D01*
X185434D01*
X185449D01*
X185452D01*
Y87098D01*
X185355Y87090D01*
X185265Y87075D01*
X185190Y87049D01*
X185130Y87023D01*
X185081Y86996D01*
X185047Y86970D01*
X185025Y86955D01*
X185018Y86948D01*
X184969Y86888D01*
X184931Y86820D01*
X184905Y86752D01*
X184886Y86685D01*
X184875Y86629D01*
X184871Y86602D01*
Y86580D01*
X184868Y86561D01*
Y86535D01*
X184875Y86441D01*
X184890Y86355D01*
X184916Y86284D01*
X184942Y86224D01*
X184969Y86175D01*
X184995Y86141D01*
X185010Y86119D01*
X185018Y86111D01*
X185081Y86063D01*
X185149Y86025D01*
X185224Y85999D01*
X185291Y85980D01*
X185355Y85969D01*
X185381Y85965D01*
X185407D01*
X185426Y85961D01*
X185441D01*
X185449D01*
X185452D01*
X186956D01*
X187057Y85969D01*
X187144Y85984D01*
X187215Y86010D01*
X187279Y86036D01*
X187324Y86063D01*
X187361Y86089D01*
X187380Y86104D01*
X187388Y86111D01*
X187436Y86175D01*
X187474Y86242D01*
X187500Y86314D01*
X187519Y86381D01*
X187530Y86441D01*
X187534Y86467D01*
Y86490D01*
X187538Y86509D01*
Y86535D01*
X187530Y86629D01*
X187515Y86711D01*
X187489Y86782D01*
X187462Y86842D01*
X187433Y86888D01*
X187406Y86921D01*
X187391Y86940D01*
X187384Y86948D01*
X187324Y86996D01*
X187252Y87034D01*
X187181Y87060D01*
X187114Y87079D01*
X187050Y87090D01*
X187024Y87094D01*
X186997D01*
X186979Y87098D01*
X186964D01*
X186956D01*
X186952D01*
Y87506D01*
X187031Y87502D01*
D02*
G37*
G36*
X187860Y84667D02*
X185407Y84409D01*
X185295Y84398D01*
X185242Y84390D01*
X185197Y84386D01*
X185156Y84382D01*
X185123D01*
X185104Y84379D01*
X185100D01*
X185096D01*
X185040Y84375D01*
X184987Y84371D01*
X184942Y84367D01*
X184905Y84364D01*
X184879D01*
X184856Y84360D01*
X184841D01*
X184837D01*
X184875Y84356D01*
X184920Y84352D01*
X184961Y84345D01*
X185003Y84341D01*
X185040Y84338D01*
X185070Y84334D01*
X185089Y84330D01*
X185096D01*
X185156Y84323D01*
X185213Y84319D01*
X185265Y84311D01*
X185314Y84307D01*
X185351Y84304D01*
X185381Y84300D01*
X185400Y84296D01*
X185407D01*
X187860Y84011D01*
Y83591D01*
X185407Y83280D01*
X185295Y83269D01*
X185242Y83261D01*
X185197Y83257D01*
X185156Y83254D01*
X185123Y83250D01*
X185104Y83246D01*
X185100D01*
X185096D01*
X185040Y83242D01*
X184987Y83235D01*
X184942Y83231D01*
X184905D01*
X184879Y83227D01*
X184856Y83224D01*
X184841D01*
X184837D01*
X184875Y83220D01*
X184920Y83216D01*
X184961D01*
X185003Y83213D01*
X185040Y83209D01*
X185070D01*
X185089Y83205D01*
X185096D01*
X185156Y83201D01*
X185213Y83197D01*
X185265Y83194D01*
X185314Y83190D01*
X185351Y83186D01*
X185381D01*
X185400Y83182D01*
X185407D01*
X187860Y82931D01*
Y82541D01*
X184545Y82924D01*
Y83438D01*
X187042Y83741D01*
X187099Y83749D01*
X187155Y83756D01*
X187204Y83760D01*
X187249Y83764D01*
X187290Y83771D01*
X187316D01*
X187335Y83775D01*
X187343D01*
X187395Y83779D01*
X187444Y83786D01*
X187481Y83790D01*
X187515Y83794D01*
X187541Y83798D01*
X187560Y83801D01*
X187571D01*
X187575D01*
X187541Y83805D01*
X187504Y83809D01*
X187466D01*
X187429Y83812D01*
X187395Y83816D01*
X187369Y83820D01*
X187350D01*
X187343D01*
X187234Y83831D01*
X187185Y83839D01*
X187136Y83842D01*
X187099Y83846D01*
X187069Y83850D01*
X187050Y83854D01*
X187042D01*
X184545Y84135D01*
Y84649D01*
X187860Y85039D01*
Y84667D01*
D02*
G37*
G36*
X185479Y82095D02*
X185539Y82091D01*
X185651Y82069D01*
X185752Y82042D01*
X185798Y82024D01*
X185839Y82009D01*
X185876Y81990D01*
X185910Y81975D01*
X185940Y81956D01*
X185962Y81945D01*
X185981Y81934D01*
X185996Y81923D01*
X186004Y81919D01*
X186007Y81915D01*
X186098Y81840D01*
X186169Y81761D01*
X186232Y81679D01*
X186281Y81600D01*
X186315Y81529D01*
X186330Y81499D01*
X186341Y81472D01*
X186349Y81450D01*
X186356Y81435D01*
X186360Y81424D01*
Y81420D01*
X186525Y80910D01*
X186551Y80846D01*
X186581Y80786D01*
X186611Y80738D01*
X186645Y80696D01*
X186671Y80663D01*
X186694Y80640D01*
X186709Y80625D01*
X186716Y80621D01*
X186769Y80588D01*
X186821Y80561D01*
X186874Y80546D01*
X186923Y80531D01*
X186964Y80524D01*
X186997Y80520D01*
X187020D01*
X187024D01*
X187028D01*
X187110Y80527D01*
X187185Y80542D01*
X187249Y80569D01*
X187301Y80599D01*
X187343Y80625D01*
X187373Y80651D01*
X187391Y80666D01*
X187399Y80674D01*
X187448Y80738D01*
X187481Y80805D01*
X187507Y80876D01*
X187522Y80940D01*
X187534Y81000D01*
X187538Y81026D01*
Y81049D01*
X187541Y81064D01*
Y81090D01*
X187534Y81180D01*
X187519Y81262D01*
X187496Y81330D01*
X187470Y81390D01*
X187444Y81435D01*
X187421Y81469D01*
X187406Y81488D01*
X187399Y81495D01*
X187343Y81547D01*
X187283Y81585D01*
X187219Y81611D01*
X187159Y81630D01*
X187102Y81641D01*
X187061Y81645D01*
X187042Y81649D01*
X187031D01*
X187024D01*
X187020D01*
Y82061D01*
X187095Y82057D01*
X187162Y82050D01*
X187230Y82035D01*
X187290Y82020D01*
X187350Y82001D01*
X187402Y81979D01*
X187451Y81952D01*
X187496Y81930D01*
X187534Y81904D01*
X187567Y81877D01*
X187598Y81855D01*
X187620Y81836D01*
X187639Y81821D01*
X187654Y81806D01*
X187661Y81799D01*
X187665Y81795D01*
X187706Y81742D01*
X187744Y81690D01*
X187777Y81634D01*
X187804Y81574D01*
X187826Y81514D01*
X187845Y81457D01*
X187875Y81345D01*
X187886Y81292D01*
X187894Y81244D01*
X187898Y81202D01*
X187901Y81165D01*
X187905Y81131D01*
Y81090D01*
X187901Y81011D01*
X187894Y80932D01*
X187882Y80861D01*
X187867Y80794D01*
X187849Y80734D01*
X187830Y80674D01*
X187808Y80621D01*
X187785Y80572D01*
X187762Y80531D01*
X187740Y80494D01*
X187721Y80460D01*
X187703Y80434D01*
X187688Y80411D01*
X187676Y80396D01*
X187669Y80389D01*
X187665Y80385D01*
X187620Y80340D01*
X187567Y80299D01*
X187515Y80261D01*
X187462Y80231D01*
X187410Y80205D01*
X187354Y80182D01*
X187301Y80167D01*
X187252Y80152D01*
X187204Y80141D01*
X187162Y80134D01*
X187121Y80126D01*
X187088Y80123D01*
X187057Y80119D01*
X187039D01*
X187024D01*
X187020D01*
X186960Y80123D01*
X186904Y80126D01*
X186799Y80149D01*
X186705Y80179D01*
X186623Y80212D01*
X186585Y80231D01*
X186555Y80246D01*
X186525Y80261D01*
X186503Y80276D01*
X186484Y80287D01*
X186472Y80299D01*
X186465Y80302D01*
X186461Y80306D01*
X186379Y80385D01*
X186308Y80467D01*
X186248Y80554D01*
X186199Y80640D01*
X186161Y80711D01*
X186146Y80745D01*
X186135Y80771D01*
X186127Y80797D01*
X186120Y80813D01*
X186116Y80824D01*
Y80827D01*
X185962Y81319D01*
X185936Y81382D01*
X185906Y81435D01*
X185872Y81484D01*
X185839Y81525D01*
X185805Y81555D01*
X185783Y81577D01*
X185764Y81592D01*
X185756Y81596D01*
X185700Y81630D01*
X185640Y81656D01*
X185584Y81675D01*
X185531Y81690D01*
X185486Y81697D01*
X185449Y81701D01*
X185434D01*
X185423D01*
X185419D01*
X185415D01*
X185370D01*
X185325Y81694D01*
X185246Y81675D01*
X185179Y81649D01*
X185123Y81619D01*
X185074Y81585D01*
X185040Y81559D01*
X185021Y81540D01*
X185018Y81536D01*
X185014Y81532D01*
X184961Y81465D01*
X184924Y81390D01*
X184897Y81315D01*
X184879Y81244D01*
X184868Y81180D01*
X184864Y81154D01*
Y81127D01*
X184860Y81109D01*
Y81082D01*
X184868Y80977D01*
X184882Y80888D01*
X184909Y80805D01*
X184939Y80738D01*
X184965Y80685D01*
X184980Y80663D01*
X184991Y80647D01*
X184999Y80632D01*
X185006Y80621D01*
X185014Y80617D01*
Y80614D01*
X185044Y80584D01*
X185074Y80557D01*
X185141Y80512D01*
X185209Y80482D01*
X185273Y80460D01*
X185329Y80449D01*
X185351Y80441D01*
X185374D01*
X185392Y80437D01*
X185404D01*
X185411D01*
X185415D01*
Y80029D01*
X185340Y80032D01*
X185269Y80040D01*
X185197Y80055D01*
X185134Y80074D01*
X185078Y80096D01*
X185021Y80119D01*
X184973Y80145D01*
X184924Y80171D01*
X184886Y80198D01*
X184849Y80224D01*
X184819Y80246D01*
X184792Y80269D01*
X184774Y80287D01*
X184759Y80302D01*
X184751Y80310D01*
X184748Y80314D01*
X184703Y80370D01*
X184665Y80430D01*
X184631Y80490D01*
X184605Y80554D01*
X184579Y80617D01*
X184560Y80681D01*
X184530Y80805D01*
X184522Y80861D01*
X184515Y80914D01*
X184508Y80963D01*
X184504Y81004D01*
X184500Y81037D01*
Y81082D01*
X184504Y81169D01*
X184511Y81248D01*
X184522Y81322D01*
X184537Y81394D01*
X184556Y81461D01*
X184579Y81521D01*
X184601Y81577D01*
X184624Y81626D01*
X184646Y81671D01*
X184669Y81709D01*
X184691Y81742D01*
X184710Y81773D01*
X184725Y81791D01*
X184736Y81810D01*
X184744Y81817D01*
X184748Y81821D01*
X184796Y81870D01*
X184849Y81911D01*
X184901Y81949D01*
X184958Y81982D01*
X185014Y82009D01*
X185070Y82031D01*
X185123Y82050D01*
X185175Y82065D01*
X185224Y82076D01*
X185269Y82084D01*
X185310Y82091D01*
X185347Y82095D01*
X185374Y82099D01*
X185396D01*
X185411D01*
X185415D01*
X185479Y82095D01*
D02*
G37*
G36*
X192839Y92929D02*
X192914Y92921D01*
X192985Y92910D01*
X193052Y92891D01*
X193116Y92873D01*
X193173Y92850D01*
X193225Y92827D01*
X193274Y92805D01*
X193315Y92779D01*
X193352Y92756D01*
X193383Y92734D01*
X193409Y92715D01*
X193428Y92696D01*
X193442Y92685D01*
X193450Y92677D01*
X193454Y92674D01*
X193499Y92625D01*
X193536Y92569D01*
X193570Y92513D01*
X193600Y92456D01*
X193623Y92396D01*
X193645Y92336D01*
X193675Y92224D01*
X193683Y92171D01*
X193690Y92123D01*
X193698Y92081D01*
X193701Y92044D01*
X193705Y92010D01*
Y91969D01*
X193701Y91886D01*
X193694Y91811D01*
X193683Y91736D01*
X193664Y91669D01*
X193645Y91609D01*
X193626Y91549D01*
X193600Y91496D01*
X193578Y91448D01*
X193555Y91406D01*
X193533Y91369D01*
X193510Y91339D01*
X193491Y91312D01*
X193473Y91290D01*
X193461Y91275D01*
X193454Y91267D01*
X193450Y91264D01*
X193401Y91219D01*
X193349Y91177D01*
X193292Y91144D01*
X193236Y91114D01*
X193176Y91088D01*
X193120Y91069D01*
X193064Y91050D01*
X193008Y91039D01*
X192955Y91027D01*
X192906Y91020D01*
X192865Y91013D01*
X192827Y91009D01*
X192794Y91005D01*
X192771D01*
X192756D01*
X192753D01*
X191253D01*
X191170Y91009D01*
X191095Y91016D01*
X191024Y91027D01*
X190956Y91046D01*
X190893Y91065D01*
X190836Y91088D01*
X190784Y91110D01*
X190735Y91136D01*
X190694Y91159D01*
X190656Y91181D01*
X190622Y91204D01*
X190600Y91223D01*
X190577Y91241D01*
X190562Y91252D01*
X190555Y91260D01*
X190551Y91264D01*
X190506Y91316D01*
X190469Y91369D01*
X190435Y91425D01*
X190405Y91485D01*
X190383Y91541D01*
X190360Y91601D01*
X190330Y91714D01*
X190322Y91766D01*
X190315Y91815D01*
X190307Y91856D01*
X190304Y91894D01*
X190300Y91927D01*
Y91969D01*
X190304Y92051D01*
X190311Y92126D01*
X190322Y92201D01*
X190341Y92269D01*
X190360Y92329D01*
X190379Y92389D01*
X190401Y92441D01*
X190427Y92490D01*
X190450Y92531D01*
X190472Y92569D01*
X190491Y92599D01*
X190514Y92625D01*
X190529Y92647D01*
X190540Y92663D01*
X190548Y92670D01*
X190551Y92674D01*
X190600Y92719D01*
X190656Y92760D01*
X190712Y92794D01*
X190769Y92824D01*
X190829Y92850D01*
X190885Y92869D01*
X190941Y92888D01*
X190998Y92899D01*
X191050Y92910D01*
X191099Y92917D01*
X191140Y92925D01*
X191177Y92929D01*
X191211Y92932D01*
X191234D01*
X191249D01*
X191253D01*
X192756D01*
X192839Y92929D01*
D02*
G37*
G36*
X193660Y88357D02*
X193289D01*
Y89032D01*
X190716D01*
Y88357D01*
X190345D01*
Y90127D01*
X190716D01*
Y89452D01*
X193289D01*
Y90127D01*
X193660D01*
Y88357D01*
D02*
G37*
G36*
X192775Y87476D02*
X192876Y87461D01*
X192966Y87439D01*
X193041Y87416D01*
X193075Y87401D01*
X193105Y87390D01*
X193131Y87379D01*
X193154Y87371D01*
X193169Y87360D01*
X193180Y87356D01*
X193187Y87349D01*
X193191D01*
X193270Y87296D01*
X193341Y87240D01*
X193401Y87176D01*
X193450Y87120D01*
X193488Y87067D01*
X193514Y87023D01*
X193525Y87007D01*
X193533Y86996D01*
X193536Y86989D01*
Y86985D01*
X193578Y86895D01*
X193607Y86801D01*
X193630Y86707D01*
X193645Y86621D01*
X193649Y86580D01*
X193652Y86546D01*
X193656Y86513D01*
X193660Y86482D01*
Y85571D01*
X190345D01*
Y86430D01*
X190349Y86546D01*
X190364Y86651D01*
X190383Y86749D01*
X190394Y86790D01*
X190405Y86827D01*
X190416Y86865D01*
X190427Y86895D01*
X190439Y86921D01*
X190446Y86944D01*
X190454Y86962D01*
X190461Y86974D01*
X190465Y86981D01*
Y86985D01*
X190517Y87067D01*
X190570Y87142D01*
X190630Y87202D01*
X190686Y87255D01*
X190735Y87296D01*
X190776Y87326D01*
X190791Y87334D01*
X190803Y87341D01*
X190810Y87349D01*
X190814D01*
X190900Y87394D01*
X190990Y87424D01*
X191080Y87446D01*
X191163Y87465D01*
X191200Y87469D01*
X191234Y87472D01*
X191264Y87476D01*
X191290D01*
X191313Y87480D01*
X191328D01*
X191339D01*
X191342D01*
X192666D01*
X192775Y87476D01*
D02*
G37*
G36*
X193660Y84667D02*
X191208Y84409D01*
X191095Y84398D01*
X191042Y84390D01*
X190998Y84386D01*
X190956Y84382D01*
X190922D01*
X190904Y84379D01*
X190900D01*
X190896D01*
X190840Y84375D01*
X190787Y84371D01*
X190743Y84367D01*
X190705Y84364D01*
X190679D01*
X190656Y84360D01*
X190641D01*
X190638D01*
X190675Y84356D01*
X190720Y84352D01*
X190761Y84345D01*
X190803Y84341D01*
X190840Y84338D01*
X190870Y84334D01*
X190889Y84330D01*
X190896D01*
X190956Y84323D01*
X191013Y84319D01*
X191065Y84311D01*
X191114Y84307D01*
X191151Y84304D01*
X191181Y84300D01*
X191200Y84296D01*
X191208D01*
X193660Y84011D01*
Y83591D01*
X191208Y83280D01*
X191095Y83269D01*
X191042Y83261D01*
X190998Y83257D01*
X190956Y83254D01*
X190922Y83250D01*
X190904Y83246D01*
X190900D01*
X190896D01*
X190840Y83242D01*
X190787Y83235D01*
X190743Y83231D01*
X190705D01*
X190679Y83227D01*
X190656Y83224D01*
X190641D01*
X190638D01*
X190675Y83220D01*
X190720Y83216D01*
X190761D01*
X190803Y83213D01*
X190840Y83209D01*
X190870D01*
X190889Y83205D01*
X190896D01*
X190956Y83201D01*
X191013Y83197D01*
X191065Y83194D01*
X191114Y83190D01*
X191151Y83186D01*
X191181D01*
X191200Y83182D01*
X191208D01*
X193660Y82931D01*
Y82541D01*
X190345Y82924D01*
Y83438D01*
X192842Y83741D01*
X192899Y83749D01*
X192955Y83756D01*
X193004Y83760D01*
X193049Y83764D01*
X193090Y83771D01*
X193116D01*
X193135Y83775D01*
X193142D01*
X193195Y83779D01*
X193244Y83786D01*
X193281Y83790D01*
X193315Y83794D01*
X193341Y83798D01*
X193360Y83801D01*
X193371D01*
X193375D01*
X193341Y83805D01*
X193304Y83809D01*
X193266D01*
X193229Y83812D01*
X193195Y83816D01*
X193169Y83820D01*
X193150D01*
X193142D01*
X193034Y83831D01*
X192985Y83839D01*
X192936Y83842D01*
X192899Y83846D01*
X192869Y83850D01*
X192850Y83854D01*
X192842D01*
X190345Y84135D01*
Y84649D01*
X193660Y85039D01*
Y84667D01*
D02*
G37*
G36*
X191279Y82095D02*
X191339Y82091D01*
X191451Y82069D01*
X191552Y82042D01*
X191597Y82024D01*
X191639Y82009D01*
X191676Y81990D01*
X191710Y81975D01*
X191740Y81956D01*
X191762Y81945D01*
X191781Y81934D01*
X191796Y81923D01*
X191804Y81919D01*
X191807Y81915D01*
X191897Y81840D01*
X191969Y81761D01*
X192033Y81679D01*
X192081Y81600D01*
X192115Y81529D01*
X192130Y81499D01*
X192141Y81472D01*
X192149Y81450D01*
X192156Y81435D01*
X192160Y81424D01*
Y81420D01*
X192325Y80910D01*
X192351Y80846D01*
X192381Y80786D01*
X192411Y80738D01*
X192445Y80696D01*
X192471Y80663D01*
X192494Y80640D01*
X192509Y80625D01*
X192516Y80621D01*
X192569Y80588D01*
X192621Y80561D01*
X192674Y80546D01*
X192722Y80531D01*
X192764Y80524D01*
X192798Y80520D01*
X192820D01*
X192824D01*
X192827D01*
X192910Y80527D01*
X192985Y80542D01*
X193049Y80569D01*
X193101Y80599D01*
X193142Y80625D01*
X193173Y80651D01*
X193191Y80666D01*
X193199Y80674D01*
X193247Y80738D01*
X193281Y80805D01*
X193307Y80876D01*
X193323Y80940D01*
X193334Y81000D01*
X193338Y81026D01*
Y81049D01*
X193341Y81064D01*
Y81090D01*
X193334Y81180D01*
X193319Y81262D01*
X193296Y81330D01*
X193270Y81390D01*
X193244Y81435D01*
X193221Y81469D01*
X193206Y81488D01*
X193199Y81495D01*
X193142Y81547D01*
X193082Y81585D01*
X193019Y81611D01*
X192959Y81630D01*
X192903Y81641D01*
X192861Y81645D01*
X192842Y81649D01*
X192831D01*
X192824D01*
X192820D01*
Y82061D01*
X192895Y82057D01*
X192963Y82050D01*
X193030Y82035D01*
X193090Y82020D01*
X193150Y82001D01*
X193202Y81979D01*
X193251Y81952D01*
X193296Y81930D01*
X193334Y81904D01*
X193368Y81877D01*
X193397Y81855D01*
X193420Y81836D01*
X193439Y81821D01*
X193454Y81806D01*
X193461Y81799D01*
X193465Y81795D01*
X193506Y81742D01*
X193544Y81690D01*
X193578Y81634D01*
X193604Y81574D01*
X193626Y81514D01*
X193645Y81457D01*
X193675Y81345D01*
X193686Y81292D01*
X193694Y81244D01*
X193698Y81202D01*
X193701Y81165D01*
X193705Y81131D01*
Y81090D01*
X193701Y81011D01*
X193694Y80932D01*
X193683Y80861D01*
X193667Y80794D01*
X193649Y80734D01*
X193630Y80674D01*
X193607Y80621D01*
X193585Y80572D01*
X193562Y80531D01*
X193540Y80494D01*
X193521Y80460D01*
X193502Y80434D01*
X193488Y80411D01*
X193476Y80396D01*
X193469Y80389D01*
X193465Y80385D01*
X193420Y80340D01*
X193368Y80299D01*
X193315Y80261D01*
X193263Y80231D01*
X193210Y80205D01*
X193154Y80182D01*
X193101Y80167D01*
X193052Y80152D01*
X193004Y80141D01*
X192963Y80134D01*
X192921Y80126D01*
X192887Y80123D01*
X192858Y80119D01*
X192839D01*
X192824D01*
X192820D01*
X192760Y80123D01*
X192704Y80126D01*
X192599Y80149D01*
X192505Y80179D01*
X192422Y80212D01*
X192385Y80231D01*
X192355Y80246D01*
X192325Y80261D01*
X192303Y80276D01*
X192284Y80287D01*
X192272Y80299D01*
X192265Y80302D01*
X192261Y80306D01*
X192179Y80385D01*
X192107Y80467D01*
X192048Y80554D01*
X191999Y80640D01*
X191961Y80711D01*
X191946Y80745D01*
X191935Y80771D01*
X191928Y80797D01*
X191920Y80813D01*
X191916Y80824D01*
Y80827D01*
X191762Y81319D01*
X191736Y81382D01*
X191706Y81435D01*
X191673Y81484D01*
X191639Y81525D01*
X191605Y81555D01*
X191583Y81577D01*
X191564Y81592D01*
X191556Y81596D01*
X191500Y81630D01*
X191440Y81656D01*
X191384Y81675D01*
X191331Y81690D01*
X191286Y81697D01*
X191249Y81701D01*
X191234D01*
X191223D01*
X191219D01*
X191215D01*
X191170D01*
X191125Y81694D01*
X191046Y81675D01*
X190979Y81649D01*
X190922Y81619D01*
X190874Y81585D01*
X190840Y81559D01*
X190821Y81540D01*
X190817Y81536D01*
X190814Y81532D01*
X190761Y81465D01*
X190724Y81390D01*
X190698Y81315D01*
X190679Y81244D01*
X190667Y81180D01*
X190664Y81154D01*
Y81127D01*
X190660Y81109D01*
Y81082D01*
X190667Y80977D01*
X190682Y80888D01*
X190709Y80805D01*
X190739Y80738D01*
X190765Y80685D01*
X190780Y80663D01*
X190791Y80647D01*
X190799Y80632D01*
X190806Y80621D01*
X190814Y80617D01*
Y80614D01*
X190844Y80584D01*
X190874Y80557D01*
X190941Y80512D01*
X191009Y80482D01*
X191072Y80460D01*
X191129Y80449D01*
X191151Y80441D01*
X191174D01*
X191192Y80437D01*
X191204D01*
X191211D01*
X191215D01*
Y80029D01*
X191140Y80032D01*
X191069Y80040D01*
X190998Y80055D01*
X190934Y80074D01*
X190877Y80096D01*
X190821Y80119D01*
X190772Y80145D01*
X190724Y80171D01*
X190686Y80198D01*
X190649Y80224D01*
X190619Y80246D01*
X190593Y80269D01*
X190574Y80287D01*
X190559Y80302D01*
X190551Y80310D01*
X190548Y80314D01*
X190503Y80370D01*
X190465Y80430D01*
X190431Y80490D01*
X190405Y80554D01*
X190379Y80617D01*
X190360Y80681D01*
X190330Y80805D01*
X190322Y80861D01*
X190315Y80914D01*
X190307Y80963D01*
X190304Y81004D01*
X190300Y81037D01*
Y81082D01*
X190304Y81169D01*
X190311Y81248D01*
X190322Y81322D01*
X190338Y81394D01*
X190356Y81461D01*
X190379Y81521D01*
X190401Y81577D01*
X190424Y81626D01*
X190446Y81671D01*
X190469Y81709D01*
X190491Y81742D01*
X190510Y81773D01*
X190525Y81791D01*
X190536Y81810D01*
X190544Y81817D01*
X190548Y81821D01*
X190596Y81870D01*
X190649Y81911D01*
X190701Y81949D01*
X190758Y81982D01*
X190814Y82009D01*
X190870Y82031D01*
X190922Y82050D01*
X190975Y82065D01*
X191024Y82076D01*
X191069Y82084D01*
X191110Y82091D01*
X191147Y82095D01*
X191174Y82099D01*
X191196D01*
X191211D01*
X191215D01*
X191279Y82095D01*
D02*
G37*
G36*
X202943Y91822D02*
X202489D01*
Y92951D01*
X201773D01*
X201720Y92884D01*
X201668Y92805D01*
X201623Y92726D01*
X201581Y92651D01*
X201548Y92580D01*
X201533Y92550D01*
X201521Y92524D01*
X201510Y92501D01*
X201506Y92486D01*
X201499Y92475D01*
Y92471D01*
X201458Y92355D01*
X201428Y92239D01*
X201405Y92130D01*
X201390Y92032D01*
X201386Y91987D01*
X201383Y91946D01*
X201379Y91912D01*
Y91882D01*
X201375Y91860D01*
Y91826D01*
X201379Y91755D01*
X201383Y91687D01*
X201401Y91556D01*
X201428Y91432D01*
X201443Y91376D01*
X201458Y91327D01*
X201473Y91279D01*
X201488Y91237D01*
X201503Y91200D01*
X201514Y91170D01*
X201525Y91144D01*
X201533Y91125D01*
X201540Y91114D01*
Y91110D01*
X201574Y91050D01*
X201611Y90990D01*
X201649Y90937D01*
X201690Y90889D01*
X201735Y90840D01*
X201776Y90799D01*
X201818Y90761D01*
X201859Y90727D01*
X201900Y90697D01*
X201938Y90671D01*
X201968Y90649D01*
X201998Y90630D01*
X202020Y90615D01*
X202039Y90604D01*
X202050Y90600D01*
X202054Y90596D01*
X202121Y90566D01*
X202193Y90540D01*
X202335Y90495D01*
X202481Y90465D01*
X202549Y90450D01*
X202616Y90442D01*
X202680Y90435D01*
X202736Y90431D01*
X202785Y90424D01*
X202830D01*
X202868Y90420D01*
X202894D01*
X202909D01*
X202916D01*
X203070Y90427D01*
X203213Y90442D01*
X203280Y90454D01*
X203344Y90465D01*
X203404Y90480D01*
X203460Y90495D01*
X203509Y90506D01*
X203554Y90521D01*
X203595Y90532D01*
X203625Y90544D01*
X203655Y90551D01*
X203674Y90559D01*
X203685Y90566D01*
X203689D01*
X203764Y90600D01*
X203835Y90641D01*
X203899Y90679D01*
X203955Y90720D01*
X204004Y90754D01*
X204038Y90780D01*
X204060Y90799D01*
X204068Y90806D01*
X204131Y90870D01*
X204188Y90937D01*
X204233Y91005D01*
X204274Y91069D01*
X204308Y91129D01*
X204319Y91151D01*
X204330Y91174D01*
X204338Y91192D01*
X204345Y91204D01*
X204349Y91211D01*
Y91215D01*
X204386Y91312D01*
X204413Y91417D01*
X204431Y91519D01*
X204443Y91612D01*
X204450Y91657D01*
X204454Y91695D01*
Y91729D01*
X204458Y91759D01*
Y91819D01*
X204454Y91924D01*
X204443Y92025D01*
X204424Y92115D01*
X204409Y92194D01*
X204398Y92227D01*
X204390Y92257D01*
X204379Y92284D01*
X204371Y92306D01*
X204368Y92325D01*
X204360Y92336D01*
X204356Y92344D01*
Y92347D01*
X204315Y92434D01*
X204270Y92505D01*
X204225Y92569D01*
X204184Y92621D01*
X204146Y92662D01*
X204113Y92692D01*
X204094Y92707D01*
X204090Y92715D01*
X204086D01*
X204019Y92764D01*
X203944Y92805D01*
X203865Y92842D01*
X203794Y92872D01*
X203726Y92899D01*
X203696Y92910D01*
X203674Y92917D01*
X203655Y92925D01*
X203636Y92929D01*
X203629Y92932D01*
X203625D01*
X203749Y93390D01*
X203820Y93371D01*
X203888Y93349D01*
X203951Y93326D01*
X204011Y93304D01*
X204068Y93277D01*
X204120Y93255D01*
X204169Y93232D01*
X204210Y93206D01*
X204248Y93184D01*
X204281Y93165D01*
X204311Y93146D01*
X204334Y93131D01*
X204353Y93116D01*
X204368Y93105D01*
X204375Y93101D01*
X204379Y93097D01*
X204465Y93019D01*
X204540Y92932D01*
X204604Y92846D01*
X204656Y92760D01*
X204698Y92685D01*
X204716Y92651D01*
X204728Y92625D01*
X204739Y92602D01*
X204746Y92584D01*
X204754Y92572D01*
Y92569D01*
X204799Y92441D01*
X204833Y92310D01*
X204859Y92186D01*
X204866Y92126D01*
X204874Y92070D01*
X204881Y92017D01*
X204885Y91969D01*
X204889Y91924D01*
Y91890D01*
X204893Y91860D01*
Y91819D01*
X204889Y91714D01*
X204881Y91609D01*
X204870Y91511D01*
X204855Y91417D01*
X204836Y91327D01*
X204818Y91245D01*
X204795Y91166D01*
X204776Y91095D01*
X204754Y91031D01*
X204731Y90971D01*
X204713Y90922D01*
X204694Y90881D01*
X204679Y90847D01*
X204668Y90821D01*
X204660Y90806D01*
X204656Y90802D01*
X204608Y90724D01*
X204559Y90649D01*
X204503Y90577D01*
X204443Y90514D01*
X204383Y90450D01*
X204323Y90397D01*
X204263Y90345D01*
X204206Y90300D01*
X204150Y90259D01*
X204098Y90225D01*
X204053Y90195D01*
X204011Y90172D01*
X203978Y90154D01*
X203955Y90139D01*
X203940Y90131D01*
X203933Y90127D01*
X203839Y90086D01*
X203749Y90052D01*
X203655Y90019D01*
X203565Y89992D01*
X203475Y89970D01*
X203389Y89951D01*
X203306Y89936D01*
X203228Y89925D01*
X203156Y89914D01*
X203089Y89906D01*
X203033Y89902D01*
X202980Y89899D01*
X202943Y89895D01*
X202913D01*
X202894D01*
X202886D01*
X202781Y89899D01*
X202680Y89906D01*
X202583Y89917D01*
X202489Y89932D01*
X202399Y89947D01*
X202313Y89970D01*
X202234Y89989D01*
X202159Y90011D01*
X202095Y90034D01*
X202035Y90052D01*
X201983Y90075D01*
X201941Y90090D01*
X201904Y90105D01*
X201881Y90116D01*
X201863Y90124D01*
X201859Y90127D01*
X201776Y90176D01*
X201698Y90225D01*
X201623Y90281D01*
X201555Y90337D01*
X201495Y90394D01*
X201435Y90454D01*
X201383Y90510D01*
X201338Y90566D01*
X201296Y90619D01*
X201259Y90667D01*
X201229Y90712D01*
X201203Y90750D01*
X201184Y90780D01*
X201169Y90806D01*
X201161Y90821D01*
X201158Y90825D01*
X201116Y90915D01*
X201079Y91001D01*
X201045Y91091D01*
X201019Y91181D01*
X200996Y91271D01*
X200978Y91357D01*
X200959Y91436D01*
X200948Y91515D01*
X200936Y91586D01*
X200929Y91654D01*
X200925Y91710D01*
X200921Y91762D01*
X200918Y91800D01*
Y91856D01*
X200925Y92014D01*
X200940Y92160D01*
X200951Y92231D01*
X200966Y92299D01*
X200978Y92362D01*
X200993Y92422D01*
X201008Y92479D01*
X201019Y92527D01*
X201034Y92569D01*
X201045Y92606D01*
X201053Y92636D01*
X201060Y92655D01*
X201068Y92670D01*
Y92674D01*
X201131Y92824D01*
X201203Y92966D01*
X201274Y93097D01*
X201311Y93157D01*
X201349Y93214D01*
X201383Y93262D01*
X201413Y93311D01*
X201439Y93352D01*
X201465Y93386D01*
X201484Y93412D01*
X201503Y93435D01*
X201510Y93446D01*
X201514Y93450D01*
X202943D01*
Y91822D01*
D02*
G37*
G36*
X214361Y92932D02*
X211568Y91890D01*
X211451Y91849D01*
X211335Y91807D01*
X211230Y91774D01*
X211136Y91744D01*
X211091Y91729D01*
X211054Y91717D01*
X211020Y91710D01*
X210990Y91699D01*
X210968Y91691D01*
X210953Y91688D01*
X210941Y91684D01*
X210938D01*
X211050Y91650D01*
X211159Y91616D01*
X211264Y91582D01*
X211361Y91552D01*
X211406Y91537D01*
X211444Y91523D01*
X211481Y91511D01*
X211511Y91500D01*
X211534Y91492D01*
X211553Y91485D01*
X211564Y91481D01*
X211568D01*
X214361Y90484D01*
Y89932D01*
X210518Y91417D01*
Y91946D01*
X214361Y93450D01*
Y92932D01*
D02*
G37*
G36*
X37361Y52061D02*
X38273D01*
Y51679D01*
X37361D01*
Y50752D01*
X36944D01*
Y51679D01*
X36033D01*
Y52061D01*
X36944D01*
Y52988D01*
X37361D01*
Y52061D01*
D02*
G37*
G36*
X41000Y50300D02*
X40572D01*
Y51727D01*
X39880D01*
X39790Y51731D01*
X39707Y51738D01*
X39628Y51754D01*
X39554Y51770D01*
X39487Y51789D01*
X39424Y51813D01*
X39365Y51841D01*
X39314Y51868D01*
X39267Y51892D01*
X39228Y51919D01*
X39192Y51943D01*
X39161Y51962D01*
X39141Y51978D01*
X39121Y51994D01*
X39114Y52002D01*
X39110Y52006D01*
X39059Y52061D01*
X39015Y52120D01*
X38976Y52179D01*
X38941Y52241D01*
X38913Y52304D01*
X38890Y52363D01*
X38870Y52426D01*
X38854Y52485D01*
X38842Y52540D01*
X38835Y52591D01*
X38827Y52634D01*
X38823Y52674D01*
X38819Y52709D01*
Y52733D01*
Y52748D01*
Y52752D01*
X38823Y52839D01*
X38831Y52917D01*
X38846Y52992D01*
X38866Y53063D01*
X38886Y53130D01*
X38909Y53193D01*
X38937Y53247D01*
X38964Y53299D01*
X38992Y53342D01*
X39019Y53381D01*
X39043Y53417D01*
X39062Y53444D01*
X39082Y53468D01*
X39098Y53483D01*
X39106Y53491D01*
X39110Y53495D01*
X39165Y53546D01*
X39224Y53585D01*
X39287Y53625D01*
X39349Y53656D01*
X39416Y53684D01*
X39479Y53707D01*
X39542Y53723D01*
X39601Y53739D01*
X39660Y53750D01*
X39711Y53758D01*
X39758Y53766D01*
X39801Y53770D01*
X39833Y53774D01*
X41000D01*
Y50300D01*
D02*
G37*
G36*
X4108Y75607D02*
X5035D01*
Y75191D01*
X4108D01*
Y74279D01*
X3727D01*
Y75191D01*
X2799D01*
Y75607D01*
X3727D01*
Y76519D01*
X4108D01*
Y75607D01*
D02*
G37*
G36*
X5821Y73461D02*
X3251Y73190D01*
X3133Y73178D01*
X3078Y73171D01*
X3031Y73167D01*
X2988Y73163D01*
X2952D01*
X2933Y73159D01*
X2929D01*
X2925D01*
X2866Y73155D01*
X2811Y73151D01*
X2764Y73147D01*
X2724Y73143D01*
X2697D01*
X2673Y73139D01*
X2658D01*
X2654D01*
X2693Y73135D01*
X2740Y73131D01*
X2783Y73123D01*
X2827Y73119D01*
X2866Y73116D01*
X2897Y73112D01*
X2917Y73108D01*
X2925D01*
X2988Y73100D01*
X3047Y73096D01*
X3102Y73088D01*
X3153Y73084D01*
X3192Y73080D01*
X3224Y73076D01*
X3243Y73072D01*
X3251D01*
X5821Y72774D01*
Y72334D01*
X3251Y72007D01*
X3133Y71996D01*
X3078Y71988D01*
X3031Y71984D01*
X2988Y71980D01*
X2952Y71976D01*
X2933Y71972D01*
X2929D01*
X2925D01*
X2866Y71968D01*
X2811Y71960D01*
X2764Y71956D01*
X2724D01*
X2697Y71952D01*
X2673Y71948D01*
X2658D01*
X2654D01*
X2693Y71944D01*
X2740Y71940D01*
X2783D01*
X2827Y71937D01*
X2866Y71933D01*
X2897D01*
X2917Y71929D01*
X2925D01*
X2988Y71925D01*
X3047Y71921D01*
X3102Y71917D01*
X3153Y71913D01*
X3192Y71909D01*
X3224D01*
X3243Y71905D01*
X3251D01*
X5821Y71642D01*
Y71233D01*
X2347Y71634D01*
Y72172D01*
X4964Y72491D01*
X5023Y72499D01*
X5082Y72506D01*
X5133Y72510D01*
X5181Y72514D01*
X5224Y72522D01*
X5251D01*
X5271Y72526D01*
X5279D01*
X5334Y72530D01*
X5385Y72538D01*
X5424Y72542D01*
X5460Y72546D01*
X5487Y72550D01*
X5507Y72554D01*
X5519D01*
X5523D01*
X5487Y72557D01*
X5448Y72561D01*
X5409D01*
X5369Y72565D01*
X5334Y72569D01*
X5306Y72573D01*
X5287D01*
X5279D01*
X5165Y72585D01*
X5114Y72593D01*
X5063Y72597D01*
X5023Y72601D01*
X4992Y72605D01*
X4972Y72609D01*
X4964D01*
X2347Y72903D01*
Y73442D01*
X5821Y73851D01*
Y73461D01*
D02*
G37*
G36*
X3326Y70765D02*
X3389Y70762D01*
X3506Y70738D01*
X3613Y70710D01*
X3660Y70691D01*
X3703Y70675D01*
X3742Y70655D01*
X3778Y70640D01*
X3809Y70620D01*
X3833Y70608D01*
X3852Y70596D01*
X3868Y70585D01*
X3876Y70581D01*
X3880Y70577D01*
X3974Y70498D01*
X4049Y70416D01*
X4116Y70329D01*
X4167Y70247D01*
X4202Y70172D01*
X4218Y70141D01*
X4230Y70113D01*
X4237Y70090D01*
X4245Y70074D01*
X4249Y70062D01*
Y70058D01*
X4422Y69524D01*
X4450Y69457D01*
X4481Y69394D01*
X4513Y69343D01*
X4548Y69300D01*
X4575Y69264D01*
X4599Y69241D01*
X4615Y69225D01*
X4623Y69221D01*
X4678Y69186D01*
X4733Y69158D01*
X4788Y69142D01*
X4839Y69127D01*
X4882Y69119D01*
X4917Y69115D01*
X4941D01*
X4945D01*
X4949D01*
X5035Y69123D01*
X5114Y69138D01*
X5181Y69166D01*
X5236Y69197D01*
X5279Y69225D01*
X5310Y69252D01*
X5330Y69268D01*
X5338Y69276D01*
X5389Y69343D01*
X5424Y69414D01*
X5452Y69488D01*
X5468Y69555D01*
X5479Y69618D01*
X5483Y69645D01*
Y69669D01*
X5487Y69685D01*
Y69712D01*
X5479Y69806D01*
X5464Y69893D01*
X5440Y69964D01*
X5413Y70027D01*
X5385Y70074D01*
X5362Y70109D01*
X5346Y70129D01*
X5338Y70137D01*
X5279Y70192D01*
X5216Y70231D01*
X5149Y70258D01*
X5086Y70278D01*
X5027Y70290D01*
X4984Y70294D01*
X4964Y70298D01*
X4953D01*
X4945D01*
X4941D01*
Y70730D01*
X5020Y70726D01*
X5090Y70718D01*
X5161Y70702D01*
X5224Y70687D01*
X5287Y70667D01*
X5342Y70644D01*
X5393Y70616D01*
X5440Y70592D01*
X5479Y70565D01*
X5515Y70538D01*
X5546Y70514D01*
X5570Y70494D01*
X5589Y70478D01*
X5605Y70463D01*
X5613Y70455D01*
X5617Y70451D01*
X5660Y70396D01*
X5700Y70341D01*
X5735Y70282D01*
X5762Y70219D01*
X5786Y70156D01*
X5806Y70097D01*
X5837Y69979D01*
X5849Y69924D01*
X5857Y69873D01*
X5861Y69830D01*
X5864Y69791D01*
X5868Y69755D01*
Y69712D01*
X5864Y69630D01*
X5857Y69547D01*
X5845Y69472D01*
X5829Y69402D01*
X5810Y69339D01*
X5790Y69276D01*
X5766Y69221D01*
X5743Y69170D01*
X5719Y69127D01*
X5695Y69087D01*
X5676Y69052D01*
X5656Y69024D01*
X5641Y69001D01*
X5629Y68985D01*
X5621Y68977D01*
X5617Y68973D01*
X5570Y68926D01*
X5515Y68883D01*
X5460Y68844D01*
X5405Y68812D01*
X5350Y68785D01*
X5291Y68761D01*
X5236Y68745D01*
X5185Y68730D01*
X5133Y68718D01*
X5090Y68710D01*
X5047Y68702D01*
X5012Y68698D01*
X4980Y68694D01*
X4961D01*
X4945D01*
X4941D01*
X4878Y68698D01*
X4819Y68702D01*
X4709Y68726D01*
X4611Y68757D01*
X4524Y68793D01*
X4485Y68812D01*
X4454Y68828D01*
X4422Y68844D01*
X4399Y68859D01*
X4379Y68871D01*
X4367Y68883D01*
X4359Y68887D01*
X4355Y68891D01*
X4269Y68973D01*
X4194Y69060D01*
X4131Y69150D01*
X4080Y69241D01*
X4041Y69315D01*
X4025Y69351D01*
X4013Y69378D01*
X4006Y69406D01*
X3998Y69421D01*
X3994Y69433D01*
Y69437D01*
X3833Y69952D01*
X3805Y70019D01*
X3774Y70074D01*
X3738Y70125D01*
X3703Y70168D01*
X3668Y70200D01*
X3644Y70223D01*
X3624Y70239D01*
X3617Y70243D01*
X3558Y70278D01*
X3495Y70306D01*
X3436Y70325D01*
X3381Y70341D01*
X3334Y70349D01*
X3294Y70353D01*
X3279D01*
X3267D01*
X3263D01*
X3259D01*
X3212D01*
X3165Y70345D01*
X3082Y70325D01*
X3011Y70298D01*
X2952Y70266D01*
X2901Y70231D01*
X2866Y70203D01*
X2846Y70184D01*
X2842Y70180D01*
X2838Y70176D01*
X2783Y70105D01*
X2744Y70027D01*
X2717Y69948D01*
X2697Y69873D01*
X2685Y69806D01*
X2681Y69779D01*
Y69752D01*
X2677Y69732D01*
Y69704D01*
X2685Y69594D01*
X2701Y69500D01*
X2728Y69414D01*
X2760Y69343D01*
X2787Y69288D01*
X2803Y69264D01*
X2815Y69248D01*
X2823Y69233D01*
X2830Y69221D01*
X2838Y69217D01*
Y69213D01*
X2870Y69182D01*
X2901Y69154D01*
X2972Y69107D01*
X3043Y69076D01*
X3110Y69052D01*
X3168Y69040D01*
X3192Y69032D01*
X3216D01*
X3235Y69028D01*
X3247D01*
X3255D01*
X3259D01*
Y68600D01*
X3180Y68604D01*
X3106Y68612D01*
X3031Y68628D01*
X2964Y68647D01*
X2905Y68671D01*
X2846Y68694D01*
X2795Y68722D01*
X2744Y68749D01*
X2705Y68777D01*
X2665Y68804D01*
X2634Y68828D01*
X2606Y68852D01*
X2587Y68871D01*
X2571Y68887D01*
X2563Y68895D01*
X2559Y68899D01*
X2512Y68958D01*
X2473Y69020D01*
X2437Y69083D01*
X2410Y69150D01*
X2382Y69217D01*
X2363Y69284D01*
X2331Y69414D01*
X2324Y69472D01*
X2316Y69528D01*
X2308Y69579D01*
X2304Y69622D01*
X2300Y69657D01*
Y69704D01*
X2304Y69795D01*
X2312Y69877D01*
X2324Y69956D01*
X2339Y70030D01*
X2359Y70101D01*
X2382Y70164D01*
X2406Y70223D01*
X2430Y70274D01*
X2453Y70321D01*
X2477Y70361D01*
X2500Y70396D01*
X2520Y70427D01*
X2536Y70447D01*
X2548Y70467D01*
X2555Y70475D01*
X2559Y70478D01*
X2610Y70530D01*
X2665Y70573D01*
X2720Y70612D01*
X2780Y70648D01*
X2838Y70675D01*
X2897Y70699D01*
X2952Y70718D01*
X3007Y70734D01*
X3059Y70746D01*
X3106Y70754D01*
X3149Y70762D01*
X3188Y70765D01*
X3216Y70769D01*
X3239D01*
X3255D01*
X3259D01*
X3326Y70765D01*
D02*
G37*
G36*
X38931Y78547D02*
X38519D01*
Y80496D01*
Y80630D01*
X38522Y80693D01*
Y80748D01*
Y80795D01*
X38526Y80834D01*
Y80858D01*
Y80862D01*
Y80866D01*
X38530Y80937D01*
Y81003D01*
X38534Y81066D01*
X38538Y81121D01*
Y81169D01*
X38542Y81200D01*
Y81223D01*
Y81231D01*
X38546Y81294D01*
X38550Y81353D01*
Y81400D01*
X38554Y81444D01*
X38558Y81475D01*
Y81502D01*
X38562Y81518D01*
Y81522D01*
X37505Y78547D01*
X36931D01*
Y82021D01*
X37347D01*
Y80068D01*
Y79942D01*
X37343Y79879D01*
Y79824D01*
Y79777D01*
X37339Y79738D01*
Y79714D01*
Y79710D01*
Y79707D01*
X37336Y79636D01*
X37332Y79569D01*
Y79506D01*
X37328Y79451D01*
X37324Y79404D01*
X37320Y79369D01*
Y79345D01*
Y79341D01*
Y79337D01*
X37316Y79274D01*
X37312Y79219D01*
X37308Y79168D01*
X37304Y79129D01*
Y79093D01*
X37300Y79066D01*
Y79050D01*
Y79046D01*
X38361Y82021D01*
X38931D01*
Y78547D01*
D02*
G37*
G36*
X40857Y82064D02*
X40939Y82057D01*
X41018Y82045D01*
X41089Y82025D01*
X41155Y82006D01*
X41218Y81986D01*
X41273Y81958D01*
X41324Y81935D01*
X41372Y81911D01*
X41411Y81888D01*
X41446Y81864D01*
X41474Y81844D01*
X41497Y81825D01*
X41513Y81813D01*
X41521Y81805D01*
X41525Y81801D01*
X41572Y81750D01*
X41615Y81695D01*
X41651Y81636D01*
X41682Y81577D01*
X41710Y81514D01*
X41733Y81455D01*
X41753Y81396D01*
X41765Y81337D01*
X41776Y81282D01*
X41784Y81231D01*
X41792Y81188D01*
X41796Y81149D01*
X41800Y81113D01*
Y81090D01*
Y81074D01*
Y81070D01*
Y79498D01*
X41796Y79412D01*
X41788Y79333D01*
X41776Y79259D01*
X41757Y79188D01*
X41737Y79121D01*
X41714Y79062D01*
X41686Y79007D01*
X41662Y78956D01*
X41635Y78913D01*
X41611Y78873D01*
X41588Y78838D01*
X41568Y78814D01*
X41548Y78791D01*
X41537Y78775D01*
X41529Y78767D01*
X41525Y78763D01*
X41470Y78716D01*
X41411Y78677D01*
X41352Y78641D01*
X41289Y78610D01*
X41226Y78587D01*
X41163Y78563D01*
X41041Y78531D01*
X40986Y78524D01*
X40935Y78516D01*
X40888Y78508D01*
X40849Y78504D01*
X40817Y78500D01*
X40770D01*
X40684Y78504D01*
X40605Y78512D01*
X40527Y78524D01*
X40456Y78543D01*
X40389Y78563D01*
X40330Y78587D01*
X40275Y78610D01*
X40224Y78634D01*
X40177Y78657D01*
X40138Y78685D01*
X40106Y78704D01*
X40079Y78724D01*
X40055Y78744D01*
X40039Y78755D01*
X40031Y78763D01*
X40028Y78767D01*
X39980Y78818D01*
X39937Y78877D01*
X39902Y78932D01*
X39866Y78995D01*
X39843Y79054D01*
X39819Y79117D01*
X39800Y79176D01*
X39788Y79235D01*
X39776Y79286D01*
X39768Y79337D01*
X39760Y79384D01*
X39756Y79424D01*
X39753Y79455D01*
Y79479D01*
Y79494D01*
Y79498D01*
Y80316D01*
X40884D01*
Y79927D01*
X40181D01*
Y79498D01*
X40189Y79392D01*
X40204Y79302D01*
X40232Y79223D01*
X40259Y79156D01*
X40287Y79105D01*
X40314Y79070D01*
X40330Y79046D01*
X40338Y79038D01*
X40401Y78983D01*
X40472Y78944D01*
X40542Y78917D01*
X40613Y78897D01*
X40672Y78885D01*
X40700Y78881D01*
X40723D01*
X40743Y78877D01*
X40770D01*
X40869Y78885D01*
X40959Y78901D01*
X41034Y78928D01*
X41096Y78960D01*
X41148Y78987D01*
X41183Y79015D01*
X41207Y79031D01*
X41214Y79038D01*
X41265Y79105D01*
X41305Y79180D01*
X41332Y79259D01*
X41352Y79329D01*
X41364Y79396D01*
X41368Y79424D01*
Y79451D01*
X41372Y79471D01*
Y79486D01*
Y79494D01*
Y79498D01*
Y81074D01*
X41364Y81180D01*
X41348Y81271D01*
X41320Y81345D01*
X41293Y81412D01*
X41265Y81459D01*
X41238Y81499D01*
X41222Y81518D01*
X41214Y81526D01*
X41148Y81577D01*
X41077Y81616D01*
X41002Y81644D01*
X40931Y81664D01*
X40869Y81675D01*
X40841Y81679D01*
X40817D01*
X40798Y81683D01*
X40770D01*
X40672Y81675D01*
X40586Y81660D01*
X40511Y81632D01*
X40448Y81605D01*
X40401Y81573D01*
X40366Y81546D01*
X40346Y81530D01*
X40338Y81522D01*
X40287Y81459D01*
X40248Y81385D01*
X40220Y81310D01*
X40200Y81239D01*
X40189Y81172D01*
X40185Y81145D01*
Y81117D01*
X40181Y81098D01*
Y81082D01*
Y81074D01*
Y81070D01*
X39753D01*
X39756Y81153D01*
X39764Y81235D01*
X39776Y81310D01*
X39796Y81377D01*
X39815Y81444D01*
X39839Y81502D01*
X39862Y81558D01*
X39890Y81605D01*
X39914Y81652D01*
X39941Y81687D01*
X39965Y81723D01*
X39984Y81750D01*
X40004Y81770D01*
X40016Y81786D01*
X40024Y81793D01*
X40028Y81797D01*
X40083Y81844D01*
X40138Y81888D01*
X40197Y81923D01*
X40259Y81954D01*
X40322Y81982D01*
X40385Y82002D01*
X40444Y82021D01*
X40503Y82033D01*
X40558Y82045D01*
X40609Y82053D01*
X40652Y82061D01*
X40692Y82064D01*
X40727Y82068D01*
X40770D01*
X40857Y82064D01*
D02*
G37*
G36*
X36066Y78547D02*
X35166D01*
X35044Y78551D01*
X34934Y78567D01*
X34832Y78587D01*
X34789Y78598D01*
X34750Y78610D01*
X34710Y78622D01*
X34679Y78634D01*
X34651Y78645D01*
X34628Y78653D01*
X34608Y78661D01*
X34596Y78669D01*
X34589Y78673D01*
X34585D01*
X34498Y78728D01*
X34420Y78783D01*
X34357Y78846D01*
X34302Y78905D01*
X34258Y78956D01*
X34227Y78999D01*
X34219Y79015D01*
X34211Y79027D01*
X34203Y79035D01*
Y79038D01*
X34156Y79129D01*
X34125Y79223D01*
X34101Y79317D01*
X34082Y79404D01*
X34078Y79443D01*
X34074Y79479D01*
X34070Y79510D01*
Y79537D01*
X34066Y79561D01*
Y79577D01*
Y79589D01*
Y79593D01*
Y80980D01*
X34070Y81094D01*
X34085Y81200D01*
X34109Y81294D01*
X34133Y81373D01*
X34148Y81408D01*
X34160Y81440D01*
X34172Y81467D01*
X34180Y81491D01*
X34192Y81506D01*
X34195Y81518D01*
X34203Y81526D01*
Y81530D01*
X34258Y81613D01*
X34317Y81687D01*
X34384Y81750D01*
X34443Y81801D01*
X34498Y81840D01*
X34545Y81868D01*
X34561Y81880D01*
X34573Y81888D01*
X34581Y81892D01*
X34585D01*
X34679Y81935D01*
X34777Y81966D01*
X34875Y81990D01*
X34966Y82006D01*
X35009Y82010D01*
X35044Y82013D01*
X35080Y82017D01*
X35111Y82021D01*
X36066D01*
Y78547D01*
D02*
G37*
G36*
X26331Y84847D02*
X25918D01*
Y86796D01*
Y86930D01*
X25922Y86993D01*
Y87048D01*
Y87095D01*
X25926Y87134D01*
Y87158D01*
Y87162D01*
Y87166D01*
X25930Y87237D01*
Y87303D01*
X25934Y87366D01*
X25938Y87421D01*
Y87468D01*
X25942Y87500D01*
Y87524D01*
Y87531D01*
X25946Y87594D01*
X25950Y87653D01*
Y87700D01*
X25954Y87744D01*
X25958Y87775D01*
Y87802D01*
X25962Y87818D01*
Y87822D01*
X24904Y84847D01*
X24331D01*
Y88321D01*
X24747D01*
Y86368D01*
Y86242D01*
X24743Y86179D01*
Y86124D01*
Y86077D01*
X24739Y86038D01*
Y86014D01*
Y86010D01*
Y86006D01*
X24735Y85936D01*
X24732Y85869D01*
Y85806D01*
X24728Y85751D01*
X24724Y85704D01*
X24720Y85668D01*
Y85645D01*
Y85641D01*
Y85637D01*
X24716Y85574D01*
X24712Y85519D01*
X24708Y85468D01*
X24704Y85429D01*
Y85393D01*
X24700Y85366D01*
Y85350D01*
Y85346D01*
X25761Y88321D01*
X26331D01*
Y84847D01*
D02*
G37*
G36*
X28257Y88364D02*
X28339Y88357D01*
X28418Y88345D01*
X28489Y88325D01*
X28556Y88306D01*
X28618Y88286D01*
X28673Y88258D01*
X28725Y88235D01*
X28772Y88211D01*
X28811Y88188D01*
X28846Y88164D01*
X28874Y88144D01*
X28897Y88125D01*
X28913Y88113D01*
X28921Y88105D01*
X28925Y88101D01*
X28972Y88050D01*
X29015Y87995D01*
X29051Y87936D01*
X29082Y87877D01*
X29110Y87814D01*
X29133Y87755D01*
X29153Y87696D01*
X29165Y87638D01*
X29176Y87582D01*
X29184Y87531D01*
X29192Y87488D01*
X29196Y87449D01*
X29200Y87414D01*
Y87390D01*
Y87374D01*
Y87370D01*
Y85798D01*
X29196Y85712D01*
X29188Y85633D01*
X29176Y85558D01*
X29157Y85488D01*
X29137Y85421D01*
X29114Y85362D01*
X29086Y85307D01*
X29063Y85256D01*
X29035Y85213D01*
X29011Y85173D01*
X28988Y85138D01*
X28968Y85114D01*
X28949Y85091D01*
X28937Y85075D01*
X28929Y85067D01*
X28925Y85063D01*
X28870Y85016D01*
X28811Y84977D01*
X28752Y84942D01*
X28689Y84910D01*
X28626Y84886D01*
X28563Y84863D01*
X28442Y84831D01*
X28387Y84824D01*
X28335Y84816D01*
X28288Y84808D01*
X28249Y84804D01*
X28218Y84800D01*
X28170D01*
X28084Y84804D01*
X28005Y84812D01*
X27927Y84824D01*
X27856Y84843D01*
X27789Y84863D01*
X27730Y84886D01*
X27675Y84910D01*
X27624Y84934D01*
X27577Y84957D01*
X27538Y84985D01*
X27506Y85004D01*
X27479Y85024D01*
X27455Y85044D01*
X27439Y85055D01*
X27431Y85063D01*
X27428Y85067D01*
X27380Y85118D01*
X27337Y85177D01*
X27302Y85232D01*
X27266Y85295D01*
X27243Y85354D01*
X27219Y85417D01*
X27200Y85476D01*
X27188Y85535D01*
X27176Y85586D01*
X27168Y85637D01*
X27160Y85684D01*
X27156Y85724D01*
X27152Y85755D01*
Y85779D01*
Y85794D01*
Y85798D01*
Y86616D01*
X28284D01*
Y86227D01*
X27581D01*
Y85798D01*
X27589Y85692D01*
X27604Y85602D01*
X27632Y85523D01*
X27659Y85456D01*
X27687Y85405D01*
X27714Y85370D01*
X27730Y85346D01*
X27738Y85338D01*
X27801Y85283D01*
X27872Y85244D01*
X27942Y85217D01*
X28013Y85197D01*
X28072Y85185D01*
X28100Y85181D01*
X28123D01*
X28143Y85177D01*
X28170D01*
X28269Y85185D01*
X28359Y85201D01*
X28434Y85228D01*
X28497Y85260D01*
X28548Y85287D01*
X28583Y85315D01*
X28607Y85331D01*
X28614Y85338D01*
X28666Y85405D01*
X28705Y85480D01*
X28732Y85558D01*
X28752Y85629D01*
X28764Y85696D01*
X28768Y85724D01*
Y85751D01*
X28772Y85771D01*
Y85786D01*
Y85794D01*
Y85798D01*
Y87374D01*
X28764Y87480D01*
X28748Y87571D01*
X28721Y87645D01*
X28693Y87712D01*
X28666Y87759D01*
X28638Y87799D01*
X28622Y87818D01*
X28614Y87826D01*
X28548Y87877D01*
X28477Y87916D01*
X28402Y87944D01*
X28332Y87964D01*
X28269Y87975D01*
X28241Y87979D01*
X28218D01*
X28198Y87983D01*
X28170D01*
X28072Y87975D01*
X27986Y87960D01*
X27911Y87932D01*
X27848Y87905D01*
X27801Y87873D01*
X27766Y87846D01*
X27746Y87830D01*
X27738Y87822D01*
X27687Y87759D01*
X27648Y87685D01*
X27620Y87610D01*
X27600Y87539D01*
X27589Y87472D01*
X27585Y87445D01*
Y87417D01*
X27581Y87398D01*
Y87382D01*
Y87374D01*
Y87370D01*
X27152D01*
X27156Y87453D01*
X27164Y87535D01*
X27176Y87610D01*
X27196Y87677D01*
X27215Y87744D01*
X27239Y87802D01*
X27262Y87858D01*
X27290Y87905D01*
X27314Y87952D01*
X27341Y87987D01*
X27365Y88023D01*
X27384Y88050D01*
X27404Y88070D01*
X27416Y88086D01*
X27424Y88093D01*
X27428Y88097D01*
X27483Y88144D01*
X27538Y88188D01*
X27597Y88223D01*
X27659Y88254D01*
X27722Y88282D01*
X27785Y88302D01*
X27844Y88321D01*
X27903Y88333D01*
X27958Y88345D01*
X28009Y88353D01*
X28052Y88361D01*
X28092Y88364D01*
X28127Y88368D01*
X28170D01*
X28257Y88364D01*
D02*
G37*
G36*
X23466Y84847D02*
X22566D01*
X22444Y84851D01*
X22334Y84867D01*
X22232Y84886D01*
X22189Y84898D01*
X22150Y84910D01*
X22110Y84922D01*
X22079Y84934D01*
X22051Y84945D01*
X22028Y84953D01*
X22008Y84961D01*
X21996Y84969D01*
X21989Y84973D01*
X21984D01*
X21898Y85028D01*
X21820Y85083D01*
X21757Y85146D01*
X21702Y85205D01*
X21658Y85256D01*
X21627Y85299D01*
X21619Y85315D01*
X21611Y85327D01*
X21603Y85334D01*
Y85338D01*
X21556Y85429D01*
X21525Y85523D01*
X21501Y85617D01*
X21482Y85704D01*
X21477Y85743D01*
X21474Y85779D01*
X21470Y85810D01*
Y85838D01*
X21466Y85861D01*
Y85877D01*
Y85889D01*
Y85892D01*
Y87280D01*
X21470Y87394D01*
X21485Y87500D01*
X21509Y87594D01*
X21533Y87673D01*
X21548Y87708D01*
X21560Y87740D01*
X21572Y87767D01*
X21580Y87791D01*
X21591Y87806D01*
X21595Y87818D01*
X21603Y87826D01*
Y87830D01*
X21658Y87913D01*
X21717Y87987D01*
X21784Y88050D01*
X21843Y88101D01*
X21898Y88140D01*
X21945Y88168D01*
X21961Y88180D01*
X21973Y88188D01*
X21981Y88192D01*
X21984D01*
X22079Y88235D01*
X22177Y88266D01*
X22275Y88290D01*
X22366Y88306D01*
X22409Y88310D01*
X22444Y88313D01*
X22480Y88317D01*
X22511Y88321D01*
X23466D01*
Y84847D01*
D02*
G37*
G36*
X14000Y48600D02*
X12000D01*
Y48989D01*
X13576D01*
Y50227D01*
X12169D01*
Y50608D01*
X13576D01*
Y51685D01*
X12000D01*
Y52074D01*
X14000D01*
Y48600D01*
D02*
G37*
G36*
X28131Y128247D02*
X27718D01*
Y130196D01*
Y130330D01*
X27722Y130393D01*
Y130448D01*
Y130495D01*
X27726Y130534D01*
Y130558D01*
Y130562D01*
Y130566D01*
X27730Y130637D01*
Y130703D01*
X27734Y130766D01*
X27738Y130821D01*
Y130868D01*
X27742Y130900D01*
Y130923D01*
Y130931D01*
X27746Y130994D01*
X27750Y131053D01*
Y131100D01*
X27754Y131144D01*
X27758Y131175D01*
Y131202D01*
X27762Y131218D01*
Y131222D01*
X26704Y128247D01*
X26131D01*
Y131721D01*
X26547D01*
Y129768D01*
Y129642D01*
X26543Y129579D01*
Y129524D01*
Y129477D01*
X26539Y129438D01*
Y129414D01*
Y129410D01*
Y129406D01*
X26535Y129336D01*
X26532Y129269D01*
Y129206D01*
X26528Y129151D01*
X26524Y129104D01*
X26520Y129069D01*
Y129045D01*
Y129041D01*
Y129037D01*
X26516Y128974D01*
X26512Y128919D01*
X26508Y128868D01*
X26504Y128829D01*
Y128793D01*
X26500Y128766D01*
Y128750D01*
Y128746D01*
X27561Y131721D01*
X28131D01*
Y128247D01*
D02*
G37*
G36*
X30057Y131764D02*
X30139Y131757D01*
X30218Y131745D01*
X30289Y131725D01*
X30356Y131706D01*
X30418Y131686D01*
X30473Y131658D01*
X30525Y131635D01*
X30572Y131611D01*
X30611Y131588D01*
X30646Y131564D01*
X30674Y131544D01*
X30697Y131525D01*
X30713Y131513D01*
X30721Y131505D01*
X30725Y131501D01*
X30772Y131450D01*
X30815Y131395D01*
X30851Y131336D01*
X30882Y131277D01*
X30910Y131214D01*
X30933Y131155D01*
X30953Y131096D01*
X30965Y131037D01*
X30976Y130982D01*
X30984Y130931D01*
X30992Y130888D01*
X30996Y130849D01*
X31000Y130813D01*
Y130790D01*
Y130774D01*
Y130770D01*
Y129198D01*
X30996Y129112D01*
X30988Y129033D01*
X30976Y128958D01*
X30957Y128888D01*
X30937Y128821D01*
X30913Y128762D01*
X30886Y128707D01*
X30863Y128656D01*
X30835Y128613D01*
X30811Y128573D01*
X30788Y128538D01*
X30768Y128514D01*
X30749Y128491D01*
X30737Y128475D01*
X30729Y128467D01*
X30725Y128463D01*
X30670Y128416D01*
X30611Y128377D01*
X30552Y128341D01*
X30489Y128310D01*
X30426Y128287D01*
X30363Y128263D01*
X30242Y128231D01*
X30187Y128224D01*
X30135Y128216D01*
X30088Y128208D01*
X30049Y128204D01*
X30018Y128200D01*
X29970D01*
X29884Y128204D01*
X29805Y128212D01*
X29727Y128224D01*
X29656Y128243D01*
X29589Y128263D01*
X29530Y128287D01*
X29475Y128310D01*
X29424Y128334D01*
X29377Y128357D01*
X29338Y128385D01*
X29306Y128404D01*
X29279Y128424D01*
X29255Y128444D01*
X29239Y128455D01*
X29232Y128463D01*
X29228Y128467D01*
X29180Y128518D01*
X29137Y128577D01*
X29102Y128632D01*
X29066Y128695D01*
X29043Y128754D01*
X29019Y128817D01*
X29000Y128876D01*
X28988Y128935D01*
X28976Y128986D01*
X28968Y129037D01*
X28960Y129084D01*
X28956Y129124D01*
X28953Y129155D01*
Y129179D01*
Y129194D01*
Y129198D01*
Y130016D01*
X30084D01*
Y129627D01*
X29381D01*
Y129198D01*
X29389Y129092D01*
X29404Y129002D01*
X29432Y128923D01*
X29459Y128856D01*
X29487Y128805D01*
X29515Y128770D01*
X29530Y128746D01*
X29538Y128738D01*
X29601Y128683D01*
X29672Y128644D01*
X29742Y128617D01*
X29813Y128597D01*
X29872Y128585D01*
X29900Y128581D01*
X29923D01*
X29943Y128577D01*
X29970D01*
X30069Y128585D01*
X30159Y128601D01*
X30234Y128628D01*
X30296Y128660D01*
X30348Y128687D01*
X30383Y128715D01*
X30407Y128730D01*
X30414Y128738D01*
X30465Y128805D01*
X30505Y128880D01*
X30532Y128958D01*
X30552Y129029D01*
X30564Y129096D01*
X30568Y129124D01*
Y129151D01*
X30572Y129171D01*
Y129186D01*
Y129194D01*
Y129198D01*
Y130774D01*
X30564Y130880D01*
X30548Y130971D01*
X30520Y131045D01*
X30493Y131112D01*
X30465Y131159D01*
X30438Y131199D01*
X30422Y131218D01*
X30414Y131226D01*
X30348Y131277D01*
X30277Y131316D01*
X30202Y131344D01*
X30132Y131364D01*
X30069Y131375D01*
X30041Y131379D01*
X30018D01*
X29998Y131383D01*
X29970D01*
X29872Y131375D01*
X29786Y131360D01*
X29711Y131332D01*
X29648Y131305D01*
X29601Y131273D01*
X29566Y131246D01*
X29546Y131230D01*
X29538Y131222D01*
X29487Y131159D01*
X29448Y131085D01*
X29420Y131010D01*
X29401Y130939D01*
X29389Y130872D01*
X29385Y130845D01*
Y130817D01*
X29381Y130798D01*
Y130782D01*
Y130774D01*
Y130770D01*
X28953D01*
X28956Y130853D01*
X28964Y130935D01*
X28976Y131010D01*
X28996Y131077D01*
X29015Y131144D01*
X29039Y131202D01*
X29063Y131257D01*
X29090Y131305D01*
X29114Y131352D01*
X29141Y131387D01*
X29165Y131423D01*
X29184Y131450D01*
X29204Y131470D01*
X29216Y131485D01*
X29224Y131493D01*
X29228Y131497D01*
X29283Y131544D01*
X29338Y131588D01*
X29397Y131623D01*
X29459Y131655D01*
X29522Y131682D01*
X29585Y131702D01*
X29644Y131721D01*
X29703Y131733D01*
X29758Y131745D01*
X29809Y131753D01*
X29852Y131761D01*
X29892Y131764D01*
X29927Y131768D01*
X29970D01*
X30057Y131764D01*
D02*
G37*
G36*
X25266Y128247D02*
X24366D01*
X24244Y128251D01*
X24134Y128267D01*
X24032Y128287D01*
X23989Y128298D01*
X23950Y128310D01*
X23910Y128322D01*
X23879Y128334D01*
X23851Y128345D01*
X23828Y128353D01*
X23808Y128361D01*
X23796Y128369D01*
X23788Y128373D01*
X23785D01*
X23698Y128428D01*
X23619Y128483D01*
X23557Y128546D01*
X23502Y128605D01*
X23458Y128656D01*
X23427Y128699D01*
X23419Y128715D01*
X23411Y128727D01*
X23403Y128735D01*
Y128738D01*
X23356Y128829D01*
X23325Y128923D01*
X23301Y129017D01*
X23281Y129104D01*
X23278Y129143D01*
X23274Y129179D01*
X23270Y129210D01*
Y129237D01*
X23266Y129261D01*
Y129277D01*
Y129289D01*
Y129293D01*
Y130680D01*
X23270Y130794D01*
X23285Y130900D01*
X23309Y130994D01*
X23333Y131073D01*
X23348Y131108D01*
X23360Y131140D01*
X23372Y131167D01*
X23380Y131191D01*
X23392Y131206D01*
X23395Y131218D01*
X23403Y131226D01*
Y131230D01*
X23458Y131313D01*
X23517Y131387D01*
X23584Y131450D01*
X23643Y131501D01*
X23698Y131541D01*
X23745Y131568D01*
X23761Y131580D01*
X23773Y131588D01*
X23781Y131592D01*
X23785D01*
X23879Y131635D01*
X23977Y131666D01*
X24075Y131690D01*
X24166Y131706D01*
X24209Y131710D01*
X24244Y131713D01*
X24280Y131717D01*
X24311Y131721D01*
X25266D01*
Y128247D01*
D02*
G37*
G36*
X29037Y106817D02*
X29119Y106809D01*
X29194Y106798D01*
X29269Y106778D01*
X29335Y106758D01*
X29398Y106735D01*
X29453Y106711D01*
X29504Y106684D01*
X29552Y106660D01*
X29595Y106633D01*
X29626Y106609D01*
X29658Y106589D01*
X29677Y106570D01*
X29697Y106558D01*
X29705Y106550D01*
X29709Y106546D01*
X29760Y106491D01*
X29803Y106436D01*
X29842Y106377D01*
X29878Y106314D01*
X29905Y106251D01*
X29929Y106189D01*
X29949Y106130D01*
X29964Y106071D01*
X29980Y106016D01*
X29988Y105965D01*
X29996Y105917D01*
X30000Y105878D01*
X30004Y105847D01*
X30007Y105819D01*
Y105803D01*
Y105799D01*
X29579D01*
X29575Y105854D01*
X29571Y105906D01*
X29552Y105996D01*
X29524Y106079D01*
X29493Y106145D01*
X29465Y106196D01*
X29438Y106236D01*
X29418Y106259D01*
X29410Y106267D01*
X29379Y106299D01*
X29343Y106326D01*
X29269Y106365D01*
X29190Y106397D01*
X29115Y106420D01*
X29052Y106432D01*
X29021Y106436D01*
X28997D01*
X28978Y106440D01*
X28899D01*
X28848Y106432D01*
X28758Y106413D01*
X28683Y106385D01*
X28616Y106358D01*
X28565Y106326D01*
X28530Y106299D01*
X28506Y106279D01*
X28498Y106275D01*
Y106271D01*
X28443Y106204D01*
X28404Y106130D01*
X28373Y106055D01*
X28353Y105980D01*
X28341Y105917D01*
X28337Y105890D01*
Y105866D01*
X28333Y105847D01*
Y105831D01*
Y105823D01*
Y105819D01*
X28337Y105745D01*
X28349Y105670D01*
X28369Y105599D01*
X28388Y105536D01*
X28412Y105485D01*
X28428Y105442D01*
X28436Y105426D01*
X28443Y105414D01*
X28447Y105410D01*
Y105406D01*
X28495Y105328D01*
X28550Y105245D01*
X28608Y105163D01*
X28667Y105092D01*
X28722Y105025D01*
X28746Y104998D01*
X28766Y104974D01*
X28781Y104958D01*
X28793Y104943D01*
X28801Y104935D01*
X28805Y104931D01*
X29913Y103720D01*
Y103300D01*
X27846D01*
Y103689D01*
X29422D01*
X28518Y104672D01*
X28459Y104734D01*
X28404Y104797D01*
X28353Y104860D01*
X28306Y104915D01*
X28267Y104970D01*
X28227Y105021D01*
X28192Y105069D01*
X28160Y105112D01*
X28137Y105155D01*
X28113Y105190D01*
X28094Y105218D01*
X28078Y105245D01*
X28066Y105265D01*
X28058Y105281D01*
X28050Y105289D01*
Y105292D01*
X28003Y105395D01*
X27968Y105489D01*
X27940Y105576D01*
X27925Y105654D01*
X27913Y105717D01*
X27909Y105745D01*
Y105768D01*
X27905Y105788D01*
Y105799D01*
Y105807D01*
Y105811D01*
X27909Y105898D01*
X27917Y105976D01*
X27933Y106055D01*
X27948Y106126D01*
X27972Y106189D01*
X27995Y106251D01*
X28019Y106306D01*
X28046Y106358D01*
X28074Y106401D01*
X28098Y106440D01*
X28121Y106472D01*
X28145Y106499D01*
X28160Y106523D01*
X28176Y106538D01*
X28184Y106546D01*
X28188Y106550D01*
X28243Y106597D01*
X28302Y106641D01*
X28365Y106676D01*
X28428Y106707D01*
X28490Y106735D01*
X28553Y106755D01*
X28616Y106774D01*
X28675Y106786D01*
X28730Y106798D01*
X28785Y106806D01*
X28828Y106813D01*
X28872Y106817D01*
X28903Y106821D01*
X28950D01*
X29037Y106817D01*
D02*
G37*
G36*
X27162Y104730D02*
Y104059D01*
X25590D01*
Y103300D01*
X25162D01*
Y105300D01*
X25590D01*
Y104452D01*
X26734D01*
Y104648D01*
X25421Y106774D01*
X25893D01*
X27162Y104730D01*
D02*
G37*
G36*
X31988Y105061D02*
X32900D01*
Y104679D01*
X31988D01*
Y103752D01*
X31572D01*
Y104679D01*
X30660D01*
Y105061D01*
X31572D01*
Y105988D01*
X31988D01*
Y105061D01*
D02*
G37*
G36*
X23503Y103300D02*
X22918D01*
X22018Y106774D01*
X22462D01*
X23032Y104412D01*
X23055Y104322D01*
X23075Y104235D01*
X23095Y104157D01*
X23110Y104090D01*
X23122Y104031D01*
X23130Y104007D01*
X23134Y103988D01*
X23138Y103972D01*
Y103960D01*
X23142Y103956D01*
Y103952D01*
X23157Y103878D01*
X23169Y103811D01*
X23181Y103756D01*
X23189Y103713D01*
X23197Y103677D01*
X23201Y103650D01*
X23205Y103634D01*
Y103630D01*
X23212Y103677D01*
X23220Y103728D01*
X23232Y103779D01*
X23240Y103831D01*
X23252Y103878D01*
X23256Y103913D01*
X23260Y103929D01*
X23264Y103941D01*
Y103945D01*
Y103948D01*
X23295Y104110D01*
X23315Y104188D01*
X23330Y104259D01*
X23342Y104318D01*
X23350Y104345D01*
X23354Y104365D01*
X23358Y104385D01*
X23362Y104396D01*
X23366Y104404D01*
Y104408D01*
X23959Y106774D01*
X24399D01*
X23503Y103300D01*
D02*
G37*
%LPC*%
G36*
X181134Y81619D02*
X181119D01*
X181111D01*
X181107D01*
X181014Y81611D01*
X180928Y81596D01*
X180856Y81570D01*
X180792Y81544D01*
X180744Y81514D01*
X180710Y81488D01*
X180687Y81472D01*
X180684Y81465D01*
X180680D01*
X180650Y81435D01*
X180628Y81405D01*
X180586Y81337D01*
X180560Y81270D01*
X180537Y81202D01*
X180526Y81146D01*
X180523Y81120D01*
Y81098D01*
X180519Y81082D01*
Y80437D01*
X181693D01*
Y81101D01*
X181685Y81146D01*
X181666Y81229D01*
X181640Y81296D01*
X181614Y81356D01*
X181584Y81401D01*
X181558Y81439D01*
X181539Y81457D01*
X181535Y81465D01*
X181531D01*
X181467Y81517D01*
X181400Y81555D01*
X181329Y81581D01*
X181261Y81600D01*
X181201Y81611D01*
X181175Y81615D01*
X181152D01*
X181134Y81619D01*
D02*
G37*
G36*
X192779Y92524D02*
X192764D01*
X192756D01*
X192753D01*
X191253D01*
X191155Y92516D01*
X191065Y92501D01*
X190990Y92479D01*
X190930Y92452D01*
X190881Y92426D01*
X190848Y92404D01*
X190825Y92389D01*
X190817Y92381D01*
X190769Y92321D01*
X190731Y92257D01*
X190705Y92190D01*
X190686Y92123D01*
X190675Y92062D01*
X190671Y92036D01*
Y92014D01*
X190667Y91995D01*
Y91969D01*
X190675Y91875D01*
X190690Y91792D01*
X190716Y91725D01*
X190743Y91665D01*
X190769Y91620D01*
X190795Y91586D01*
X190810Y91567D01*
X190817Y91560D01*
X190881Y91511D01*
X190949Y91474D01*
X191024Y91451D01*
X191091Y91432D01*
X191155Y91421D01*
X191181Y91417D01*
X191208D01*
X191226Y91414D01*
X191241D01*
X191249D01*
X191253D01*
X192753D01*
X192854Y91421D01*
X192940Y91436D01*
X193011Y91459D01*
X193075Y91489D01*
X193120Y91515D01*
X193157Y91537D01*
X193176Y91552D01*
X193184Y91560D01*
X193236Y91620D01*
X193274Y91688D01*
X193300Y91755D01*
X193319Y91819D01*
X193330Y91879D01*
X193334Y91905D01*
Y91924D01*
X193338Y91942D01*
Y91969D01*
X193330Y92062D01*
X193315Y92149D01*
X193289Y92216D01*
X193263Y92276D01*
X193233Y92321D01*
X193206Y92355D01*
X193191Y92374D01*
X193184Y92381D01*
X193124Y92430D01*
X193052Y92464D01*
X192981Y92490D01*
X192914Y92505D01*
X192850Y92516D01*
X192824Y92520D01*
X192798D01*
X192779Y92524D01*
D02*
G37*
G36*
X192696Y87071D02*
X192681D01*
X192670D01*
X192666D01*
X191342D01*
X191286D01*
X191237Y87064D01*
X191144Y87045D01*
X191061Y87015D01*
X190998Y86985D01*
X190941Y86955D01*
X190904Y86925D01*
X190893Y86914D01*
X190881Y86906D01*
X190877Y86902D01*
X190874Y86899D01*
X190844Y86865D01*
X190817Y86831D01*
X190776Y86756D01*
X190746Y86677D01*
X190727Y86602D01*
X190712Y86535D01*
X190709Y86505D01*
Y86479D01*
X190705Y86460D01*
Y85980D01*
X193296D01*
Y86486D01*
X193289Y86535D01*
X193270Y86629D01*
X193244Y86711D01*
X193214Y86779D01*
X193180Y86831D01*
X193154Y86869D01*
X193142Y86880D01*
X193135Y86891D01*
X193131Y86899D01*
X193128D01*
X193094Y86929D01*
X193060Y86955D01*
X192985Y87000D01*
X192910Y87030D01*
X192835Y87049D01*
X192768Y87064D01*
X192741Y87067D01*
X192715D01*
X192696Y87071D01*
D02*
G37*
G36*
X40572Y53389D02*
X39829D01*
X39782Y53381D01*
X39691Y53361D01*
X39617Y53334D01*
X39550Y53303D01*
X39499Y53271D01*
X39463Y53244D01*
X39440Y53224D01*
X39432Y53220D01*
Y53216D01*
X39401Y53185D01*
X39377Y53149D01*
X39334Y53071D01*
X39302Y52996D01*
X39283Y52921D01*
X39271Y52855D01*
X39267Y52827D01*
Y52799D01*
X39263Y52780D01*
Y52764D01*
Y52756D01*
Y52752D01*
Y52701D01*
X39271Y52650D01*
X39290Y52556D01*
X39318Y52477D01*
X39345Y52410D01*
X39377Y52355D01*
X39404Y52316D01*
X39416Y52304D01*
X39424Y52293D01*
X39428Y52289D01*
X39432Y52285D01*
X39463Y52253D01*
X39499Y52230D01*
X39573Y52186D01*
X39648Y52155D01*
X39719Y52135D01*
X39782Y52120D01*
X39809Y52116D01*
X39833D01*
X39852Y52112D01*
X40572D01*
Y53389D01*
D02*
G37*
G36*
X35638Y81640D02*
X35107D01*
X35056Y81632D01*
X34958Y81613D01*
X34871Y81585D01*
X34801Y81554D01*
X34746Y81518D01*
X34706Y81491D01*
X34695Y81479D01*
X34683Y81471D01*
X34675Y81467D01*
Y81463D01*
X34644Y81428D01*
X34616Y81393D01*
X34569Y81314D01*
X34537Y81235D01*
X34518Y81157D01*
X34502Y81086D01*
X34498Y81058D01*
Y81031D01*
X34494Y81011D01*
Y80996D01*
Y80984D01*
Y80980D01*
Y79593D01*
Y79534D01*
X34502Y79483D01*
X34522Y79384D01*
X34553Y79298D01*
X34585Y79231D01*
X34616Y79172D01*
X34647Y79133D01*
X34659Y79121D01*
X34667Y79109D01*
X34671Y79105D01*
X34675Y79101D01*
X34710Y79070D01*
X34746Y79042D01*
X34824Y78999D01*
X34907Y78968D01*
X34985Y78948D01*
X35056Y78932D01*
X35088Y78928D01*
X35115D01*
X35135Y78924D01*
X35638D01*
Y81640D01*
D02*
G37*
G36*
X23038Y87940D02*
X22507D01*
X22456Y87932D01*
X22358Y87913D01*
X22271Y87885D01*
X22201Y87854D01*
X22146Y87818D01*
X22106Y87791D01*
X22095Y87779D01*
X22083Y87771D01*
X22075Y87767D01*
Y87763D01*
X22043Y87728D01*
X22016Y87692D01*
X21969Y87614D01*
X21937Y87535D01*
X21918Y87457D01*
X21902Y87386D01*
X21898Y87358D01*
Y87331D01*
X21894Y87311D01*
Y87296D01*
Y87284D01*
Y87280D01*
Y85892D01*
Y85834D01*
X21902Y85782D01*
X21922Y85684D01*
X21953Y85598D01*
X21984Y85531D01*
X22016Y85472D01*
X22047Y85433D01*
X22059Y85421D01*
X22067Y85409D01*
X22071Y85405D01*
X22075Y85401D01*
X22110Y85370D01*
X22146Y85342D01*
X22224Y85299D01*
X22307Y85268D01*
X22385Y85248D01*
X22456Y85232D01*
X22488Y85228D01*
X22515D01*
X22535Y85224D01*
X23038D01*
Y87940D01*
D02*
G37*
G36*
X24838Y131340D02*
X24307D01*
X24256Y131332D01*
X24158Y131313D01*
X24071Y131285D01*
X24001Y131254D01*
X23946Y131218D01*
X23906Y131191D01*
X23895Y131179D01*
X23883Y131171D01*
X23875Y131167D01*
Y131163D01*
X23844Y131128D01*
X23816Y131093D01*
X23769Y131014D01*
X23737Y130935D01*
X23718Y130857D01*
X23702Y130786D01*
X23698Y130758D01*
Y130731D01*
X23694Y130711D01*
Y130696D01*
Y130684D01*
Y130680D01*
Y129293D01*
Y129234D01*
X23702Y129183D01*
X23722Y129084D01*
X23753Y128998D01*
X23785Y128931D01*
X23816Y128872D01*
X23847Y128833D01*
X23859Y128821D01*
X23867Y128809D01*
X23871Y128805D01*
X23875Y128801D01*
X23910Y128770D01*
X23946Y128742D01*
X24024Y128699D01*
X24107Y128668D01*
X24185Y128648D01*
X24256Y128632D01*
X24288Y128628D01*
X24315D01*
X24335Y128624D01*
X24838D01*
Y131340D01*
D02*
G37*
%LPD*%
D10*
X7480Y68894D02*
G03*
X7480Y68925I18110J0D01*
G01*
D11*
X68212Y13780D02*
Y32677D01*
X57188Y13780D02*
Y32677D01*
X68212D01*
X57188Y13780D02*
X68212D01*
X172733Y37514D02*
Y40112D01*
X169524Y37514D02*
X172733D01*
X169524Y49010D02*
X172733D01*
Y46411D02*
Y49010D01*
Y46411D02*
Y49010D01*
Y46411D02*
Y49010D01*
X116485Y109490D02*
Y112246D01*
X77115D02*
X116485D01*
X77115Y109490D02*
Y112246D01*
X104989Y119726D02*
X108532D01*
X104989Y112246D02*
Y119726D01*
X108532Y112246D02*
Y119726D01*
X88532Y112246D02*
Y119726D01*
X84989Y112246D02*
Y119726D01*
X88532D01*
X184554Y117942D02*
X188491D01*
X184554Y128965D02*
X188491D01*
X184554Y117942D02*
Y128965D01*
X188491Y117942D02*
Y128965D01*
X67117Y65954D02*
Y76978D01*
X48220Y65954D02*
Y76978D01*
Y65954D02*
X67117D01*
X48220Y76978D02*
X67117D01*
X93486Y42370D02*
Y44969D01*
Y42370D02*
Y44969D01*
Y42370D02*
Y44969D01*
Y42370D02*
X96695D01*
X93486Y53866D02*
X96695D01*
X93486Y51268D02*
Y53866D01*
X245912Y109519D02*
Y128417D01*
X234888Y109519D02*
Y128417D01*
X245912D01*
X234888Y109519D02*
X245912D01*
X268490Y6848D02*
X269312D01*
Y24848D01*
X265312Y28848D02*
X269312Y24848D01*
X254711Y6848D02*
X263914D01*
X249312D02*
X250134D01*
X249312Y28846D02*
X250132D01*
X249312Y6848D02*
X249312Y28846D01*
X254711Y28848D02*
X265312D01*
X228475Y17907D02*
Y20505D01*
X225266Y17907D02*
X228475D01*
X225266Y29403D02*
X228475D01*
Y26805D02*
Y29403D01*
Y26805D02*
Y29403D01*
Y26805D02*
Y29403D01*
D49*
X74806Y34055D02*
G03*
X74806Y34055I-591J0D01*
G01*
X155315Y67491D02*
G03*
X155315Y67491I-591J0D01*
G01*
X47432Y82982D02*
G03*
X47432Y82982I-591J0D01*
G01*
X252506Y129795D02*
G03*
X252506Y129795I-591J0D01*
G01*
D69*
X34125Y113106D02*
G03*
X35700Y111531I1575J0D01*
G01*
X40700Y111531D02*
G03*
X42275Y113106I0J1575D01*
G01*
X42275Y123894D02*
G03*
X40700Y125469I-1575J0D01*
G01*
X35700Y125469D02*
G03*
X34125Y123894I0J-1575D01*
G01*
X163816Y129497D02*
G03*
X162241Y127922I-0J-1575D01*
G01*
X168461D02*
G03*
X166886Y129497I-1575J-0D01*
G01*
X166886Y117410D02*
G03*
X168461Y118985I0J1575D01*
G01*
X162241Y118985D02*
G03*
X163816Y117410I1575J0D01*
G01*
X205982Y129480D02*
G03*
X204408Y127905I-0J-1575D01*
G01*
X210628D02*
G03*
X209053Y129480I-1575J-0D01*
G01*
X209053Y117394D02*
G03*
X210628Y118968I0J1575D01*
G01*
X204408Y118968D02*
G03*
X205982Y117394I1575J0D01*
G01*
X198284Y129497D02*
G03*
X196709Y127922I-0J-1575D01*
G01*
X202930D02*
G03*
X201355Y129497I-1575J-0D01*
G01*
X201355Y117410D02*
G03*
X202930Y118985I0J1575D01*
G01*
X196709Y118985D02*
G03*
X198284Y117410I1575J0D01*
G01*
X155981Y129543D02*
G03*
X154406Y127969I-0J-1575D01*
G01*
X160626D02*
G03*
X159051Y129543I-1575J-0D01*
G01*
X159051Y117457D02*
G03*
X160626Y119032I0J1575D01*
G01*
X154406Y119032D02*
G03*
X155981Y117457I1575J0D01*
G01*
X241830Y7241D02*
G03*
X241830Y7241I-394J0D01*
G01*
X144194Y89918D02*
G03*
X142619Y88344I-0J-1575D01*
G01*
X148840D02*
G03*
X147265Y89918I-1575J-0D01*
G01*
X147265Y77832D02*
G03*
X148840Y79406I0J1575D01*
G01*
X142619Y79406D02*
G03*
X144194Y77832I1575J0D01*
G01*
X93362Y19795D02*
G03*
X91788Y21370I-1575J0D01*
G01*
Y15149D02*
G03*
X93362Y16724I-0J1575D01*
G01*
X81276Y16724D02*
G03*
X82851Y15149I1575J0D01*
G01*
X82851Y21370D02*
G03*
X81276Y19795I0J-1575D01*
G01*
X166020Y30865D02*
G03*
X167595Y29290I1575J-0D01*
G01*
Y35510D02*
G03*
X166020Y33935I0J-1575D01*
G01*
X178107Y33935D02*
G03*
X176532Y35510I-1575J0D01*
G01*
X176532Y29290D02*
G03*
X178107Y30865I-0J1575D01*
G01*
X174327Y56428D02*
G03*
X172753Y58003I-1575J0D01*
G01*
Y51783D02*
G03*
X174327Y53357I-0J1575D01*
G01*
X162241Y53357D02*
G03*
X163816Y51783I1575J0D01*
G01*
X163816Y58003D02*
G03*
X162241Y56428I0J-1575D01*
G01*
X165834Y5226D02*
G03*
X167409Y6801I-0J1575D01*
G01*
X167409Y9872D02*
G03*
X165834Y11447I-1575J0D01*
G01*
X156897Y11447D02*
G03*
X155323Y9872I0J-1575D01*
G01*
Y6801D02*
G03*
X156897Y5226I1575J-0D01*
G01*
X29938Y23228D02*
G03*
X31512Y21654I1575J0D01*
G01*
X34583Y21654D02*
G03*
X36158Y23228I0J1575D01*
G01*
X36158Y32165D02*
G03*
X34583Y33740I-1575J-0D01*
G01*
X31512D02*
G03*
X29938Y32165I-0J-1575D01*
G01*
X59969Y4818D02*
G03*
X61543Y6393I-0J1575D01*
G01*
X61543Y9464D02*
G03*
X59969Y11039I-1575J0D01*
G01*
X51032Y11039D02*
G03*
X49457Y9464I0J-1575D01*
G01*
Y6393D02*
G03*
X51032Y4818I1575J-0D01*
G01*
X101212Y7928D02*
G03*
X101212Y7928I-394J0D01*
G01*
X217204Y118968D02*
G03*
X218778Y117394I1575J0D01*
G01*
X221849Y117393D02*
G03*
X223424Y118968I0J1575D01*
G01*
X223424Y127905D02*
G03*
X221849Y129480I-1575J-0D01*
G01*
X218778D02*
G03*
X217203Y127905I-0J-1575D01*
G01*
X34125Y120272D02*
Y123894D01*
Y113106D02*
Y116728D01*
X42275Y113106D02*
Y116728D01*
X35700Y111531D02*
X40700D01*
X42275Y120272D02*
Y123894D01*
X35700Y125469D02*
X40700D01*
X149409Y41704D02*
Y64932D01*
X126181Y41704D02*
Y64932D01*
X149409D01*
X126181Y41704D02*
X149409D01*
X237362Y76757D02*
Y81225D01*
Y84375D02*
Y88843D01*
X231142Y76757D02*
Y81225D01*
Y88843D02*
X237362D01*
X231142Y76757D02*
X237362D01*
X231142Y84375D02*
Y88843D01*
X166630Y42080D02*
Y44443D01*
X176543Y117410D02*
Y121879D01*
Y125028D02*
Y129497D01*
X170323Y117410D02*
Y121879D01*
Y129497D02*
X176543D01*
X170323Y117410D02*
X176543D01*
X170323Y125028D02*
Y129497D01*
X168461Y125028D02*
Y127922D01*
X168461Y118985D02*
Y121879D01*
X162241Y118985D02*
Y121879D01*
X163816Y129497D02*
X166886D01*
X163816Y117410D02*
X166886D01*
X162241Y125028D02*
Y127922D01*
X210628Y125012D02*
Y127905D01*
X210628Y118968D02*
Y121862D01*
X204408Y118968D02*
Y121862D01*
X205982Y129480D02*
X209053D01*
X205982Y117394D02*
X209053D01*
X204408Y125012D02*
Y127905D01*
X202930Y125028D02*
Y127922D01*
X202930Y118985D02*
Y121879D01*
X196709Y118985D02*
Y121879D01*
X198284Y129497D02*
X201355D01*
X198284Y117410D02*
X201355D01*
X196709Y125028D02*
Y127922D01*
X218800Y96600D02*
Y106600D01*
X168800D02*
X218800D01*
X168800Y96600D02*
X218800D01*
X168800D02*
Y106600D01*
X265449Y129517D02*
X269917D01*
X257831Y123297D02*
Y129517D01*
X269917Y123297D02*
Y129517D01*
X257831D02*
X262299D01*
X265449Y123297D02*
X269917D01*
X257831D02*
X262299D01*
X257808Y115563D02*
X262277D01*
X265426D02*
X269895D01*
X257808Y121784D02*
X262277D01*
X269895Y115563D02*
Y121784D01*
X257808Y115563D02*
Y121784D01*
X265426D02*
X269895D01*
X257047Y76757D02*
Y81225D01*
Y84375D02*
Y88843D01*
X250827Y76757D02*
Y81225D01*
Y88843D02*
X257047D01*
X250827Y76757D02*
X257047D01*
X250827Y84375D02*
Y88843D01*
X160626Y125075D02*
Y127969D01*
X160626Y119032D02*
Y121925D01*
X154406Y119032D02*
Y121925D01*
X155981Y129543D02*
X159051D01*
X155981Y117457D02*
X159051D01*
X154406Y125075D02*
Y127969D01*
X64012Y94210D02*
X68480D01*
X56394Y87990D02*
Y94210D01*
X68480Y87990D02*
Y94210D01*
X56394D02*
X60862D01*
X64012Y87990D02*
X68480D01*
X56394D02*
X60862D01*
X23325Y125268D02*
X31475D01*
X23325Y111331D02*
X31475D01*
X23325D02*
Y116528D01*
Y120072D02*
Y125268D01*
X31475Y120072D02*
Y125268D01*
Y111331D02*
Y116528D01*
X238680Y16660D02*
X244192D01*
X238680Y15879D02*
X244192D01*
X238680Y19816D02*
X244192D01*
X238680Y15879D02*
Y19816D01*
X244192Y15879D02*
Y19816D01*
X257047Y47957D02*
Y52425D01*
Y55575D02*
Y60043D01*
X250827Y47957D02*
Y52425D01*
Y60043D02*
X257047D01*
X250827Y47957D02*
X257047D01*
X250827Y55575D02*
Y60043D01*
X144919Y11447D02*
X149388D01*
X137301D02*
X141770D01*
X144919Y5226D02*
X149388D01*
X137301D02*
Y11447D01*
X149388Y5226D02*
Y11447D01*
X137301Y5226D02*
X141770D01*
X148840Y85450D02*
Y88344D01*
X148840Y79406D02*
Y82300D01*
X142619Y79406D02*
Y82300D01*
X144194Y89918D02*
X147265D01*
X144194Y77832D02*
X147265D01*
X142619Y85450D02*
Y88344D01*
X156712Y77832D02*
Y82300D01*
Y85450D02*
Y89918D01*
X150491Y77832D02*
Y82300D01*
Y89918D02*
X156712D01*
X150491Y77832D02*
X156712D01*
X150491Y85450D02*
Y89918D01*
X164584Y77832D02*
Y82300D01*
Y85450D02*
Y89918D01*
X158364Y77832D02*
Y82300D01*
Y89918D02*
X164584D01*
X158364Y77832D02*
X164584D01*
X158364Y85450D02*
Y89918D01*
X166236Y85450D02*
Y89918D01*
Y77832D02*
Y82300D01*
X172457Y85450D02*
Y89918D01*
X166236Y77832D02*
X172457D01*
X166236Y89918D02*
X172457D01*
Y77832D02*
Y82300D01*
X99589Y46937D02*
Y49299D01*
X112223Y42075D02*
Y46543D01*
X106002Y54162D02*
X112223D01*
X106002Y42075D02*
X112223D01*
Y49693D02*
Y54162D01*
X106002Y42075D02*
Y46543D01*
Y49693D02*
Y54162D01*
X13931Y18628D02*
Y23963D01*
X4482Y37172D02*
X13931D01*
X4482Y18628D02*
X13931D01*
X4482D02*
Y23963D01*
Y31837D02*
Y37172D01*
X13931Y31837D02*
Y37172D01*
X19390Y14375D02*
Y18843D01*
Y7682D02*
Y11225D01*
X25610Y14375D02*
Y18843D01*
X20150Y6894D02*
X24850D01*
X19390Y18843D02*
X25610D01*
Y7682D02*
Y11225D01*
X24850Y6894D02*
X25610Y7682D01*
X19390D02*
X20150Y6894D01*
X100136Y56492D02*
X104604D01*
X107754D02*
X112223D01*
X100136Y62713D02*
X104604D01*
X112223Y56492D02*
Y62713D01*
X100136Y56492D02*
Y62713D01*
X107754D02*
X112223D01*
X88894Y15149D02*
X91788D01*
X82851Y15149D02*
X85744D01*
X82851Y21370D02*
X85744D01*
X93362Y16724D02*
Y19795D01*
X81276Y16724D02*
Y19795D01*
X88894Y21370D02*
X91788D01*
X89176Y31076D02*
Y35544D01*
Y23458D02*
Y27926D01*
X95396Y31076D02*
Y35544D01*
X89176Y23458D02*
X95396D01*
X89176Y35544D02*
X95396D01*
Y23458D02*
Y27926D01*
X81276Y31076D02*
Y35544D01*
Y23458D02*
Y27926D01*
X87496Y31076D02*
Y35544D01*
X81276Y23458D02*
X87496D01*
X81276Y35544D02*
X87496D01*
Y23458D02*
Y27926D01*
X86591Y42075D02*
Y46543D01*
X80370Y54162D02*
X86591D01*
X80370Y42075D02*
X86591D01*
Y49693D02*
Y54162D01*
X80370Y42075D02*
Y46543D01*
Y49693D02*
Y54162D01*
X167595Y35510D02*
X170489D01*
X173638Y35510D02*
X176532D01*
X173638Y29290D02*
X176532D01*
X166020Y30865D02*
Y33935D01*
X178107Y30865D02*
Y33935D01*
X167595Y29290D02*
X170489D01*
X19381Y29272D02*
Y33740D01*
Y21654D02*
Y26122D01*
X25602Y29272D02*
Y33740D01*
X19381Y21654D02*
X25602D01*
X19381Y33740D02*
X25602D01*
Y21654D02*
Y26122D01*
X123661Y85450D02*
Y89918D01*
Y77832D02*
Y82300D01*
X129882Y85450D02*
Y89918D01*
X123661Y77832D02*
X129882D01*
X123661Y89918D02*
X129882D01*
Y77832D02*
Y82300D01*
X169859Y51783D02*
X172753D01*
X163816Y51783D02*
X166709D01*
X163816Y58003D02*
X166709D01*
X174327Y53357D02*
Y56428D01*
X162241Y53357D02*
Y56428D01*
X169859Y58003D02*
X172753D01*
X222372Y22474D02*
Y24836D01*
X215910Y17612D02*
Y22080D01*
X209690Y29698D02*
X215910D01*
X209690Y17612D02*
X215910D01*
Y25230D02*
Y29698D01*
X209690Y17612D02*
Y22080D01*
Y25230D02*
Y29698D01*
X201190Y25230D02*
Y29698D01*
Y17612D02*
X207410D01*
X201190Y29698D02*
X207410D01*
X201190Y17612D02*
Y22080D01*
X207410Y25230D02*
Y29698D01*
Y17612D02*
Y22080D01*
X14206Y3443D02*
Y13442D01*
X4206Y3443D02*
X14206D01*
X4206D02*
Y13442D01*
X14206D01*
X156897Y5226D02*
X159791D01*
X167409Y6801D02*
Y9872D01*
X155323Y6801D02*
Y9872D01*
X162941Y5226D02*
X165834D01*
X162941Y11447D02*
X165834D01*
X156897Y11447D02*
X159791D01*
X29938Y29272D02*
Y32165D01*
X31512Y21654D02*
X34583D01*
X31512Y33740D02*
X34583D01*
X29938Y23228D02*
Y26122D01*
X36158Y23228D02*
Y26122D01*
X36158Y29272D02*
Y32165D01*
X38090Y29272D02*
Y33740D01*
Y21654D02*
X44310D01*
X38090Y33740D02*
X44310D01*
X38090Y21654D02*
Y26122D01*
X44310Y29272D02*
Y33740D01*
Y21654D02*
Y26122D01*
X38090Y14272D02*
Y18740D01*
Y6654D02*
X44310D01*
X38090Y18740D02*
X44310D01*
X38090Y6654D02*
Y11122D01*
X44310Y14272D02*
Y18740D01*
Y6654D02*
Y11122D01*
X51032Y4818D02*
X53925D01*
X61543Y6393D02*
Y9464D01*
X49457Y6393D02*
Y9464D01*
X57075Y4818D02*
X59969D01*
X57075Y11039D02*
X59969D01*
X51032Y11039D02*
X53925D01*
X63657Y4818D02*
X68125D01*
X75743D02*
Y11039D01*
X63657Y4818D02*
Y11039D01*
X71275Y4818D02*
X75743D01*
X63657Y11039D02*
X68125D01*
X71275D02*
X75743D01*
X88243Y10684D02*
X92180D01*
X88243Y5172D02*
X92180D01*
X88243D02*
Y10684D01*
X92180Y5172D02*
Y10684D01*
X91398Y5172D02*
Y10684D01*
X217204Y125012D02*
Y127905D01*
X218778Y117394D02*
X221849D01*
X218778Y129480D02*
X221849D01*
X217204Y118968D02*
Y121862D01*
X223424Y118968D02*
Y121862D01*
X223424Y125012D02*
Y127905D01*
X126636Y11447D02*
X131105D01*
X119943D02*
X123487D01*
X126636Y5226D02*
X131105D01*
X119156Y5986D02*
Y10687D01*
X131105Y5226D02*
Y11447D01*
X119943Y5226D02*
X123487D01*
X119156Y5986D02*
X119943Y5226D01*
X119156Y10687D02*
X119943Y11447D01*
D70*
X66243Y29921D02*
G03*
X66243Y29921I-787J0D01*
G01*
X147638Y62275D02*
G03*
X147638Y62275I-787J0D01*
G01*
X81839Y115789D02*
G03*
X81839Y115789I-787J0D01*
G01*
X51763Y74222D02*
G03*
X51763Y74222I-787J0D01*
G01*
X243943Y125661D02*
G03*
X243943Y125661I-787J0D01*
G01*
D71*
X181109Y116564D02*
G03*
X181109Y116564I-492J0D01*
G01*
D72*
X61900Y103828D02*
X66995D01*
X72492Y109324D01*
Y130412D01*
X61986Y130385D02*
X72492Y130412D01*
X51400Y103830D02*
X56500Y103882D01*
X45910Y109320D02*
X51400Y103830D01*
X45910Y109320D02*
Y130410D01*
X56289Y130331D01*
X121210Y130410D02*
X131589Y130331D01*
X121210Y109320D02*
Y130410D01*
Y109320D02*
X126700Y103830D01*
X131800Y103882D01*
X137286Y130385D02*
X147792Y130412D01*
Y109324D02*
Y130412D01*
X142295Y103828D02*
X147792Y109324D01*
X137200Y103828D02*
X142295D01*
D73*
X255963Y11848D02*
Y13563D01*
X256821Y12706D02*
X255106D01*
X255963Y20848D02*
Y22563D01*
D74*
X22500Y5615D02*
D03*
D75*
X117876Y8337D02*
D03*
M02*
