G04*
G04 #@! TF.GenerationSoftware,Altium Limited,Altium Designer,23.8.1 (32)*
G04*
G04 Layer_Color=8388736*
%FSLAX25Y25*%
%MOIN*%
G70*
G04*
G04 #@! TF.SameCoordinates,7219C3B3-8FC9-4B81-83B7-D13F04F5FDA5*
G04*
G04*
G04 #@! TF.FilePolarity,Negative*
G04*
G01*
G75*
%ADD12C,0.06706*%
%ADD13R,0.06706X0.06706*%
%ADD14C,0.09855*%
%ADD15C,0.06896*%
%ADD16R,0.06896X0.06896*%
%ADD17O,0.07099X0.10642*%
%ADD18R,0.07493X0.07493*%
G04:AMPARAMS|DCode=19|XSize=126.11mil|YSize=153.67mil|CornerRadius=33.53mil|HoleSize=0mil|Usage=FLASHONLY|Rotation=180.000|XOffset=0mil|YOffset=0mil|HoleType=Round|Shape=RoundedRectangle|*
%AMROUNDEDRECTD19*
21,1,0.12611,0.08661,0,0,180.0*
21,1,0.05906,0.15367,0,0,180.0*
1,1,0.06706,-0.02953,0.04331*
1,1,0.06706,0.02953,0.04331*
1,1,0.06706,0.02953,-0.04331*
1,1,0.06706,-0.02953,-0.04331*
%
%ADD19ROUNDEDRECTD19*%
D12*
X62900Y125000D02*
D03*
Y115000D02*
D03*
Y105000D02*
D03*
Y95000D02*
D03*
D13*
Y85000D02*
D03*
D14*
X31136Y61230D02*
D03*
X34561Y71791D02*
D03*
X25591Y78367D02*
D03*
X16620Y71791D02*
D03*
X20046Y61230D02*
D03*
X253937Y40354D02*
D03*
X234252D02*
D03*
D15*
X128244Y18340D02*
D03*
X118244D02*
D03*
X138295Y18244D02*
D03*
X108244Y18340D02*
D03*
X148295Y18244D02*
D03*
X158295D02*
D03*
D16*
X168295Y18254D02*
D03*
D17*
X253937Y97441D02*
D03*
X234252D02*
D03*
X244094D02*
D03*
D18*
X7706Y8443D02*
D03*
D19*
X223095Y67898D02*
D03*
X265094D02*
D03*
M02*
