G04*
G04 #@! TF.GenerationSoftware,Altium Limited,Altium Designer,23.8.1 (32)*
G04*
G04 Layer_Color=14277081*
%FSLAX25Y25*%
%MOIN*%
G70*
G04*
G04 #@! TF.SameCoordinates,7219C3B3-8FC9-4B81-83B7-D13F04F5FDA5*
G04*
G04*
G04 #@! TF.FilePolarity,Positive*
G04*
G01*
G75*
%ADD10C,0.00787*%
%ADD11C,0.01000*%
G36*
X41056Y51761D02*
X41967D01*
Y51379D01*
X41056D01*
Y50452D01*
X40639D01*
Y51379D01*
X39727D01*
Y51761D01*
X40639D01*
Y52688D01*
X41056D01*
Y51761D01*
D02*
G37*
G36*
X38199Y53470D02*
X38242Y53466D01*
X38289Y53458D01*
X38340Y53451D01*
X38399Y53439D01*
X38458Y53423D01*
X38521Y53407D01*
X38584Y53384D01*
X38651Y53356D01*
X38713Y53325D01*
X38776Y53285D01*
X38835Y53246D01*
X38890Y53195D01*
X38894Y53191D01*
X38902Y53183D01*
X38918Y53168D01*
X38938Y53144D01*
X38957Y53117D01*
X38981Y53081D01*
X39008Y53042D01*
X39036Y52999D01*
X39063Y52947D01*
X39091Y52893D01*
X39114Y52830D01*
X39134Y52763D01*
X39154Y52692D01*
X39169Y52617D01*
X39177Y52539D01*
X39181Y52452D01*
Y52448D01*
Y52433D01*
Y52409D01*
X39177Y52374D01*
X39173Y52334D01*
X39165Y52291D01*
X39158Y52240D01*
X39146Y52185D01*
X39130Y52126D01*
X39110Y52063D01*
X39087Y52004D01*
X39059Y51941D01*
X39024Y51878D01*
X38985Y51820D01*
X38941Y51761D01*
X38890Y51706D01*
X38886Y51702D01*
X38879Y51694D01*
X38859Y51678D01*
X38839Y51662D01*
X38808Y51643D01*
X38772Y51619D01*
X38733Y51592D01*
X38686Y51568D01*
X38635Y51541D01*
X38576Y51513D01*
X38513Y51490D01*
X38446Y51470D01*
X38372Y51454D01*
X38293Y51438D01*
X38210Y51430D01*
X38120Y51427D01*
X37428D01*
Y50000D01*
X37000D01*
Y53474D01*
X38167D01*
X38199Y53470D01*
D02*
G37*
G36*
X14000Y51385D02*
X12424D01*
Y50308D01*
X13831D01*
Y49927D01*
X12424D01*
Y48689D01*
X14000D01*
Y48300D01*
X12000D01*
Y51774D01*
X14000D01*
Y51385D01*
D02*
G37*
G36*
X47363Y78430D02*
X47390D01*
X47421Y78426D01*
X47457Y78422D01*
X47496Y78418D01*
X47583Y78399D01*
X47677Y78375D01*
X47771Y78344D01*
X47862Y78297D01*
X47866D01*
X47873Y78289D01*
X47885Y78281D01*
X47901Y78273D01*
X47944Y78242D01*
X47995Y78198D01*
X48054Y78143D01*
X48117Y78080D01*
X48172Y78002D01*
X48227Y77916D01*
Y77912D01*
X48231Y77904D01*
X48239Y77892D01*
X48247Y77872D01*
X48255Y77849D01*
X48266Y77821D01*
X48278Y77790D01*
X48290Y77750D01*
X48302Y77711D01*
X48314Y77668D01*
X48333Y77566D01*
X48349Y77456D01*
X48353Y77334D01*
Y76434D01*
X44879D01*
Y77389D01*
X44883Y77420D01*
X44887Y77456D01*
X44890Y77491D01*
X44894Y77534D01*
X44910Y77625D01*
X44934Y77723D01*
X44965Y77821D01*
X45008Y77916D01*
Y77919D01*
X45012Y77927D01*
X45020Y77939D01*
X45032Y77955D01*
X45059Y78002D01*
X45099Y78057D01*
X45150Y78116D01*
X45213Y78183D01*
X45287Y78242D01*
X45370Y78297D01*
X45374D01*
X45382Y78304D01*
X45393Y78308D01*
X45409Y78320D01*
X45433Y78328D01*
X45460Y78340D01*
X45492Y78352D01*
X45527Y78367D01*
X45606Y78391D01*
X45700Y78415D01*
X45806Y78430D01*
X45920Y78434D01*
X47307D01*
X47311D01*
X47323D01*
X47339D01*
X47363Y78430D01*
D02*
G37*
G36*
X48353Y74995D02*
X45378Y73938D01*
X45382D01*
X45397Y73942D01*
X45425D01*
X45456Y73946D01*
X45500Y73950D01*
X45547D01*
X45606Y73954D01*
X45669Y73958D01*
X45676D01*
X45700D01*
X45731Y73962D01*
X45779D01*
X45834Y73966D01*
X45897Y73970D01*
X45963D01*
X46034Y73974D01*
X46038D01*
X46042D01*
X46066D01*
X46105Y73978D01*
X46152D01*
X46207D01*
X46270Y73982D01*
X46404D01*
X48353D01*
Y73569D01*
X44879D01*
Y74139D01*
X47854Y75200D01*
X47850D01*
X47834D01*
X47807Y75196D01*
X47771D01*
X47732Y75192D01*
X47681Y75188D01*
X47626Y75184D01*
X47563Y75180D01*
X47559D01*
X47555D01*
X47532D01*
X47496Y75176D01*
X47449Y75172D01*
X47394Y75168D01*
X47331D01*
X47264Y75165D01*
X47194Y75161D01*
X47190D01*
X47186D01*
X47162D01*
X47123Y75157D01*
X47076D01*
X47021D01*
X46958Y75153D01*
X46832D01*
X44879D01*
Y75569D01*
X48353D01*
Y74995D01*
D02*
G37*
G36*
X47476Y72744D02*
X47516Y72740D01*
X47563Y72732D01*
X47614Y72724D01*
X47665Y72712D01*
X47724Y72700D01*
X47783Y72681D01*
X47846Y72657D01*
X47905Y72634D01*
X47968Y72598D01*
X48023Y72563D01*
X48082Y72520D01*
X48133Y72472D01*
X48137Y72469D01*
X48145Y72461D01*
X48156Y72445D01*
X48176Y72421D01*
X48196Y72394D01*
X48215Y72362D01*
X48243Y72323D01*
X48266Y72276D01*
X48290Y72225D01*
X48314Y72170D01*
X48337Y72111D01*
X48357Y72044D01*
X48376Y71973D01*
X48388Y71895D01*
X48396Y71816D01*
X48400Y71730D01*
Y71683D01*
X48396Y71651D01*
X48392Y71612D01*
X48384Y71565D01*
X48376Y71513D01*
X48368Y71459D01*
X48337Y71337D01*
X48314Y71274D01*
X48290Y71211D01*
X48259Y71148D01*
X48223Y71089D01*
X48184Y71030D01*
X48137Y70975D01*
X48133Y70971D01*
X48125Y70963D01*
X48109Y70951D01*
X48086Y70932D01*
X48062Y70912D01*
X48027Y70889D01*
X47987Y70865D01*
X47944Y70837D01*
X47893Y70814D01*
X47838Y70786D01*
X47779Y70763D01*
X47712Y70743D01*
X47642Y70724D01*
X47567Y70712D01*
X47488Y70704D01*
X47402Y70700D01*
X45830D01*
X45826D01*
X45810D01*
X45786D01*
X45751Y70704D01*
X45712Y70708D01*
X45669Y70716D01*
X45617Y70724D01*
X45562Y70735D01*
X45504Y70747D01*
X45445Y70767D01*
X45386Y70790D01*
X45323Y70818D01*
X45264Y70849D01*
X45205Y70885D01*
X45150Y70928D01*
X45099Y70975D01*
X45095Y70979D01*
X45087Y70987D01*
X45075Y71003D01*
X45055Y71026D01*
X45036Y71054D01*
X45012Y71089D01*
X44989Y71128D01*
X44965Y71175D01*
X44942Y71227D01*
X44914Y71282D01*
X44894Y71345D01*
X44875Y71411D01*
X44855Y71482D01*
X44843Y71561D01*
X44835Y71643D01*
X44831Y71730D01*
Y71773D01*
X44835Y71808D01*
X44839Y71848D01*
X44847Y71891D01*
X44855Y71942D01*
X44867Y71997D01*
X44879Y72056D01*
X44898Y72115D01*
X44918Y72178D01*
X44945Y72241D01*
X44977Y72303D01*
X45012Y72362D01*
X45055Y72417D01*
X45103Y72472D01*
X45107Y72476D01*
X45114Y72484D01*
X45130Y72496D01*
X45150Y72516D01*
X45177Y72535D01*
X45213Y72559D01*
X45248Y72586D01*
X45295Y72610D01*
X45342Y72637D01*
X45397Y72661D01*
X45456Y72685D01*
X45523Y72704D01*
X45590Y72724D01*
X45665Y72736D01*
X45747Y72744D01*
X45830Y72747D01*
Y72319D01*
X45826D01*
X45818D01*
X45802D01*
X45783Y72315D01*
X45755D01*
X45728Y72311D01*
X45661Y72299D01*
X45590Y72280D01*
X45515Y72252D01*
X45441Y72213D01*
X45378Y72162D01*
X45370Y72154D01*
X45354Y72135D01*
X45327Y72099D01*
X45295Y72052D01*
X45268Y71989D01*
X45240Y71914D01*
X45224Y71828D01*
X45217Y71730D01*
Y71702D01*
X45221Y71683D01*
Y71659D01*
X45224Y71631D01*
X45236Y71569D01*
X45256Y71498D01*
X45283Y71423D01*
X45323Y71352D01*
X45374Y71286D01*
X45382Y71278D01*
X45401Y71262D01*
X45441Y71235D01*
X45488Y71207D01*
X45555Y71179D01*
X45629Y71152D01*
X45720Y71136D01*
X45826Y71128D01*
X47402D01*
X47406D01*
X47414D01*
X47429D01*
X47449Y71132D01*
X47476D01*
X47504Y71136D01*
X47571Y71148D01*
X47642Y71168D01*
X47720Y71195D01*
X47795Y71235D01*
X47862Y71286D01*
X47869Y71293D01*
X47885Y71317D01*
X47913Y71352D01*
X47940Y71403D01*
X47972Y71466D01*
X47999Y71541D01*
X48015Y71631D01*
X48023Y71730D01*
Y71757D01*
X48019Y71777D01*
Y71800D01*
X48015Y71828D01*
X48003Y71887D01*
X47983Y71958D01*
X47956Y72028D01*
X47917Y72099D01*
X47862Y72162D01*
X47854Y72170D01*
X47830Y72185D01*
X47795Y72213D01*
X47744Y72241D01*
X47677Y72268D01*
X47598Y72296D01*
X47508Y72311D01*
X47402Y72319D01*
X46973D01*
Y71616D01*
X46584D01*
Y72747D01*
X47402D01*
X47406D01*
X47421D01*
X47445D01*
X47476Y72744D01*
D02*
G37*
G36*
X22708Y92365D02*
X22748Y92361D01*
X22791Y92353D01*
X22842Y92345D01*
X22897Y92333D01*
X22956Y92321D01*
X23015Y92302D01*
X23078Y92282D01*
X23141Y92255D01*
X23203Y92223D01*
X23262Y92188D01*
X23317Y92144D01*
X23372Y92097D01*
X23376Y92093D01*
X23384Y92085D01*
X23396Y92070D01*
X23416Y92050D01*
X23435Y92023D01*
X23459Y91987D01*
X23486Y91952D01*
X23510Y91905D01*
X23538Y91857D01*
X23561Y91803D01*
X23585Y91744D01*
X23604Y91677D01*
X23624Y91610D01*
X23636Y91535D01*
X23644Y91453D01*
X23648Y91370D01*
X23219D01*
Y91374D01*
Y91382D01*
Y91398D01*
X23215Y91417D01*
Y91445D01*
X23211Y91472D01*
X23200Y91539D01*
X23180Y91610D01*
X23152Y91685D01*
X23113Y91759D01*
X23062Y91822D01*
X23054Y91830D01*
X23034Y91846D01*
X22999Y91873D01*
X22952Y91905D01*
X22889Y91932D01*
X22814Y91960D01*
X22728Y91975D01*
X22630Y91983D01*
X22602D01*
X22582Y91979D01*
X22559D01*
X22531Y91975D01*
X22468Y91964D01*
X22398Y91944D01*
X22323Y91917D01*
X22252Y91877D01*
X22186Y91826D01*
X22178Y91818D01*
X22162Y91799D01*
X22135Y91759D01*
X22107Y91712D01*
X22080Y91645D01*
X22052Y91571D01*
X22036Y91480D01*
X22028Y91374D01*
Y89798D01*
Y89794D01*
Y89786D01*
Y89771D01*
X22032Y89751D01*
Y89724D01*
X22036Y89696D01*
X22048Y89629D01*
X22068Y89559D01*
X22095Y89480D01*
X22135Y89405D01*
X22186Y89338D01*
X22193Y89331D01*
X22217Y89315D01*
X22252Y89287D01*
X22303Y89260D01*
X22366Y89228D01*
X22441Y89201D01*
X22531Y89185D01*
X22630Y89177D01*
X22657D01*
X22677Y89181D01*
X22700D01*
X22728Y89185D01*
X22787Y89197D01*
X22858Y89217D01*
X22928Y89244D01*
X22999Y89283D01*
X23062Y89338D01*
X23070Y89346D01*
X23086Y89370D01*
X23113Y89405D01*
X23141Y89456D01*
X23168Y89523D01*
X23196Y89602D01*
X23211Y89692D01*
X23219Y89798D01*
Y90227D01*
X22516D01*
Y90616D01*
X23648D01*
Y89798D01*
Y89794D01*
Y89779D01*
Y89755D01*
X23644Y89724D01*
X23640Y89684D01*
X23632Y89637D01*
X23624Y89586D01*
X23612Y89535D01*
X23600Y89476D01*
X23581Y89417D01*
X23557Y89354D01*
X23534Y89295D01*
X23498Y89232D01*
X23463Y89177D01*
X23420Y89118D01*
X23372Y89067D01*
X23369Y89063D01*
X23361Y89055D01*
X23345Y89044D01*
X23321Y89024D01*
X23294Y89004D01*
X23262Y88985D01*
X23223Y88957D01*
X23176Y88934D01*
X23125Y88910D01*
X23070Y88886D01*
X23011Y88863D01*
X22944Y88843D01*
X22873Y88824D01*
X22795Y88812D01*
X22716Y88804D01*
X22630Y88800D01*
X22582D01*
X22551Y88804D01*
X22512Y88808D01*
X22465Y88816D01*
X22413Y88824D01*
X22358Y88831D01*
X22237Y88863D01*
X22174Y88886D01*
X22111Y88910D01*
X22048Y88942D01*
X21989Y88977D01*
X21930Y89016D01*
X21875Y89063D01*
X21871Y89067D01*
X21863Y89075D01*
X21851Y89091D01*
X21832Y89114D01*
X21812Y89138D01*
X21789Y89173D01*
X21765Y89213D01*
X21737Y89256D01*
X21714Y89307D01*
X21687Y89362D01*
X21663Y89421D01*
X21643Y89488D01*
X21624Y89559D01*
X21612Y89633D01*
X21604Y89712D01*
X21600Y89798D01*
Y91370D01*
Y91374D01*
Y91390D01*
Y91413D01*
X21604Y91449D01*
X21608Y91488D01*
X21616Y91531D01*
X21624Y91582D01*
X21635Y91637D01*
X21647Y91696D01*
X21667Y91755D01*
X21690Y91814D01*
X21718Y91877D01*
X21749Y91936D01*
X21785Y91995D01*
X21828Y92050D01*
X21875Y92101D01*
X21879Y92105D01*
X21887Y92113D01*
X21903Y92125D01*
X21926Y92144D01*
X21954Y92164D01*
X21989Y92188D01*
X22028Y92211D01*
X22075Y92235D01*
X22127Y92258D01*
X22182Y92286D01*
X22244Y92306D01*
X22311Y92325D01*
X22382Y92345D01*
X22461Y92357D01*
X22543Y92365D01*
X22630Y92368D01*
X22673D01*
X22708Y92365D01*
D02*
G37*
G36*
X26469Y88847D02*
X25896D01*
X24838Y91822D01*
Y91818D01*
X24842Y91803D01*
Y91775D01*
X24846Y91744D01*
X24850Y91700D01*
Y91653D01*
X24854Y91594D01*
X24858Y91531D01*
Y91523D01*
Y91500D01*
X24862Y91469D01*
Y91421D01*
X24866Y91366D01*
X24870Y91303D01*
Y91237D01*
X24874Y91166D01*
Y91162D01*
Y91158D01*
Y91134D01*
X24878Y91095D01*
Y91048D01*
Y90993D01*
X24882Y90930D01*
Y90796D01*
Y88847D01*
X24469D01*
Y92321D01*
X25039D01*
X26100Y89346D01*
Y89350D01*
Y89366D01*
X26096Y89393D01*
Y89429D01*
X26092Y89468D01*
X26088Y89519D01*
X26084Y89574D01*
X26080Y89637D01*
Y89641D01*
Y89645D01*
Y89669D01*
X26076Y89704D01*
X26072Y89751D01*
X26068Y89806D01*
Y89869D01*
X26065Y89936D01*
X26061Y90007D01*
Y90010D01*
Y90014D01*
Y90038D01*
X26057Y90077D01*
Y90124D01*
Y90179D01*
X26053Y90242D01*
Y90368D01*
Y92321D01*
X26469D01*
Y88847D01*
D02*
G37*
G36*
X28320Y92317D02*
X28356Y92313D01*
X28391Y92309D01*
X28434Y92306D01*
X28525Y92290D01*
X28623Y92266D01*
X28721Y92235D01*
X28815Y92192D01*
X28819D01*
X28827Y92188D01*
X28839Y92180D01*
X28855Y92168D01*
X28902Y92141D01*
X28957Y92101D01*
X29016Y92050D01*
X29083Y91987D01*
X29142Y91913D01*
X29197Y91830D01*
Y91826D01*
X29205Y91818D01*
X29208Y91806D01*
X29220Y91791D01*
X29228Y91767D01*
X29240Y91740D01*
X29252Y91708D01*
X29267Y91673D01*
X29291Y91594D01*
X29315Y91500D01*
X29330Y91394D01*
X29334Y91280D01*
Y89893D01*
Y89889D01*
Y89877D01*
Y89861D01*
X29330Y89837D01*
Y89810D01*
X29326Y89779D01*
X29322Y89743D01*
X29318Y89704D01*
X29299Y89617D01*
X29275Y89523D01*
X29244Y89429D01*
X29197Y89338D01*
Y89334D01*
X29189Y89327D01*
X29181Y89315D01*
X29173Y89299D01*
X29142Y89256D01*
X29098Y89205D01*
X29043Y89146D01*
X28980Y89083D01*
X28902Y89028D01*
X28815Y88973D01*
X28811D01*
X28804Y88969D01*
X28792Y88961D01*
X28772Y88953D01*
X28749Y88945D01*
X28721Y88934D01*
X28690Y88922D01*
X28650Y88910D01*
X28611Y88898D01*
X28568Y88886D01*
X28466Y88867D01*
X28356Y88851D01*
X28234Y88847D01*
X27334D01*
Y92321D01*
X28289D01*
X28320Y92317D01*
D02*
G37*
G36*
X4273Y75207D02*
X5201D01*
Y74791D01*
X4273D01*
Y73879D01*
X3892D01*
Y74791D01*
X2965D01*
Y75207D01*
X3892D01*
Y76119D01*
X4273D01*
Y75207D01*
D02*
G37*
G36*
X5653Y73042D02*
Y72503D01*
X3036Y72209D01*
X3028D01*
X3008Y72205D01*
X2977Y72201D01*
X2937Y72197D01*
X2886Y72193D01*
X2835Y72185D01*
X2721Y72173D01*
X2713D01*
X2694D01*
X2666Y72169D01*
X2631Y72165D01*
X2591Y72161D01*
X2552D01*
X2513Y72158D01*
X2477Y72154D01*
X2481D01*
X2493D01*
X2513Y72150D01*
X2540Y72146D01*
X2576Y72142D01*
X2615Y72138D01*
X2666Y72130D01*
X2721Y72126D01*
X2729D01*
X2749Y72122D01*
X2776D01*
X2819Y72114D01*
X2867Y72110D01*
X2918Y72106D01*
X2977Y72099D01*
X3036Y72091D01*
X5653Y71772D01*
Y71234D01*
X2179Y70833D01*
Y71242D01*
X4749Y71505D01*
X4757D01*
X4776Y71509D01*
X4808D01*
X4847Y71513D01*
X4898Y71517D01*
X4953Y71521D01*
X5012Y71525D01*
X5075Y71529D01*
X5083D01*
X5103Y71533D01*
X5134D01*
X5173Y71537D01*
X5217Y71540D01*
X5260D01*
X5307Y71544D01*
X5346Y71548D01*
X5342D01*
X5327D01*
X5303Y71552D01*
X5276Y71556D01*
X5236D01*
X5189Y71560D01*
X5134Y71568D01*
X5075Y71572D01*
X5071D01*
X5067D01*
X5048Y71576D01*
X5012Y71580D01*
X4969Y71584D01*
X4922Y71588D01*
X4867Y71596D01*
X4749Y71607D01*
X2179Y71934D01*
Y72374D01*
X4749Y72672D01*
X4757D01*
X4776Y72676D01*
X4808Y72680D01*
X4847Y72684D01*
X4898Y72688D01*
X4953Y72696D01*
X5012Y72700D01*
X5075Y72708D01*
X5083D01*
X5103Y72712D01*
X5134Y72716D01*
X5173Y72720D01*
X5217Y72723D01*
X5260Y72731D01*
X5307Y72735D01*
X5346Y72739D01*
X5342D01*
X5327D01*
X5303Y72743D01*
X5276D01*
X5236Y72747D01*
X5189Y72751D01*
X5134Y72755D01*
X5075Y72759D01*
X5071D01*
X5067D01*
X5048Y72763D01*
X5012D01*
X4969Y72767D01*
X4922Y72771D01*
X4867Y72778D01*
X4749Y72790D01*
X2179Y73061D01*
Y73450D01*
X5653Y73042D01*
D02*
G37*
G36*
X4812Y70365D02*
X4851Y70362D01*
X4894Y70354D01*
X4941Y70346D01*
X4993Y70334D01*
X5048Y70318D01*
X5103Y70299D01*
X5162Y70275D01*
X5221Y70248D01*
X5280Y70212D01*
X5334Y70173D01*
X5390Y70130D01*
X5441Y70078D01*
X5445Y70075D01*
X5452Y70067D01*
X5464Y70047D01*
X5480Y70027D01*
X5500Y69996D01*
X5523Y69961D01*
X5547Y69921D01*
X5570Y69874D01*
X5594Y69823D01*
X5618Y69764D01*
X5641Y69701D01*
X5661Y69630D01*
X5676Y69556D01*
X5688Y69477D01*
X5696Y69395D01*
X5700Y69304D01*
Y69257D01*
X5696Y69222D01*
X5692Y69179D01*
X5684Y69128D01*
X5676Y69073D01*
X5669Y69014D01*
X5637Y68884D01*
X5618Y68817D01*
X5590Y68750D01*
X5562Y68683D01*
X5527Y68621D01*
X5488Y68558D01*
X5441Y68499D01*
X5437Y68495D01*
X5429Y68487D01*
X5413Y68471D01*
X5393Y68451D01*
X5366Y68428D01*
X5334Y68404D01*
X5295Y68377D01*
X5256Y68349D01*
X5205Y68322D01*
X5154Y68294D01*
X5095Y68271D01*
X5036Y68247D01*
X4969Y68227D01*
X4894Y68212D01*
X4820Y68204D01*
X4741Y68200D01*
Y68628D01*
X4745D01*
X4753D01*
X4765D01*
X4784Y68632D01*
X4808D01*
X4831Y68640D01*
X4890Y68652D01*
X4957Y68676D01*
X5028Y68707D01*
X5099Y68754D01*
X5130Y68782D01*
X5162Y68813D01*
Y68817D01*
X5169Y68821D01*
X5177Y68833D01*
X5185Y68849D01*
X5197Y68864D01*
X5213Y68888D01*
X5240Y68943D01*
X5272Y69014D01*
X5299Y69100D01*
X5315Y69194D01*
X5323Y69304D01*
Y69332D01*
X5319Y69352D01*
Y69379D01*
X5315Y69406D01*
X5303Y69473D01*
X5283Y69548D01*
X5256Y69627D01*
X5217Y69705D01*
X5162Y69776D01*
X5158Y69780D01*
X5154Y69784D01*
X5134Y69803D01*
X5099Y69831D01*
X5048Y69866D01*
X4989Y69898D01*
X4918Y69925D01*
X4835Y69945D01*
X4788Y69953D01*
X4741D01*
X4737D01*
X4733D01*
X4721D01*
X4706D01*
X4666Y69949D01*
X4619Y69941D01*
X4564Y69925D01*
X4505Y69906D01*
X4442Y69878D01*
X4383Y69843D01*
X4376Y69839D01*
X4356Y69823D01*
X4332Y69800D01*
X4297Y69768D01*
X4262Y69725D01*
X4226Y69674D01*
X4195Y69619D01*
X4167Y69552D01*
X4006Y69037D01*
Y69033D01*
X4002Y69021D01*
X3994Y69006D01*
X3986Y68978D01*
X3975Y68951D01*
X3959Y68915D01*
X3920Y68841D01*
X3869Y68750D01*
X3806Y68660D01*
X3731Y68573D01*
X3645Y68491D01*
X3641Y68487D01*
X3633Y68483D01*
X3621Y68471D01*
X3601Y68459D01*
X3578Y68444D01*
X3546Y68428D01*
X3515Y68412D01*
X3476Y68393D01*
X3389Y68357D01*
X3291Y68326D01*
X3181Y68302D01*
X3122Y68298D01*
X3059Y68294D01*
X3055D01*
X3039D01*
X3020D01*
X2988Y68298D01*
X2953Y68302D01*
X2910Y68310D01*
X2867Y68318D01*
X2815Y68330D01*
X2764Y68345D01*
X2709Y68361D01*
X2650Y68385D01*
X2595Y68412D01*
X2540Y68444D01*
X2485Y68483D01*
X2430Y68526D01*
X2383Y68573D01*
X2379Y68577D01*
X2371Y68585D01*
X2359Y68601D01*
X2344Y68624D01*
X2324Y68652D01*
X2304Y68687D01*
X2281Y68727D01*
X2257Y68770D01*
X2234Y68821D01*
X2210Y68876D01*
X2190Y68939D01*
X2171Y69002D01*
X2155Y69073D01*
X2143Y69147D01*
X2135Y69230D01*
X2132Y69312D01*
Y69355D01*
X2135Y69391D01*
X2139Y69430D01*
X2143Y69473D01*
X2151Y69524D01*
X2163Y69579D01*
X2194Y69697D01*
X2214Y69756D01*
X2238Y69819D01*
X2265Y69882D01*
X2301Y69941D01*
X2340Y69996D01*
X2383Y70051D01*
X2387Y70055D01*
X2395Y70063D01*
X2411Y70078D01*
X2430Y70094D01*
X2454Y70114D01*
X2485Y70138D01*
X2521Y70165D01*
X2560Y70192D01*
X2607Y70216D01*
X2658Y70244D01*
X2713Y70267D01*
X2776Y70287D01*
X2839Y70302D01*
X2910Y70318D01*
X2980Y70326D01*
X3059Y70330D01*
Y69898D01*
X3055D01*
X3047D01*
X3036D01*
X3016Y69894D01*
X2973Y69890D01*
X2914Y69878D01*
X2851Y69858D01*
X2784Y69831D01*
X2721Y69792D01*
X2662Y69737D01*
X2654Y69729D01*
X2638Y69709D01*
X2615Y69674D01*
X2587Y69627D01*
X2560Y69564D01*
X2536Y69493D01*
X2521Y69406D01*
X2513Y69312D01*
Y69285D01*
X2517Y69269D01*
Y69245D01*
X2521Y69218D01*
X2532Y69155D01*
X2548Y69088D01*
X2576Y69014D01*
X2611Y68943D01*
X2662Y68876D01*
X2670Y68868D01*
X2690Y68852D01*
X2721Y68825D01*
X2764Y68797D01*
X2819Y68766D01*
X2886Y68738D01*
X2965Y68723D01*
X3051Y68715D01*
X3055D01*
X3059D01*
X3083D01*
X3118Y68719D01*
X3161Y68727D01*
X3212Y68742D01*
X3267Y68758D01*
X3322Y68786D01*
X3377Y68821D01*
X3385Y68825D01*
X3401Y68841D01*
X3424Y68864D01*
X3452Y68900D01*
X3487Y68943D01*
X3519Y68994D01*
X3550Y69057D01*
X3578Y69124D01*
X3751Y69658D01*
Y69662D01*
X3755Y69674D01*
X3762Y69690D01*
X3770Y69713D01*
X3782Y69741D01*
X3798Y69772D01*
X3833Y69847D01*
X3884Y69929D01*
X3951Y70016D01*
X4026Y70098D01*
X4120Y70177D01*
X4124Y70181D01*
X4132Y70185D01*
X4148Y70196D01*
X4167Y70208D01*
X4191Y70220D01*
X4222Y70240D01*
X4258Y70255D01*
X4297Y70275D01*
X4340Y70291D01*
X4387Y70310D01*
X4493Y70338D01*
X4611Y70362D01*
X4674Y70365D01*
X4741Y70369D01*
X4745D01*
X4761D01*
X4784D01*
X4812Y70365D01*
D02*
G37*
G36*
X105747Y27893D02*
X105785D01*
X105828Y27890D01*
X105875Y27887D01*
X105928Y27881D01*
X105984Y27875D01*
X106044Y27865D01*
X106165Y27844D01*
X106287Y27812D01*
X106346Y27794D01*
X106402Y27772D01*
X106405Y27769D01*
X106415Y27766D01*
X106430Y27759D01*
X106449Y27747D01*
X106474Y27734D01*
X106505Y27719D01*
X106537Y27700D01*
X106571Y27675D01*
X106643Y27622D01*
X106721Y27556D01*
X106796Y27479D01*
X106864Y27391D01*
X106867Y27388D01*
X106870Y27379D01*
X106880Y27366D01*
X106889Y27347D01*
X106902Y27323D01*
X106917Y27294D01*
X106933Y27260D01*
X106948Y27223D01*
X106964Y27182D01*
X106980Y27138D01*
X106992Y27092D01*
X107008Y27039D01*
X107026Y26929D01*
X107033Y26873D01*
X107036Y26814D01*
X106636Y26780D01*
Y26783D01*
Y26789D01*
X106633Y26801D01*
X106630Y26820D01*
X106627Y26842D01*
X106621Y26864D01*
X106608Y26920D01*
X106593Y26982D01*
X106568Y27048D01*
X106540Y27114D01*
X106505Y27176D01*
Y27179D01*
X106499Y27182D01*
X106487Y27201D01*
X106462Y27229D01*
X106427Y27263D01*
X106384Y27304D01*
X106327Y27344D01*
X106262Y27388D01*
X106187Y27426D01*
X106184D01*
X106178Y27429D01*
X106165Y27435D01*
X106150Y27441D01*
X106128Y27447D01*
X106103Y27454D01*
X106075Y27463D01*
X106044Y27472D01*
X106009Y27482D01*
X105972Y27488D01*
X105888Y27503D01*
X105794Y27516D01*
X105694Y27519D01*
X105654D01*
X105632Y27516D01*
X105607D01*
X105551Y27510D01*
X105485Y27500D01*
X105413Y27488D01*
X105342Y27472D01*
X105270Y27447D01*
X105267D01*
X105261Y27444D01*
X105251Y27441D01*
X105239Y27435D01*
X105204Y27419D01*
X105164Y27394D01*
X105120Y27366D01*
X105073Y27335D01*
X105030Y27294D01*
X104992Y27251D01*
X104989Y27244D01*
X104977Y27229D01*
X104964Y27204D01*
X104945Y27170D01*
X104930Y27129D01*
X104914Y27082D01*
X104905Y27032D01*
X104902Y26976D01*
Y26973D01*
Y26970D01*
Y26951D01*
X104905Y26923D01*
X104911Y26886D01*
X104924Y26845D01*
X104939Y26801D01*
X104961Y26758D01*
X104989Y26714D01*
X104992Y26708D01*
X105005Y26695D01*
X105026Y26674D01*
X105058Y26649D01*
X105098Y26617D01*
X105148Y26586D01*
X105208Y26555D01*
X105279Y26527D01*
X105286Y26524D01*
X105295Y26521D01*
X105307Y26518D01*
X105323Y26511D01*
X105342Y26505D01*
X105367Y26496D01*
X105398Y26486D01*
X105432Y26477D01*
X105473Y26465D01*
X105519Y26452D01*
X105572Y26440D01*
X105632Y26424D01*
X105697Y26408D01*
X105769Y26390D01*
X105847Y26371D01*
X105853D01*
X105866Y26365D01*
X105888Y26362D01*
X105919Y26352D01*
X105953Y26343D01*
X105997Y26333D01*
X106041Y26321D01*
X106090Y26305D01*
X106190Y26274D01*
X106293Y26243D01*
X106343Y26224D01*
X106387Y26206D01*
X106427Y26190D01*
X106465Y26171D01*
X106468D01*
X106474Y26165D01*
X106487Y26159D01*
X106502Y26149D01*
X106521Y26137D01*
X106543Y26124D01*
X106593Y26087D01*
X106649Y26043D01*
X106705Y25993D01*
X106758Y25934D01*
X106805Y25872D01*
Y25869D01*
X106811Y25862D01*
X106814Y25853D01*
X106824Y25840D01*
X106830Y25825D01*
X106839Y25803D01*
X106861Y25756D01*
X106883Y25697D01*
X106898Y25628D01*
X106911Y25554D01*
X106917Y25472D01*
Y25469D01*
Y25463D01*
Y25447D01*
X106914Y25432D01*
Y25410D01*
X106911Y25385D01*
X106905Y25357D01*
X106898Y25326D01*
X106883Y25257D01*
X106858Y25179D01*
X106824Y25101D01*
X106805Y25060D01*
X106780Y25020D01*
X106777Y25017D01*
X106774Y25011D01*
X106764Y24998D01*
X106755Y24986D01*
X106739Y24967D01*
X106724Y24948D01*
X106677Y24901D01*
X106621Y24848D01*
X106552Y24795D01*
X106474Y24742D01*
X106381Y24699D01*
X106377D01*
X106368Y24692D01*
X106352Y24689D01*
X106334Y24680D01*
X106309Y24674D01*
X106281Y24664D01*
X106246Y24655D01*
X106209Y24642D01*
X106165Y24633D01*
X106122Y24624D01*
X106072Y24614D01*
X106022Y24605D01*
X105913Y24592D01*
X105794Y24589D01*
X105760D01*
X105735Y24592D01*
X105703D01*
X105666Y24596D01*
X105625Y24599D01*
X105582Y24605D01*
X105535Y24611D01*
X105485Y24618D01*
X105379Y24639D01*
X105273Y24667D01*
X105167Y24705D01*
X105164D01*
X105154Y24711D01*
X105142Y24717D01*
X105123Y24727D01*
X105098Y24739D01*
X105073Y24752D01*
X105014Y24789D01*
X104945Y24839D01*
X104877Y24895D01*
X104808Y24964D01*
X104749Y25042D01*
X104746Y25045D01*
X104743Y25051D01*
X104736Y25064D01*
X104727Y25079D01*
X104715Y25101D01*
X104702Y25126D01*
X104690Y25154D01*
X104674Y25188D01*
X104658Y25223D01*
X104646Y25260D01*
X104621Y25348D01*
X104599Y25441D01*
X104593Y25491D01*
X104590Y25544D01*
X104995Y25575D01*
Y25572D01*
X104998Y25563D01*
Y25547D01*
X105005Y25525D01*
X105008Y25500D01*
X105017Y25472D01*
X105026Y25441D01*
X105036Y25407D01*
X105064Y25332D01*
X105104Y25257D01*
X105130Y25220D01*
X105154Y25185D01*
X105186Y25151D01*
X105220Y25120D01*
X105223Y25117D01*
X105229Y25114D01*
X105239Y25104D01*
X105254Y25095D01*
X105273Y25082D01*
X105298Y25070D01*
X105326Y25057D01*
X105360Y25042D01*
X105398Y25026D01*
X105438Y25014D01*
X105482Y25001D01*
X105532Y24989D01*
X105588Y24979D01*
X105644Y24970D01*
X105710Y24967D01*
X105775Y24964D01*
X105813D01*
X105838Y24967D01*
X105869D01*
X105906Y24970D01*
X105947Y24976D01*
X105988Y24983D01*
X106081Y24998D01*
X106172Y25023D01*
X106218Y25042D01*
X106259Y25060D01*
X106299Y25082D01*
X106334Y25107D01*
X106337D01*
X106340Y25114D01*
X106362Y25132D01*
X106390Y25163D01*
X106421Y25201D01*
X106452Y25251D01*
X106480Y25310D01*
X106502Y25372D01*
X106505Y25407D01*
X106509Y25444D01*
Y25447D01*
Y25451D01*
Y25460D01*
X106505Y25472D01*
X106502Y25507D01*
X106493Y25544D01*
X106477Y25591D01*
X106459Y25638D01*
X106427Y25684D01*
X106387Y25728D01*
X106384D01*
X106381Y25734D01*
X106371Y25741D01*
X106359Y25747D01*
X106343Y25756D01*
X106321Y25769D01*
X106293Y25784D01*
X106262Y25800D01*
X106221Y25816D01*
X106178Y25834D01*
X106125Y25853D01*
X106065Y25872D01*
X106000Y25894D01*
X105925Y25915D01*
X105841Y25937D01*
X105750Y25959D01*
X105744D01*
X105728Y25965D01*
X105700Y25972D01*
X105666Y25978D01*
X105625Y25987D01*
X105576Y26000D01*
X105523Y26012D01*
X105466Y26028D01*
X105348Y26059D01*
X105232Y26093D01*
X105176Y26112D01*
X105126Y26128D01*
X105079Y26146D01*
X105039Y26162D01*
X105036D01*
X105026Y26168D01*
X105011Y26174D01*
X104992Y26184D01*
X104970Y26196D01*
X104945Y26212D01*
X104883Y26249D01*
X104817Y26296D01*
X104749Y26352D01*
X104683Y26415D01*
X104655Y26449D01*
X104627Y26486D01*
X104624Y26489D01*
X104621Y26496D01*
X104615Y26505D01*
X104605Y26521D01*
X104596Y26539D01*
X104584Y26561D01*
X104571Y26589D01*
X104559Y26617D01*
X104537Y26683D01*
X104515Y26761D01*
X104499Y26848D01*
X104493Y26895D01*
Y26942D01*
Y26945D01*
Y26954D01*
Y26967D01*
X104496Y26986D01*
Y27007D01*
X104499Y27035D01*
X104506Y27064D01*
X104512Y27098D01*
X104527Y27173D01*
X104555Y27254D01*
X104590Y27338D01*
X104615Y27379D01*
X104640Y27422D01*
X104643Y27426D01*
X104646Y27432D01*
X104655Y27444D01*
X104668Y27460D01*
X104683Y27479D01*
X104699Y27500D01*
X104721Y27525D01*
X104746Y27550D01*
X104777Y27578D01*
X104808Y27606D01*
X104842Y27635D01*
X104880Y27666D01*
X104964Y27722D01*
X105061Y27772D01*
X105064D01*
X105073Y27778D01*
X105089Y27784D01*
X105108Y27790D01*
X105136Y27800D01*
X105164Y27812D01*
X105201Y27822D01*
X105239Y27834D01*
X105282Y27847D01*
X105329Y27856D01*
X105382Y27869D01*
X105435Y27878D01*
X105551Y27890D01*
X105675Y27897D01*
X105716D01*
X105747Y27893D01*
D02*
G37*
G36*
X108830D02*
X108873Y27890D01*
X108923Y27884D01*
X108979Y27878D01*
X109042Y27872D01*
X109107Y27859D01*
X109176Y27847D01*
X109245Y27828D01*
X109317Y27809D01*
X109385Y27784D01*
X109457Y27756D01*
X109522Y27725D01*
X109585Y27688D01*
X109588Y27684D01*
X109597Y27678D01*
X109616Y27666D01*
X109638Y27647D01*
X109666Y27628D01*
X109694Y27600D01*
X109728Y27569D01*
X109766Y27532D01*
X109806Y27491D01*
X109847Y27447D01*
X109888Y27397D01*
X109928Y27341D01*
X109966Y27282D01*
X110006Y27220D01*
X110040Y27151D01*
X110075Y27079D01*
X110078Y27073D01*
X110081Y27060D01*
X110090Y27039D01*
X110100Y27011D01*
X110112Y26973D01*
X110128Y26929D01*
X110143Y26880D01*
X110159Y26823D01*
X110175Y26761D01*
X110190Y26695D01*
X110203Y26624D01*
X110218Y26549D01*
X110228Y26471D01*
X110237Y26390D01*
X110240Y26305D01*
X110243Y26221D01*
Y26215D01*
Y26199D01*
Y26171D01*
X110240Y26137D01*
X110237Y26093D01*
X110234Y26043D01*
X110228Y25987D01*
X110218Y25925D01*
X110209Y25859D01*
X110196Y25791D01*
X110181Y25716D01*
X110162Y25644D01*
X110140Y25569D01*
X110115Y25494D01*
X110087Y25422D01*
X110053Y25351D01*
X110050Y25348D01*
X110044Y25335D01*
X110034Y25313D01*
X110019Y25288D01*
X109997Y25257D01*
X109975Y25223D01*
X109947Y25182D01*
X109912Y25139D01*
X109878Y25095D01*
X109838Y25048D01*
X109791Y25001D01*
X109744Y24954D01*
X109691Y24908D01*
X109635Y24864D01*
X109575Y24820D01*
X109510Y24783D01*
X109507Y24780D01*
X109494Y24773D01*
X109476Y24764D01*
X109448Y24752D01*
X109416Y24739D01*
X109376Y24720D01*
X109332Y24705D01*
X109279Y24686D01*
X109226Y24667D01*
X109167Y24652D01*
X109101Y24633D01*
X109033Y24621D01*
X108961Y24608D01*
X108889Y24599D01*
X108811Y24592D01*
X108733Y24589D01*
X108686D01*
X108652Y24592D01*
X108611Y24596D01*
X108565Y24602D01*
X108512Y24611D01*
X108452Y24621D01*
X108393Y24633D01*
X108327Y24649D01*
X108259Y24670D01*
X108193Y24692D01*
X108125Y24720D01*
X108056Y24755D01*
X107991Y24792D01*
X107928Y24836D01*
X107925Y24839D01*
X107913Y24848D01*
X107897Y24861D01*
X107875Y24880D01*
X107847Y24904D01*
X107819Y24936D01*
X107785Y24973D01*
X107747Y25014D01*
X107710Y25060D01*
X107672Y25110D01*
X107635Y25167D01*
X107597Y25229D01*
X107560Y25295D01*
X107526Y25366D01*
X107498Y25441D01*
X107469Y25522D01*
X107888Y25619D01*
Y25616D01*
X107894Y25603D01*
X107900Y25585D01*
X107909Y25563D01*
X107919Y25535D01*
X107934Y25500D01*
X107950Y25466D01*
X107969Y25426D01*
X108016Y25344D01*
X108072Y25260D01*
X108137Y25182D01*
X108175Y25145D01*
X108212Y25114D01*
X108215Y25110D01*
X108221Y25107D01*
X108234Y25098D01*
X108249Y25089D01*
X108271Y25076D01*
X108296Y25064D01*
X108324Y25048D01*
X108359Y25032D01*
X108393Y25017D01*
X108433Y25001D01*
X108477Y24989D01*
X108524Y24976D01*
X108627Y24958D01*
X108683Y24954D01*
X108742Y24951D01*
X108777D01*
X108805Y24954D01*
X108836Y24958D01*
X108873Y24961D01*
X108914Y24967D01*
X108958Y24973D01*
X109057Y24995D01*
X109107Y25008D01*
X109160Y25026D01*
X109210Y25048D01*
X109264Y25070D01*
X109313Y25098D01*
X109360Y25129D01*
X109363Y25132D01*
X109370Y25139D01*
X109382Y25148D01*
X109401Y25160D01*
X109420Y25179D01*
X109444Y25201D01*
X109469Y25226D01*
X109494Y25254D01*
X109526Y25288D01*
X109554Y25323D01*
X109582Y25363D01*
X109610Y25407D01*
X109638Y25451D01*
X109663Y25500D01*
X109685Y25550D01*
X109706Y25607D01*
Y25610D01*
X109710Y25619D01*
X109716Y25635D01*
X109722Y25656D01*
X109728Y25684D01*
X109738Y25716D01*
X109747Y25753D01*
X109756Y25794D01*
X109766Y25837D01*
X109775Y25887D01*
X109791Y25990D01*
X109803Y26103D01*
X109806Y26218D01*
Y26221D01*
Y26237D01*
Y26259D01*
X109803Y26287D01*
Y26321D01*
X109800Y26365D01*
X109797Y26408D01*
X109791Y26461D01*
X109784Y26514D01*
X109778Y26571D01*
X109756Y26692D01*
X109728Y26814D01*
X109688Y26932D01*
Y26936D01*
X109681Y26945D01*
X109675Y26961D01*
X109666Y26982D01*
X109653Y27007D01*
X109638Y27035D01*
X109597Y27101D01*
X109544Y27176D01*
X109482Y27251D01*
X109407Y27323D01*
X109363Y27354D01*
X109320Y27385D01*
X109317Y27388D01*
X109307Y27391D01*
X109295Y27397D01*
X109276Y27407D01*
X109254Y27419D01*
X109226Y27432D01*
X109195Y27444D01*
X109157Y27460D01*
X109120Y27472D01*
X109076Y27488D01*
X108986Y27510D01*
X108883Y27528D01*
X108830Y27532D01*
X108777Y27535D01*
X108742D01*
X108718Y27532D01*
X108686Y27528D01*
X108652Y27525D01*
X108611Y27519D01*
X108568Y27510D01*
X108474Y27485D01*
X108424Y27469D01*
X108371Y27450D01*
X108321Y27426D01*
X108271Y27397D01*
X108221Y27366D01*
X108175Y27332D01*
X108171Y27329D01*
X108165Y27323D01*
X108150Y27310D01*
X108134Y27294D01*
X108115Y27273D01*
X108090Y27244D01*
X108065Y27213D01*
X108040Y27179D01*
X108012Y27138D01*
X107984Y27092D01*
X107956Y27042D01*
X107928Y26989D01*
X107903Y26929D01*
X107881Y26864D01*
X107860Y26795D01*
X107841Y26724D01*
X107416Y26830D01*
Y26836D01*
X107423Y26851D01*
X107432Y26880D01*
X107441Y26914D01*
X107457Y26957D01*
X107476Y27007D01*
X107501Y27064D01*
X107526Y27123D01*
X107557Y27188D01*
X107591Y27254D01*
X107632Y27319D01*
X107675Y27385D01*
X107725Y27450D01*
X107775Y27513D01*
X107834Y27572D01*
X107897Y27625D01*
X107900Y27628D01*
X107913Y27638D01*
X107931Y27650D01*
X107959Y27669D01*
X107994Y27688D01*
X108034Y27709D01*
X108081Y27734D01*
X108131Y27759D01*
X108190Y27787D01*
X108256Y27809D01*
X108324Y27834D01*
X108399Y27853D01*
X108480Y27872D01*
X108562Y27884D01*
X108652Y27893D01*
X108742Y27897D01*
X108792D01*
X108830Y27893D01*
D02*
G37*
G36*
X116225D02*
X116269Y27890D01*
X116319Y27884D01*
X116375Y27878D01*
X116438Y27872D01*
X116503Y27859D01*
X116572Y27847D01*
X116640Y27828D01*
X116712Y27809D01*
X116781Y27784D01*
X116852Y27756D01*
X116918Y27725D01*
X116980Y27688D01*
X116983Y27684D01*
X116993Y27678D01*
X117012Y27666D01*
X117034Y27647D01*
X117062Y27628D01*
X117090Y27600D01*
X117124Y27569D01*
X117161Y27532D01*
X117202Y27491D01*
X117243Y27447D01*
X117283Y27397D01*
X117324Y27341D01*
X117361Y27282D01*
X117402Y27220D01*
X117436Y27151D01*
X117470Y27079D01*
X117473Y27073D01*
X117476Y27060D01*
X117486Y27039D01*
X117495Y27011D01*
X117508Y26973D01*
X117523Y26929D01*
X117539Y26880D01*
X117554Y26823D01*
X117570Y26761D01*
X117586Y26695D01*
X117598Y26624D01*
X117614Y26549D01*
X117623Y26471D01*
X117632Y26390D01*
X117636Y26305D01*
X117639Y26221D01*
Y26215D01*
Y26199D01*
Y26171D01*
X117636Y26137D01*
X117632Y26093D01*
X117629Y26043D01*
X117623Y25987D01*
X117614Y25925D01*
X117604Y25859D01*
X117592Y25791D01*
X117576Y25716D01*
X117558Y25644D01*
X117536Y25569D01*
X117511Y25494D01*
X117483Y25422D01*
X117448Y25351D01*
X117445Y25348D01*
X117439Y25335D01*
X117430Y25313D01*
X117414Y25288D01*
X117392Y25257D01*
X117370Y25223D01*
X117342Y25182D01*
X117308Y25139D01*
X117274Y25095D01*
X117233Y25048D01*
X117186Y25001D01*
X117140Y24954D01*
X117087Y24908D01*
X117030Y24864D01*
X116971Y24820D01*
X116905Y24783D01*
X116902Y24780D01*
X116890Y24773D01*
X116871Y24764D01*
X116843Y24752D01*
X116812Y24739D01*
X116771Y24720D01*
X116728Y24705D01*
X116675Y24686D01*
X116622Y24667D01*
X116562Y24652D01*
X116497Y24633D01*
X116428Y24621D01*
X116356Y24608D01*
X116285Y24599D01*
X116207Y24592D01*
X116129Y24589D01*
X116082D01*
X116048Y24592D01*
X116007Y24596D01*
X115960Y24602D01*
X115907Y24611D01*
X115848Y24621D01*
X115789Y24633D01*
X115723Y24649D01*
X115654Y24670D01*
X115589Y24692D01*
X115520Y24720D01*
X115452Y24755D01*
X115386Y24792D01*
X115324Y24836D01*
X115321Y24839D01*
X115308Y24848D01*
X115293Y24861D01*
X115271Y24880D01*
X115243Y24904D01*
X115215Y24936D01*
X115180Y24973D01*
X115143Y25014D01*
X115105Y25060D01*
X115068Y25110D01*
X115030Y25167D01*
X114993Y25229D01*
X114955Y25295D01*
X114921Y25366D01*
X114893Y25441D01*
X114865Y25522D01*
X115283Y25619D01*
Y25616D01*
X115289Y25603D01*
X115296Y25585D01*
X115305Y25563D01*
X115314Y25535D01*
X115330Y25500D01*
X115346Y25466D01*
X115364Y25426D01*
X115411Y25344D01*
X115467Y25260D01*
X115533Y25182D01*
X115570Y25145D01*
X115608Y25114D01*
X115611Y25110D01*
X115617Y25107D01*
X115629Y25098D01*
X115645Y25089D01*
X115667Y25076D01*
X115692Y25064D01*
X115720Y25048D01*
X115754Y25032D01*
X115789Y25017D01*
X115829Y25001D01*
X115873Y24989D01*
X115920Y24976D01*
X116023Y24958D01*
X116079Y24954D01*
X116138Y24951D01*
X116172D01*
X116200Y24954D01*
X116232Y24958D01*
X116269Y24961D01*
X116310Y24967D01*
X116353Y24973D01*
X116453Y24995D01*
X116503Y25008D01*
X116556Y25026D01*
X116606Y25048D01*
X116659Y25070D01*
X116709Y25098D01*
X116756Y25129D01*
X116759Y25132D01*
X116765Y25139D01*
X116778Y25148D01*
X116796Y25160D01*
X116815Y25179D01*
X116840Y25201D01*
X116865Y25226D01*
X116890Y25254D01*
X116921Y25288D01*
X116949Y25323D01*
X116977Y25363D01*
X117005Y25407D01*
X117034Y25451D01*
X117058Y25500D01*
X117080Y25550D01*
X117102Y25607D01*
Y25610D01*
X117105Y25619D01*
X117112Y25635D01*
X117118Y25656D01*
X117124Y25684D01*
X117133Y25716D01*
X117143Y25753D01*
X117152Y25794D01*
X117161Y25837D01*
X117171Y25887D01*
X117186Y25990D01*
X117199Y26103D01*
X117202Y26218D01*
Y26221D01*
Y26237D01*
Y26259D01*
X117199Y26287D01*
Y26321D01*
X117196Y26365D01*
X117193Y26408D01*
X117186Y26461D01*
X117180Y26514D01*
X117174Y26571D01*
X117152Y26692D01*
X117124Y26814D01*
X117083Y26932D01*
Y26936D01*
X117077Y26945D01*
X117071Y26961D01*
X117062Y26982D01*
X117049Y27007D01*
X117034Y27035D01*
X116993Y27101D01*
X116940Y27176D01*
X116877Y27251D01*
X116803Y27323D01*
X116759Y27354D01*
X116715Y27385D01*
X116712Y27388D01*
X116703Y27391D01*
X116690Y27397D01*
X116672Y27407D01*
X116650Y27419D01*
X116622Y27432D01*
X116590Y27444D01*
X116553Y27460D01*
X116516Y27472D01*
X116472Y27488D01*
X116381Y27510D01*
X116278Y27528D01*
X116225Y27532D01*
X116172Y27535D01*
X116138D01*
X116113Y27532D01*
X116082Y27528D01*
X116048Y27525D01*
X116007Y27519D01*
X115963Y27510D01*
X115870Y27485D01*
X115820Y27469D01*
X115767Y27450D01*
X115717Y27426D01*
X115667Y27397D01*
X115617Y27366D01*
X115570Y27332D01*
X115567Y27329D01*
X115561Y27323D01*
X115545Y27310D01*
X115530Y27294D01*
X115511Y27273D01*
X115486Y27244D01*
X115461Y27213D01*
X115436Y27179D01*
X115408Y27138D01*
X115380Y27092D01*
X115352Y27042D01*
X115324Y26989D01*
X115299Y26929D01*
X115277Y26864D01*
X115255Y26795D01*
X115236Y26724D01*
X114812Y26830D01*
Y26836D01*
X114818Y26851D01*
X114828Y26880D01*
X114837Y26914D01*
X114853Y26957D01*
X114871Y27007D01*
X114896Y27064D01*
X114921Y27123D01*
X114952Y27188D01*
X114987Y27254D01*
X115027Y27319D01*
X115071Y27385D01*
X115121Y27450D01*
X115171Y27513D01*
X115230Y27572D01*
X115293Y27625D01*
X115296Y27628D01*
X115308Y27638D01*
X115327Y27650D01*
X115355Y27669D01*
X115389Y27688D01*
X115430Y27709D01*
X115477Y27734D01*
X115526Y27759D01*
X115586Y27787D01*
X115651Y27809D01*
X115720Y27834D01*
X115795Y27853D01*
X115876Y27872D01*
X115957Y27884D01*
X116048Y27893D01*
X116138Y27897D01*
X116188D01*
X116225Y27893D01*
D02*
G37*
G36*
X120743Y24646D02*
X119548D01*
X119514Y24649D01*
X119473D01*
X119433Y24652D01*
X119339Y24658D01*
X119246Y24664D01*
X119155Y24677D01*
X119111Y24683D01*
X119074Y24692D01*
X119071D01*
X119062Y24696D01*
X119046Y24699D01*
X119027Y24705D01*
X119002Y24711D01*
X118977Y24720D01*
X118946Y24733D01*
X118912Y24745D01*
X118837Y24777D01*
X118759Y24817D01*
X118678Y24864D01*
X118603Y24923D01*
X118600Y24926D01*
X118590Y24933D01*
X118578Y24945D01*
X118562Y24961D01*
X118540Y24983D01*
X118516Y25008D01*
X118491Y25039D01*
X118459Y25070D01*
X118431Y25107D01*
X118400Y25151D01*
X118369Y25195D01*
X118338Y25242D01*
X118306Y25295D01*
X118278Y25351D01*
X118225Y25469D01*
Y25472D01*
X118219Y25485D01*
X118213Y25504D01*
X118207Y25528D01*
X118194Y25560D01*
X118185Y25597D01*
X118172Y25641D01*
X118160Y25688D01*
X118150Y25741D01*
X118138Y25800D01*
X118125Y25862D01*
X118116Y25928D01*
X118110Y26000D01*
X118104Y26071D01*
X118097Y26227D01*
Y26230D01*
Y26243D01*
Y26262D01*
Y26290D01*
X118101Y26321D01*
Y26358D01*
X118104Y26399D01*
X118107Y26446D01*
X118113Y26496D01*
X118119Y26546D01*
X118135Y26655D01*
X118157Y26767D01*
X118185Y26876D01*
Y26880D01*
X118188Y26889D01*
X118194Y26904D01*
X118200Y26923D01*
X118210Y26948D01*
X118219Y26976D01*
X118231Y27007D01*
X118244Y27039D01*
X118275Y27114D01*
X118313Y27191D01*
X118356Y27270D01*
X118403Y27341D01*
Y27344D01*
X118409Y27351D01*
X118416Y27360D01*
X118425Y27372D01*
X118453Y27404D01*
X118487Y27447D01*
X118531Y27494D01*
X118581Y27541D01*
X118634Y27588D01*
X118693Y27631D01*
X118696D01*
X118700Y27635D01*
X118709Y27641D01*
X118721Y27650D01*
X118737Y27656D01*
X118756Y27669D01*
X118799Y27691D01*
X118856Y27716D01*
X118921Y27744D01*
X118996Y27769D01*
X119077Y27790D01*
X119080D01*
X119086Y27794D01*
X119099Y27797D01*
X119118Y27800D01*
X119136Y27803D01*
X119161Y27806D01*
X119193Y27812D01*
X119224Y27815D01*
X119261Y27822D01*
X119299Y27828D01*
X119386Y27834D01*
X119483Y27840D01*
X119589Y27844D01*
X120743D01*
Y24646D01*
D02*
G37*
G36*
X124399Y27893D02*
X124436D01*
X124480Y27890D01*
X124527Y27887D01*
X124580Y27881D01*
X124636Y27875D01*
X124695Y27865D01*
X124817Y27844D01*
X124938Y27812D01*
X124998Y27794D01*
X125054Y27772D01*
X125057Y27769D01*
X125066Y27766D01*
X125082Y27759D01*
X125101Y27747D01*
X125126Y27734D01*
X125157Y27719D01*
X125188Y27700D01*
X125222Y27675D01*
X125294Y27622D01*
X125372Y27556D01*
X125447Y27479D01*
X125516Y27391D01*
X125519Y27388D01*
X125522Y27379D01*
X125531Y27366D01*
X125541Y27347D01*
X125553Y27323D01*
X125569Y27294D01*
X125584Y27260D01*
X125600Y27223D01*
X125616Y27182D01*
X125631Y27138D01*
X125644Y27092D01*
X125659Y27039D01*
X125678Y26929D01*
X125684Y26873D01*
X125687Y26814D01*
X125288Y26780D01*
Y26783D01*
Y26789D01*
X125285Y26801D01*
X125282Y26820D01*
X125278Y26842D01*
X125272Y26864D01*
X125260Y26920D01*
X125244Y26982D01*
X125219Y27048D01*
X125191Y27114D01*
X125157Y27176D01*
Y27179D01*
X125151Y27182D01*
X125138Y27201D01*
X125113Y27229D01*
X125079Y27263D01*
X125035Y27304D01*
X124979Y27344D01*
X124914Y27388D01*
X124839Y27426D01*
X124836D01*
X124829Y27429D01*
X124817Y27435D01*
X124801Y27441D01*
X124779Y27447D01*
X124754Y27454D01*
X124726Y27463D01*
X124695Y27472D01*
X124661Y27482D01*
X124623Y27488D01*
X124539Y27503D01*
X124445Y27516D01*
X124346Y27519D01*
X124305D01*
X124283Y27516D01*
X124258D01*
X124202Y27510D01*
X124137Y27500D01*
X124065Y27488D01*
X123993Y27472D01*
X123921Y27447D01*
X123918D01*
X123912Y27444D01*
X123903Y27441D01*
X123890Y27435D01*
X123856Y27419D01*
X123815Y27394D01*
X123772Y27366D01*
X123725Y27335D01*
X123681Y27294D01*
X123644Y27251D01*
X123641Y27244D01*
X123628Y27229D01*
X123616Y27204D01*
X123597Y27170D01*
X123581Y27129D01*
X123566Y27082D01*
X123556Y27032D01*
X123553Y26976D01*
Y26973D01*
Y26970D01*
Y26951D01*
X123556Y26923D01*
X123563Y26886D01*
X123575Y26845D01*
X123591Y26801D01*
X123612Y26758D01*
X123641Y26714D01*
X123644Y26708D01*
X123656Y26695D01*
X123678Y26674D01*
X123709Y26649D01*
X123750Y26617D01*
X123800Y26586D01*
X123859Y26555D01*
X123931Y26527D01*
X123937Y26524D01*
X123946Y26521D01*
X123959Y26518D01*
X123974Y26511D01*
X123993Y26505D01*
X124018Y26496D01*
X124049Y26486D01*
X124083Y26477D01*
X124124Y26465D01*
X124171Y26452D01*
X124224Y26440D01*
X124283Y26424D01*
X124349Y26408D01*
X124420Y26390D01*
X124498Y26371D01*
X124505D01*
X124517Y26365D01*
X124539Y26362D01*
X124570Y26352D01*
X124605Y26343D01*
X124648Y26333D01*
X124692Y26321D01*
X124742Y26305D01*
X124842Y26274D01*
X124945Y26243D01*
X124995Y26224D01*
X125038Y26206D01*
X125079Y26190D01*
X125116Y26171D01*
X125119D01*
X125126Y26165D01*
X125138Y26159D01*
X125154Y26149D01*
X125172Y26137D01*
X125194Y26124D01*
X125244Y26087D01*
X125300Y26043D01*
X125356Y25993D01*
X125409Y25934D01*
X125456Y25872D01*
Y25869D01*
X125463Y25862D01*
X125466Y25853D01*
X125475Y25840D01*
X125481Y25825D01*
X125491Y25803D01*
X125513Y25756D01*
X125534Y25697D01*
X125550Y25628D01*
X125562Y25554D01*
X125569Y25472D01*
Y25469D01*
Y25463D01*
Y25447D01*
X125566Y25432D01*
Y25410D01*
X125562Y25385D01*
X125556Y25357D01*
X125550Y25326D01*
X125534Y25257D01*
X125509Y25179D01*
X125475Y25101D01*
X125456Y25060D01*
X125431Y25020D01*
X125428Y25017D01*
X125425Y25011D01*
X125416Y24998D01*
X125406Y24986D01*
X125391Y24967D01*
X125375Y24948D01*
X125328Y24901D01*
X125272Y24848D01*
X125204Y24795D01*
X125126Y24742D01*
X125032Y24699D01*
X125029D01*
X125020Y24692D01*
X125004Y24689D01*
X124985Y24680D01*
X124960Y24674D01*
X124932Y24664D01*
X124898Y24655D01*
X124860Y24642D01*
X124817Y24633D01*
X124773Y24624D01*
X124723Y24614D01*
X124673Y24605D01*
X124564Y24592D01*
X124445Y24589D01*
X124411D01*
X124386Y24592D01*
X124355D01*
X124318Y24596D01*
X124277Y24599D01*
X124233Y24605D01*
X124187Y24611D01*
X124137Y24618D01*
X124030Y24639D01*
X123924Y24667D01*
X123818Y24705D01*
X123815D01*
X123806Y24711D01*
X123793Y24717D01*
X123775Y24727D01*
X123750Y24739D01*
X123725Y24752D01*
X123665Y24789D01*
X123597Y24839D01*
X123528Y24895D01*
X123459Y24964D01*
X123400Y25042D01*
X123397Y25045D01*
X123394Y25051D01*
X123388Y25064D01*
X123378Y25079D01*
X123366Y25101D01*
X123354Y25126D01*
X123341Y25154D01*
X123325Y25188D01*
X123310Y25223D01*
X123297Y25260D01*
X123272Y25348D01*
X123250Y25441D01*
X123244Y25491D01*
X123241Y25544D01*
X123647Y25575D01*
Y25572D01*
X123650Y25563D01*
Y25547D01*
X123656Y25525D01*
X123659Y25500D01*
X123669Y25472D01*
X123678Y25441D01*
X123687Y25407D01*
X123715Y25332D01*
X123756Y25257D01*
X123781Y25220D01*
X123806Y25185D01*
X123837Y25151D01*
X123871Y25120D01*
X123874Y25117D01*
X123881Y25114D01*
X123890Y25104D01*
X123906Y25095D01*
X123924Y25082D01*
X123949Y25070D01*
X123977Y25057D01*
X124012Y25042D01*
X124049Y25026D01*
X124090Y25014D01*
X124134Y25001D01*
X124183Y24989D01*
X124240Y24979D01*
X124296Y24970D01*
X124361Y24967D01*
X124427Y24964D01*
X124464D01*
X124489Y24967D01*
X124520D01*
X124558Y24970D01*
X124598Y24976D01*
X124639Y24983D01*
X124732Y24998D01*
X124823Y25023D01*
X124870Y25042D01*
X124910Y25060D01*
X124951Y25082D01*
X124985Y25107D01*
X124988D01*
X124992Y25114D01*
X125013Y25132D01*
X125041Y25163D01*
X125073Y25201D01*
X125104Y25251D01*
X125132Y25310D01*
X125154Y25372D01*
X125157Y25407D01*
X125160Y25444D01*
Y25447D01*
Y25451D01*
Y25460D01*
X125157Y25472D01*
X125154Y25507D01*
X125144Y25544D01*
X125129Y25591D01*
X125110Y25638D01*
X125079Y25684D01*
X125038Y25728D01*
X125035D01*
X125032Y25734D01*
X125023Y25741D01*
X125010Y25747D01*
X124995Y25756D01*
X124973Y25769D01*
X124945Y25784D01*
X124914Y25800D01*
X124873Y25816D01*
X124829Y25834D01*
X124776Y25853D01*
X124717Y25872D01*
X124651Y25894D01*
X124576Y25915D01*
X124492Y25937D01*
X124402Y25959D01*
X124396D01*
X124380Y25965D01*
X124352Y25972D01*
X124318Y25978D01*
X124277Y25987D01*
X124227Y26000D01*
X124174Y26012D01*
X124118Y26028D01*
X123999Y26059D01*
X123884Y26093D01*
X123828Y26112D01*
X123778Y26128D01*
X123731Y26146D01*
X123690Y26162D01*
X123687D01*
X123678Y26168D01*
X123662Y26174D01*
X123644Y26184D01*
X123622Y26196D01*
X123597Y26212D01*
X123534Y26249D01*
X123469Y26296D01*
X123400Y26352D01*
X123335Y26415D01*
X123307Y26449D01*
X123279Y26486D01*
X123275Y26489D01*
X123272Y26496D01*
X123266Y26505D01*
X123257Y26521D01*
X123247Y26539D01*
X123235Y26561D01*
X123222Y26589D01*
X123210Y26617D01*
X123188Y26683D01*
X123166Y26761D01*
X123151Y26848D01*
X123144Y26895D01*
Y26942D01*
Y26945D01*
Y26954D01*
Y26967D01*
X123148Y26986D01*
Y27007D01*
X123151Y27035D01*
X123157Y27064D01*
X123163Y27098D01*
X123179Y27173D01*
X123207Y27254D01*
X123241Y27338D01*
X123266Y27379D01*
X123291Y27422D01*
X123294Y27426D01*
X123297Y27432D01*
X123307Y27444D01*
X123319Y27460D01*
X123335Y27479D01*
X123350Y27500D01*
X123372Y27525D01*
X123397Y27550D01*
X123428Y27578D01*
X123459Y27606D01*
X123494Y27635D01*
X123531Y27666D01*
X123616Y27722D01*
X123712Y27772D01*
X123715D01*
X123725Y27778D01*
X123740Y27784D01*
X123759Y27790D01*
X123787Y27800D01*
X123815Y27812D01*
X123853Y27822D01*
X123890Y27834D01*
X123934Y27847D01*
X123981Y27856D01*
X124034Y27869D01*
X124087Y27878D01*
X124202Y27890D01*
X124327Y27897D01*
X124367D01*
X124399Y27893D01*
D02*
G37*
G36*
X131743Y24646D02*
X130255D01*
X130221Y24649D01*
X130180D01*
X130133Y24652D01*
X130086Y24655D01*
X129980Y24667D01*
X129871Y24683D01*
X129768Y24705D01*
X129721Y24717D01*
X129678Y24733D01*
X129675D01*
X129668Y24736D01*
X129656Y24742D01*
X129640Y24748D01*
X129622Y24761D01*
X129600Y24773D01*
X129550Y24805D01*
X129494Y24845D01*
X129434Y24898D01*
X129375Y24964D01*
X129322Y25039D01*
X129319Y25042D01*
X129316Y25048D01*
X129309Y25060D01*
X129300Y25076D01*
X129291Y25098D01*
X129278Y25123D01*
X129266Y25148D01*
X129253Y25179D01*
X129232Y25251D01*
X129210Y25332D01*
X129194Y25422D01*
X129188Y25469D01*
Y25519D01*
Y25522D01*
Y25535D01*
Y25554D01*
X129191Y25575D01*
X129194Y25607D01*
X129200Y25638D01*
X129207Y25678D01*
X129216Y25719D01*
X129228Y25763D01*
X129241Y25809D01*
X129260Y25856D01*
X129281Y25906D01*
X129306Y25953D01*
X129338Y26003D01*
X129369Y26050D01*
X129409Y26093D01*
X129412Y26096D01*
X129419Y26103D01*
X129431Y26115D01*
X129450Y26131D01*
X129475Y26149D01*
X129503Y26171D01*
X129537Y26193D01*
X129578Y26218D01*
X129622Y26243D01*
X129672Y26268D01*
X129728Y26293D01*
X129790Y26318D01*
X129856Y26340D01*
X129927Y26358D01*
X130005Y26377D01*
X130090Y26390D01*
X130086D01*
X130083Y26393D01*
X130074Y26399D01*
X130061Y26402D01*
X130030Y26421D01*
X129993Y26440D01*
X129952Y26465D01*
X129912Y26489D01*
X129871Y26521D01*
X129834Y26549D01*
X129831Y26552D01*
X129824Y26555D01*
X129815Y26568D01*
X129803Y26580D01*
X129787Y26596D01*
X129768Y26617D01*
X129746Y26639D01*
X129721Y26667D01*
X129668Y26730D01*
X129609Y26801D01*
X129547Y26886D01*
X129484Y26976D01*
X128932Y27844D01*
X129459D01*
X129884Y27179D01*
X129887Y27176D01*
X129893Y27167D01*
X129902Y27151D01*
X129915Y27132D01*
X129930Y27107D01*
X129949Y27079D01*
X129990Y27017D01*
X130040Y26945D01*
X130090Y26873D01*
X130143Y26801D01*
X130164Y26770D01*
X130189Y26739D01*
Y26736D01*
X130196Y26733D01*
X130208Y26714D01*
X130233Y26686D01*
X130261Y26655D01*
X130296Y26621D01*
X130330Y26586D01*
X130367Y26552D01*
X130405Y26527D01*
X130408Y26524D01*
X130420Y26518D01*
X130439Y26505D01*
X130464Y26493D01*
X130492Y26477D01*
X130523Y26465D01*
X130558Y26449D01*
X130595Y26440D01*
X130598D01*
X130607Y26436D01*
X130626Y26433D01*
X130651Y26430D01*
X130682D01*
X130723Y26427D01*
X130773Y26424D01*
X131319D01*
Y27844D01*
X131743D01*
Y24646D01*
D02*
G37*
G36*
X128517D02*
X126205D01*
Y25023D01*
X128093D01*
Y26000D01*
X126324D01*
Y26377D01*
X128093D01*
Y27466D01*
X126130D01*
Y27844D01*
X128517D01*
Y24646D01*
D02*
G37*
G36*
X140343Y24602D02*
X139148D01*
X139114Y24605D01*
X139073D01*
X139033Y24608D01*
X138939Y24614D01*
X138846Y24620D01*
X138755Y24633D01*
X138711Y24639D01*
X138674Y24648D01*
X138671D01*
X138662Y24652D01*
X138646Y24655D01*
X138627Y24661D01*
X138602Y24667D01*
X138577Y24677D01*
X138546Y24689D01*
X138512Y24701D01*
X138437Y24733D01*
X138359Y24773D01*
X138278Y24820D01*
X138203Y24879D01*
X138200Y24882D01*
X138190Y24889D01*
X138178Y24901D01*
X138162Y24917D01*
X138140Y24938D01*
X138116Y24963D01*
X138091Y24995D01*
X138059Y25026D01*
X138031Y25063D01*
X138000Y25107D01*
X137969Y25151D01*
X137938Y25197D01*
X137906Y25251D01*
X137878Y25307D01*
X137825Y25425D01*
Y25428D01*
X137819Y25441D01*
X137813Y25460D01*
X137807Y25484D01*
X137794Y25516D01*
X137785Y25553D01*
X137772Y25597D01*
X137760Y25644D01*
X137750Y25697D01*
X137738Y25756D01*
X137725Y25818D01*
X137716Y25884D01*
X137710Y25956D01*
X137704Y26027D01*
X137697Y26183D01*
Y26186D01*
Y26199D01*
Y26218D01*
Y26246D01*
X137700Y26277D01*
Y26314D01*
X137704Y26355D01*
X137707Y26402D01*
X137713Y26452D01*
X137719Y26502D01*
X137735Y26611D01*
X137757Y26723D01*
X137785Y26832D01*
Y26836D01*
X137788Y26845D01*
X137794Y26860D01*
X137800Y26879D01*
X137810Y26904D01*
X137819Y26932D01*
X137831Y26963D01*
X137844Y26995D01*
X137875Y27070D01*
X137913Y27147D01*
X137956Y27226D01*
X138003Y27297D01*
Y27300D01*
X138009Y27307D01*
X138016Y27316D01*
X138025Y27329D01*
X138053Y27360D01*
X138087Y27403D01*
X138131Y27450D01*
X138181Y27497D01*
X138234Y27544D01*
X138293Y27587D01*
X138296D01*
X138300Y27591D01*
X138309Y27597D01*
X138321Y27606D01*
X138337Y27612D01*
X138356Y27625D01*
X138399Y27647D01*
X138455Y27672D01*
X138521Y27700D01*
X138596Y27725D01*
X138677Y27746D01*
X138680D01*
X138686Y27750D01*
X138699Y27753D01*
X138718Y27756D01*
X138736Y27759D01*
X138761Y27762D01*
X138793Y27768D01*
X138824Y27771D01*
X138861Y27778D01*
X138899Y27784D01*
X138986Y27790D01*
X139083Y27797D01*
X139189Y27800D01*
X140343D01*
Y24602D01*
D02*
G37*
G36*
X136190Y25300D02*
X136194D01*
X136197Y25307D01*
X136206Y25313D01*
X136215Y25322D01*
X136247Y25350D01*
X136290Y25385D01*
X136343Y25425D01*
X136409Y25472D01*
X136484Y25522D01*
X136565Y25572D01*
X136568D01*
X136574Y25578D01*
X136587Y25584D01*
X136602Y25594D01*
X136624Y25606D01*
X136646Y25619D01*
X136702Y25647D01*
X136765Y25678D01*
X136833Y25712D01*
X136905Y25743D01*
X136974Y25772D01*
Y25394D01*
X136970Y25391D01*
X136958Y25388D01*
X136942Y25379D01*
X136917Y25366D01*
X136889Y25350D01*
X136858Y25332D01*
X136821Y25313D01*
X136780Y25288D01*
X136690Y25235D01*
X136593Y25169D01*
X136496Y25098D01*
X136399Y25020D01*
X136396Y25016D01*
X136390Y25010D01*
X136374Y24998D01*
X136359Y24982D01*
X136340Y24960D01*
X136315Y24938D01*
X136290Y24911D01*
X136262Y24882D01*
X136206Y24817D01*
X136150Y24745D01*
X136097Y24667D01*
X136072Y24630D01*
X136053Y24589D01*
X135797D01*
Y27800D01*
X136190D01*
Y25300D01*
D02*
G37*
G36*
X150743Y27801D02*
X150687Y24604D01*
X149493Y24625D01*
X149458Y24629D01*
X149418Y24629D01*
X149377Y24633D01*
X149284Y24641D01*
X149190Y24649D01*
X149100Y24663D01*
X149056Y24670D01*
X149019Y24680D01*
X149016Y24680D01*
X149007Y24683D01*
X148991Y24687D01*
X148973Y24693D01*
X148948Y24700D01*
X148923Y24710D01*
X148892Y24723D01*
X148858Y24736D01*
X148784Y24768D01*
X148706Y24810D01*
X148626Y24858D01*
X148552Y24919D01*
X148549Y24922D01*
X148540Y24928D01*
X148528Y24941D01*
X148512Y24957D01*
X148491Y24979D01*
X148466Y25005D01*
X148442Y25036D01*
X148411Y25068D01*
X148384Y25106D01*
X148353Y25150D01*
X148323Y25194D01*
X148293Y25242D01*
X148262Y25295D01*
X148235Y25352D01*
X148184Y25471D01*
X148184Y25475D01*
X148178Y25487D01*
X148172Y25506D01*
X148167Y25531D01*
X148155Y25563D01*
X148146Y25600D01*
X148134Y25644D01*
X148123Y25691D01*
X148114Y25744D01*
X148103Y25804D01*
X148091Y25866D01*
X148083Y25932D01*
X148078Y26004D01*
X148073Y26076D01*
X148070Y26232D01*
X148070Y26235D01*
X148070Y26247D01*
X148070Y26266D01*
X148071Y26294D01*
X148074Y26325D01*
X148075Y26363D01*
X148079Y26403D01*
X148083Y26450D01*
X148090Y26500D01*
X148097Y26550D01*
X148115Y26658D01*
X148138Y26770D01*
X148168Y26879D01*
X148168Y26882D01*
X148172Y26891D01*
X148178Y26907D01*
X148185Y26926D01*
X148195Y26950D01*
X148204Y26978D01*
X148217Y27009D01*
X148230Y27040D01*
X148263Y27115D01*
X148302Y27192D01*
X148347Y27269D01*
X148395Y27340D01*
X148395Y27343D01*
X148401Y27349D01*
X148408Y27359D01*
X148417Y27371D01*
X148446Y27402D01*
X148481Y27445D01*
X148525Y27491D01*
X148576Y27537D01*
X148630Y27582D01*
X148690Y27625D01*
X148693Y27625D01*
X148696Y27628D01*
X148706Y27634D01*
X148718Y27643D01*
X148734Y27649D01*
X148753Y27661D01*
X148797Y27683D01*
X148854Y27707D01*
X148920Y27733D01*
X148995Y27757D01*
X149076Y27777D01*
X149080Y27777D01*
X149086Y27781D01*
X149098Y27783D01*
X149117Y27786D01*
X149136Y27789D01*
X149161Y27792D01*
X149192Y27797D01*
X149223Y27800D01*
X149261Y27806D01*
X149299Y27811D01*
X149386Y27816D01*
X149483Y27820D01*
X149589Y27822D01*
X150743Y27801D01*
D02*
G37*
G36*
X146658Y27926D02*
X146679Y27922D01*
X146714Y27919D01*
X146751Y27915D01*
X146798Y27905D01*
X146847Y27894D01*
X146900Y27881D01*
X146956Y27861D01*
X147015Y27839D01*
X147077Y27812D01*
X147135Y27780D01*
X147194Y27742D01*
X147253Y27697D01*
X147308Y27643D01*
X147357Y27586D01*
X147360Y27580D01*
X147369Y27567D01*
X147384Y27542D01*
X147405Y27507D01*
X147426Y27463D01*
X147454Y27409D01*
X147480Y27343D01*
X147507Y27268D01*
X147537Y27183D01*
X147563Y27086D01*
X147590Y26980D01*
X147609Y26864D01*
X147629Y26733D01*
X147642Y26595D01*
X147649Y26442D01*
X147649Y26280D01*
X147649Y26276D01*
X147649Y26273D01*
X147649Y26255D01*
X147648Y26223D01*
X147644Y26186D01*
X147644Y26136D01*
X147640Y26083D01*
X147635Y26021D01*
X147628Y25952D01*
X147620Y25881D01*
X147613Y25806D01*
X147588Y25657D01*
X147558Y25504D01*
X147538Y25436D01*
X147518Y25368D01*
X147518Y25365D01*
X147511Y25352D01*
X147505Y25333D01*
X147495Y25312D01*
X147482Y25281D01*
X147466Y25250D01*
X147450Y25213D01*
X147427Y25173D01*
X147379Y25086D01*
X147318Y25000D01*
X147245Y24917D01*
X147203Y24877D01*
X147162Y24840D01*
X147159Y24837D01*
X147153Y24831D01*
X147137Y24822D01*
X147121Y24813D01*
X147096Y24798D01*
X147071Y24782D01*
X147036Y24768D01*
X147002Y24749D01*
X146961Y24731D01*
X146917Y24717D01*
X146870Y24702D01*
X146816Y24687D01*
X146763Y24679D01*
X146704Y24670D01*
X146644Y24665D01*
X146579Y24663D01*
X146535Y24664D01*
X146513Y24667D01*
X146488Y24671D01*
X146457Y24675D01*
X146426Y24678D01*
X146358Y24692D01*
X146283Y24712D01*
X146206Y24742D01*
X146131Y24777D01*
X146128Y24777D01*
X146122Y24783D01*
X146113Y24787D01*
X146097Y24796D01*
X146063Y24822D01*
X146017Y24854D01*
X145968Y24899D01*
X145916Y24949D01*
X145864Y25013D01*
X145815Y25082D01*
X145815Y25085D01*
X145809Y25092D01*
X145803Y25101D01*
X145794Y25117D01*
X145785Y25136D01*
X145773Y25158D01*
X145761Y25186D01*
X145746Y25214D01*
X145731Y25249D01*
X145716Y25284D01*
X145686Y25365D01*
X145653Y25460D01*
X145627Y25560D01*
X145627Y25563D01*
X145624Y25572D01*
X145621Y25588D01*
X145615Y25610D01*
X145610Y25638D01*
X145604Y25673D01*
X145598Y25713D01*
X145593Y25760D01*
X145588Y25810D01*
X145582Y25870D01*
X145577Y25929D01*
X145572Y25998D01*
X145567Y26070D01*
X145565Y26147D01*
X145564Y26229D01*
X145565Y26316D01*
X145565Y26322D01*
X145566Y26341D01*
X145566Y26369D01*
X145570Y26410D01*
X145571Y26456D01*
X145575Y26512D01*
X145579Y26572D01*
X145587Y26640D01*
X145594Y26712D01*
X145602Y26783D01*
X145626Y26936D01*
X145657Y27085D01*
X145677Y27154D01*
X145700Y27222D01*
X145700Y27225D01*
X145706Y27237D01*
X145713Y27256D01*
X145723Y27277D01*
X145736Y27308D01*
X145752Y27339D01*
X145768Y27376D01*
X145791Y27417D01*
X145839Y27500D01*
X145900Y27590D01*
X145973Y27672D01*
X146014Y27712D01*
X146055Y27749D01*
X146058Y27752D01*
X146065Y27758D01*
X146078Y27768D01*
X146096Y27777D01*
X146118Y27792D01*
X146147Y27807D01*
X146178Y27822D01*
X146213Y27840D01*
X146254Y27858D01*
X146298Y27873D01*
X146345Y27888D01*
X146398Y27902D01*
X146451Y27911D01*
X146511Y27919D01*
X146570Y27924D01*
X146636Y27926D01*
X146658Y27926D01*
D02*
G37*
G36*
X160370Y27852D02*
X160398D01*
X160435Y27849D01*
X160476Y27843D01*
X160523Y27833D01*
X160576Y27824D01*
X160629Y27811D01*
X160685Y27793D01*
X160744Y27774D01*
X160800Y27749D01*
X160860Y27721D01*
X160919Y27687D01*
X160975Y27649D01*
X161028Y27605D01*
X161031Y27602D01*
X161040Y27593D01*
X161053Y27580D01*
X161072Y27559D01*
X161094Y27534D01*
X161118Y27506D01*
X161144Y27471D01*
X161172Y27431D01*
X161200Y27387D01*
X161228Y27337D01*
X161253Y27284D01*
X161278Y27225D01*
X161300Y27162D01*
X161318Y27097D01*
X161334Y27028D01*
X161343Y26953D01*
X160950Y26900D01*
Y26903D01*
X160947Y26916D01*
X160944Y26932D01*
X160938Y26956D01*
X160931Y26981D01*
X160922Y27016D01*
X160909Y27050D01*
X160897Y27088D01*
X160866Y27165D01*
X160825Y27247D01*
X160778Y27321D01*
X160750Y27353D01*
X160722Y27384D01*
X160719D01*
X160716Y27390D01*
X160707Y27396D01*
X160694Y27406D01*
X160679Y27418D01*
X160660Y27431D01*
X160613Y27456D01*
X160554Y27484D01*
X160485Y27509D01*
X160410Y27524D01*
X160370Y27527D01*
X160326Y27531D01*
X160298D01*
X160279Y27527D01*
X160254Y27524D01*
X160229Y27521D01*
X160198Y27515D01*
X160164Y27506D01*
X160089Y27484D01*
X160052Y27468D01*
X160011Y27449D01*
X159970Y27428D01*
X159933Y27403D01*
X159896Y27375D01*
X159858Y27340D01*
X159855Y27337D01*
X159849Y27331D01*
X159839Y27321D01*
X159827Y27306D01*
X159814Y27287D01*
X159799Y27265D01*
X159780Y27240D01*
X159761Y27209D01*
X159746Y27178D01*
X159727Y27141D01*
X159696Y27059D01*
X159686Y27016D01*
X159677Y26969D01*
X159671Y26919D01*
X159668Y26866D01*
Y26863D01*
Y26853D01*
Y26841D01*
X159671Y26819D01*
X159674Y26797D01*
X159677Y26769D01*
X159683Y26741D01*
X159690Y26707D01*
X159711Y26638D01*
X159724Y26601D01*
X159743Y26563D01*
X159764Y26526D01*
X159786Y26489D01*
X159814Y26454D01*
X159846Y26420D01*
X159849Y26417D01*
X159855Y26414D01*
X159864Y26404D01*
X159877Y26392D01*
X159896Y26379D01*
X159917Y26364D01*
X159939Y26348D01*
X159967Y26333D01*
X159998Y26317D01*
X160033Y26301D01*
X160111Y26273D01*
X160198Y26251D01*
X160245Y26248D01*
X160295Y26245D01*
X160314D01*
X160338Y26248D01*
X160370Y26251D01*
X160410Y26254D01*
X160457Y26261D01*
X160510Y26273D01*
X160569Y26286D01*
X160526Y25943D01*
X160520D01*
X160504Y25946D01*
X160482Y25949D01*
X160438D01*
X160420Y25946D01*
X160398D01*
X160373Y25943D01*
X160345Y25936D01*
X160314Y25933D01*
X160242Y25918D01*
X160167Y25892D01*
X160089Y25861D01*
X160011Y25818D01*
X160008Y25815D01*
X160002Y25811D01*
X159992Y25805D01*
X159980Y25793D01*
X159964Y25780D01*
X159945Y25762D01*
X159930Y25743D01*
X159908Y25718D01*
X159889Y25693D01*
X159874Y25662D01*
X159855Y25627D01*
X159839Y25593D01*
X159827Y25552D01*
X159818Y25509D01*
X159811Y25465D01*
X159808Y25415D01*
Y25412D01*
Y25406D01*
Y25393D01*
X159811Y25378D01*
Y25359D01*
X159814Y25337D01*
X159827Y25287D01*
X159842Y25231D01*
X159871Y25172D01*
X159905Y25113D01*
X159930Y25084D01*
X159955Y25056D01*
X159958Y25053D01*
X159961Y25050D01*
X159970Y25044D01*
X159980Y25034D01*
X160014Y25010D01*
X160058Y24985D01*
X160111Y24960D01*
X160176Y24935D01*
X160251Y24919D01*
X160289Y24913D01*
X160354D01*
X160370Y24916D01*
X160392D01*
X160413Y24919D01*
X160466Y24932D01*
X160529Y24947D01*
X160591Y24975D01*
X160657Y25010D01*
X160688Y25034D01*
X160716Y25060D01*
X160719Y25063D01*
X160722Y25066D01*
X160732Y25075D01*
X160741Y25088D01*
X160754Y25100D01*
X160766Y25119D01*
X160782Y25141D01*
X160797Y25166D01*
X160813Y25197D01*
X160831Y25228D01*
X160847Y25262D01*
X160863Y25303D01*
X160875Y25343D01*
X160891Y25390D01*
X160900Y25437D01*
X160909Y25490D01*
X161303Y25421D01*
Y25418D01*
X161300Y25403D01*
X161293Y25384D01*
X161287Y25356D01*
X161278Y25325D01*
X161265Y25284D01*
X161253Y25244D01*
X161234Y25197D01*
X161215Y25150D01*
X161190Y25100D01*
X161165Y25047D01*
X161134Y24997D01*
X161103Y24947D01*
X161065Y24897D01*
X161022Y24854D01*
X160978Y24810D01*
X160975Y24807D01*
X160966Y24801D01*
X160953Y24791D01*
X160931Y24776D01*
X160906Y24760D01*
X160878Y24741D01*
X160841Y24719D01*
X160803Y24701D01*
X160760Y24679D01*
X160710Y24660D01*
X160657Y24641D01*
X160601Y24626D01*
X160541Y24610D01*
X160479Y24601D01*
X160410Y24595D01*
X160342Y24591D01*
X160317D01*
X160298Y24595D01*
X160273D01*
X160248Y24598D01*
X160217Y24601D01*
X160182Y24604D01*
X160108Y24620D01*
X160030Y24638D01*
X159945Y24666D01*
X159861Y24704D01*
X159858D01*
X159852Y24710D01*
X159839Y24716D01*
X159824Y24726D01*
X159805Y24735D01*
X159786Y24751D01*
X159736Y24785D01*
X159680Y24829D01*
X159624Y24882D01*
X159571Y24944D01*
X159524Y25013D01*
Y25016D01*
X159518Y25022D01*
X159512Y25031D01*
X159505Y25047D01*
X159496Y25063D01*
X159487Y25084D01*
X159465Y25137D01*
X159443Y25197D01*
X159424Y25269D01*
X159412Y25343D01*
X159406Y25425D01*
Y25428D01*
Y25434D01*
Y25443D01*
X159409Y25459D01*
Y25478D01*
X159412Y25499D01*
X159418Y25549D01*
X159434Y25609D01*
X159452Y25671D01*
X159481Y25736D01*
X159518Y25802D01*
Y25805D01*
X159524Y25808D01*
X159530Y25818D01*
X159540Y25830D01*
X159565Y25861D01*
X159602Y25899D01*
X159649Y25943D01*
X159705Y25986D01*
X159771Y26030D01*
X159849Y26070D01*
X159846D01*
X159836Y26074D01*
X159821Y26077D01*
X159802Y26083D01*
X159777Y26092D01*
X159752Y26102D01*
X159686Y26130D01*
X159618Y26164D01*
X159543Y26214D01*
X159471Y26270D01*
X159440Y26304D01*
X159409Y26342D01*
X159406Y26345D01*
X159403Y26351D01*
X159393Y26364D01*
X159384Y26379D01*
X159371Y26398D01*
X159359Y26423D01*
X159343Y26451D01*
X159328Y26482D01*
X159315Y26520D01*
X159300Y26557D01*
X159287Y26601D01*
X159275Y26645D01*
X159256Y26744D01*
X159253Y26801D01*
X159250Y26857D01*
Y26860D01*
Y26875D01*
X159253Y26897D01*
Y26925D01*
X159259Y26963D01*
X159265Y27003D01*
X159275Y27050D01*
X159287Y27103D01*
X159303Y27156D01*
X159325Y27212D01*
X159350Y27272D01*
X159378Y27331D01*
X159415Y27390D01*
X159456Y27452D01*
X159502Y27509D01*
X159555Y27565D01*
X159558Y27568D01*
X159568Y27577D01*
X159587Y27593D01*
X159612Y27608D01*
X159640Y27634D01*
X159677Y27655D01*
X159718Y27683D01*
X159768Y27708D01*
X159821Y27736D01*
X159880Y27764D01*
X159942Y27786D01*
X160011Y27808D01*
X160083Y27827D01*
X160161Y27843D01*
X160242Y27852D01*
X160329Y27855D01*
X160348D01*
X160370Y27852D01*
D02*
G37*
G36*
X154907D02*
X154935D01*
X154972Y27849D01*
X155013Y27843D01*
X155060Y27833D01*
X155113Y27824D01*
X155166Y27811D01*
X155222Y27793D01*
X155281Y27774D01*
X155337Y27749D01*
X155396Y27721D01*
X155456Y27687D01*
X155512Y27649D01*
X155565Y27605D01*
X155568Y27602D01*
X155577Y27593D01*
X155590Y27580D01*
X155609Y27559D01*
X155630Y27534D01*
X155655Y27506D01*
X155680Y27471D01*
X155708Y27431D01*
X155736Y27387D01*
X155765Y27337D01*
X155790Y27284D01*
X155815Y27225D01*
X155836Y27162D01*
X155855Y27097D01*
X155871Y27028D01*
X155880Y26953D01*
X155487Y26900D01*
Y26903D01*
X155484Y26916D01*
X155481Y26932D01*
X155474Y26956D01*
X155468Y26981D01*
X155459Y27016D01*
X155446Y27050D01*
X155434Y27088D01*
X155403Y27165D01*
X155362Y27247D01*
X155315Y27321D01*
X155287Y27353D01*
X155259Y27384D01*
X155256D01*
X155253Y27390D01*
X155244Y27396D01*
X155231Y27406D01*
X155216Y27418D01*
X155197Y27431D01*
X155150Y27456D01*
X155091Y27484D01*
X155022Y27509D01*
X154947Y27524D01*
X154907Y27527D01*
X154863Y27531D01*
X154835D01*
X154816Y27527D01*
X154791Y27524D01*
X154766Y27521D01*
X154735Y27515D01*
X154701Y27506D01*
X154626Y27484D01*
X154588Y27468D01*
X154548Y27449D01*
X154507Y27428D01*
X154470Y27403D01*
X154432Y27375D01*
X154395Y27340D01*
X154392Y27337D01*
X154385Y27331D01*
X154376Y27321D01*
X154364Y27306D01*
X154351Y27287D01*
X154336Y27265D01*
X154317Y27240D01*
X154298Y27209D01*
X154283Y27178D01*
X154264Y27141D01*
X154233Y27059D01*
X154223Y27016D01*
X154214Y26969D01*
X154208Y26919D01*
X154205Y26866D01*
Y26863D01*
Y26853D01*
Y26841D01*
X154208Y26819D01*
X154211Y26797D01*
X154214Y26769D01*
X154220Y26741D01*
X154226Y26707D01*
X154248Y26638D01*
X154261Y26601D01*
X154279Y26563D01*
X154301Y26526D01*
X154323Y26489D01*
X154351Y26454D01*
X154382Y26420D01*
X154385Y26417D01*
X154392Y26414D01*
X154401Y26404D01*
X154414Y26392D01*
X154432Y26379D01*
X154454Y26364D01*
X154476Y26348D01*
X154504Y26333D01*
X154535Y26317D01*
X154570Y26301D01*
X154648Y26273D01*
X154735Y26251D01*
X154782Y26248D01*
X154832Y26245D01*
X154850D01*
X154875Y26248D01*
X154907Y26251D01*
X154947Y26254D01*
X154994Y26261D01*
X155047Y26273D01*
X155106Y26286D01*
X155063Y25943D01*
X155056D01*
X155041Y25946D01*
X155019Y25949D01*
X154975D01*
X154956Y25946D01*
X154935D01*
X154910Y25943D01*
X154882Y25936D01*
X154850Y25933D01*
X154779Y25918D01*
X154704Y25892D01*
X154626Y25861D01*
X154548Y25818D01*
X154545Y25815D01*
X154538Y25811D01*
X154529Y25805D01*
X154517Y25793D01*
X154501Y25780D01*
X154482Y25762D01*
X154467Y25743D01*
X154445Y25718D01*
X154426Y25693D01*
X154411Y25662D01*
X154392Y25627D01*
X154376Y25593D01*
X154364Y25552D01*
X154354Y25509D01*
X154348Y25465D01*
X154345Y25415D01*
Y25412D01*
Y25406D01*
Y25393D01*
X154348Y25378D01*
Y25359D01*
X154351Y25337D01*
X154364Y25287D01*
X154379Y25231D01*
X154407Y25172D01*
X154442Y25113D01*
X154467Y25084D01*
X154492Y25056D01*
X154495Y25053D01*
X154498Y25050D01*
X154507Y25044D01*
X154517Y25034D01*
X154551Y25010D01*
X154595Y24985D01*
X154648Y24960D01*
X154713Y24935D01*
X154788Y24919D01*
X154825Y24913D01*
X154891D01*
X154907Y24916D01*
X154928D01*
X154950Y24919D01*
X155003Y24932D01*
X155066Y24947D01*
X155128Y24975D01*
X155194Y25010D01*
X155225Y25034D01*
X155253Y25060D01*
X155256Y25063D01*
X155259Y25066D01*
X155269Y25075D01*
X155278Y25088D01*
X155290Y25100D01*
X155303Y25119D01*
X155318Y25141D01*
X155334Y25166D01*
X155350Y25197D01*
X155368Y25228D01*
X155384Y25262D01*
X155400Y25303D01*
X155412Y25343D01*
X155428Y25390D01*
X155437Y25437D01*
X155446Y25490D01*
X155840Y25421D01*
Y25418D01*
X155836Y25403D01*
X155830Y25384D01*
X155824Y25356D01*
X155815Y25325D01*
X155802Y25284D01*
X155790Y25244D01*
X155771Y25197D01*
X155752Y25150D01*
X155727Y25100D01*
X155702Y25047D01*
X155671Y24997D01*
X155640Y24947D01*
X155602Y24897D01*
X155559Y24854D01*
X155515Y24810D01*
X155512Y24807D01*
X155502Y24801D01*
X155490Y24791D01*
X155468Y24776D01*
X155443Y24760D01*
X155415Y24741D01*
X155378Y24719D01*
X155340Y24701D01*
X155297Y24679D01*
X155247Y24660D01*
X155194Y24641D01*
X155138Y24626D01*
X155078Y24610D01*
X155016Y24601D01*
X154947Y24595D01*
X154878Y24591D01*
X154853D01*
X154835Y24595D01*
X154810D01*
X154785Y24598D01*
X154754Y24601D01*
X154719Y24604D01*
X154645Y24620D01*
X154567Y24638D01*
X154482Y24666D01*
X154398Y24704D01*
X154395D01*
X154389Y24710D01*
X154376Y24716D01*
X154361Y24726D01*
X154342Y24735D01*
X154323Y24751D01*
X154273Y24785D01*
X154217Y24829D01*
X154161Y24882D01*
X154108Y24944D01*
X154061Y25013D01*
Y25016D01*
X154055Y25022D01*
X154049Y25031D01*
X154042Y25047D01*
X154033Y25063D01*
X154024Y25084D01*
X154002Y25137D01*
X153980Y25197D01*
X153961Y25269D01*
X153949Y25343D01*
X153943Y25425D01*
Y25428D01*
Y25434D01*
Y25443D01*
X153946Y25459D01*
Y25478D01*
X153949Y25499D01*
X153955Y25549D01*
X153971Y25609D01*
X153989Y25671D01*
X154017Y25736D01*
X154055Y25802D01*
Y25805D01*
X154061Y25808D01*
X154067Y25818D01*
X154077Y25830D01*
X154102Y25861D01*
X154139Y25899D01*
X154186Y25943D01*
X154242Y25986D01*
X154307Y26030D01*
X154385Y26070D01*
X154382D01*
X154373Y26074D01*
X154358Y26077D01*
X154339Y26083D01*
X154314Y26092D01*
X154289Y26102D01*
X154223Y26130D01*
X154155Y26164D01*
X154080Y26214D01*
X154008Y26270D01*
X153977Y26304D01*
X153946Y26342D01*
X153943Y26345D01*
X153939Y26351D01*
X153930Y26364D01*
X153921Y26379D01*
X153908Y26398D01*
X153896Y26423D01*
X153880Y26451D01*
X153865Y26482D01*
X153852Y26520D01*
X153836Y26557D01*
X153824Y26601D01*
X153812Y26645D01*
X153793Y26744D01*
X153790Y26801D01*
X153787Y26857D01*
Y26860D01*
Y26875D01*
X153790Y26897D01*
Y26925D01*
X153796Y26963D01*
X153802Y27003D01*
X153812Y27050D01*
X153824Y27103D01*
X153840Y27156D01*
X153861Y27212D01*
X153886Y27272D01*
X153914Y27331D01*
X153952Y27390D01*
X153992Y27452D01*
X154039Y27509D01*
X154092Y27565D01*
X154095Y27568D01*
X154105Y27577D01*
X154123Y27593D01*
X154148Y27608D01*
X154176Y27634D01*
X154214Y27655D01*
X154254Y27683D01*
X154304Y27708D01*
X154358Y27736D01*
X154417Y27764D01*
X154479Y27786D01*
X154548Y27808D01*
X154620Y27827D01*
X154698Y27843D01*
X154779Y27852D01*
X154866Y27855D01*
X154885D01*
X154907Y27852D01*
D02*
G37*
G36*
X159028Y24604D02*
X158570D01*
X157740Y26928D01*
Y26932D01*
X157736Y26941D01*
X157730Y26956D01*
X157724Y26975D01*
X157715Y27000D01*
X157705Y27031D01*
X157693Y27062D01*
X157680Y27100D01*
X157655Y27181D01*
X157627Y27268D01*
X157599Y27359D01*
X157571Y27452D01*
Y27449D01*
X157568Y27440D01*
X157565Y27428D01*
X157559Y27409D01*
X157549Y27384D01*
X157543Y27356D01*
X157534Y27325D01*
X157521Y27287D01*
X157496Y27209D01*
X157468Y27122D01*
X157434Y27025D01*
X157399Y26928D01*
X156532Y24604D01*
X156102D01*
X157353Y27802D01*
X157793D01*
X159028Y24604D01*
D02*
G37*
G36*
X170065Y24748D02*
X169631Y24740D01*
X167906Y27222D01*
X167950Y24711D01*
X167544Y24704D01*
X167488Y27902D01*
X167925Y27909D01*
X169647Y25430D01*
X169604Y27939D01*
X170009Y27946D01*
X170065Y24748D01*
D02*
G37*
G36*
X172033Y28031D02*
X172076Y28028D01*
X172123Y28026D01*
X172179Y28021D01*
X172239Y28013D01*
X172305Y28004D01*
X172370Y27990D01*
X172442Y27975D01*
X172518Y27958D01*
X172593Y27938D01*
X172668Y27911D01*
X172741Y27881D01*
X172816Y27848D01*
X172819Y27845D01*
X172832Y27839D01*
X172854Y27827D01*
X172879Y27812D01*
X172911Y27790D01*
X172949Y27766D01*
X172990Y27735D01*
X173034Y27702D01*
X173081Y27665D01*
X173129Y27622D01*
X173180Y27573D01*
X173227Y27524D01*
X173275Y27469D01*
X173323Y27407D01*
X173365Y27343D01*
X173406Y27275D01*
X173410Y27272D01*
X173416Y27256D01*
X173426Y27238D01*
X173439Y27207D01*
X173452Y27172D01*
X173471Y27129D01*
X173488Y27079D01*
X173507Y27027D01*
X173527Y26965D01*
X173544Y26899D01*
X173564Y26828D01*
X173578Y26753D01*
X173592Y26676D01*
X173602Y26595D01*
X173610Y26511D01*
X173615Y26423D01*
X173615Y26417D01*
X173615Y26401D01*
X173616Y26377D01*
X173613Y26345D01*
X173611Y26302D01*
X173608Y26255D01*
X173603Y26198D01*
X173595Y26139D01*
X173587Y26073D01*
X173575Y26004D01*
X173561Y25932D01*
X173544Y25857D01*
X173523Y25782D01*
X173496Y25703D01*
X173469Y25628D01*
X173437Y25550D01*
X173433Y25543D01*
X173427Y25531D01*
X173415Y25512D01*
X173400Y25483D01*
X173382Y25449D01*
X173358Y25411D01*
X173330Y25367D01*
X173297Y25319D01*
X173260Y25272D01*
X173218Y25221D01*
X173175Y25170D01*
X173123Y25120D01*
X173071Y25069D01*
X173012Y25021D01*
X172950Y24979D01*
X172886Y24938D01*
X172882Y24935D01*
X172870Y24928D01*
X172848Y24918D01*
X172821Y24905D01*
X172786Y24889D01*
X172746Y24873D01*
X172697Y24853D01*
X172644Y24834D01*
X172585Y24817D01*
X172520Y24797D01*
X172451Y24780D01*
X172377Y24763D01*
X172299Y24750D01*
X172218Y24739D01*
X172131Y24731D01*
X172044Y24726D01*
X172009Y24726D01*
X171984Y24728D01*
X171956Y24728D01*
X171919Y24731D01*
X171878Y24733D01*
X171834Y24738D01*
X171787Y24744D01*
X171737Y24749D01*
X171634Y24769D01*
X171524Y24795D01*
X171418Y24831D01*
X171415Y24831D01*
X171405Y24837D01*
X171389Y24843D01*
X171370Y24852D01*
X171349Y24861D01*
X171320Y24876D01*
X171257Y24909D01*
X171185Y24952D01*
X171112Y25003D01*
X171039Y25065D01*
X170972Y25135D01*
X170969Y25138D01*
X170966Y25144D01*
X170956Y25157D01*
X170944Y25172D01*
X170931Y25191D01*
X170915Y25215D01*
X170899Y25243D01*
X170879Y25274D01*
X170857Y25308D01*
X170838Y25348D01*
X170818Y25392D01*
X170796Y25438D01*
X170776Y25488D01*
X170756Y25540D01*
X170737Y25596D01*
X170720Y25655D01*
X171099Y25765D01*
X171099Y25762D01*
X171102Y25755D01*
X171105Y25740D01*
X171112Y25724D01*
X171118Y25706D01*
X171128Y25681D01*
X171151Y25625D01*
X171177Y25566D01*
X171209Y25501D01*
X171245Y25440D01*
X171286Y25384D01*
X171286Y25381D01*
X171293Y25378D01*
X171305Y25363D01*
X171331Y25335D01*
X171366Y25304D01*
X171410Y25271D01*
X171464Y25234D01*
X171524Y25198D01*
X171596Y25165D01*
X171599Y25165D01*
X171605Y25162D01*
X171615Y25156D01*
X171631Y25153D01*
X171649Y25147D01*
X171671Y25138D01*
X171696Y25132D01*
X171725Y25123D01*
X171790Y25112D01*
X171865Y25098D01*
X171950Y25090D01*
X172037Y25088D01*
X172087Y25089D01*
X172112Y25093D01*
X172140Y25093D01*
X172171Y25097D01*
X172209Y25104D01*
X172286Y25115D01*
X172370Y25131D01*
X172457Y25155D01*
X172538Y25188D01*
X172541Y25188D01*
X172547Y25191D01*
X172556Y25197D01*
X172572Y25204D01*
X172590Y25213D01*
X172609Y25223D01*
X172659Y25252D01*
X172711Y25287D01*
X172766Y25326D01*
X172822Y25373D01*
X172874Y25427D01*
X172880Y25434D01*
X172895Y25453D01*
X172917Y25481D01*
X172944Y25522D01*
X172977Y25570D01*
X173008Y25623D01*
X173041Y25683D01*
X173068Y25746D01*
X173068Y25749D01*
X173074Y25759D01*
X173080Y25774D01*
X173086Y25799D01*
X173095Y25824D01*
X173103Y25859D01*
X173115Y25897D01*
X173124Y25937D01*
X173136Y25984D01*
X173147Y26034D01*
X173156Y26088D01*
X173164Y26144D01*
X173175Y26263D01*
X173179Y26391D01*
X173178Y26397D01*
X173178Y26409D01*
X173178Y26431D01*
X173174Y26462D01*
X173173Y26500D01*
X173167Y26540D01*
X173163Y26587D01*
X173155Y26640D01*
X173148Y26696D01*
X173135Y26752D01*
X173108Y26873D01*
X173068Y26991D01*
X173045Y27050D01*
X173019Y27106D01*
X173016Y27109D01*
X173013Y27118D01*
X173003Y27133D01*
X172990Y27152D01*
X172974Y27177D01*
X172955Y27201D01*
X172933Y27232D01*
X172907Y27266D01*
X172879Y27300D01*
X172847Y27334D01*
X172812Y27367D01*
X172771Y27404D01*
X172730Y27438D01*
X172685Y27468D01*
X172635Y27498D01*
X172584Y27526D01*
X172581Y27525D01*
X172572Y27532D01*
X172556Y27538D01*
X172534Y27547D01*
X172509Y27556D01*
X172478Y27567D01*
X172443Y27579D01*
X172402Y27591D01*
X172362Y27603D01*
X172315Y27615D01*
X172211Y27635D01*
X172102Y27648D01*
X172046Y27650D01*
X171986Y27652D01*
X171958Y27652D01*
X171940Y27648D01*
X171915Y27648D01*
X171887Y27644D01*
X171852Y27641D01*
X171815Y27637D01*
X171734Y27623D01*
X171644Y27603D01*
X171548Y27576D01*
X171451Y27540D01*
X171448Y27540D01*
X171439Y27534D01*
X171427Y27530D01*
X171408Y27521D01*
X171387Y27511D01*
X171362Y27498D01*
X171303Y27469D01*
X171241Y27433D01*
X171176Y27395D01*
X171112Y27350D01*
X171056Y27305D01*
X171067Y26710D01*
X172006Y26726D01*
X172012Y26349D01*
X170658Y26325D01*
X170638Y27513D01*
X170641Y27517D01*
X170650Y27523D01*
X170668Y27539D01*
X170690Y27555D01*
X170718Y27577D01*
X170752Y27600D01*
X170792Y27625D01*
X170832Y27654D01*
X170878Y27686D01*
X170927Y27718D01*
X171035Y27779D01*
X171153Y27841D01*
X171277Y27896D01*
X171280Y27896D01*
X171292Y27902D01*
X171308Y27909D01*
X171333Y27916D01*
X171364Y27926D01*
X171398Y27939D01*
X171438Y27949D01*
X171485Y27962D01*
X171534Y27975D01*
X171587Y27986D01*
X171643Y27999D01*
X171702Y28009D01*
X171824Y28024D01*
X171955Y28033D01*
X172002Y28033D01*
X172033Y28031D01*
D02*
G37*
G36*
X166836Y24692D02*
X165641Y24671D01*
X165607Y24673D01*
X165566Y24673D01*
X165526Y24675D01*
X165432Y24680D01*
X165338Y24684D01*
X165248Y24695D01*
X165204Y24701D01*
X165166Y24709D01*
X165163Y24709D01*
X165154Y24712D01*
X165138Y24715D01*
X165119Y24721D01*
X165094Y24727D01*
X165069Y24736D01*
X165038Y24748D01*
X165003Y24759D01*
X164928Y24789D01*
X164849Y24829D01*
X164767Y24874D01*
X164691Y24932D01*
X164688Y24935D01*
X164679Y24941D01*
X164666Y24953D01*
X164650Y24969D01*
X164628Y24990D01*
X164602Y25015D01*
X164577Y25045D01*
X164545Y25076D01*
X164516Y25113D01*
X164485Y25156D01*
X164453Y25199D01*
X164421Y25245D01*
X164388Y25298D01*
X164359Y25354D01*
X164304Y25471D01*
X164304Y25474D01*
X164298Y25487D01*
X164291Y25505D01*
X164285Y25530D01*
X164271Y25561D01*
X164261Y25598D01*
X164248Y25642D01*
X164235Y25688D01*
X164225Y25741D01*
X164211Y25800D01*
X164198Y25863D01*
X164187Y25928D01*
X164180Y26000D01*
X164172Y26071D01*
X164163Y26227D01*
X164163Y26230D01*
X164163Y26243D01*
X164163Y26261D01*
X164162Y26289D01*
X164165Y26321D01*
X164164Y26358D01*
X164166Y26399D01*
X164169Y26446D01*
X164174Y26496D01*
X164179Y26546D01*
X164193Y26655D01*
X164213Y26768D01*
X164239Y26877D01*
X164239Y26881D01*
X164242Y26890D01*
X164248Y26906D01*
X164254Y26925D01*
X164263Y26950D01*
X164272Y26978D01*
X164284Y27009D01*
X164296Y27041D01*
X164325Y27116D01*
X164362Y27195D01*
X164404Y27274D01*
X164449Y27346D01*
X164449Y27349D01*
X164455Y27356D01*
X164462Y27365D01*
X164471Y27378D01*
X164498Y27409D01*
X164532Y27454D01*
X164575Y27501D01*
X164624Y27549D01*
X164676Y27597D01*
X164734Y27641D01*
X164738Y27641D01*
X164741Y27645D01*
X164750Y27651D01*
X164762Y27661D01*
X164778Y27667D01*
X164796Y27680D01*
X164839Y27702D01*
X164895Y27728D01*
X164960Y27758D01*
X165035Y27784D01*
X165115Y27807D01*
X165119Y27807D01*
X165125Y27810D01*
X165137Y27814D01*
X165156Y27817D01*
X165174Y27821D01*
X165199Y27824D01*
X165230Y27831D01*
X165262Y27835D01*
X165299Y27841D01*
X165336Y27848D01*
X165424Y27856D01*
X165520Y27864D01*
X165626Y27869D01*
X166780Y27889D01*
X166836Y24692D01*
D02*
G37*
G36*
X17041Y9567D02*
X15465D01*
Y8490D01*
X16872D01*
Y8109D01*
X15465D01*
Y6871D01*
X17041D01*
Y6482D01*
X15040D01*
Y9956D01*
X17041D01*
Y9567D01*
D02*
G37*
%LPC*%
G36*
X38171Y53089D02*
X37428D01*
Y51812D01*
X38148D01*
X38167Y51816D01*
X38191D01*
X38218Y51820D01*
X38281Y51835D01*
X38352Y51855D01*
X38427Y51886D01*
X38501Y51930D01*
X38537Y51953D01*
X38568Y51985D01*
X38572Y51989D01*
X38576Y51992D01*
X38584Y52004D01*
X38596Y52016D01*
X38623Y52055D01*
X38655Y52110D01*
X38682Y52177D01*
X38710Y52256D01*
X38729Y52350D01*
X38737Y52401D01*
Y52452D01*
Y52456D01*
Y52464D01*
Y52480D01*
X38733Y52500D01*
Y52527D01*
X38729Y52555D01*
X38717Y52621D01*
X38698Y52696D01*
X38666Y52771D01*
X38623Y52849D01*
X38600Y52885D01*
X38568Y52916D01*
Y52920D01*
X38560Y52924D01*
X38537Y52944D01*
X38501Y52971D01*
X38450Y53003D01*
X38383Y53034D01*
X38309Y53061D01*
X38218Y53081D01*
X38171Y53089D01*
D02*
G37*
G36*
X47366Y78006D02*
X47307D01*
X45920D01*
X45916D01*
X45904D01*
X45889D01*
X45869Y78002D01*
X45842D01*
X45814Y77998D01*
X45743Y77982D01*
X45665Y77963D01*
X45586Y77931D01*
X45507Y77884D01*
X45472Y77856D01*
X45437Y77825D01*
X45433D01*
X45429Y77817D01*
X45421Y77805D01*
X45409Y77794D01*
X45382Y77754D01*
X45346Y77699D01*
X45315Y77629D01*
X45287Y77542D01*
X45268Y77444D01*
X45260Y77393D01*
Y76862D01*
X47976D01*
Y77365D01*
X47972Y77385D01*
Y77412D01*
X47968Y77444D01*
X47952Y77515D01*
X47932Y77593D01*
X47901Y77676D01*
X47858Y77754D01*
X47830Y77790D01*
X47799Y77825D01*
X47795Y77829D01*
X47791Y77833D01*
X47779Y77841D01*
X47767Y77853D01*
X47728Y77884D01*
X47669Y77916D01*
X47602Y77947D01*
X47516Y77978D01*
X47418Y77998D01*
X47366Y78006D01*
D02*
G37*
G36*
X28293Y91940D02*
X27762D01*
Y89224D01*
X28265D01*
X28285Y89228D01*
X28312D01*
X28344Y89232D01*
X28415Y89248D01*
X28493Y89268D01*
X28576Y89299D01*
X28654Y89342D01*
X28690Y89370D01*
X28725Y89401D01*
X28729Y89405D01*
X28733Y89409D01*
X28741Y89421D01*
X28753Y89433D01*
X28784Y89472D01*
X28815Y89531D01*
X28847Y89598D01*
X28878Y89684D01*
X28898Y89783D01*
X28906Y89834D01*
Y89893D01*
Y91280D01*
Y91284D01*
Y91296D01*
Y91311D01*
X28902Y91331D01*
Y91358D01*
X28898Y91386D01*
X28882Y91457D01*
X28863Y91535D01*
X28831Y91614D01*
X28784Y91693D01*
X28756Y91728D01*
X28725Y91763D01*
Y91767D01*
X28717Y91771D01*
X28705Y91779D01*
X28694Y91791D01*
X28654Y91818D01*
X28599Y91854D01*
X28529Y91885D01*
X28442Y91913D01*
X28344Y91932D01*
X28293Y91940D01*
D02*
G37*
G36*
X120319Y27466D02*
X119586D01*
X119561Y27463D01*
X119529D01*
X119495Y27460D01*
X119458D01*
X119377Y27454D01*
X119296Y27441D01*
X119214Y27429D01*
X119177Y27419D01*
X119143Y27410D01*
X119140D01*
X119133Y27407D01*
X119124Y27404D01*
X119111Y27397D01*
X119080Y27385D01*
X119040Y27366D01*
X118993Y27341D01*
X118946Y27313D01*
X118899Y27279D01*
X118856Y27241D01*
X118852Y27238D01*
X118849Y27235D01*
X118840Y27226D01*
X118831Y27213D01*
X118818Y27198D01*
X118802Y27182D01*
X118768Y27135D01*
X118731Y27076D01*
X118690Y27007D01*
X118653Y26929D01*
X118618Y26839D01*
Y26836D01*
X118615Y26826D01*
X118609Y26814D01*
X118606Y26792D01*
X118600Y26767D01*
X118590Y26739D01*
X118584Y26705D01*
X118575Y26664D01*
X118569Y26624D01*
X118562Y26577D01*
X118553Y26524D01*
X118547Y26471D01*
X118540Y26412D01*
X118537Y26352D01*
X118534Y26221D01*
Y26215D01*
Y26199D01*
Y26174D01*
X118537Y26140D01*
X118540Y26096D01*
X118544Y26050D01*
X118547Y25997D01*
X118556Y25937D01*
X118562Y25878D01*
X118575Y25816D01*
X118603Y25688D01*
X118622Y25625D01*
X118643Y25563D01*
X118672Y25507D01*
X118700Y25454D01*
X118703Y25451D01*
X118706Y25441D01*
X118715Y25429D01*
X118728Y25410D01*
X118746Y25388D01*
X118765Y25363D01*
X118812Y25307D01*
X118871Y25245D01*
X118940Y25185D01*
X119018Y25132D01*
X119058Y25107D01*
X119102Y25089D01*
X119105D01*
X119111Y25085D01*
X119121Y25082D01*
X119133Y25079D01*
X119152Y25073D01*
X119174Y25067D01*
X119202Y25060D01*
X119233Y25054D01*
X119271Y25051D01*
X119308Y25045D01*
X119355Y25039D01*
X119405Y25032D01*
X119458Y25029D01*
X119517Y25026D01*
X119579Y25023D01*
X120319D01*
Y27466D01*
D02*
G37*
G36*
X131319Y26059D02*
X130364D01*
X130339Y26056D01*
X130311D01*
X130280Y26053D01*
X130246D01*
X130174Y26043D01*
X130099Y26034D01*
X130024Y26018D01*
X129958Y26000D01*
X129955D01*
X129952Y25997D01*
X129930Y25987D01*
X129902Y25975D01*
X129868Y25953D01*
X129827Y25928D01*
X129787Y25894D01*
X129746Y25856D01*
X129712Y25809D01*
Y25806D01*
X129709Y25803D01*
X129700Y25784D01*
X129684Y25759D01*
X129668Y25722D01*
X129653Y25678D01*
X129637Y25631D01*
X129628Y25575D01*
X129625Y25519D01*
Y25516D01*
Y25510D01*
Y25497D01*
X129628Y25482D01*
X129631Y25463D01*
X129634Y25438D01*
X129647Y25388D01*
X129665Y25329D01*
X129693Y25266D01*
X129712Y25232D01*
X129734Y25204D01*
X129762Y25173D01*
X129790Y25145D01*
X129793Y25142D01*
X129796Y25139D01*
X129809Y25132D01*
X129821Y25123D01*
X129840Y25110D01*
X129862Y25098D01*
X129887Y25085D01*
X129918Y25070D01*
X129952Y25057D01*
X129990Y25045D01*
X130030Y25032D01*
X130077Y25020D01*
X130130Y25011D01*
X130183Y25004D01*
X130242Y24998D01*
X131319D01*
Y26059D01*
D02*
G37*
G36*
X139919Y27422D02*
X139186D01*
X139161Y27419D01*
X139129D01*
X139095Y27416D01*
X139058D01*
X138977Y27410D01*
X138895Y27397D01*
X138814Y27385D01*
X138777Y27375D01*
X138743Y27366D01*
X138740D01*
X138733Y27363D01*
X138724Y27360D01*
X138711Y27353D01*
X138680Y27341D01*
X138640Y27322D01*
X138593Y27297D01*
X138546Y27269D01*
X138499Y27235D01*
X138455Y27197D01*
X138452Y27194D01*
X138449Y27191D01*
X138440Y27182D01*
X138431Y27169D01*
X138418Y27154D01*
X138402Y27138D01*
X138368Y27091D01*
X138331Y27032D01*
X138290Y26963D01*
X138253Y26885D01*
X138218Y26795D01*
Y26792D01*
X138215Y26783D01*
X138209Y26770D01*
X138206Y26748D01*
X138200Y26723D01*
X138190Y26695D01*
X138184Y26661D01*
X138175Y26620D01*
X138169Y26580D01*
X138162Y26533D01*
X138153Y26480D01*
X138147Y26427D01*
X138140Y26368D01*
X138137Y26308D01*
X138134Y26177D01*
Y26171D01*
Y26155D01*
Y26130D01*
X138137Y26096D01*
X138140Y26052D01*
X138144Y26006D01*
X138147Y25953D01*
X138156Y25893D01*
X138162Y25834D01*
X138175Y25772D01*
X138203Y25644D01*
X138222Y25581D01*
X138243Y25519D01*
X138271Y25463D01*
X138300Y25410D01*
X138303Y25407D01*
X138306Y25397D01*
X138315Y25385D01*
X138328Y25366D01*
X138346Y25344D01*
X138365Y25319D01*
X138412Y25263D01*
X138471Y25201D01*
X138540Y25141D01*
X138618Y25088D01*
X138658Y25063D01*
X138702Y25045D01*
X138705D01*
X138711Y25041D01*
X138721Y25038D01*
X138733Y25035D01*
X138752Y25029D01*
X138774Y25023D01*
X138802Y25016D01*
X138833Y25010D01*
X138871Y25007D01*
X138908Y25001D01*
X138955Y24995D01*
X139005Y24988D01*
X139058Y24985D01*
X139117Y24982D01*
X139179Y24979D01*
X139919D01*
Y27422D01*
D02*
G37*
G36*
X149579Y27444D02*
X149554Y27441D01*
X149523Y27442D01*
X149489Y27440D01*
X149451Y27440D01*
X149370Y27435D01*
X149289Y27424D01*
X149207Y27413D01*
X149170Y27405D01*
X149135Y27396D01*
X149132Y27396D01*
X149126Y27393D01*
X149117Y27390D01*
X149104Y27384D01*
X149073Y27372D01*
X149032Y27354D01*
X148984Y27330D01*
X148937Y27303D01*
X148890Y27269D01*
X148845Y27232D01*
X148842Y27229D01*
X148839Y27226D01*
X148829Y27217D01*
X148820Y27205D01*
X148807Y27189D01*
X148791Y27174D01*
X148756Y27128D01*
X148718Y27069D01*
X148676Y27001D01*
X148637Y26924D01*
X148601Y26834D01*
X148601Y26831D01*
X148598Y26822D01*
X148591Y26809D01*
X148588Y26787D01*
X148581Y26763D01*
X148571Y26735D01*
X148565Y26700D01*
X148555Y26660D01*
X148548Y26620D01*
X148540Y26573D01*
X148530Y26520D01*
X148523Y26467D01*
X148516Y26408D01*
X148512Y26349D01*
X148506Y26218D01*
X148506Y26212D01*
X148506Y26196D01*
X148505Y26171D01*
X148508Y26137D01*
X148510Y26093D01*
X148513Y26046D01*
X148515Y25993D01*
X148523Y25934D01*
X148528Y25874D01*
X148540Y25812D01*
X148566Y25683D01*
X148583Y25620D01*
X148604Y25558D01*
X148631Y25501D01*
X148658Y25448D01*
X148661Y25444D01*
X148664Y25435D01*
X148673Y25422D01*
X148686Y25403D01*
X148704Y25381D01*
X148722Y25356D01*
X148768Y25299D01*
X148826Y25236D01*
X148894Y25175D01*
X148971Y25121D01*
X149011Y25095D01*
X149054Y25076D01*
X149057Y25076D01*
X149064Y25072D01*
X149073Y25069D01*
X149085Y25066D01*
X149104Y25059D01*
X149126Y25052D01*
X149154Y25046D01*
X149185Y25039D01*
X149222Y25035D01*
X149259Y25028D01*
X149306Y25021D01*
X149356Y25014D01*
X149409Y25010D01*
X149468Y25006D01*
X149530Y25002D01*
X150270Y24989D01*
X150312Y27431D01*
X149579Y27444D01*
D02*
G37*
G36*
X146618Y27605D02*
X146605Y27602D01*
X146586Y27603D01*
X146561Y27597D01*
X146536Y27594D01*
X146505Y27585D01*
X146474Y27576D01*
X146436Y27562D01*
X146401Y27547D01*
X146363Y27525D01*
X146326Y27501D01*
X146284Y27470D01*
X146247Y27437D01*
X146208Y27400D01*
X146173Y27354D01*
X146170Y27351D01*
X146164Y27342D01*
X146154Y27326D01*
X146144Y27301D01*
X146128Y27270D01*
X146112Y27230D01*
X146095Y27184D01*
X146076Y27125D01*
X146056Y27060D01*
X146039Y26985D01*
X146022Y26901D01*
X146004Y26805D01*
X145993Y26699D01*
X145982Y26580D01*
X145973Y26449D01*
X145968Y26309D01*
X145968Y26306D01*
X145968Y26300D01*
X145967Y26290D01*
X145967Y26275D01*
X145967Y26256D01*
X145966Y26234D01*
X145969Y26209D01*
X145969Y26181D01*
X145971Y26119D01*
X145973Y26047D01*
X145977Y25966D01*
X145982Y25881D01*
X146001Y25706D01*
X146015Y25618D01*
X146032Y25531D01*
X146053Y25453D01*
X146073Y25377D01*
X146103Y25311D01*
X146133Y25258D01*
X146137Y25254D01*
X146143Y25245D01*
X146152Y25232D01*
X146167Y25216D01*
X146182Y25194D01*
X146204Y25172D01*
X146228Y25150D01*
X146259Y25124D01*
X146290Y25099D01*
X146324Y25076D01*
X146401Y25031D01*
X146444Y25015D01*
X146491Y25002D01*
X146541Y24992D01*
X146591Y24987D01*
X146616Y24987D01*
X146634Y24990D01*
X146659Y24993D01*
X146684Y24998D01*
X146747Y25013D01*
X146782Y25025D01*
X146816Y25040D01*
X146854Y25058D01*
X146889Y25079D01*
X146927Y25106D01*
X146961Y25137D01*
X146996Y25171D01*
X147028Y25211D01*
X147031Y25214D01*
X147038Y25223D01*
X147048Y25242D01*
X147061Y25269D01*
X147077Y25300D01*
X147093Y25344D01*
X147113Y25393D01*
X147132Y25452D01*
X147152Y25524D01*
X147172Y25601D01*
X147189Y25688D01*
X147207Y25788D01*
X147221Y25894D01*
X147233Y26015D01*
X147241Y26146D01*
X147247Y26287D01*
X147247Y26290D01*
X147247Y26296D01*
X147247Y26305D01*
X147247Y26321D01*
X147248Y26340D01*
X147248Y26362D01*
X147245Y26386D01*
X147246Y26415D01*
X147244Y26477D01*
X147242Y26549D01*
X147237Y26630D01*
X147232Y26714D01*
X147214Y26890D01*
X147199Y26977D01*
X147182Y27062D01*
X147162Y27143D01*
X147138Y27218D01*
X147111Y27285D01*
X147081Y27338D01*
X147078Y27341D01*
X147072Y27351D01*
X147063Y27363D01*
X147047Y27379D01*
X147032Y27398D01*
X147011Y27420D01*
X146986Y27446D01*
X146958Y27468D01*
X146925Y27494D01*
X146891Y27519D01*
X146813Y27561D01*
X146773Y27577D01*
X146727Y27591D01*
X146680Y27601D01*
X146630Y27605D01*
X146618Y27605D01*
D02*
G37*
G36*
X166363Y27504D02*
X165629Y27492D01*
X165605Y27488D01*
X165574Y27487D01*
X165539Y27484D01*
X165502Y27483D01*
X165421Y27475D01*
X165340Y27461D01*
X165259Y27448D01*
X165222Y27438D01*
X165188Y27428D01*
X165184Y27428D01*
X165178Y27424D01*
X165169Y27421D01*
X165157Y27415D01*
X165126Y27402D01*
X165085Y27382D01*
X165039Y27356D01*
X164993Y27327D01*
X164946Y27292D01*
X164903Y27254D01*
X164900Y27251D01*
X164897Y27248D01*
X164888Y27238D01*
X164879Y27226D01*
X164867Y27210D01*
X164851Y27194D01*
X164818Y27147D01*
X164782Y27087D01*
X164742Y27017D01*
X164706Y26939D01*
X164673Y26848D01*
X164673Y26844D01*
X164671Y26835D01*
X164664Y26823D01*
X164662Y26801D01*
X164656Y26776D01*
X164647Y26747D01*
X164641Y26713D01*
X164633Y26672D01*
X164627Y26632D01*
X164622Y26585D01*
X164613Y26531D01*
X164608Y26478D01*
X164603Y26419D01*
X164601Y26360D01*
X164600Y26228D01*
X164600Y26222D01*
X164600Y26207D01*
X164601Y26182D01*
X164604Y26147D01*
X164608Y26104D01*
X164612Y26057D01*
X164616Y26004D01*
X164627Y25945D01*
X164634Y25886D01*
X164648Y25824D01*
X164678Y25696D01*
X164698Y25634D01*
X164721Y25572D01*
X164750Y25517D01*
X164779Y25464D01*
X164782Y25461D01*
X164785Y25452D01*
X164795Y25439D01*
X164808Y25421D01*
X164827Y25399D01*
X164846Y25375D01*
X164894Y25319D01*
X164954Y25258D01*
X165024Y25200D01*
X165103Y25148D01*
X165144Y25124D01*
X165188Y25106D01*
X165191Y25106D01*
X165197Y25103D01*
X165206Y25100D01*
X165219Y25097D01*
X165238Y25091D01*
X165260Y25085D01*
X165288Y25080D01*
X165319Y25074D01*
X165357Y25071D01*
X165394Y25066D01*
X165441Y25060D01*
X165491Y25055D01*
X165544Y25053D01*
X165603Y25051D01*
X165666Y25049D01*
X166405Y25062D01*
X166363Y27504D01*
D02*
G37*
%LPD*%
D10*
X-3937Y68900D02*
G03*
X-3937Y68951I29528J0D01*
G01*
X7480Y68894D02*
G03*
X7480Y68925I18110J0D01*
G01*
X29117Y51118D02*
G03*
X22064Y51124I-3527J-340D01*
G01*
X-0Y68898D02*
G03*
X-0Y68942I25591J0D01*
G01*
X22835Y68882D02*
G03*
X22835Y68897I2756J10D01*
G01*
D11*
X78746Y9841D02*
X196846D01*
X196846Y124015D01*
X110246Y116145D02*
X165365D01*
X78735Y102841D02*
X196846D01*
X78735Y31688D02*
X196846D01*
X78735Y124015D02*
X110246D01*
Y116141D02*
Y124011D01*
X165364Y116145D02*
Y124015D01*
X196846D01*
X78735D02*
X78735Y9841D01*
X220472Y46898D02*
X267717D01*
Y92520D01*
X220472D02*
X267717D01*
X220472Y46898D02*
Y92520D01*
M02*
