G04*
G04 #@! TF.GenerationSoftware,Altium Limited,Altium Designer,23.8.1 (32)*
G04*
G04 Layer_Physical_Order=2*
G04 Layer_Color=1265191*
%FSLAX25Y25*%
%MOIN*%
G70*
G04*
G04 #@! TF.SameCoordinates,7219C3B3-8FC9-4B81-83B7-D13F04F5FDA5*
G04*
G04*
G04 #@! TF.FilePolarity,Positive*
G04*
G01*
G75*
%ADD20C,0.01968*%
%ADD21C,0.01181*%
%ADD22C,0.03937*%
%ADD23C,0.05906*%
%ADD24R,0.05906X0.05906*%
%ADD25C,0.09055*%
%ADD26C,0.06496*%
%ADD27R,0.06496X0.06496*%
%ADD28O,0.06299X0.09843*%
%ADD29R,0.06693X0.06693*%
G04:AMPARAMS|DCode=30|XSize=118.11mil|YSize=145.67mil|CornerRadius=29.53mil|HoleSize=0mil|Usage=FLASHONLY|Rotation=180.000|XOffset=0mil|YOffset=0mil|HoleType=Round|Shape=RoundedRectangle|*
%AMROUNDEDRECTD30*
21,1,0.11811,0.08661,0,0,180.0*
21,1,0.05906,0.14567,0,0,180.0*
1,1,0.05906,-0.02953,0.04331*
1,1,0.05906,0.02953,0.04331*
1,1,0.05906,0.02953,-0.04331*
1,1,0.05906,-0.02953,-0.04331*
%
%ADD30ROUNDEDRECTD30*%
%ADD31C,0.05000*%
%ADD32C,0.01968*%
%ADD33R,0.13780X0.04724*%
%ADD34R,0.07087X0.04449*%
%ADD35O,0.01890X0.06496*%
%ADD36O,0.06496X0.01890*%
%ADD37R,0.04567X0.05787*%
%ADD38R,0.04921X0.03937*%
%ADD39R,0.08661X0.03937*%
%ADD40R,0.08661X0.13780*%
%ADD41R,0.25591X0.23622*%
%ADD42R,0.08661X0.04724*%
%ADD43R,0.03661X0.03858*%
%ADD44R,0.03858X0.03661*%
%ADD45R,0.04331X0.02362*%
%ADD46R,0.08661X0.09646*%
%ADD47R,0.02756X0.06693*%
%ADD48R,0.02756X0.01575*%
%ADD49R,0.04921X0.02756*%
%ADD50R,0.03937X0.04921*%
%ADD51R,0.02756X0.06693*%
%ADD52O,0.07087X0.02756*%
G04:AMPARAMS|DCode=53|XSize=66.93mil|YSize=133.86mil|CornerRadius=16.73mil|HoleSize=0mil|Usage=FLASHONLY|Rotation=270.000|XOffset=0mil|YOffset=0mil|HoleType=Round|Shape=RoundedRectangle|*
%AMROUNDEDRECTD53*
21,1,0.06693,0.10039,0,0,270.0*
21,1,0.03347,0.13386,0,0,270.0*
1,1,0.03346,-0.05020,-0.01673*
1,1,0.03346,-0.05020,0.01673*
1,1,0.03346,0.05020,0.01673*
1,1,0.03346,0.05020,-0.01673*
%
%ADD53ROUNDEDRECTD53*%
%ADD54C,0.03150*%
%ADD55C,0.07874*%
%ADD56R,0.07100X0.06700*%
G36*
X271500Y129500D02*
X272500Y128500D01*
Y121000D01*
X257500D01*
X253000Y125500D01*
X234000D01*
X232000Y123500D01*
Y116500D01*
X217000D01*
Y124000D01*
X215500Y125500D01*
X195500D01*
Y133500D01*
X267500D01*
X271500Y129500D01*
D02*
G37*
G36*
X271654Y136669D02*
X272381Y136574D01*
X273059Y136293D01*
X273641Y135846D01*
X274088Y135264D01*
X274369Y134586D01*
X274465Y133858D01*
X274469D01*
Y128853D01*
X273969Y128804D01*
X273913Y129085D01*
X273581Y129581D01*
X272582Y130581D01*
X272581Y130581D01*
X268581Y134581D01*
X268085Y134913D01*
X267500Y135029D01*
X195500D01*
X194915Y134913D01*
X194419Y134581D01*
X194087Y134085D01*
X193971Y133500D01*
Y125500D01*
X194087Y124915D01*
X194419Y124419D01*
X194915Y124087D01*
X195500Y123971D01*
X214866D01*
X215471Y123366D01*
Y116500D01*
X215587Y115915D01*
X215919Y115419D01*
X216415Y115087D01*
X217000Y114971D01*
X220602D01*
Y107241D01*
X220373Y106844D01*
X220100Y105827D01*
Y104773D01*
X220373Y103756D01*
X220899Y102844D01*
X221644Y102099D01*
X221969Y101912D01*
Y93183D01*
X205417Y76631D01*
X172983D01*
X171508Y78106D01*
Y79339D01*
X172806D01*
Y86001D01*
X172281D01*
X171906Y86302D01*
X171906Y86501D01*
Y91164D01*
X166847D01*
Y89947D01*
X164003D01*
Y91164D01*
X158945D01*
Y89947D01*
X156101D01*
Y91164D01*
X151043D01*
Y86302D01*
X156101D01*
Y87519D01*
X158945D01*
Y86302D01*
X164003D01*
Y87519D01*
X166494D01*
X166847Y87166D01*
X166847Y86302D01*
X166472Y86001D01*
X165947D01*
Y79339D01*
X167245D01*
Y77223D01*
X167245Y77223D01*
X167407Y76408D01*
X167869Y75716D01*
X170593Y72993D01*
X170593Y72993D01*
X171284Y72531D01*
X172100Y72369D01*
X172100Y72369D01*
X206045D01*
X206252Y71868D01*
X201739Y67356D01*
X157500D01*
X157138Y67597D01*
X156535Y67717D01*
X151929D01*
X151326Y67597D01*
X150815Y67256D01*
X150474Y66745D01*
X150354Y66142D01*
X150474Y65539D01*
X150815Y65028D01*
X151059Y64865D01*
Y64269D01*
X150815Y64106D01*
X150474Y63595D01*
X150354Y62992D01*
X150474Y62389D01*
X150815Y61878D01*
X151059Y61716D01*
Y61119D01*
X150815Y60956D01*
X150474Y60445D01*
X150354Y59842D01*
X150474Y59240D01*
X150815Y58729D01*
X151059Y58566D01*
Y57969D01*
X150815Y57807D01*
X150474Y57296D01*
X150354Y56693D01*
X150474Y56090D01*
X150815Y55579D01*
X151326Y55238D01*
X151929Y55118D01*
X154031D01*
X154232Y55078D01*
X161868D01*
Y53501D01*
X166927D01*
Y54786D01*
X169173D01*
X169303Y54657D01*
X169885Y54416D01*
X170515D01*
X171097Y54657D01*
X171543Y55103D01*
X171784Y55685D01*
Y56315D01*
X171543Y56897D01*
X171097Y57343D01*
X170515Y57584D01*
X169885D01*
X169303Y57343D01*
X169173Y57214D01*
X166927D01*
Y58362D01*
X167316Y58629D01*
X209655D01*
X217773Y50510D01*
X217773Y50510D01*
X218167Y50247D01*
X218632Y50155D01*
X218632Y50155D01*
X251408D01*
Y48938D01*
X252723D01*
Y45338D01*
X251958Y45132D01*
X250789Y44457D01*
X249834Y43503D01*
X249159Y42333D01*
X248810Y41029D01*
Y39679D01*
X249159Y38375D01*
X249834Y37206D01*
X250789Y36251D01*
X251958Y35576D01*
X253262Y35227D01*
X254612D01*
X255916Y35576D01*
X257085Y36251D01*
X258040Y37206D01*
X258715Y38375D01*
X259065Y39679D01*
Y41029D01*
X258715Y42333D01*
X258040Y43503D01*
X257085Y44457D01*
X255916Y45132D01*
X255151Y45338D01*
Y48938D01*
X256466D01*
Y53799D01*
X251408D01*
Y52582D01*
X219134D01*
X211016Y60701D01*
X210622Y60964D01*
X210157Y61056D01*
X210157Y61056D01*
X157855D01*
X157652Y61556D01*
X157880Y61778D01*
X203192D01*
X203192Y61778D01*
X203657Y61871D01*
X204050Y62134D01*
X223703Y81786D01*
X225473D01*
X225603Y81657D01*
X226185Y81416D01*
X226815D01*
X227397Y81657D01*
X227843Y82103D01*
X228084Y82685D01*
Y83315D01*
X227843Y83897D01*
X227397Y84343D01*
X227056Y84485D01*
X227155Y84985D01*
X231723D01*
Y83768D01*
X236781D01*
Y88629D01*
X235466D01*
Y92114D01*
X236143Y92394D01*
X236926Y92995D01*
X237527Y93778D01*
X237905Y94690D01*
X238034Y95669D01*
Y99213D01*
X237905Y100191D01*
X237527Y101104D01*
X236926Y101887D01*
X236143Y102488D01*
X235231Y102866D01*
X234252Y102995D01*
X233273Y102866D01*
X232361Y102488D01*
X231578Y101887D01*
X230977Y101104D01*
X230599Y100191D01*
X230470Y99213D01*
Y95669D01*
X230599Y94690D01*
X230977Y93778D01*
X231578Y92995D01*
X232361Y92394D01*
X233038Y92114D01*
Y88629D01*
X231723D01*
Y87412D01*
X222934D01*
X222727Y87912D01*
X225607Y90793D01*
X225607Y90793D01*
X226069Y91484D01*
X226232Y92300D01*
X226232Y92300D01*
Y101912D01*
X226556Y102099D01*
X227301Y102844D01*
X227827Y103756D01*
X228100Y104773D01*
Y105827D01*
X227827Y106844D01*
X227598Y107241D01*
Y114971D01*
X232000D01*
X232585Y115087D01*
X233081Y115419D01*
X233413Y115915D01*
X233529Y116500D01*
Y122866D01*
X234633Y123971D01*
X252366D01*
X256419Y119919D01*
X256915Y119587D01*
X257500Y119471D01*
X272500D01*
X273085Y119587D01*
X273581Y119919D01*
X273913Y120415D01*
X273969Y120696D01*
X274469Y120647D01*
Y3937D01*
X274465D01*
X274369Y3209D01*
X274088Y2531D01*
X273641Y1949D01*
X273059Y1503D01*
X272381Y1222D01*
X271654Y1126D01*
Y1122D01*
X3937D01*
Y1126D01*
X3209Y1222D01*
X2531Y1503D01*
X1949Y1949D01*
X1503Y2531D01*
X1222Y3209D01*
X1126Y3937D01*
X1122D01*
Y133858D01*
X1126D01*
X1222Y134586D01*
X1503Y135264D01*
X1949Y135846D01*
X2531Y136293D01*
X3209Y136574D01*
X3937Y136669D01*
Y136674D01*
X28163D01*
X28314Y136174D01*
X28142Y136058D01*
X28142Y136058D01*
X23400Y131317D01*
X19089D01*
Y132632D01*
X14228D01*
Y127574D01*
X15445D01*
Y126215D01*
X13280Y124050D01*
X9072D01*
X8300Y123897D01*
X7646Y123460D01*
X7209Y122806D01*
X7055Y122034D01*
X7209Y121262D01*
X7646Y120608D01*
X8300Y120171D01*
X9072Y120017D01*
X13402D01*
X14174Y120171D01*
X14829Y120608D01*
X15266Y121262D01*
X15419Y122034D01*
X15299Y122637D01*
X17517Y124854D01*
X17780Y125248D01*
X17872Y125713D01*
X17872Y125713D01*
Y127574D01*
X19089D01*
Y128889D01*
X23903D01*
X23903Y128889D01*
X24368Y128982D01*
X24762Y129245D01*
X29503Y133986D01*
X43002D01*
X46076Y130912D01*
Y127571D01*
X47293D01*
Y124825D01*
X46076D01*
Y119767D01*
X47293D01*
Y117022D01*
X46076D01*
Y111963D01*
X47293D01*
Y111309D01*
X41585Y105602D01*
X41322Y105208D01*
X41230Y104744D01*
X41230Y104744D01*
Y103259D01*
X40013D01*
Y101944D01*
X24930D01*
X24930Y101944D01*
X24465Y101851D01*
X24072Y101588D01*
X22197Y99714D01*
X19089D01*
Y101029D01*
X14228D01*
Y95971D01*
X19089D01*
Y97286D01*
X22700D01*
X22700Y97286D01*
X23165Y97378D01*
X23558Y97642D01*
X25433Y99516D01*
X40013D01*
Y98201D01*
X41230D01*
Y90718D01*
X38497D01*
Y86762D01*
X44618D01*
Y90718D01*
X43657D01*
Y98201D01*
X44874D01*
Y103259D01*
X43657D01*
Y104241D01*
X49365Y109948D01*
X49628Y110342D01*
X49720Y110807D01*
X49720Y110807D01*
Y111963D01*
X50937D01*
Y117022D01*
X49720D01*
Y119767D01*
X50937D01*
Y124825D01*
X49720D01*
Y127571D01*
X50937D01*
Y128886D01*
X57297D01*
X59671Y126513D01*
X59589Y126371D01*
X59347Y125468D01*
Y124532D01*
X59589Y123629D01*
X60057Y122819D01*
X60719Y122157D01*
X61529Y121689D01*
X62432Y121447D01*
X63368D01*
X64271Y121689D01*
X65081Y122157D01*
X65743Y122819D01*
X66070Y123385D01*
X89678D01*
X92856Y120207D01*
Y116567D01*
X107835D01*
Y117312D01*
X111171D01*
Y117101D01*
X116229D01*
Y117312D01*
X119658D01*
Y112039D01*
X129519D01*
Y117312D01*
X143280D01*
Y116961D01*
X153141D01*
Y122098D01*
X143280D01*
Y121747D01*
X129519D01*
Y127019D01*
X119658D01*
Y121747D01*
X116229D01*
Y121962D01*
X111171D01*
Y121747D01*
X107835D01*
Y122491D01*
X95140D01*
X91490Y126142D01*
X90966Y126492D01*
X90347Y126615D01*
X66070D01*
X65743Y127181D01*
X65081Y127843D01*
X64271Y128311D01*
X63368Y128553D01*
X62432D01*
X61529Y128311D01*
X61387Y128229D01*
X58658Y130958D01*
X58264Y131221D01*
X57800Y131314D01*
X57800Y131314D01*
X50937D01*
Y132629D01*
X47793D01*
X44363Y136058D01*
X44191Y136174D01*
X44342Y136674D01*
X271654D01*
Y136669D01*
D02*
G37*
%LPC*%
G36*
X44874Y124825D02*
X40013D01*
Y123314D01*
X38827D01*
X38697Y123443D01*
X38115Y123684D01*
X37485D01*
X36903Y123443D01*
X36740Y123281D01*
X35421D01*
X35301Y123460D01*
X34647Y123897D01*
X33875Y124050D01*
X29544D01*
X28772Y123897D01*
X28118Y123460D01*
X27681Y122806D01*
X27527Y122034D01*
X27681Y121262D01*
X28118Y120608D01*
X28772Y120171D01*
X29544Y120017D01*
X33875D01*
X34647Y120171D01*
X35301Y120608D01*
X35465Y120853D01*
X36806D01*
X36903Y120757D01*
X37485Y120516D01*
X38115D01*
X38697Y120757D01*
X38827Y120886D01*
X40013D01*
Y119767D01*
X44874D01*
Y124825D01*
D02*
G37*
G36*
X216400Y114449D02*
X196692D01*
X196688Y114448D01*
X196684Y114449D01*
X196459Y114353D01*
X196232Y114259D01*
X196231Y114255D01*
X196227Y114254D01*
X185677Y103449D01*
X171200D01*
X170741Y103259D01*
X169241Y101759D01*
X169051Y101300D01*
X169151Y101059D01*
Y96200D01*
X169341Y95741D01*
X175051Y90031D01*
Y83200D01*
X175241Y82741D01*
X176241Y81741D01*
X176700Y81551D01*
X191500D01*
X191959Y81741D01*
X192959Y82741D01*
X193149Y83200D01*
Y90100D01*
Y95931D01*
X203969Y106751D01*
X216400D01*
X216859Y106941D01*
X217049Y107400D01*
Y113800D01*
X216859Y114259D01*
X216400Y114449D01*
D02*
G37*
G36*
X33875Y119051D02*
X29544D01*
X28772Y118897D01*
X28118Y118460D01*
X27681Y117806D01*
X27527Y117034D01*
X27681Y116262D01*
X28118Y115608D01*
X28772Y115171D01*
X29544Y115017D01*
X33875D01*
X34647Y115171D01*
X35301Y115608D01*
X35443Y115820D01*
X36740D01*
X36903Y115657D01*
X37485Y115416D01*
X38115D01*
X38697Y115657D01*
X38860Y115820D01*
X39498D01*
X40013Y115305D01*
Y111963D01*
X44874D01*
Y117022D01*
X41730D01*
X40859Y117892D01*
X40465Y118155D01*
X40001Y118248D01*
X40001Y118248D01*
X38793D01*
X38697Y118343D01*
X38115Y118584D01*
X37485D01*
X36903Y118343D01*
X36807Y118248D01*
X35443D01*
X35301Y118460D01*
X34647Y118897D01*
X33875Y119051D01*
D02*
G37*
G36*
Y114050D02*
X29544D01*
X28772Y113897D01*
X28118Y113460D01*
X27681Y112806D01*
X27527Y112034D01*
X27681Y111262D01*
X28118Y110608D01*
X28772Y110171D01*
X29544Y110017D01*
X33875D01*
X34647Y110171D01*
X35301Y110608D01*
X35738Y111262D01*
X35892Y112034D01*
X35738Y112806D01*
X35301Y113460D01*
X34647Y113897D01*
X33875Y114050D01*
D02*
G37*
G36*
X63368Y108553D02*
X62432D01*
X61529Y108311D01*
X60719Y107843D01*
X60057Y107181D01*
X59589Y106371D01*
X59347Y105468D01*
Y104532D01*
X59589Y103629D01*
X59671Y103488D01*
X56142Y99958D01*
X55879Y99564D01*
X55786Y99100D01*
X55786Y99100D01*
Y92900D01*
X55786Y92900D01*
X55879Y92435D01*
X56142Y92042D01*
X58942Y89242D01*
X58942Y89242D01*
X59271Y89021D01*
X59346Y88561D01*
X59347Y88506D01*
X59347Y88466D01*
Y86214D01*
X54461D01*
Y86978D01*
X48339D01*
Y83022D01*
X54461D01*
Y83786D01*
X59347D01*
Y81447D01*
X66453D01*
Y88386D01*
X66453Y88553D01*
X66815Y88886D01*
X103697D01*
X111486Y81097D01*
Y68800D01*
X111486Y68800D01*
X111579Y68335D01*
X111842Y67942D01*
X114500Y65283D01*
X114500Y65283D01*
X114894Y65020D01*
X115358Y64928D01*
X115358Y64928D01*
X118091D01*
X118185Y64865D01*
Y64269D01*
X117941Y64106D01*
X117600Y63595D01*
X117480Y62992D01*
X117600Y62389D01*
X117941Y61878D01*
X118185Y61716D01*
Y61119D01*
X117941Y60956D01*
X117600Y60445D01*
X117480Y59842D01*
X117600Y59240D01*
X117941Y58729D01*
X117952Y58141D01*
X117711Y57907D01*
X116110D01*
X114458Y59558D01*
X114065Y59821D01*
X113600Y59914D01*
X113600Y59914D01*
X112227D01*
X112097Y60043D01*
X111515Y60284D01*
X110885D01*
X110303Y60043D01*
X109857Y59597D01*
X109616Y59015D01*
Y58385D01*
X109857Y57803D01*
X110303Y57357D01*
X110885Y57116D01*
X111515D01*
X112097Y57357D01*
X112227Y57486D01*
X113097D01*
X114749Y55835D01*
X115143Y55572D01*
X115607Y55479D01*
X115607Y55479D01*
X117344D01*
X117596Y54979D01*
X117573Y54948D01*
X113139D01*
X112144Y55943D01*
X111688Y56248D01*
X111150Y56355D01*
X109245D01*
Y56918D01*
X109057D01*
Y60149D01*
X109057Y60471D01*
X109057Y60971D01*
Y64211D01*
X103527D01*
Y60971D01*
X103527Y60649D01*
X103527Y60257D01*
X103173Y59904D01*
X102113D01*
X101914Y60103D01*
Y64800D01*
X101914Y64800D01*
X101821Y65264D01*
X101558Y65658D01*
X101558Y65658D01*
X100271Y66945D01*
Y69214D01*
X100271Y69214D01*
X100248Y69332D01*
Y72984D01*
X99432D01*
Y75996D01*
X100424D01*
Y82984D01*
X99115D01*
Y85500D01*
X99084Y85656D01*
Y85815D01*
X99023Y85962D01*
X98992Y86118D01*
X98904Y86250D01*
X98843Y86397D01*
X98731Y86510D01*
X98642Y86642D01*
X98510Y86731D01*
X98397Y86843D01*
X98250Y86904D01*
X98118Y86992D01*
X97962Y87023D01*
X97815Y87084D01*
X97656D01*
X97500Y87115D01*
X97344Y87084D01*
X97185D01*
X97038Y87023D01*
X96882Y86992D01*
X96750Y86904D01*
X96603Y86843D01*
X96490Y86731D01*
X96358Y86642D01*
X96269Y86510D01*
X96157Y86397D01*
X96096Y86250D01*
X96008Y86118D01*
X95977Y85962D01*
X95916Y85815D01*
Y85656D01*
X95885Y85500D01*
Y82984D01*
X94657D01*
Y75996D01*
X96202D01*
Y72984D01*
X95386D01*
Y72093D01*
X89019D01*
Y73007D01*
X84158D01*
Y67949D01*
X89019D01*
Y68862D01*
X95386D01*
Y67925D01*
X97843D01*
Y66443D01*
X97843Y66443D01*
X97936Y65978D01*
X98199Y65584D01*
X99486Y64297D01*
Y59600D01*
X99486Y59600D01*
X99578Y59136D01*
X99842Y58742D01*
X100752Y57832D01*
X100752Y57831D01*
X101146Y57568D01*
X101610Y57476D01*
X103527D01*
Y56918D01*
X103339D01*
Y52981D01*
X109245D01*
Y53545D01*
X110568D01*
X111563Y52550D01*
X112019Y52245D01*
X112557Y52138D01*
X117557D01*
X117723Y51963D01*
X117941Y51508D01*
X117600Y50997D01*
X117480Y50394D01*
X117600Y49791D01*
X117941Y49280D01*
X118185Y49117D01*
Y48521D01*
X117941Y48358D01*
X117600Y47847D01*
X117480Y47244D01*
X117600Y46641D01*
X117941Y46130D01*
X117952Y45543D01*
X117711Y45308D01*
X116908D01*
X113658Y48558D01*
X113265Y48821D01*
X112800Y48914D01*
X112800Y48914D01*
X104400D01*
X104400Y48914D01*
X103936Y48821D01*
X103542Y48558D01*
X101414Y46431D01*
X98171D01*
Y44973D01*
X97691D01*
X97691Y44973D01*
X97227Y44881D01*
X96833Y44618D01*
X96833Y44618D01*
X95597Y43382D01*
X94769D01*
X94628Y43595D01*
X93973Y44032D01*
X93202Y44185D01*
X88871D01*
X88099Y44032D01*
X87445Y43595D01*
X87008Y42940D01*
X86854Y42169D01*
X87008Y41397D01*
X87445Y40742D01*
X88099Y40305D01*
X88871Y40152D01*
X93202D01*
X93973Y40305D01*
X94628Y40742D01*
X94769Y40955D01*
X96100D01*
X96100Y40955D01*
X96565Y41047D01*
X96958Y41310D01*
X97709Y42061D01*
X98171Y41869D01*
Y41569D01*
X103229D01*
Y44813D01*
X104903Y46486D01*
X112297D01*
X115547Y43236D01*
X115547Y43236D01*
X115941Y42973D01*
X116405Y42881D01*
X116406Y42881D01*
X118091D01*
X118452Y42639D01*
X119055Y42519D01*
X123661D01*
X124264Y42639D01*
X124775Y42981D01*
X125117Y43492D01*
X125237Y44094D01*
X125117Y44697D01*
X124775Y45208D01*
X124532Y45371D01*
Y45968D01*
X124775Y46130D01*
X125117Y46641D01*
X125237Y47244D01*
X125117Y47847D01*
X124775Y48358D01*
X124532Y48521D01*
Y49117D01*
X124775Y49280D01*
X125117Y49791D01*
X125237Y50394D01*
X125117Y50997D01*
X124775Y51508D01*
X124704Y51555D01*
Y52157D01*
X124910Y52294D01*
X125293Y52867D01*
X125428Y53543D01*
X125293Y54219D01*
X124910Y54792D01*
X124704Y54930D01*
Y55532D01*
X124775Y55579D01*
X125117Y56090D01*
X125237Y56693D01*
X125117Y57296D01*
X124775Y57807D01*
X124532Y57969D01*
Y58566D01*
X124775Y58729D01*
X125117Y59240D01*
X125237Y59842D01*
X125117Y60445D01*
X124775Y60956D01*
X124532Y61119D01*
Y61716D01*
X124775Y61878D01*
X125117Y62389D01*
X125237Y62992D01*
X125117Y63595D01*
X124775Y64106D01*
X124532Y64269D01*
Y64865D01*
X124775Y65028D01*
X125117Y65539D01*
X125237Y66142D01*
X125117Y66745D01*
X124775Y67256D01*
X124264Y67597D01*
X123661Y67717D01*
X119055D01*
X118452Y67597D01*
X118091Y67356D01*
X115861D01*
X113914Y69303D01*
Y81600D01*
X113914Y81600D01*
X113821Y82064D01*
X113558Y82458D01*
X113558Y82458D01*
X105058Y90958D01*
X104665Y91221D01*
X104200Y91314D01*
X104200Y91314D01*
X64621D01*
X64487Y91814D01*
X65081Y92157D01*
X65743Y92819D01*
X66211Y93629D01*
X66253Y93786D01*
X104697D01*
X116672Y81812D01*
X116672Y81812D01*
X117065Y81549D01*
X117530Y81456D01*
X117530Y81456D01*
X124242D01*
Y80239D01*
X125558D01*
Y74822D01*
X125316Y74461D01*
X125197Y73858D01*
Y69252D01*
X125316Y68649D01*
X125658Y68138D01*
X126169Y67797D01*
X126772Y67677D01*
X127374Y67797D01*
X127885Y68138D01*
X128048Y68382D01*
X128645D01*
X128807Y68138D01*
X129318Y67797D01*
X129921Y67677D01*
X130524Y67797D01*
X131035Y68138D01*
X131198Y68382D01*
X131794D01*
X131957Y68138D01*
X132468Y67797D01*
X133071Y67677D01*
X133674Y67797D01*
X134185Y68138D01*
X134347Y68382D01*
X134944D01*
X135107Y68138D01*
X135618Y67797D01*
X136221Y67677D01*
X136823Y67797D01*
X137334Y68138D01*
X137497Y68382D01*
X138093D01*
X138256Y68138D01*
X138767Y67797D01*
X139370Y67677D01*
X139973Y67797D01*
X140484Y68138D01*
X140647Y68382D01*
X141243D01*
X141406Y68138D01*
X141917Y67797D01*
X142520Y67677D01*
X143122Y67797D01*
X143633Y68138D01*
X143796Y68382D01*
X144393D01*
X144555Y68138D01*
X145066Y67797D01*
X145669Y67677D01*
X146272Y67797D01*
X146783Y68138D01*
X146946Y68382D01*
X147542D01*
X147705Y68138D01*
X148216Y67797D01*
X148819Y67677D01*
X149422Y67797D01*
X149933Y68138D01*
X150274Y68649D01*
X150394Y69252D01*
Y73858D01*
X150274Y74461D01*
X149933Y74972D01*
X149422Y75314D01*
X148819Y75433D01*
X148216Y75314D01*
X147705Y74972D01*
X147118Y74962D01*
X146883Y75203D01*
Y80239D01*
X148198D01*
Y81456D01*
X151043D01*
Y80239D01*
X156101D01*
Y85101D01*
X151043D01*
Y83884D01*
X148198D01*
Y85101D01*
X143140D01*
Y80239D01*
X144455D01*
Y74822D01*
X144393Y74729D01*
X143796D01*
X143633Y74972D01*
X143122Y75314D01*
X142520Y75433D01*
X141917Y75314D01*
X141406Y74972D01*
X141243Y74729D01*
X140647D01*
X140484Y74972D01*
X139973Y75314D01*
X139370Y75433D01*
X138767Y75314D01*
X138256Y74972D01*
X137666Y74948D01*
X137424Y75198D01*
Y76684D01*
X137543Y76803D01*
X137784Y77385D01*
Y78015D01*
X137543Y78597D01*
X137097Y79043D01*
X136515Y79284D01*
X135885D01*
X135303Y79043D01*
X134857Y78597D01*
X134616Y78015D01*
Y77385D01*
X134857Y76803D01*
X134996Y76663D01*
Y75188D01*
X134496Y74985D01*
X134285Y75203D01*
Y75529D01*
X134285Y75529D01*
X134192Y75994D01*
X133929Y76388D01*
X131758Y78558D01*
X131365Y78821D01*
X130900Y78914D01*
X130900Y78914D01*
X130127D01*
X129997Y79043D01*
X129415Y79284D01*
X128785D01*
X128486Y79160D01*
X127986Y79479D01*
Y80239D01*
X129301D01*
Y85101D01*
X124242D01*
Y83884D01*
X118033D01*
X106058Y95858D01*
X105665Y96122D01*
X105200Y96214D01*
X105200Y96214D01*
X66253D01*
X66211Y96371D01*
X65743Y97181D01*
X65081Y97843D01*
X64271Y98311D01*
X63368Y98553D01*
X62432D01*
X61529Y98311D01*
X60719Y97843D01*
X60057Y97181D01*
X59589Y96371D01*
X59347Y95468D01*
Y94532D01*
X59589Y93629D01*
X60057Y92819D01*
X60719Y92157D01*
X61313Y91814D01*
X61179Y91314D01*
X60303D01*
X58214Y93403D01*
Y98597D01*
X61387Y101771D01*
X61529Y101689D01*
X62432Y101447D01*
X63368D01*
X64271Y101689D01*
X65081Y102157D01*
X65743Y102819D01*
X66211Y103629D01*
X66453Y104532D01*
Y105468D01*
X66211Y106371D01*
X65743Y107181D01*
X65081Y107843D01*
X64271Y108311D01*
X63368Y108553D01*
D02*
G37*
G36*
X153141Y113043D02*
X143280D01*
Y107906D01*
X146595D01*
Y102894D01*
X145412D01*
Y95906D01*
X151179D01*
Y97785D01*
X158414D01*
Y96832D01*
X164535D01*
Y101969D01*
X158414D01*
Y101015D01*
X151179D01*
Y102894D01*
X149826D01*
Y107906D01*
X153141D01*
Y113043D01*
D02*
G37*
G36*
X253937Y102995D02*
X252958Y102866D01*
X252046Y102488D01*
X251263Y101887D01*
X250662Y101104D01*
X250284Y100191D01*
X250155Y99213D01*
Y95669D01*
X250284Y94690D01*
X250662Y93778D01*
X251263Y92995D01*
X252046Y92394D01*
X252723Y92114D01*
Y88629D01*
X251408D01*
Y83768D01*
X256466D01*
Y88629D01*
X255151D01*
Y92114D01*
X255828Y92394D01*
X256611Y92995D01*
X257212Y93778D01*
X257590Y94690D01*
X257719Y95669D01*
Y99213D01*
X257590Y100191D01*
X257212Y101104D01*
X256611Y101887D01*
X255828Y102488D01*
X254916Y102866D01*
X253937Y102995D01*
D02*
G37*
G36*
X256466Y82566D02*
X251408D01*
Y81349D01*
X236781D01*
Y82566D01*
X231723D01*
Y77705D01*
X236781D01*
Y78922D01*
X251408D01*
Y77705D01*
X252723D01*
Y59862D01*
X251408D01*
Y55001D01*
X256466D01*
Y56218D01*
X259966D01*
X262186Y53997D01*
Y16703D01*
X257497Y12014D01*
X254400D01*
Y12739D01*
X250445D01*
Y12014D01*
X244005D01*
Y15101D01*
X238868D01*
Y14035D01*
X198882D01*
X186958Y25958D01*
X186565Y26221D01*
X186100Y26314D01*
X186100Y26314D01*
X165151D01*
X164686Y26221D01*
X164292Y25958D01*
X164292Y25958D01*
X160024Y21690D01*
X159780Y21830D01*
X158802Y22092D01*
X157789D01*
X156810Y21830D01*
X155932Y21324D01*
X155216Y20607D01*
X154709Y19730D01*
X154447Y18751D01*
Y17738D01*
X154709Y16759D01*
X155216Y15882D01*
X155932Y15165D01*
X156680Y14734D01*
Y10866D01*
X155904D01*
Y9952D01*
X150726D01*
Y10866D01*
X145864D01*
Y5807D01*
X150726D01*
Y6721D01*
X155904D01*
Y5807D01*
X160765D01*
Y10866D01*
X159910D01*
Y14734D01*
X160658Y15165D01*
X161374Y15882D01*
X161881Y16759D01*
X162143Y17738D01*
Y18751D01*
X161881Y19730D01*
X161740Y19973D01*
X165654Y23886D01*
X185597D01*
X197521Y11962D01*
X197521Y11962D01*
X197915Y11699D01*
X198379Y11607D01*
X238868D01*
Y8980D01*
X244005D01*
Y9586D01*
X250445D01*
Y4846D01*
X254400D01*
Y9083D01*
X254424Y9200D01*
X254776Y9586D01*
X258000D01*
X258000Y9586D01*
X258465Y9679D01*
X258858Y9942D01*
X264258Y15342D01*
X264258Y15342D01*
X264522Y15735D01*
X264614Y16200D01*
Y54500D01*
X264522Y54965D01*
X264258Y55358D01*
X264258Y55358D01*
X261327Y58290D01*
X260933Y58553D01*
X260469Y58645D01*
X260469Y58645D01*
X256466D01*
Y59862D01*
X255151D01*
Y77705D01*
X256466D01*
Y82566D01*
D02*
G37*
G36*
X69094Y73180D02*
Y73179D01*
X57432D01*
Y72341D01*
X49357D01*
X47937Y72154D01*
X46615Y71606D01*
X45479Y70734D01*
X41458Y66714D01*
X33647D01*
X32894Y67026D01*
X31729Y67257D01*
X30542D01*
X29377Y67026D01*
X28280Y66571D01*
X27293Y65912D01*
X26454Y65072D01*
X25794Y64085D01*
X25377Y63077D01*
X24878Y63007D01*
X24824Y63209D01*
X24149Y64378D01*
X23194Y65333D01*
X22025Y66008D01*
X20721Y66357D01*
X19371D01*
X18066Y66008D01*
X16897Y65333D01*
X15943Y64378D01*
X15267Y63209D01*
X14918Y61905D01*
Y60555D01*
X15085Y59933D01*
X5874Y50723D01*
X5463Y50186D01*
X5204Y49561D01*
X5116Y48891D01*
Y36591D01*
X3563D01*
Y30942D01*
X11850D01*
Y36591D01*
X10297D01*
Y47818D01*
X18748Y56269D01*
X19371Y56102D01*
X20721D01*
X22025Y56452D01*
X23194Y57127D01*
X24149Y58082D01*
X24824Y59251D01*
X24878Y59452D01*
X25377Y59382D01*
X25794Y58375D01*
X26454Y57388D01*
X27293Y56548D01*
X28280Y55888D01*
X29377Y55434D01*
X30542Y55202D01*
X31729D01*
X32894Y55434D01*
X33647Y55746D01*
X43730D01*
X45149Y55933D01*
X46472Y56481D01*
X47608Y57352D01*
X51628Y61373D01*
X57432D01*
Y60534D01*
X69094D01*
Y61631D01*
X72721D01*
Y61804D01*
X78095D01*
Y59901D01*
X82956D01*
Y64959D01*
X81739D01*
Y67949D01*
X82956D01*
Y73007D01*
X78095D01*
Y72564D01*
X77595Y72412D01*
X77481Y72581D01*
X76985Y72913D01*
X76400Y73029D01*
X69300D01*
X69281Y73026D01*
X69094Y73180D01*
D02*
G37*
G36*
X13026Y101029D02*
X8165D01*
Y95971D01*
X9635D01*
Y88652D01*
X9635Y88652D01*
X9727Y88187D01*
X9990Y87793D01*
X15406Y82377D01*
Y76775D01*
X14641Y76570D01*
X13471Y75895D01*
X12517Y74940D01*
X11842Y73771D01*
X11492Y72467D01*
Y71117D01*
X11842Y69812D01*
X12517Y68643D01*
X13471Y67689D01*
X14641Y67013D01*
X15945Y66664D01*
X17295D01*
X18599Y67013D01*
X19768Y67689D01*
X20723Y68643D01*
X21398Y69812D01*
X21747Y71117D01*
Y72467D01*
X21398Y73771D01*
X20723Y74940D01*
X19768Y75895D01*
X18599Y76570D01*
X17834Y76775D01*
Y82880D01*
X17834Y82880D01*
X17741Y83345D01*
X17478Y83739D01*
X12062Y89154D01*
Y95971D01*
X13026D01*
Y101029D01*
D02*
G37*
G36*
X89019Y64959D02*
X84158D01*
Y59901D01*
X85374D01*
Y56911D01*
X84158D01*
Y51853D01*
X89019D01*
Y56911D01*
X87802D01*
Y59901D01*
X89019D01*
Y61216D01*
X92503D01*
Y60649D01*
X98034D01*
Y64211D01*
X92503D01*
Y63644D01*
X89019D01*
Y64959D01*
D02*
G37*
G36*
X268047Y75812D02*
X262142D01*
X261214Y75690D01*
X260350Y75332D01*
X259608Y74762D01*
X259038Y74020D01*
X258680Y73156D01*
X258558Y72228D01*
Y63567D01*
X258680Y62639D01*
X259038Y61775D01*
X259608Y61033D01*
X260350Y60464D01*
X261214Y60106D01*
X262142Y59983D01*
X268047D01*
X268975Y60106D01*
X269839Y60464D01*
X270581Y61033D01*
X271151Y61775D01*
X271509Y62639D01*
X271631Y63567D01*
Y72228D01*
X271509Y73156D01*
X271151Y74020D01*
X270581Y74762D01*
X269839Y75332D01*
X268975Y75690D01*
X268047Y75812D01*
D02*
G37*
G36*
X226047D02*
X220142D01*
X219214Y75690D01*
X218350Y75332D01*
X217608Y74762D01*
X217038Y74020D01*
X216680Y73156D01*
X216558Y72228D01*
Y63567D01*
X216680Y62639D01*
X217038Y61775D01*
X217608Y61033D01*
X218350Y60464D01*
X219214Y60106D01*
X220142Y59983D01*
X226047D01*
X226975Y60106D01*
X227839Y60464D01*
X228581Y61033D01*
X229151Y61775D01*
X229509Y62639D01*
X229631Y63567D01*
Y72228D01*
X229509Y73156D01*
X229151Y74020D01*
X228581Y74762D01*
X227839Y75332D01*
X226975Y75690D01*
X226047Y75812D01*
D02*
G37*
G36*
X82956Y56911D02*
X78095D01*
Y55596D01*
X70847D01*
Y56858D01*
X65985D01*
Y51800D01*
X70847D01*
Y53168D01*
X78095D01*
Y51853D01*
X82956D01*
Y56911D01*
D02*
G37*
G36*
X148819Y42559D02*
X148216Y42439D01*
X147705Y42098D01*
X147542Y41855D01*
X146946D01*
X146783Y42098D01*
X146272Y42439D01*
X145669Y42559D01*
X145066Y42439D01*
X144555Y42098D01*
X144393Y41855D01*
X143796D01*
X143633Y42098D01*
X143122Y42439D01*
X142520Y42559D01*
X141917Y42439D01*
X141406Y42098D01*
X141243Y41855D01*
X140647D01*
X140484Y42098D01*
X139973Y42439D01*
X139370Y42559D01*
X138767Y42439D01*
X138256Y42098D01*
X138093Y41855D01*
X137497D01*
X137334Y42098D01*
X136823Y42439D01*
X136221Y42559D01*
X135618Y42439D01*
X135107Y42098D01*
X134944Y41855D01*
X134347D01*
X134185Y42098D01*
X133674Y42439D01*
X133071Y42559D01*
X132468Y42439D01*
X131957Y42098D01*
X131794Y41855D01*
X131198D01*
X131035Y42098D01*
X130524Y42439D01*
X129921Y42559D01*
X129318Y42439D01*
X128807Y42098D01*
X128645Y41855D01*
X128048D01*
X127885Y42098D01*
X127374Y42439D01*
X126772Y42559D01*
X126169Y42439D01*
X125658Y42098D01*
X125316Y41587D01*
X125197Y40984D01*
Y36378D01*
X125316Y35775D01*
X125558Y35414D01*
Y32474D01*
X118997Y25914D01*
X113166D01*
X113166Y25914D01*
X112701Y25822D01*
X112307Y25558D01*
X108897Y22149D01*
X108750Y22188D01*
X107737D01*
X106758Y21926D01*
X105881Y21419D01*
X105165Y20703D01*
X104658Y19825D01*
X104396Y18847D01*
Y17833D01*
X104658Y16855D01*
X105165Y15977D01*
X105881Y15261D01*
X106758Y14754D01*
X107737Y14492D01*
X108750D01*
X109729Y14754D01*
X110607Y15261D01*
X111323Y15977D01*
X111830Y16855D01*
X112092Y17833D01*
Y18847D01*
X111830Y19825D01*
X111323Y20703D01*
X111104Y20922D01*
X113668Y23486D01*
X119500D01*
X119500Y23486D01*
X119965Y23578D01*
X120358Y23842D01*
X127630Y31113D01*
X127630Y31113D01*
X127893Y31507D01*
X127986Y31972D01*
X127986Y31972D01*
Y35059D01*
X128486Y35262D01*
X128707Y35034D01*
Y30520D01*
X119972Y21785D01*
X119729Y21926D01*
X118750Y22188D01*
X117737D01*
X116759Y21926D01*
X115881Y21419D01*
X115165Y20703D01*
X114658Y19825D01*
X114396Y18847D01*
Y17833D01*
X114658Y16855D01*
X115165Y15977D01*
X115881Y15261D01*
X116759Y14754D01*
X117737Y14492D01*
X118750D01*
X119729Y14754D01*
X120607Y15261D01*
X121323Y15977D01*
X121830Y16855D01*
X122092Y17833D01*
Y18847D01*
X121830Y19825D01*
X121689Y20069D01*
X130780Y29159D01*
X130780Y29159D01*
X131043Y29553D01*
X131135Y30018D01*
Y35059D01*
X131635Y35262D01*
X131857Y35034D01*
Y23469D01*
X131857Y23469D01*
X131949Y23004D01*
X132212Y22610D01*
X134850Y19973D01*
X134709Y19730D01*
X134447Y18751D01*
Y17738D01*
X134709Y16759D01*
X135216Y15882D01*
X135932Y15165D01*
X136810Y14659D01*
X137788Y14396D01*
X138802D01*
X139780Y14659D01*
X140658Y15165D01*
X141374Y15882D01*
X141881Y16759D01*
X142143Y17738D01*
Y18751D01*
X141881Y19730D01*
X141374Y20607D01*
X140658Y21324D01*
X139780Y21830D01*
X138802Y22092D01*
X137788D01*
X136810Y21830D01*
X136566Y21690D01*
X134285Y23971D01*
Y29319D01*
X134785Y29418D01*
X134957Y29003D01*
X135403Y28557D01*
X135985Y28316D01*
X136615D01*
X137197Y28557D01*
X137255Y28614D01*
X137755Y28407D01*
Y27169D01*
X137878Y26551D01*
X138228Y26027D01*
X144670Y19585D01*
X144447Y18751D01*
Y17738D01*
X144709Y16759D01*
X145216Y15882D01*
X145932Y15165D01*
X146810Y14659D01*
X147789Y14396D01*
X148802D01*
X149780Y14659D01*
X150658Y15165D01*
X151374Y15882D01*
X151881Y16759D01*
X152143Y17738D01*
Y18751D01*
X151881Y19730D01*
X151374Y20607D01*
X150658Y21324D01*
X149780Y21830D01*
X148802Y22092D01*
X147789D01*
X146955Y21869D01*
X140985Y27838D01*
Y34993D01*
X141184Y35121D01*
X141485Y35211D01*
X141917Y34923D01*
X142520Y34803D01*
X143122Y34923D01*
X143633Y35264D01*
X143796Y35508D01*
X144393D01*
X144555Y35264D01*
X145066Y34923D01*
X145669Y34803D01*
X146272Y34923D01*
X146783Y35264D01*
X146946Y35508D01*
X147542D01*
X147705Y35264D01*
X148216Y34923D01*
X148819Y34803D01*
X149422Y34923D01*
X149933Y35264D01*
X150274Y35775D01*
X150394Y36378D01*
Y40984D01*
X150274Y41587D01*
X149933Y42098D01*
X149422Y42439D01*
X148819Y42559D01*
D02*
G37*
G36*
X53677Y44599D02*
X48619D01*
Y43784D01*
X45669D01*
X45512Y43753D01*
X45353D01*
X45206Y43692D01*
X45050Y43661D01*
X44918Y43572D01*
X44771Y43512D01*
X44659Y43399D01*
X44526Y43311D01*
X44438Y43178D01*
X44325Y43066D01*
X44265Y42919D01*
X44176Y42787D01*
X44145Y42631D01*
X44084Y42484D01*
Y42325D01*
X44053Y42169D01*
X44084Y42012D01*
Y41853D01*
X44145Y41706D01*
X44176Y41550D01*
X44265Y41418D01*
X44325Y41271D01*
X44438Y41159D01*
X44526Y41026D01*
X44659Y40938D01*
X44771Y40825D01*
X44918Y40764D01*
X45050Y40676D01*
X45206Y40645D01*
X45353Y40584D01*
X45512D01*
X45669Y40553D01*
X48619D01*
Y39738D01*
X53677D01*
Y40553D01*
X56771D01*
Y39738D01*
X61829D01*
Y40553D01*
X67256D01*
X67627Y40305D01*
X68398Y40152D01*
X72729D01*
X73501Y40305D01*
X74155Y40742D01*
X74592Y41397D01*
X74746Y42169D01*
X74592Y42940D01*
X74155Y43595D01*
X73501Y44032D01*
X72729Y44185D01*
X68398D01*
X67627Y44032D01*
X67256Y43784D01*
X61829D01*
Y44599D01*
X56771D01*
Y43784D01*
X53677D01*
Y44599D01*
D02*
G37*
G36*
X111129Y40368D02*
X106071D01*
Y39151D01*
X103229D01*
Y40368D01*
X98171D01*
Y38382D01*
X94769D01*
X94628Y38594D01*
X93973Y39032D01*
X93202Y39185D01*
X88871D01*
X88099Y39032D01*
X87445Y38594D01*
X87008Y37940D01*
X86854Y37168D01*
X87008Y36397D01*
X87445Y35743D01*
X88099Y35305D01*
X88871Y35152D01*
X93202D01*
X93973Y35305D01*
X94628Y35743D01*
X94769Y35955D01*
X98171D01*
Y35506D01*
X103229D01*
Y36723D01*
X106071D01*
Y35506D01*
X111129D01*
Y40368D01*
D02*
G37*
G36*
X72729Y39185D02*
X68398D01*
X67627Y39032D01*
X66972Y38594D01*
X66535Y37940D01*
X66382Y37168D01*
X66535Y36397D01*
X66972Y35743D01*
X67627Y35305D01*
X68398Y35152D01*
X69350D01*
Y34185D01*
X68398D01*
X67627Y34032D01*
X66972Y33595D01*
X66535Y32940D01*
X66382Y32168D01*
X66535Y31397D01*
X66972Y30742D01*
X67627Y30305D01*
X68398Y30152D01*
X72729D01*
X73501Y30305D01*
X74155Y30742D01*
X74592Y31397D01*
X74746Y32168D01*
X74592Y32940D01*
X74155Y33595D01*
X73501Y34032D01*
X72729Y34185D01*
X71778D01*
Y35152D01*
X72729D01*
X73501Y35305D01*
X74155Y35743D01*
X74592Y36397D01*
X74746Y37168D01*
X74592Y37940D01*
X74155Y38594D01*
X73501Y39032D01*
X72729Y39185D01*
D02*
G37*
G36*
X254400Y30849D02*
X250445D01*
Y26114D01*
X244005D01*
Y26716D01*
X238868D01*
Y24869D01*
X235998D01*
Y25633D01*
X229876D01*
Y21677D01*
X235998D01*
Y22441D01*
X238868D01*
Y20594D01*
X244005D01*
Y23686D01*
X250445D01*
Y22956D01*
X254400D01*
Y30849D01*
D02*
G37*
G36*
X61829Y38536D02*
X56771D01*
Y33675D01*
X58086D01*
Y29599D01*
X56771D01*
Y24738D01*
X61829D01*
Y25955D01*
X66831D01*
X66972Y25743D01*
X67627Y25305D01*
X68398Y25152D01*
X72729D01*
X73501Y25305D01*
X74155Y25743D01*
X74592Y26397D01*
X74746Y27169D01*
X74592Y27940D01*
X74155Y28594D01*
X73501Y29032D01*
X72729Y29185D01*
X68398D01*
X67627Y29032D01*
X66972Y28594D01*
X66831Y28382D01*
X61829D01*
Y29599D01*
X60514D01*
Y33675D01*
X61829D01*
Y38536D01*
D02*
G37*
G36*
X148315Y51984D02*
X147685D01*
X147103Y51743D01*
X146657Y51297D01*
X146416Y50715D01*
Y50085D01*
X146657Y49503D01*
X147103Y49057D01*
X147685Y48816D01*
X148315D01*
X148897Y49057D01*
X149023Y49183D01*
X150960D01*
X151059Y49117D01*
Y48521D01*
X150815Y48358D01*
X150474Y47847D01*
X150354Y47244D01*
X150474Y46641D01*
X150815Y46130D01*
X151059Y45968D01*
Y45371D01*
X150815Y45208D01*
X150474Y44697D01*
X150354Y44094D01*
X150474Y43492D01*
X150815Y42981D01*
X151326Y42639D01*
X151929Y42519D01*
X156535D01*
X157138Y42639D01*
X157500Y42881D01*
X199803D01*
X205729Y36954D01*
Y29117D01*
X204414D01*
Y24256D01*
X209472D01*
Y29117D01*
X208157D01*
Y37457D01*
X208157Y37457D01*
X208065Y37922D01*
X207801Y38315D01*
X207801Y38315D01*
X201164Y44953D01*
X200770Y45216D01*
X200306Y45308D01*
X200306Y45308D01*
X157500D01*
X157406Y45371D01*
Y45968D01*
X157649Y46130D01*
X157991Y46641D01*
X158111Y47244D01*
X157991Y47847D01*
X157649Y48358D01*
X157406Y48521D01*
Y49117D01*
X157649Y49280D01*
X157991Y49791D01*
X158111Y50394D01*
X157991Y50997D01*
X157649Y51508D01*
X157138Y51849D01*
X156535Y51969D01*
X151929D01*
X151326Y51849D01*
X150970Y51611D01*
X149030D01*
X148897Y51743D01*
X148315Y51984D01*
D02*
G37*
G36*
X217692Y23054D02*
X212634D01*
Y21837D01*
X209472D01*
Y23054D01*
X204414D01*
Y18193D01*
X209472D01*
Y19410D01*
X212634D01*
Y18193D01*
X217692D01*
Y18701D01*
X220034D01*
Y17937D01*
X226155D01*
Y21893D01*
X220034D01*
Y21129D01*
X217692D01*
Y23054D01*
D02*
G37*
G36*
X93202Y34185D02*
X88871D01*
X88099Y34032D01*
X87445Y33595D01*
X87008Y32940D01*
X86854Y32168D01*
X87008Y31397D01*
X87445Y30742D01*
X88099Y30305D01*
X88871Y30152D01*
X93202D01*
X93973Y30305D01*
X94628Y30742D01*
X94663Y30796D01*
X95217Y30835D01*
X96400Y29651D01*
X96400Y29651D01*
X96794Y29388D01*
X97259Y29296D01*
X97259Y29296D01*
X98271D01*
Y27981D01*
X99379D01*
Y23564D01*
X96397Y20582D01*
X93262D01*
Y21898D01*
X88599D01*
X88401Y21898D01*
X88099Y22273D01*
Y22798D01*
X81438D01*
Y21901D01*
X79962D01*
Y22798D01*
X79133D01*
Y23569D01*
X79084Y23813D01*
Y24063D01*
X78989Y24293D01*
X78940Y24538D01*
X78802Y24745D01*
X78706Y24976D01*
X78530Y25152D01*
X78391Y25359D01*
X78184Y25498D01*
X78007Y25675D01*
X77777Y25770D01*
X77569Y25909D01*
X77325Y25957D01*
X77094Y26053D01*
X76845D01*
X76600Y26101D01*
X76355Y26053D01*
X76106D01*
X75875Y25957D01*
X75631Y25909D01*
X75423Y25770D01*
X75193Y25675D01*
X75016Y25498D01*
X74809Y25359D01*
X74670Y25152D01*
X74494Y24976D01*
X74398Y24745D01*
X74260Y24538D01*
X74211Y24293D01*
X74116Y24063D01*
Y23813D01*
X74067Y23569D01*
Y22798D01*
X73301D01*
Y15939D01*
X79962D01*
Y16836D01*
X81438D01*
Y15939D01*
X88099D01*
Y16464D01*
X88401Y16839D01*
X88599Y16839D01*
X89618D01*
Y13837D01*
X87771D01*
Y8700D01*
X93892D01*
Y13837D01*
X92045D01*
Y16839D01*
X93262D01*
Y18155D01*
X96900D01*
X96900Y18155D01*
X97364Y18247D01*
X97758Y18510D01*
X101451Y22203D01*
X101714Y22597D01*
X101807Y23061D01*
X101807Y23061D01*
Y27981D01*
X103132D01*
Y33039D01*
X98271D01*
Y31724D01*
X97761D01*
X96458Y33027D01*
X96065Y33290D01*
X95600Y33382D01*
X95600Y33382D01*
X94769D01*
X94628Y33595D01*
X93973Y34032D01*
X93202Y34185D01*
D02*
G37*
G36*
X128750Y22188D02*
X127737D01*
X126759Y21926D01*
X125881Y21419D01*
X125165Y20703D01*
X124658Y19825D01*
X124396Y18847D01*
Y17833D01*
X124658Y16855D01*
X125165Y15977D01*
X125881Y15261D01*
X126759Y14754D01*
X127737Y14492D01*
X128750D01*
X129729Y14754D01*
X130606Y15261D01*
X131323Y15977D01*
X131830Y16855D01*
X132092Y17833D01*
Y18847D01*
X131830Y19825D01*
X131323Y20703D01*
X130606Y21419D01*
X129729Y21926D01*
X128750Y22188D01*
D02*
G37*
G36*
X144663Y10866D02*
X139801D01*
Y9550D01*
X130524D01*
Y10866D01*
X125662D01*
Y5807D01*
X130524D01*
Y7123D01*
X139801D01*
Y5807D01*
X144663D01*
Y10866D01*
D02*
G37*
G36*
X268179Y12739D02*
X264224D01*
Y4846D01*
X268179D01*
Y12739D01*
D02*
G37*
G36*
X11850Y24858D02*
X3563D01*
Y19209D01*
X5116D01*
Y12389D01*
X3760D01*
Y4496D01*
X11653D01*
Y12389D01*
X10297D01*
Y19209D01*
X11850D01*
Y24858D01*
D02*
G37*
%LPD*%
G36*
X216400Y107400D02*
X203700D01*
X192500Y96200D01*
Y90100D01*
Y83200D01*
X191500Y82200D01*
X176700D01*
X175700Y83200D01*
Y90300D01*
X169800Y96200D01*
Y101200D01*
X169700Y101300D01*
X171200Y102800D01*
X185951D01*
X196692Y113800D01*
X216400D01*
Y107400D01*
D02*
G37*
D20*
X45669Y42169D02*
X70564D01*
X90347Y125000D02*
X95818Y119529D01*
X62900Y125000D02*
X90347D01*
X97471Y119529D02*
X100346D01*
X76600Y19400D02*
Y23569D01*
X158295Y8376D02*
Y18244D01*
X97500Y79531D02*
Y85500D01*
X200966Y110233D02*
X200967Y110231D01*
X212400D01*
X148295Y99400D02*
X161474D01*
X148295Y99400D02*
X148295Y99400D01*
X148210Y99485D02*
X148295Y99400D01*
X148210Y99485D02*
Y110474D01*
X97817Y70454D02*
Y79214D01*
X97541Y79490D02*
X97817Y79214D01*
X97794Y70478D02*
X97817Y70454D01*
X86588Y70478D02*
X97794D01*
X76631Y19368D02*
X84768D01*
X148295Y8337D02*
X158335D01*
X154232Y56693D02*
X163636D01*
X139370Y27169D02*
Y38681D01*
Y27169D02*
X148295Y18244D01*
D21*
X165151Y25100D02*
X186100D01*
X198379Y12821D02*
X240656D01*
X186100Y25100D02*
X198379Y12821D01*
X165151Y25100D02*
X165151Y25100D01*
X158295Y18244D02*
X165151Y25100D01*
X253020Y9390D02*
X253210Y9200D01*
X251635Y10775D02*
X253020Y9390D01*
X240656Y12821D02*
X241436Y12041D01*
X90832Y19368D02*
X90832Y19368D01*
Y11269D02*
Y19368D01*
X224100Y92300D02*
Y105300D01*
X206300Y74500D02*
X224100Y92300D01*
X172100Y74500D02*
X206300D01*
X169377Y77223D02*
X172100Y74500D01*
X169377Y77223D02*
Y82670D01*
X100700Y44000D02*
X104400Y47700D01*
X112800D01*
X116405Y44094D01*
X121358D01*
X113166Y24700D02*
X119500D01*
X108244Y19778D02*
X113166Y24700D01*
X100593Y23061D02*
Y30401D01*
X90832Y19368D02*
X96900D01*
X100593Y23061D01*
Y30401D02*
X100701Y30510D01*
X164397Y55932D02*
X164466Y56000D01*
X170200D01*
X163636Y56693D02*
X164397Y55932D01*
X24930Y100730D02*
X42443D01*
X16658Y98500D02*
X22700D01*
X24930Y100730D01*
X95818Y119529D02*
X97471D01*
X148003Y50397D02*
X154229D01*
X154232Y50394D01*
X148000Y50400D02*
X148003Y50397D01*
X111200Y58700D02*
X113600D01*
X115607Y56693D02*
X121358D01*
X113600Y58700D02*
X115607Y56693D01*
X112557Y53543D02*
X121358D01*
X106292Y54950D02*
X111150D01*
X112557Y53543D01*
X10848Y88652D02*
X16620Y82880D01*
Y71791D02*
Y82880D01*
X10848Y88652D02*
Y97781D01*
X76600Y19400D02*
X76631Y19368D01*
X48507Y114492D02*
Y122296D01*
Y110807D02*
Y114492D01*
X253210Y10800D02*
X258000D01*
X263400Y16200D02*
Y54500D01*
X258000Y10800D02*
X263400Y16200D01*
X253020Y9390D02*
Y10610D01*
X253210Y10800D01*
X252422Y8793D02*
X253020Y9390D01*
X251635Y10775D02*
Y10800D01*
X260469Y57432D02*
X263400Y54500D01*
X253937Y57432D02*
X260469D01*
X210157Y59842D02*
X218632Y51368D01*
X154232Y59842D02*
X210157D01*
X218632Y51368D02*
X253937D01*
Y57432D02*
Y80136D01*
X203192Y62992D02*
X223200Y83000D01*
X226500D01*
X99057Y66443D02*
X100700Y64800D01*
Y59600D02*
X101610Y58690D01*
X100700Y59600D02*
Y64800D01*
X101610Y58690D02*
X106292D01*
X99057Y66443D02*
Y69214D01*
X97817Y70454D02*
X99057Y69214D01*
X234252Y80136D02*
X253937D01*
X41557Y88740D02*
X41656D01*
X42443Y89528D02*
Y100730D01*
X41656Y88740D02*
X42443Y89528D01*
Y104744D02*
X48507Y110807D01*
X42443Y100730D02*
Y104744D01*
X112700Y68800D02*
X115358Y66142D01*
X104200Y90100D02*
X112700Y81600D01*
Y68800D02*
Y81600D01*
X117530Y82670D02*
X126772D01*
X62900Y95000D02*
X105200D01*
X117530Y82670D01*
X59800Y90100D02*
X104200D01*
X57000Y92900D02*
X59800Y90100D01*
X97500Y79531D02*
X97541Y79490D01*
X172900Y99212D02*
X173088Y99400D01*
X136200Y77700D02*
X136210Y77690D01*
X129100Y77700D02*
X130900D01*
X133071Y75529D01*
Y71555D02*
Y75529D01*
X136210Y71565D02*
Y77690D01*
X37800Y122100D02*
X42247D01*
X31743Y122067D02*
X37767D01*
X31710Y122034D02*
X31743Y122067D01*
X37767D02*
X37800Y122100D01*
X42247D02*
X42443Y122296D01*
X136210Y71565D02*
X136221Y71555D01*
X31710Y117034D02*
X40001D01*
X222299Y86199D02*
X234252D01*
X154232Y66142D02*
X202242D01*
X222299Y86199D01*
X154232Y62992D02*
X203192D01*
X12980Y122034D02*
X16658Y125713D01*
Y130103D01*
X29000Y135200D02*
X43505D01*
X16658Y130103D02*
X23903D01*
X29000Y135200D01*
X43505D02*
X48507Y130199D01*
Y130100D02*
Y130199D01*
Y130100D02*
X57800D01*
X62900Y125000D01*
X48507Y122296D02*
Y130100D01*
X42443Y114492D02*
Y114591D01*
X40001Y117034D02*
X42443Y114591D01*
X62900Y85000D02*
X62900Y85000D01*
X51400Y85000D02*
X62900D01*
X57000Y92900D02*
Y99100D01*
X62900Y105000D01*
X115358Y66142D02*
X121358D01*
X68469Y54382D02*
X80525D01*
X68416Y54329D02*
X68469Y54382D01*
X86588Y62430D02*
X86588Y62430D01*
X95268D01*
X86588Y54382D02*
X86588Y54382D01*
X86588Y54382D02*
Y62430D01*
X80525D02*
Y70478D01*
X79937Y63018D02*
X80525Y62430D01*
X70743Y63018D02*
X79937D01*
X70564Y32168D02*
Y37168D01*
X59300Y27169D02*
Y36105D01*
Y27169D02*
X59300Y27169D01*
X70564D01*
X91036Y32168D02*
X95600D01*
X97259Y30510D02*
X100701D01*
X95600Y32168D02*
X97259Y30510D01*
X100700Y37937D02*
X108600D01*
X96100Y42169D02*
X97691Y43760D01*
X100361D01*
X91036Y42169D02*
X96100D01*
X91036Y37168D02*
X99932D01*
X100700Y37937D01*
X158295Y8376D02*
X158335Y8337D01*
X128093D02*
X142232D01*
X242677Y10800D02*
X251635D01*
X241436Y23655D02*
X242681Y24900D01*
X251635D01*
X252422Y25687D01*
Y26903D01*
X232937Y23655D02*
X241436D01*
X241436Y23655D01*
X206943Y20623D02*
X206943Y20624D01*
X215163D01*
X215872Y19915D02*
X223095D01*
X215163Y20624D02*
X215872Y19915D01*
X206943Y26686D02*
Y37457D01*
X200306Y44094D02*
X206943Y37457D01*
X154232Y44094D02*
X200306D01*
X253937Y51368D02*
X253937Y51368D01*
Y40354D02*
Y51368D01*
X234252Y86199D02*
X234252Y86199D01*
Y97441D01*
X253937Y86199D02*
X253937Y86199D01*
Y97441D01*
X161474Y88733D02*
X169377D01*
X153572D02*
X161474D01*
X169377D02*
X169377Y88733D01*
X145669Y82670D02*
X153572D01*
X153572Y82670D01*
X145669Y71555D02*
Y82670D01*
X145669Y82670D02*
X145669Y82670D01*
X126772Y82670D02*
X126772Y82670D01*
Y71555D02*
Y82670D01*
X133071Y23469D02*
Y38681D01*
Y23469D02*
X138295Y18244D01*
X136260Y29940D02*
Y38641D01*
Y29940D02*
X136300Y29900D01*
X136221Y38681D02*
X136260Y38641D01*
X126772Y31972D02*
Y38681D01*
X119500Y24700D02*
X126772Y31972D01*
X118244Y18340D02*
X129921Y30018D01*
X118244Y18340D02*
Y18340D01*
X108244Y18340D02*
Y19778D01*
X128244Y18340D02*
Y18827D01*
X129921Y30018D02*
Y38681D01*
D22*
X224100Y105300D02*
Y119138D01*
X7706Y8443D02*
Y22034D01*
Y33766D02*
Y48891D01*
X20046Y61230D01*
D23*
X62900Y125000D02*
D03*
Y115000D02*
D03*
Y105000D02*
D03*
Y95000D02*
D03*
D24*
Y85000D02*
D03*
D25*
X31136Y61230D02*
D03*
X34561Y71791D02*
D03*
X25591Y78367D02*
D03*
X16620Y71791D02*
D03*
X20046Y61230D02*
D03*
X253937Y40354D02*
D03*
X234252D02*
D03*
D26*
X128244Y18340D02*
D03*
X118244D02*
D03*
X138295Y18244D02*
D03*
X108244Y18340D02*
D03*
X148295Y18244D02*
D03*
X158295D02*
D03*
D27*
X168295Y18254D02*
D03*
D28*
X253937Y97441D02*
D03*
X234252D02*
D03*
X244094D02*
D03*
D29*
X7706Y8443D02*
D03*
D30*
X223095Y67898D02*
D03*
X265094D02*
D03*
D31*
X224100Y105300D02*
D03*
D32*
X45669Y42169D02*
D03*
X174300Y94600D02*
D03*
X170200Y56000D02*
D03*
X148000Y50400D02*
D03*
X111200Y58700D02*
D03*
X76600Y23569D02*
D03*
X226500Y83000D02*
D03*
X97500Y85500D02*
D03*
X74800Y70000D02*
D03*
Y66493D02*
D03*
X136200Y77700D02*
D03*
X129100D02*
D03*
X37800Y122100D02*
D03*
Y117000D02*
D03*
X136300Y29900D02*
D03*
D33*
X224491Y119529D02*
D03*
X245515D02*
D03*
X184211Y85702D02*
D03*
X205234D02*
D03*
X100346Y119529D02*
D03*
X79322D02*
D03*
D34*
X7706Y33766D02*
D03*
Y22034D02*
D03*
D35*
X148819Y71555D02*
D03*
X145669D02*
D03*
X142520D02*
D03*
X139370D02*
D03*
X136221D02*
D03*
X133071D02*
D03*
X129921D02*
D03*
X126772D02*
D03*
Y38681D02*
D03*
X129921D02*
D03*
X133071D02*
D03*
X136221D02*
D03*
X139370D02*
D03*
X142520D02*
D03*
X145669D02*
D03*
X148819D02*
D03*
D36*
X121358Y66142D02*
D03*
Y62992D02*
D03*
Y59842D02*
D03*
Y56693D02*
D03*
Y53543D02*
D03*
Y50394D02*
D03*
Y47244D02*
D03*
Y44094D02*
D03*
X154232D02*
D03*
Y47244D02*
D03*
Y50394D02*
D03*
Y53543D02*
D03*
Y56693D02*
D03*
Y59842D02*
D03*
Y62992D02*
D03*
Y66142D02*
D03*
D37*
X141287Y99400D02*
D03*
X148295D02*
D03*
X104549Y79490D02*
D03*
X97541D02*
D03*
D38*
X161474Y99400D02*
D03*
X173088D02*
D03*
X90832Y11269D02*
D03*
X79217D02*
D03*
D39*
X148210Y128584D02*
D03*
Y119529D02*
D03*
Y110474D02*
D03*
D40*
X124588Y119529D02*
D03*
D41*
X173423Y119529D02*
D03*
D42*
X200982Y128826D02*
D03*
X200966Y110233D02*
D03*
D43*
X62353Y54329D02*
D03*
X68416D02*
D03*
X10595Y98500D02*
D03*
X16658D02*
D03*
X106764Y30510D02*
D03*
X100701D02*
D03*
X103880Y70454D02*
D03*
X97817D02*
D03*
X86588Y62430D02*
D03*
X80525D02*
D03*
X86588Y70478D02*
D03*
X80525D02*
D03*
X48507Y100730D02*
D03*
X42443D02*
D03*
X42443Y130100D02*
D03*
X48507D02*
D03*
X80525Y54382D02*
D03*
X86588D02*
D03*
X16658Y130103D02*
D03*
X42443Y122296D02*
D03*
Y114492D02*
D03*
X158335Y8337D02*
D03*
X148295D02*
D03*
X90832Y19368D02*
D03*
X128093Y8337D02*
D03*
X142232D02*
D03*
X76631Y19368D02*
D03*
X84768D02*
D03*
X70569D02*
D03*
X10595Y130103D02*
D03*
X164398Y8337D02*
D03*
X122030D02*
D03*
X48507Y122296D02*
D03*
Y114492D02*
D03*
D44*
X108600Y44000D02*
D03*
Y37937D02*
D03*
X100700Y44000D02*
D03*
Y37937D02*
D03*
X126772Y82670D02*
D03*
Y88733D02*
D03*
X212400Y104168D02*
D03*
Y110231D02*
D03*
X51148Y42169D02*
D03*
X164397Y55932D02*
D03*
X59300Y42169D02*
D03*
X253937Y80136D02*
D03*
Y57432D02*
D03*
X234252Y80136D02*
D03*
X113700Y119532D02*
D03*
X212400Y127826D02*
D03*
X169377Y82670D02*
D03*
X145669Y82670D02*
D03*
X153572Y82670D02*
D03*
X206943Y26686D02*
D03*
X253937Y86199D02*
D03*
X234252D02*
D03*
X253937Y51368D02*
D03*
X169377Y88733D02*
D03*
X153572Y88733D02*
D03*
X161474D02*
D03*
X206943Y20623D02*
D03*
X215163Y20624D02*
D03*
X59300Y36105D02*
D03*
Y27169D02*
D03*
X212400Y121763D02*
D03*
X113700Y113469D02*
D03*
X145669Y88733D02*
D03*
X51148Y36105D02*
D03*
X164397Y49869D02*
D03*
X161474Y82670D02*
D03*
X59300Y21105D02*
D03*
X215163Y26686D02*
D03*
D45*
X95268Y62430D02*
D03*
Y54950D02*
D03*
X106292D02*
D03*
Y58690D02*
D03*
Y62430D02*
D03*
D46*
X63263Y66857D02*
D03*
D47*
X70743Y68136D02*
D03*
D48*
Y63018D02*
D03*
D49*
X51400Y92480D02*
D03*
Y85000D02*
D03*
X41557Y88740D02*
D03*
X232937Y23655D02*
D03*
X223095Y19915D02*
D03*
Y27395D02*
D03*
D50*
X241436Y12041D02*
D03*
Y23655D02*
D03*
D51*
X252422Y8793D02*
D03*
Y26903D02*
D03*
X266201Y8793D02*
D03*
D52*
X70564Y42169D02*
D03*
X11237Y122034D02*
D03*
X91036Y32168D02*
D03*
Y37168D02*
D03*
X70564Y27169D02*
D03*
Y32168D02*
D03*
Y37168D02*
D03*
X91036Y27169D02*
D03*
X31710Y107034D02*
D03*
X11237D02*
D03*
Y112034D02*
D03*
Y117034D02*
D03*
X31710Y122034D02*
D03*
Y117034D02*
D03*
X91036Y42169D02*
D03*
X31710Y112034D02*
D03*
D53*
X264494Y125111D02*
D03*
Y111176D02*
D03*
D54*
X100346Y119529D02*
X124588D01*
X148210D01*
D55*
X49357Y66857D02*
X63263D01*
X43730Y61230D02*
X49357Y66857D01*
X31136Y61230D02*
X43730D01*
D56*
X72850Y68150D02*
D03*
M02*
